<svg width="1461" height="217" viewBox="0 0 1461 217" fill="none" xmlns="http://www.w3.org/2000/svg">
<path d="M500.9 0.600006H706.6C715.4 0.600006 722.5 7.70001 722.5 16.5V63.8C722.5 72.6 715.4 79.7 706.6 79.7H500.9C492.1 79.7 485 72.6 485 63.8V16.5C485 7.80001 492.1 0.600006 500.9 0.600006Z" stroke="#007BFF" stroke-miterlimit="10"/>
<path d="M589.3 43.5C588.7 46.7 586.3 48.8 582.5 48.8C577.5 48.8 574.7 45.1 574.7 40.3C574.7 35.4 577.5 31.8 582.5 31.8C586.3 31.8 588.6 33.9 589.2 36.9H586.5C586 35.3 584.7 34.2 582.5 34.2C578.9 34.2 577.4 37 577.4 40.2C577.4 43.4 578.9 46.4 582.5 46.4C584.8 46.4 586.1 45.3 586.6 43.5H589.3V43.5Z" fill="#082E51"/>
<path d="M605 48.4V38.7C605 35.8 603.6 34.3 600.9 34.3C598 34.3 596.1 36.8 596.1 39.7V48.4H593.4V25.1H596.1V34H596.8C597.7 32.8 599.4 31.9 601.6 31.9C605.5 31.9 607.7 34.3 607.7 38.2V48.4H605Z" fill="#082E51"/>
<path d="M623 46.7H622.3C621.3 47.9 619.6 48.8 617.3 48.8C613.6 48.8 611.5 46.3 611.5 43.6C611.5 41 613.2 38.3 617.7 38.3H622.9V37.7C622.9 35.7 621.8 34.3 619 34.3C616.6 34.3 615.4 35.2 615.3 36.6H612.6C612.8 33.6 615.4 31.9 619 31.9C623.1 31.9 625.7 33.9 625.7 37.5V48.5H623V46.7ZM622.9 41.8V40.3H618C615.3 40.3 614.1 41.5 614.1 43.4C614.1 45.2 615.4 46.4 617.8 46.4C620.6 46.4 622.9 44.4 622.9 41.8Z" fill="#082E51"/>
<path d="M639.7 34.8H638.4C635.2 34.8 633.2 36.8 633.2 40.3V48.4H630.5V32.2H633.1V34.1H633.8C634.6 33.1 636.1 32.2 638.5 32.2H639.7V34.8V34.8Z" fill="#082E51"/>
<path d="M14 137.3H179.9C187 137.3 192.7 144.4 192.7 153.2V200.5C192.7 209.3 187 216.4 179.9 216.4H14C6.90001 216.4 1.2 209.3 1.2 200.5V153.2C1.1 144.4 6.90001 137.3 14 137.3Z" stroke="#007BFF" stroke-miterlimit="10"/>
<path d="M81.4 178.9C81.4 183.7 78.8 187.4 74.3 187.4C71.7 187.4 70.2 186.4 69.3 185.3H68.6V187H66V163.7H68.7V172.6H69.4C70.3 171.4 71.8 170.5 74.3 170.5C78.8 170.5 81.4 174.1 81.4 178.9ZM78.7 178.9C78.7 175.3 77 172.8 73.7 172.8C70.1 172.8 68.6 175.7 68.6 178.9C68.6 182.1 70.1 185 73.7 185C77 185.1 78.7 182.5 78.7 178.9Z" fill="#082E51"/>
<path d="M87.3 193.4L90.6 185.5L83.7 170.9H86.6L91.5 181.5H92.3L96.8 170.9H99.6L89.9 193.4H87.3Z" fill="#082E51"/>
<path d="M110.7 170.9V173.3H106.6V182.2C106.6 183.8 107.3 184.7 109.5 184.7H110.7V187.1H109.5C106 187.1 104 186 104 182.6V173.4H101.2V171H104V166H106.7V170.9H110.7Z" fill="#082E51"/>
<path d="M128.9 178.9H116.6C116.7 182.7 118.4 185 121.8 185C124.1 185 125.4 184 125.9 182.5H128.7C128.2 185.3 125.9 187.4 121.9 187.4C116.9 187.4 114.1 183.7 114.1 178.8C114.1 173.8 117 170.5 121.9 170.5C126.7 170.5 129 174.1 129.1 178V178.9H128.9ZM116.8 176.6H126.1C125.9 174.6 124.4 172.8 121.7 172.8C118.7 172.8 117.1 174.6 116.8 176.6Z" fill="#082E51"/>
<path d="M267.4 137.3H433.3C440.4 137.3 446.1 144.4 446.1 153.2V200.5C446.1 209.3 440.4 216.4 433.3 216.4H267.4C260.3 216.4 254.6 209.3 254.6 200.5V153.2C254.6 144.4 260.3 137.3 267.4 137.3Z" stroke="#007BFF" stroke-miterlimit="10"/>
<path d="M318.5 177.2L320.3 177.5C323.1 178 324.9 179.4 324.9 182.4C324.9 185.1 322.6 187.5 318.3 187.5C313.7 187.5 311.5 185.5 311.1 182.4H313.9C314.2 184.2 315.8 185.1 318.2 185.1C320.6 185.1 322.2 184.2 322.2 182.5C322.2 181.1 321.3 180.3 319.3 180L315.7 179.4C313.4 179 311.8 177.8 311.8 175.3C311.8 172.6 313.8 170.5 318.2 170.5C322 170.5 324.2 172.3 324.6 175.1H321.9C321.7 173.6 320.1 172.9 318.1 172.9C316 172.9 314.6 173.7 314.6 175C314.6 176.2 315.4 176.7 317 177L318.5 177.2Z" fill="#082E51"/>
<path d="M340.6 187V177.3C340.6 174.4 339.2 172.9 336.5 172.9C333.6 172.9 331.7 175.4 331.7 178.3V187H329V163.7H331.7V172.6H332.4C333.3 171.4 335 170.5 337.2 170.5C341.1 170.5 343.3 172.9 343.3 176.8V187H340.6Z" fill="#082E51"/>
<path d="M363.2 178.9C363.2 183.7 360.3 187.4 355.3 187.4C350.2 187.4 347.4 183.7 347.4 178.9C347.4 174.1 350.3 170.4 355.3 170.4C360.3 170.5 363.2 174.2 363.2 178.9ZM360.5 178.9C360.5 175.7 358.8 172.8 355.3 172.8C351.7 172.8 350.1 175.7 350.1 178.9C350.1 182.1 351.7 185 355.3 185C358.8 185.1 360.5 182.1 360.5 178.9Z" fill="#082E51"/>
<path d="M376.6 173.4H375.3C372.1 173.4 370.1 175.4 370.1 178.9V187H367.4V170.9H370V172.8H370.7C371.5 171.8 373 170.9 375.4 170.9H376.6V173.4Z" fill="#082E51"/>
<path d="M389 170.9V173.3H385V182.2C385 183.8 385.7 184.7 387.9 184.7H389.1V187.1H387.9C384.4 187.1 382.4 186 382.4 182.6V173.4H379.6V171H382.4V166H385.1V170.9H389Z" fill="#082E51"/>
<path d="M774.4 137.3H940.3C947.4 137.3 953.1 144.4 953.1 153.2V200.5C953.1 209.3 947.4 216.4 940.3 216.4H774.4C767.3 216.4 761.6 209.3 761.6 200.5V153.2C761.5 144.4 767.2 137.3 774.4 137.3Z" stroke="#007BFF" stroke-miterlimit="10"/>
<path d="M829.6 163.7V187H826.9V163.7H829.6Z" fill="#082E51"/>
<path d="M849.7 178.9C849.7 183.7 846.8 187.4 841.8 187.4C836.7 187.4 833.9 183.7 833.9 178.9C833.9 174.1 836.8 170.4 841.8 170.4C846.8 170.5 849.7 174.2 849.7 178.9ZM847 178.9C847 175.7 845.3 172.8 841.8 172.8C838.2 172.8 836.6 175.7 836.6 178.9C836.6 182.1 838.2 185 841.8 185C845.3 185.1 847 182.1 847 178.9Z" fill="#082E51"/>
<path d="M865.6 187V177.3C865.6 174.3 864.2 172.9 861.5 172.9C858.6 172.9 856.7 175.4 856.7 178.3V187H854V170.9H856.6V172.6H857.3C858.2 171.4 860 170.5 862.2 170.5C866.2 170.5 868.3 172.9 868.3 176.8V187H865.6Z" fill="#082E51"/>
<path d="M887.7 170.9V186.2C887.7 190.7 884.9 193.6 880.2 193.6C876.1 193.6 873.4 191.9 872.9 188.7H875.6C876.1 190.6 877.7 191.3 880.2 191.3C883.5 191.3 885 189.3 885 186.1V184.8H884.3C883.4 185.9 881.9 186.9 879.5 186.9C875.1 186.9 872.3 183.4 872.3 178.7C872.3 174 875 170.4 879.5 170.4C882 170.4 883.6 171.4 884.4 172.5H885.1V170.8L887.7 170.9ZM885.1 178.7C885.1 175.6 883.5 172.8 880 172.8C876.8 172.8 875 175.1 875 178.7C875 182.2 876.8 184.6 880 184.6C883.4 184.6 885.1 181.8 885.1 178.7Z" fill="#082E51"/>
<path d="M1027.8 137.3H1193.7C1200.8 137.3 1206.5 144.4 1206.5 153.2V200.5C1206.5 209.3 1200.8 216.4 1193.7 216.4H1027.8C1020.7 216.4 1015 209.3 1015 200.5V153.2C1014.9 144.4 1020.7 137.3 1027.8 137.3Z" stroke="#007BFF" stroke-miterlimit="10"/>
<path d="M1082.8 173.2V187H1080.1V173.2H1077.3V170.8H1080.1V169C1080.1 165.3 1082.1 163.7 1085.6 163.7H1087.2V166.1H1085.7C1083.6 166.1 1082.9 167.4 1082.9 169.1V170.9H1087.3V173.3L1082.8 173.2ZM1093.2 163.7V187H1090.5V163.7H1093.2Z" fill="#082E51"/>
<path d="M1113.3 178.9C1113.3 183.7 1110.4 187.4 1105.4 187.4C1100.3 187.4 1097.5 183.7 1097.5 178.9C1097.5 174.1 1100.4 170.4 1105.4 170.4C1110.4 170.5 1113.3 174.2 1113.3 178.9ZM1110.6 178.9C1110.6 175.7 1108.9 172.8 1105.4 172.8C1101.8 172.8 1100.2 175.7 1100.2 178.9C1100.2 182.1 1101.8 185 1105.4 185C1108.9 185.1 1110.6 182.1 1110.6 178.9Z" fill="#082E51"/>
<path d="M1127.8 185.3H1127.1C1126.1 186.5 1124.4 187.4 1122.1 187.4C1118.4 187.4 1116.3 184.9 1116.3 182.2C1116.3 179.6 1118 176.9 1122.5 176.9H1127.7V176.3C1127.7 174.3 1126.6 172.9 1123.8 172.9C1121.4 172.9 1120.2 173.8 1120.1 175.2H1117.4C1117.6 172.2 1120.2 170.5 1123.8 170.5C1127.9 170.5 1130.5 172.5 1130.5 176.1V187.1H1127.9L1127.8 185.3ZM1127.8 180.5V179H1123C1120.3 179 1119.1 180.2 1119.1 182.1C1119.1 183.9 1120.4 185.1 1122.8 185.1C1125.5 185.1 1127.8 183 1127.8 180.5Z" fill="#082E51"/>
<path d="M1143.2 170.9V173.3H1139.1V182.2C1139.1 183.8 1139.8 184.7 1142 184.7H1143.2V187.1H1142C1138.5 187.1 1136.5 186 1136.5 182.6V173.4H1133.7V171H1136.5V166H1139.2V170.9H1143.2Z" fill="#082E51"/>
<path d="M1281.3 137.3H1447.2C1454.3 137.3 1460 144.4 1460 153.2V200.5C1460 209.3 1454.3 216.4 1447.2 216.4H1281.3C1274.2 216.4 1268.5 209.3 1268.5 200.5V153.2C1268.4 144.4 1274.1 137.3 1281.3 137.3Z" stroke="#007BFF" stroke-miterlimit="10"/>
<path d="M1329.3 163.7V187H1326.7V185.3H1326C1325.1 186.4 1323.5 187.4 1321 187.4C1316.6 187.4 1313.9 183.7 1313.9 178.9C1313.9 174 1316.5 170.4 1321 170.4C1323.6 170.4 1325 171.4 1325.9 172.5H1326.6V163.6L1329.3 163.7ZM1326.6 178.9C1326.6 175.7 1325.1 172.8 1321.5 172.8C1318.3 172.8 1316.5 175.3 1316.5 178.9C1316.5 182.5 1318.2 185 1321.5 185C1325.1 185.1 1326.6 182.1 1326.6 178.9Z" fill="#082E51"/>
<path d="M1349.4 178.9C1349.4 183.7 1346.5 187.4 1341.5 187.4C1336.4 187.4 1333.6 183.7 1333.6 178.9C1333.6 174.1 1336.5 170.4 1341.5 170.4C1346.5 170.5 1349.4 174.2 1349.4 178.9ZM1346.7 178.9C1346.7 175.7 1345 172.8 1341.5 172.8C1337.9 172.8 1336.3 175.7 1336.3 178.9C1336.3 182.1 1337.9 185 1341.5 185C1345 185.1 1346.7 182.1 1346.7 178.9Z" fill="#082E51"/>
<path d="M1356.1 170.9V180.6C1356.1 183.6 1357.5 185 1360.2 185C1363 185 1365 182.5 1365 179.6V170.9H1367.7V187H1365.1V185.3H1364.4C1363.5 186.5 1361.7 187.4 1359.5 187.4C1355.5 187.4 1353.4 185 1353.4 181.1V170.9H1356.1Z" fill="#082E51"/>
<path d="M1388.4 178.9C1388.4 183.7 1385.8 187.4 1381.3 187.4C1378.7 187.4 1377.2 186.4 1376.3 185.3H1375.6V187H1373V163.7H1375.7V172.6H1376.4C1377.3 171.4 1378.8 170.5 1381.3 170.5C1385.8 170.5 1388.4 174.1 1388.4 178.9ZM1385.7 178.9C1385.7 175.3 1384 172.8 1380.7 172.8C1377.1 172.8 1375.6 175.7 1375.6 178.9C1375.6 182.1 1377.1 185 1380.7 185C1384 185.1 1385.7 182.5 1385.7 178.9Z" fill="#082E51"/>
<path d="M1395.4 163.7V187H1392.7V163.7H1395.4Z" fill="#082E51"/>
<path d="M1414.6 178.9H1402.3C1402.4 182.7 1404.1 185 1407.5 185C1409.8 185 1411.1 184 1411.6 182.5H1414.4C1413.9 185.3 1411.6 187.4 1407.6 187.4C1402.6 187.4 1399.8 183.7 1399.8 178.8C1399.8 173.8 1402.7 170.5 1407.6 170.5C1412.4 170.5 1414.7 174.1 1414.8 178V178.9H1414.6ZM1402.5 176.6H1411.8C1411.6 174.6 1410.1 172.8 1407.4 172.8C1404.4 172.8 1402.8 174.6 1402.5 176.6Z" fill="#082E51"/>
<path d="M1254.6 169.6L1260.1 175.1C1261.2 176.2 1261.2 178 1260.1 179.2L1254.6 184.7" stroke="#007BFF" stroke-width="1.8974" stroke-miterlimit="10" stroke-linecap="round"/>
<path d="M1258 177.1H1213.7" stroke="#007BFF" stroke-width="1.8974" stroke-miterlimit="10" stroke-linecap="round"/>
<path d="M1001.2 169.6L1006.7 175.1C1007.8 176.2 1007.8 178 1006.7 179.2L1001.2 184.7" stroke="#007BFF" stroke-width="1.8974" stroke-miterlimit="10" stroke-linecap="round"/>
<path d="M1004.6 177.1H960.4" stroke="#007BFF" stroke-width="1.8974" stroke-miterlimit="10" stroke-linecap="round"/>
<path d="M747.9 169.6L753.4 175.1C754.5 176.2 754.5 178 753.4 179.2L747.9 184.7" stroke="#007BFF" stroke-width="1.8974" stroke-miterlimit="10" stroke-linecap="round"/>
<path d="M751.3 177.1H707" stroke="#007BFF" stroke-width="1.8974" stroke-miterlimit="10" stroke-linecap="round"/>
<path d="M494.5 169.6L500 175.1C501.1 176.2 501.1 178 500 179.2L494.5 184.7" stroke="#007BFF" stroke-width="1.8974" stroke-miterlimit="10" stroke-linecap="round"/>
<path d="M498 177.1H453.7" stroke="#007BFF" stroke-width="1.8974" stroke-miterlimit="10" stroke-linecap="round"/>
<path d="M611.3 125.1L605.8 130.6C604.7 131.7 602.9 131.7 601.7 130.6L596.2 125.1" stroke="#007BFF" stroke-width="1.8974" stroke-miterlimit="10" stroke-linecap="round"/>
<path d="M603.7 128.5V84.3" stroke="#007BFF" stroke-width="1.8974" stroke-miterlimit="10" stroke-linecap="round"/>
<path d="M241.2 169.6L246.7 175.1C247.8 176.2 247.8 178 246.7 179.2L241.2 184.7" stroke="#007BFF" stroke-width="1.8974" stroke-miterlimit="10" stroke-linecap="round"/>
<path d="M244.6 177.1H200.3" stroke="#007BFF" stroke-width="1.8974" stroke-miterlimit="10" stroke-linecap="round"/>
<path d="M520.9 137.3H686.8C693.9 137.3 699.6 144.4 699.6 153.2V200.5C699.6 209.3 693.9 216.4 686.8 216.4H520.9C513.8 216.4 508.1 209.3 508.1 200.5V153.2C508 144.4 513.8 137.3 520.9 137.3Z" stroke="#007BFF" stroke-miterlimit="10"/>
<path d="M586.6 166.7V163.8H589.5V166.7H586.6ZM589.4 187H586.7V170.9H589.4V187Z" fill="#082E51"/>
<path d="M606.3 187V177.3C606.3 174.3 604.9 172.9 602.2 172.9C599.3 172.9 597.4 175.4 597.4 178.3V187H594.7V170.9H597.3V172.6H598C598.9 171.4 600.7 170.5 602.9 170.5C606.9 170.5 609 172.9 609 176.8V187H606.3Z" fill="#082E51"/>
<path d="M621.9 170.9V173.3H617.8V182.2C617.8 183.8 618.5 184.7 620.7 184.7H621.9V187.1H620.7C617.2 187.1 615.2 186 615.2 182.6V173.4H612.4V171H615.2V166H617.9V170.9H621.9Z" fill="#082E51"/>
</svg>
