<svg width="1474" height="174" viewBox="0 0 1474 174" fill="none" xmlns="http://www.w3.org/2000/svg">
<g clip-path="url(#clip0_821:56)">
<rect width="1474" height="174" fill="white"/>
<path d="M199.225 56.9844H167.355" stroke="#274867" stroke-miterlimit="10"/>
<path d="M155.078 56.9833L171.445 48.791L167.353 56.9833L171.445 65.1756L155.078 56.9833Z" fill="#274867" stroke="#274867" stroke-miterlimit="10"/>
<path d="M138.261 10.1699H26.029C18.281 10.1699 12 16.4576 12 24.2139V89.7523C12 97.5086 18.281 103.796 26.029 103.796H138.261C146.009 103.796 152.29 97.5086 152.29 89.7523V24.2139C152.29 16.4576 146.009 10.1699 138.261 10.1699Z" fill="#007BFF"/>
<path d="M68.828 48.098C62.692 48.098 59.234 53.584 59.234 59.486C59.234 64.27 62.432 67.338 66.904 67.338C73.04 67.338 76.498 61.852 76.498 55.924C76.498 51.166 73.3 48.098 68.828 48.098ZM67.034 65.206C63.472 65.206 61.6 62.71 61.6 59.382C61.6 55.3 63.784 50.23 68.698 50.23C72.26 50.23 74.132 52.726 74.132 56.028C74.132 60.11 71.948 65.206 67.034 65.206ZM85.2313 58.888C85.2313 53.74 87.1553 50.1 89.2353 47.266H87.1033C84.9713 49.97 83.1513 53.766 83.1513 58.888C83.1513 64.062 85.0233 67.988 87.2853 70.666H89.4173C87.2853 67.832 85.2313 64.114 85.2313 58.888ZM90.2999 67H100.882V64.972H96.9039V48.8H94.0699L90.2739 51.374V53.766L94.0959 51.192H94.6159V64.972H90.2999V67ZM105.403 58.888C105.403 64.114 103.349 67.832 101.217 70.666H103.349C105.611 67.988 107.483 64.062 107.483 58.888C107.483 53.766 105.663 49.97 103.531 47.266H101.399C103.479 50.1 105.403 53.74 105.403 58.888Z" fill="white"/>
<path d="M386.275 56.9844H354.406" stroke="#274867" stroke-miterlimit="10"/>
<path d="M342.133 56.9833L358.5 48.791L354.408 56.9833L358.5 65.1756L342.133 56.9833Z" fill="#274867" stroke="#274867" stroke-miterlimit="10"/>
<path d="M325.261 10.1699H213.029C205.281 10.1699 199 16.4576 199 24.2139V89.7523C199 97.5086 205.281 103.796 213.029 103.796H325.261C333.009 103.796 339.29 97.5086 339.29 89.7523V24.2139C339.29 16.4576 333.009 10.1699 325.261 10.1699Z" fill="#48AFFF"/>
<path d="M233.033 48.098C226.897 48.098 223.439 53.584 223.439 59.486C223.439 64.27 226.637 67.338 231.109 67.338C237.245 67.338 240.703 61.852 240.703 55.924C240.703 51.166 237.505 48.098 233.033 48.098ZM231.239 65.206C227.677 65.206 225.805 62.71 225.805 59.382C225.805 55.3 227.989 50.23 232.903 50.23C236.465 50.23 238.337 52.726 238.337 56.028C238.337 60.11 236.153 65.206 231.239 65.206ZM249.437 58.888C249.437 53.74 251.361 50.1 253.441 47.266H251.309C249.177 49.97 247.357 53.766 247.357 58.888C247.357 64.062 249.229 67.988 251.491 70.666H253.623C251.491 67.832 249.437 64.114 249.437 58.888ZM255.103 48.098V67H257.313V48.098H255.103ZM266.44 53.558C262.332 53.558 259.992 56.574 259.992 60.448C259.992 64.322 262.332 67.338 266.44 67.338C270.522 67.338 272.888 64.322 272.888 60.448C272.888 56.574 270.522 53.558 266.44 53.558ZM266.44 65.414C263.528 65.414 262.202 63.022 262.202 60.448C262.202 57.874 263.528 55.482 266.44 55.482C269.326 55.482 270.678 57.874 270.678 60.448C270.678 63.022 269.326 65.414 266.44 65.414ZM285.151 53.896V55.3H284.579C283.877 54.39 282.629 53.558 280.575 53.558C276.961 53.558 274.751 56.418 274.751 60.266C274.751 64.088 276.961 66.948 280.575 66.948C282.551 66.948 283.799 66.116 284.501 65.206H285.073V66.246C285.073 68.872 283.851 70.51 281.147 70.51C279.171 70.51 277.819 69.938 277.429 68.378H275.245C275.635 70.978 277.819 72.382 281.173 72.382C284.995 72.382 287.283 70.016 287.283 66.35V53.896H285.151ZM280.991 65.024C278.417 65.024 276.961 63.1 276.961 60.266C276.961 57.38 278.417 55.482 280.991 55.482C283.799 55.482 285.125 57.744 285.125 60.266C285.125 62.762 283.799 65.024 280.991 65.024ZM308.748 67L310.1 59.252C310.178 58.732 310.256 58.082 310.256 57.588C310.256 55.118 308.748 53.558 306.018 53.558C304.12 53.558 302.82 54.312 302.014 55.274H301.442L301.702 53.896H299.544L297.23 67H299.44L300.688 59.954C301.104 57.432 302.846 55.534 305.238 55.534C307.188 55.534 308.02 56.392 308.02 57.978C308.02 58.472 307.942 58.992 307.864 59.434L306.538 67H308.748ZM314.198 58.888C314.198 64.114 312.144 67.832 310.012 70.666H312.144C314.406 67.988 316.278 64.062 316.278 58.888C316.278 53.766 314.458 49.97 312.326 47.266H310.194C312.274 50.1 314.198 53.74 314.198 58.888Z" fill="white"/>
<path d="M573.33 56.9844H541.461" stroke="#274867" stroke-miterlimit="10"/>
<path d="M529.184 56.9833L545.551 48.791L541.459 56.9833L545.551 65.1756L529.184 56.9833Z" fill="#274867" stroke="#274867" stroke-miterlimit="10"/>
<path d="M400.029 12H512.261C518.902 12 524.29 17.3903 524.29 24.044V89.5824C524.29 96.2361 518.902 101.626 512.261 101.626H400.029C393.388 101.626 388 96.2361 388 89.5824V24.044C388 17.3903 393.388 12 400.029 12Z" stroke="#007BFF" stroke-width="4"/>
<path d="M760.385 56.9844H728.516" stroke="#274867" stroke-miterlimit="10"/>
<path d="M716.238 56.9833L732.605 48.791L728.514 56.9833L732.605 65.1756L716.238 56.9833Z" fill="#274867" stroke="#274867" stroke-miterlimit="10"/>
<path d="M587.029 12.1699H699.261C705.902 12.1699 711.29 17.5602 711.29 24.2139V89.7523C711.29 96.4061 705.902 101.796 699.261 101.796H587.029C580.388 101.796 575 96.4061 575 89.7523V24.2139C575 17.5602 580.388 12.1699 587.029 12.1699Z" stroke="#48AFFF" stroke-width="4"/>
<path d="M628.597 48.098C622.461 48.098 619.003 53.584 619.003 59.486C619.003 64.27 622.201 67.338 626.673 67.338C632.809 67.338 636.267 61.852 636.267 55.924C636.267 51.166 633.069 48.098 628.597 48.098ZM626.803 65.206C623.241 65.206 621.369 62.71 621.369 59.382C621.369 55.3 623.553 50.23 628.467 50.23C632.029 50.23 633.901 52.726 633.901 56.028C633.901 60.11 631.717 65.206 626.803 65.206ZM645 58.888C645 53.74 646.924 50.1 649.004 47.266H646.872C644.74 49.97 642.92 53.766 642.92 58.888C642.92 64.062 644.792 67.988 647.054 70.666H649.186C647.054 67.832 645 64.114 645 58.888ZM662.184 67L663.536 59.252C663.614 58.732 663.692 58.082 663.692 57.588C663.692 55.118 662.184 53.558 659.454 53.558C657.556 53.558 656.256 54.312 655.45 55.274H654.878L655.138 53.896H652.98L650.666 67H652.876L654.124 59.954C654.54 57.432 656.282 55.534 658.674 55.534C660.624 55.534 661.456 56.392 661.456 57.978C661.456 58.472 661.378 58.992 661.3 59.434L659.974 67H662.184ZM667.635 58.888C667.635 64.114 665.581 67.832 663.449 70.666H665.581C667.843 67.988 669.715 64.062 669.715 58.888C669.715 53.766 667.895 49.97 665.763 47.266H663.631C665.711 50.1 667.635 53.74 667.635 58.888Z" fill="#274867"/>
<path d="M432.594 45.832C426.458 45.832 423 51.318 423 57.22C423 62.004 426.198 65.072 430.67 65.072C436.806 65.072 440.264 59.586 440.264 53.658C440.264 48.9 437.066 45.832 432.594 45.832ZM430.8 62.94C427.238 62.94 425.366 60.444 425.366 57.116C425.366 53.034 427.55 47.964 432.464 47.964C436.026 47.964 437.898 50.46 437.898 53.762C437.898 57.844 435.714 62.94 430.8 62.94Z" fill="#274867"/>
<path d="M448.997 56.622C448.997 51.474 450.921 47.834 453.001 45H450.869C448.737 47.704 446.917 51.5 446.917 56.622C446.917 61.796 448.789 65.722 451.051 68.4H453.183C451.051 65.566 448.997 61.848 448.997 56.622Z" fill="#274867"/>
<path d="M453.468 51.63L457.498 64.734H460.462L465.844 48.328H482.109V46.534H464.414L459.266 62.342H458.72L455.496 51.63H453.468Z" fill="#274867"/>
<path d="M482.109 64.734L483.461 56.986C483.539 56.466 483.617 55.816 483.617 55.322C483.617 52.852 482.109 51.292 479.379 51.292C477.481 51.292 476.181 52.046 475.375 53.008H474.803L475.063 51.63H472.905L470.591 64.734H472.801L474.049 57.688C474.465 55.166 476.207 53.268 478.599 53.268C480.549 53.268 481.381 54.126 481.381 55.712C481.381 56.206 481.303 56.726 481.225 57.168L479.899 64.734H482.109Z" fill="#274867"/>
<path d="M487.559 56.622C487.559 61.848 485.505 65.566 483.373 68.4H485.505C487.767 65.722 489.639 61.796 489.639 56.622C489.639 51.5 487.819 47.704 485.687 45H483.555C485.635 47.834 487.559 51.474 487.559 56.622Z" fill="#274867"/>
<path d="M947.436 56.9844H915.566" stroke="#274867" stroke-miterlimit="10"/>
<path d="M903.293 56.9833L919.66 48.791L915.568 56.9833L919.66 65.1756L903.293 56.9833Z" fill="#274867" stroke="#274867" stroke-miterlimit="10"/>
<path d="M774.029 12.1699H886.261C892.902 12.1699 898.29 17.5602 898.29 24.2139V89.7523C898.29 96.4061 892.902 101.796 886.261 101.796H774.029C767.388 101.796 762 96.4061 762 89.7523V24.2139C762 17.5602 767.388 12.1699 774.029 12.1699Z" stroke="#FF9000" stroke-width="4"/>
<path d="M783.913 48.098C777.777 48.098 774.319 53.584 774.319 59.486C774.319 64.27 777.517 67.338 781.989 67.338C788.125 67.338 791.583 61.852 791.583 55.924C791.583 51.166 788.385 48.098 783.913 48.098ZM782.119 65.206C778.557 65.206 776.685 62.71 776.685 59.382C776.685 55.3 778.869 50.23 783.783 50.23C787.345 50.23 789.217 52.726 789.217 56.028C789.217 60.11 787.033 65.206 782.119 65.206ZM800.316 58.888C800.316 53.74 802.24 50.1 804.32 47.266H802.188C800.056 49.97 798.236 53.766 798.236 58.888C798.236 64.062 800.108 67.988 802.37 70.666H804.502C802.37 67.832 800.316 64.114 800.316 58.888ZM817.501 67L818.853 59.252C818.931 58.732 819.009 58.082 819.009 57.588C819.009 55.118 817.501 53.558 814.771 53.558C812.873 53.558 811.573 54.312 810.767 55.274H810.195L810.455 53.896H808.297L805.983 67H808.193L809.441 59.954C809.857 57.432 811.599 55.534 813.991 55.534C815.941 55.534 816.773 56.392 816.773 57.978C816.773 58.472 816.695 58.992 816.617 59.434L815.291 67H817.501ZM827.224 48.098V67H829.434V48.098H827.224ZM838.56 53.558C834.452 53.558 832.112 56.574 832.112 60.448C832.112 64.322 834.452 67.338 838.56 67.338C842.642 67.338 845.008 64.322 845.008 60.448C845.008 56.574 842.642 53.558 838.56 53.558ZM838.56 65.414C835.648 65.414 834.322 63.022 834.322 60.448C834.322 57.874 835.648 55.482 838.56 55.482C841.446 55.482 842.798 57.874 842.798 60.448C842.798 63.022 841.446 65.414 838.56 65.414ZM857.271 53.896V55.3H856.699C855.997 54.39 854.749 53.558 852.695 53.558C849.081 53.558 846.871 56.418 846.871 60.266C846.871 64.088 849.081 66.948 852.695 66.948C854.671 66.948 855.919 66.116 856.621 65.206H857.193V66.246C857.193 68.872 855.971 70.51 853.267 70.51C851.291 70.51 849.939 69.938 849.549 68.378H847.365C847.755 70.978 849.939 72.382 853.293 72.382C857.115 72.382 859.403 70.016 859.403 66.35V53.896H857.271ZM853.111 65.024C850.537 65.024 849.081 63.1 849.081 60.266C849.081 57.38 850.537 55.482 853.111 55.482C855.919 55.482 857.245 57.744 857.245 60.266C857.245 62.762 855.919 65.024 853.111 65.024ZM880.868 67L882.22 59.252C882.298 58.732 882.376 58.082 882.376 57.588C882.376 55.118 880.868 53.558 878.138 53.558C876.24 53.558 874.94 54.312 874.134 55.274H873.562L873.822 53.896H871.664L869.35 67H871.56L872.808 59.954C873.224 57.432 874.966 55.534 877.358 55.534C879.308 55.534 880.14 56.392 880.14 57.978C880.14 58.472 880.062 58.992 879.984 59.434L878.658 67H880.868ZM886.318 58.888C886.318 64.114 884.264 67.832 882.132 70.666H884.264C886.526 67.988 888.398 64.062 888.398 58.888C888.398 53.766 886.578 49.97 884.446 47.266H882.314C884.394 50.1 886.318 53.74 886.318 58.888Z" fill="#274867"/>
<path d="M1134.49 56.9844H1102.62" stroke="#274867" stroke-miterlimit="10"/>
<path d="M1090.34 56.9833L1106.71 48.791L1102.62 56.9833L1106.71 65.1756L1090.34 56.9833Z" fill="#274867" stroke="#274867" stroke-miterlimit="10"/>
<path d="M961.029 12.1699H1073.26C1079.9 12.1699 1085.29 17.5602 1085.29 24.2139V89.7523C1085.29 96.4061 1079.9 101.796 1073.26 101.796H961.029C954.388 101.796 949 96.4061 949 89.7523V24.2139C949 17.5602 954.388 12.1699 961.029 12.1699Z" stroke="#F96A02" stroke-width="4"/>
<path d="M997.607 48.098C991.471 48.098 988.013 53.584 988.013 59.486C988.013 64.27 991.211 67.338 995.683 67.338C1001.82 67.338 1005.28 61.852 1005.28 55.924C1005.28 51.166 1002.08 48.098 997.607 48.098ZM995.813 65.206C992.251 65.206 990.379 62.71 990.379 59.382C990.379 55.3 992.563 50.23 997.477 50.23C1001.04 50.23 1002.91 52.726 1002.91 56.028C1002.91 60.11 1000.73 65.206 995.813 65.206ZM1014.01 58.888C1014.01 53.74 1015.93 50.1 1018.01 47.266H1015.88C1013.75 49.97 1011.93 53.766 1011.93 58.888C1011.93 64.062 1013.8 67.988 1016.06 70.666H1018.2C1016.06 67.832 1014.01 64.114 1014.01 58.888ZM1031.97 67L1033.33 59.252C1033.4 58.732 1033.48 58.082 1033.48 57.588C1033.48 55.118 1031.97 53.558 1029.24 53.558C1027.35 53.558 1026.05 54.312 1025.24 55.274H1024.67L1024.93 53.896H1022.77L1020.46 67H1022.67L1023.91 59.954C1024.33 57.432 1026.07 55.534 1028.46 55.534C1030.41 55.534 1031.25 56.392 1031.25 57.978C1031.25 58.472 1031.17 58.992 1031.09 59.434L1029.76 67H1031.97ZM1037.5 56.834V56.444L1039.95 54.65C1041.09 53.792 1041.95 52.804 1041.95 51.348C1041.95 49.294 1040.52 48.254 1038.54 48.254C1036.54 48.254 1034.98 49.268 1034.9 51.582H1036.59C1036.62 50.36 1037.29 49.788 1038.52 49.788C1039.58 49.788 1040.26 50.412 1040.26 51.426C1040.26 52.674 1038.98 53.558 1038.02 54.26C1037.5 54.65 1036.72 55.144 1036.07 55.638L1034.9 56.47V58.342H1042.29V56.834H1037.5ZM1047.62 58.888C1047.62 64.114 1045.57 67.832 1043.44 70.666H1045.57C1047.83 67.988 1049.7 64.062 1049.7 58.888C1049.7 53.766 1047.88 49.97 1045.75 47.266H1043.62C1045.7 50.1 1047.62 53.74 1047.62 58.888Z" fill="#274867"/>
<path d="M1321.54 56.9844H1289.67" stroke="#274867" stroke-miterlimit="10"/>
<path d="M1277.4 56.9833L1293.77 48.791L1289.67 56.9833L1293.77 65.1756L1277.4 56.9833Z" fill="#274867" stroke="#274867" stroke-miterlimit="10"/>
<path d="M1260.26 10H1148.03C1140.28 10 1134 16.2877 1134 24.044V89.5824C1134 97.3387 1140.28 103.626 1148.03 103.626H1260.26C1268.01 103.626 1274.29 97.3387 1274.29 89.5824V24.044C1274.29 16.2877 1268.01 10 1260.26 10Z" fill="#FF9000"/>
<path d="M1183.86 48.098C1177.72 48.098 1174.26 53.584 1174.26 59.486C1174.26 64.27 1177.46 67.338 1181.93 67.338C1188.07 67.338 1191.53 61.852 1191.53 55.924C1191.53 51.166 1188.33 48.098 1183.86 48.098ZM1182.06 65.206C1178.5 65.206 1176.63 62.71 1176.63 59.382C1176.63 55.3 1178.81 50.23 1183.73 50.23C1187.29 50.23 1189.16 52.726 1189.16 56.028C1189.16 60.11 1186.98 65.206 1182.06 65.206ZM1200.26 58.888C1200.26 53.74 1202.18 50.1 1204.26 47.266H1202.13C1200 49.97 1198.18 53.766 1198.18 58.888C1198.18 64.062 1200.05 67.988 1202.31 70.666H1204.45C1202.31 67.832 1200.26 64.114 1200.26 58.888ZM1207.46 53.818C1207.69 51.53 1209.12 50.464 1211.18 50.464C1213.39 50.464 1214.84 51.686 1214.84 53.974C1214.84 56.132 1213.26 57.614 1212.01 58.732C1211.05 59.616 1209.33 61.072 1207.88 62.242L1205.2 64.426V67H1217.7V64.972H1208.53V64.4L1213.1 60.552C1215.26 58.758 1217.13 56.444 1217.13 53.974C1217.13 50.334 1214.64 48.436 1211.23 48.436C1208.01 48.436 1205.38 50.178 1205.17 53.818H1207.46ZM1235.38 58.888C1235.38 64.114 1233.32 67.832 1231.19 70.666H1233.32C1235.58 67.988 1237.46 64.062 1237.46 58.888C1237.46 53.766 1235.64 49.97 1233.5 47.266H1231.37C1233.45 50.1 1235.38 53.74 1235.38 58.888Z" fill="white"/>
<path d="M1227.61 58L1228.44 53.232C1228.49 52.912 1228.54 52.512 1228.54 52.208C1228.54 50.688 1227.61 49.728 1225.93 49.728C1224.76 49.728 1223.96 50.192 1223.47 50.784H1223.11L1223.27 49.936H1221.95L1220.52 58H1221.88L1222.65 53.664C1222.91 52.112 1223.98 50.944 1225.45 50.944C1226.65 50.944 1227.16 51.472 1227.16 52.448C1227.16 52.752 1227.11 53.072 1227.07 53.344L1226.25 58H1227.61Z" fill="white"/>
<path d="M1448.26 10.1699H1336.03C1328.28 10.1699 1322 16.4576 1322 24.2139V89.7523C1322 97.5086 1328.28 103.796 1336.03 103.796H1448.26C1456.01 103.796 1462.29 97.5086 1462.29 89.7523V24.2139C1462.29 16.4576 1456.01 10.1699 1448.26 10.1699Z" fill="#F96A02"/>
<path d="M1372.9 48.098C1366.76 48.098 1363.3 53.584 1363.3 59.486C1363.3 64.27 1366.5 67.338 1370.97 67.338C1377.11 67.338 1380.57 61.852 1380.57 55.924C1380.57 51.166 1377.37 48.098 1372.9 48.098ZM1371.1 65.206C1367.54 65.206 1365.67 62.71 1365.67 59.382C1365.67 55.3 1367.85 50.23 1372.77 50.23C1376.33 50.23 1378.2 52.726 1378.2 56.028C1378.2 60.11 1376.02 65.206 1371.1 65.206ZM1389.3 58.888C1389.3 53.74 1391.23 50.1 1393.31 47.266H1391.17C1389.04 49.97 1387.22 53.766 1387.22 58.888C1387.22 64.062 1389.09 67.988 1391.36 70.666H1393.49C1391.36 67.832 1389.3 64.114 1389.3 58.888ZM1406.49 67L1407.84 59.252C1407.92 58.732 1407.99 58.082 1407.99 57.588C1407.99 55.118 1406.49 53.558 1403.76 53.558C1401.86 53.558 1400.56 54.312 1399.75 55.274H1399.18L1399.44 53.896H1397.28L1394.97 67H1397.18L1398.43 59.954C1398.84 57.432 1400.58 55.534 1402.98 55.534C1404.93 55.534 1405.76 56.392 1405.76 57.978C1405.76 58.472 1405.68 58.992 1405.6 59.434L1404.28 67H1406.49ZM1410.56 48.436V56.106L1410.98 62.086H1412.41L1412.85 56.106V48.436H1410.56ZM1413.06 67V63.984H1410.35V67H1413.06ZM1419.33 58.888C1419.33 64.114 1417.28 67.832 1415.15 70.666H1417.28C1419.54 67.988 1421.41 64.062 1421.41 58.888C1421.41 53.766 1419.59 49.97 1417.46 47.266H1415.33C1417.41 50.1 1419.33 53.74 1419.33 58.888Z" fill="white"/>
<path d="M348.56 152.437C347.87 154.927 345.92 156.457 342.92 156.457C337.94 156.457 335.75 152.377 335.75 147.817C335.75 143.287 337.97 139.177 342.95 139.177C345.92 139.177 347.51 140.437 348.32 142.717H351.17C350.3 139.027 347.3 136.717 342.95 136.717C336.59 136.717 333.02 141.457 333.02 147.817C333.02 154.177 336.53 158.917 342.92 158.917C347.63 158.917 350.54 156.247 351.41 152.437H348.56ZM361.873 143.017C357.133 143.017 354.433 146.497 354.433 150.967C354.433 155.437 357.133 158.917 361.873 158.917C366.583 158.917 369.313 155.437 369.313 150.967C369.313 146.497 366.583 143.017 361.873 143.017ZM361.873 156.697C358.513 156.697 356.983 153.937 356.983 150.967C356.983 147.997 358.513 145.237 361.873 145.237C365.203 145.237 366.763 147.997 366.763 150.967C366.763 153.937 365.203 156.697 361.873 156.697ZM389.163 143.017C387.273 143.017 385.833 143.677 384.903 145.027H384.243C383.433 143.677 382.083 143.017 380.253 143.017C378.333 143.017 377.163 143.707 376.413 144.877H375.753V143.407H373.293V158.527H375.843V150.157C375.843 147.427 377.043 145.297 379.563 145.297C381.453 145.297 382.443 146.587 382.443 149.077V158.527H384.993V149.677C384.993 147.127 386.313 145.297 388.683 145.297C390.633 145.297 391.593 146.527 391.593 149.017V158.527H394.143V148.747C394.143 145.267 392.643 143.017 389.163 143.017ZM406.071 145.237C409.101 145.237 410.721 147.607 410.721 150.967C410.721 154.327 409.101 156.697 406.071 156.697C402.711 156.697 401.331 153.937 401.331 150.967C401.331 147.997 402.711 145.237 406.071 145.237ZM398.811 143.407V164.527H401.361V156.907H402.021C402.831 157.987 404.241 158.917 406.641 158.917C410.811 158.917 413.271 155.527 413.271 150.967C413.271 146.497 410.811 143.017 406.641 143.017C404.241 143.017 402.771 143.977 401.931 145.027H401.271V143.407H398.811ZM417.268 136.717V158.527H419.818V136.717H417.268ZM437.848 150.067C437.758 146.347 435.598 143.017 431.098 143.017C426.508 143.017 423.808 146.167 423.808 150.817C423.808 155.467 426.448 158.917 431.158 158.917C434.908 158.917 437.098 156.937 437.578 154.357H434.998C434.548 155.797 433.288 156.697 431.158 156.697C428.038 156.697 426.418 154.537 426.328 150.937H437.848V150.067ZM431.038 145.237C433.588 145.237 435.058 146.887 435.208 148.807H426.478C426.808 146.887 428.308 145.237 431.038 145.237ZM451.489 158.527H454.369L449.689 150.697L453.979 143.407H451.309L447.769 149.407H446.689L443.209 143.407H440.509L444.739 150.787L440.029 158.527H442.819L446.659 152.197H447.739L451.489 158.527ZM460.632 139.477V136.717H457.932V139.477H460.632ZM460.542 143.407H457.992V158.527H460.542V143.407ZM469.059 143.407V138.847H466.509V143.407H463.899V145.627H466.509V154.297C466.509 157.507 468.429 158.527 471.699 158.527H472.869V156.247H471.759C469.719 156.247 469.059 155.467 469.059 153.937V145.627H472.869V143.407H469.059ZM481.143 164.527L490.203 143.407H487.533L483.333 153.367H482.583L477.963 143.407H475.233L481.683 157.117L478.563 164.527H481.143ZM511.785 153.967C511.395 155.647 510.135 156.697 507.975 156.697C504.585 156.697 503.175 153.937 503.175 150.907C503.175 147.907 504.555 145.237 507.975 145.237C510.045 145.237 511.215 146.257 511.695 147.787H514.245C513.735 144.997 511.575 143.017 507.975 143.017C503.265 143.017 500.625 146.407 500.625 150.967C500.625 155.437 503.265 158.917 507.975 158.917C511.485 158.917 513.765 156.937 514.335 153.967H511.785ZM518.137 136.717V158.527H520.687V136.717H518.137ZM535.237 158.527H537.637V148.237C537.637 144.847 535.207 143.017 531.397 143.017C528.007 143.017 525.607 144.637 525.397 147.427H527.947C528.067 146.107 529.207 145.237 531.457 145.237C534.097 145.237 535.147 146.557 535.147 148.387V148.987H530.227C526.027 148.987 524.437 151.567 524.437 153.997C524.437 156.577 526.387 158.917 529.867 158.917C532.027 158.917 533.647 158.107 534.577 156.937H535.237V158.527ZM530.497 156.697C528.247 156.697 526.987 155.617 526.987 153.907C526.987 152.107 528.127 151.027 530.617 151.027H535.147V152.407C535.147 154.807 533.017 156.697 530.497 156.697ZM546.507 149.107C544.977 148.867 544.227 148.417 544.227 147.247C544.227 145.957 545.547 145.237 547.497 145.237C549.387 145.237 550.827 145.897 551.037 147.337H553.587C553.257 144.697 551.187 143.017 547.617 143.017C543.537 143.017 541.647 144.967 541.647 147.487C541.647 149.767 543.117 150.907 545.277 151.297L548.667 151.867C550.587 152.197 551.427 152.917 551.427 154.237C551.427 155.887 549.927 156.697 547.647 156.697C545.367 156.697 543.867 155.857 543.627 154.147H541.047C541.377 157.027 543.477 158.917 547.767 158.917C551.847 158.917 553.977 156.667 553.977 154.177C553.977 151.417 552.297 150.067 549.657 149.617L547.947 149.347L546.507 149.107ZM561.917 149.107C560.387 148.867 559.637 148.417 559.637 147.247C559.637 145.957 560.957 145.237 562.907 145.237C564.797 145.237 566.237 145.897 566.447 147.337H568.997C568.667 144.697 566.597 143.017 563.027 143.017C558.947 143.017 557.057 144.967 557.057 147.487C557.057 149.767 558.527 150.907 560.687 151.297L564.077 151.867C565.997 152.197 566.837 152.917 566.837 154.237C566.837 155.887 565.337 156.697 563.057 156.697C560.777 156.697 559.277 155.857 559.037 154.147H556.457C556.787 157.027 558.887 158.917 563.177 158.917C567.257 158.917 569.387 156.667 569.387 154.177C569.387 151.417 567.707 150.067 565.067 149.617L563.357 149.347L561.917 149.107ZM586.237 150.067C586.147 146.347 583.987 143.017 579.487 143.017C574.897 143.017 572.197 146.167 572.197 150.817C572.197 155.467 574.837 158.917 579.547 158.917C583.297 158.917 585.487 156.937 585.967 154.357H583.387C582.937 155.797 581.677 156.697 579.547 156.697C576.427 156.697 574.807 154.537 574.717 150.937H586.237V150.067ZM579.427 145.237C581.977 145.237 583.447 146.887 583.597 148.807H574.867C575.197 146.887 576.697 145.237 579.427 145.237ZM594.407 149.107C592.877 148.867 592.127 148.417 592.127 147.247C592.127 145.957 593.447 145.237 595.397 145.237C597.287 145.237 598.727 145.897 598.937 147.337H601.487C601.157 144.697 599.087 143.017 595.517 143.017C591.437 143.017 589.547 144.967 589.547 147.487C589.547 149.767 591.017 150.907 593.177 151.297L596.567 151.867C598.487 152.197 599.327 152.917 599.327 154.237C599.327 155.887 597.827 156.697 595.547 156.697C593.267 156.697 591.767 155.857 591.527 154.147H588.947C589.277 157.027 591.377 158.917 595.667 158.917C599.747 158.917 601.877 156.667 601.877 154.177C601.877 151.417 600.197 150.067 597.557 149.617L595.847 149.347L594.407 149.107ZM621.587 145.627V143.407H617.477V141.757C617.477 140.197 618.137 138.937 620.147 138.937H621.587V136.717H620.117C616.847 136.717 614.927 138.217 614.927 141.667V143.407H612.317V145.627H614.927V158.527H617.477V145.627H621.587ZM633.652 143.407H632.512C630.322 143.407 628.882 144.277 628.132 145.207H627.472V143.407H625.012V158.527H627.562V150.967C627.562 147.637 629.392 145.807 632.392 145.807H633.652V143.407ZM643.504 143.017C638.764 143.017 636.064 146.497 636.064 150.967C636.064 155.437 638.764 158.917 643.504 158.917C648.214 158.917 650.944 155.437 650.944 150.967C650.944 146.497 648.214 143.017 643.504 143.017ZM643.504 156.697C640.144 156.697 638.614 153.937 638.614 150.967C638.614 147.997 640.144 145.237 643.504 145.237C646.834 145.237 648.394 147.997 648.394 150.967C648.394 153.937 646.834 156.697 643.504 156.697ZM670.794 143.017C668.904 143.017 667.464 143.677 666.534 145.027H665.874C665.064 143.677 663.714 143.017 661.884 143.017C659.964 143.017 658.794 143.707 658.044 144.877H657.384V143.407H654.924V158.527H657.474V150.157C657.474 147.427 658.674 145.297 661.194 145.297C663.084 145.297 664.074 146.587 664.074 149.077V158.527H666.624V149.677C666.624 147.127 667.944 145.297 670.314 145.297C672.264 145.297 673.224 146.527 673.224 149.017V158.527H675.774V148.747C675.774 145.267 674.274 143.017 670.794 143.017ZM692.301 143.407V138.847H689.751V143.407H687.141V145.627H689.751V154.297C689.751 157.507 691.671 158.527 694.941 158.527H696.111V156.247H695.001C692.961 156.247 692.301 155.467 692.301 153.937V145.627H696.111V143.407H692.301ZM713.745 158.527V148.927C713.745 145.297 711.705 143.017 708.015 143.017C705.975 143.017 704.325 143.857 703.515 145.027H702.855V136.717H700.305V158.527H702.855V150.337C702.855 147.667 704.655 145.297 707.355 145.297C709.905 145.297 711.195 146.737 711.195 149.467V158.527H713.745ZM731.52 150.067C731.43 146.347 729.27 143.017 724.77 143.017C720.18 143.017 717.48 146.167 717.48 150.817C717.48 155.467 720.12 158.917 724.83 158.917C728.58 158.917 730.77 156.937 731.25 154.357H728.67C728.22 155.797 726.96 156.697 724.83 156.697C721.71 156.697 720.09 154.537 720 150.937H731.52V150.067ZM724.71 145.237C727.26 145.237 728.73 146.887 728.88 148.807H720.15C720.48 146.887 721.98 145.237 724.71 145.237ZM751.46 145.627V143.407H747.35V141.757C747.35 140.197 748.01 138.937 750.02 138.937H751.46V136.717H749.99C746.72 136.717 744.8 138.217 744.8 141.667V143.407H742.19V145.627H744.8V158.527H747.35V145.627H751.46ZM764.515 158.527H766.915V148.237C766.915 144.847 764.485 143.017 760.675 143.017C757.285 143.017 754.885 144.637 754.675 147.427H757.225C757.345 146.107 758.485 145.237 760.735 145.237C763.375 145.237 764.425 146.557 764.425 148.387V148.987H759.505C755.305 148.987 753.715 151.567 753.715 153.997C753.715 156.577 755.665 158.917 759.145 158.917C761.305 158.917 762.925 158.107 763.855 156.937H764.515V158.527ZM759.775 156.697C757.525 156.697 756.265 155.617 756.265 153.907C756.265 152.107 757.405 151.027 759.895 151.027H764.425V152.407C764.425 154.807 762.295 156.697 759.775 156.697ZM775.784 149.107C774.254 148.867 773.504 148.417 773.504 147.247C773.504 145.957 774.824 145.237 776.774 145.237C778.664 145.237 780.104 145.897 780.314 147.337H782.864C782.534 144.697 780.464 143.017 776.894 143.017C772.814 143.017 770.924 144.967 770.924 147.487C770.924 149.767 772.394 150.907 774.554 151.297L777.944 151.867C779.864 152.197 780.704 152.917 780.704 154.237C780.704 155.887 779.204 156.697 776.924 156.697C774.644 156.697 773.144 155.857 772.904 154.147H770.324C770.654 157.027 772.754 158.917 777.044 158.917C781.124 158.917 783.254 156.667 783.254 154.177C783.254 151.417 781.574 150.067 778.934 149.617L777.224 149.347L775.784 149.107ZM790.504 143.407V138.847H787.954V143.407H785.344V145.627H787.954V154.297C787.954 157.507 789.874 158.527 793.144 158.527H794.314V156.247H793.204C791.164 156.247 790.504 155.467 790.504 153.937V145.627H794.314V143.407H790.504ZM811.383 150.067C811.293 146.347 809.133 143.017 804.633 143.017C800.043 143.017 797.343 146.167 797.343 150.817C797.343 155.467 799.983 158.917 804.693 158.917C808.443 158.917 810.633 156.937 811.113 154.357H808.533C808.083 155.797 806.823 156.697 804.693 156.697C801.573 156.697 799.953 154.537 799.863 150.937H811.383V150.067ZM804.573 145.237C807.123 145.237 808.593 146.887 808.743 148.807H800.013C800.343 146.887 801.843 145.237 804.573 145.237ZM819.554 149.107C818.024 148.867 817.274 148.417 817.274 147.247C817.274 145.957 818.594 145.237 820.544 145.237C822.434 145.237 823.874 145.897 824.084 147.337H826.634C826.304 144.697 824.234 143.017 820.664 143.017C816.584 143.017 814.694 144.967 814.694 147.487C814.694 149.767 816.164 150.907 818.324 151.297L821.714 151.867C823.634 152.197 824.474 152.917 824.474 154.237C824.474 155.887 822.974 156.697 820.694 156.697C818.414 156.697 816.914 155.857 816.674 154.147H814.094C814.424 157.027 816.524 158.917 820.814 158.917C824.894 158.917 827.024 156.667 827.024 154.177C827.024 151.417 825.344 150.067 822.704 149.617L820.994 149.347L819.554 149.107ZM834.274 143.407V138.847H831.724V143.407H829.114V145.627H831.724V154.297C831.724 157.507 833.644 158.527 836.914 158.527H838.084V156.247H836.974C834.934 156.247 834.274 155.467 834.274 153.937V145.627H838.084V143.407H834.274ZM852.007 149.167C852.007 143.227 854.227 139.027 856.627 135.757H854.167C851.707 138.877 849.607 143.257 849.607 149.167C849.607 155.137 851.767 159.667 854.377 162.757H856.837C854.377 159.487 852.007 155.197 852.007 149.167ZM859.445 136.717V158.527H861.995V136.717H859.445ZM880.026 150.067C879.936 146.347 877.776 143.017 873.276 143.017C868.686 143.017 865.986 146.167 865.986 150.817C865.986 155.467 868.626 158.917 873.336 158.917C877.086 158.917 879.276 156.937 879.756 154.357H877.176C876.726 155.797 875.466 156.697 873.336 156.697C870.216 156.697 868.596 154.537 868.506 150.937H880.026V150.067ZM873.216 145.237C875.766 145.237 877.236 146.887 877.386 148.807H868.656C868.986 146.887 870.486 145.237 873.216 145.237ZM891.616 145.627V143.407H887.506V141.757C887.506 140.197 888.166 138.937 890.176 138.937H891.616V136.717H890.146C886.876 136.717 884.956 138.217 884.956 141.667V143.407H882.346V145.627H884.956V158.527H887.506V145.627H891.616ZM898.551 143.407V138.847H896.001V143.407H893.391V145.627H896.001V154.297C896.001 157.507 897.921 158.527 901.191 158.527H902.361V156.247H901.251C899.211 156.247 898.551 155.467 898.551 153.937V145.627H902.361V143.407H898.551ZM909.075 149.167C909.075 155.197 906.705 159.487 904.245 162.757H906.705C909.315 159.667 911.475 155.137 911.475 149.167C911.475 143.257 909.375 138.877 906.915 135.757H904.455C906.855 139.027 909.075 143.227 909.075 149.167ZM927.233 143.407V138.847H924.683V143.407H922.073V145.627H924.683V154.297C924.683 157.507 926.603 158.527 929.873 158.527H931.043V156.247H929.933C927.893 156.247 927.233 155.467 927.233 153.937V145.627H931.043V143.407H927.233ZM941.512 143.017C936.772 143.017 934.072 146.497 934.072 150.967C934.072 155.437 936.772 158.917 941.512 158.917C946.222 158.917 948.952 155.437 948.952 150.967C948.952 146.497 946.222 143.017 941.512 143.017ZM941.512 156.697C938.152 156.697 936.622 153.937 936.622 150.967C936.622 147.997 938.152 145.237 941.512 145.237C944.842 145.237 946.402 147.997 946.402 150.967C946.402 153.937 944.842 156.697 941.512 156.697ZM964.791 143.407V138.847H962.241V143.407H959.631V145.627H962.241V154.297C962.241 157.507 964.161 158.527 967.431 158.527H968.601V156.247H967.491C965.451 156.247 964.791 155.467 964.791 153.937V145.627H968.601V143.407H964.791ZM986.235 158.527V148.927C986.235 145.297 984.195 143.017 980.505 143.017C978.465 143.017 976.815 143.857 976.005 145.027H975.345V136.717H972.795V158.527H975.345V150.337C975.345 147.667 977.145 145.297 979.845 145.297C982.395 145.297 983.685 146.737 983.685 149.467V158.527H986.235ZM1004.01 150.067C1003.92 146.347 1001.76 143.017 997.26 143.017C992.67 143.017 989.97 146.167 989.97 150.817C989.97 155.467 992.61 158.917 997.32 158.917C1001.07 158.917 1003.26 156.937 1003.74 154.357H1001.16C1000.71 155.797 999.45 156.697 997.32 156.697C994.2 156.697 992.58 154.537 992.49 150.937H1004.01V150.067ZM997.2 145.237C999.75 145.237 1001.22 146.887 1001.37 148.807H992.64C992.97 146.887 994.47 145.237 997.2 145.237ZM1020.53 149.107C1019 148.867 1018.25 148.417 1018.25 147.247C1018.25 145.957 1019.57 145.237 1021.52 145.237C1023.41 145.237 1024.85 145.897 1025.06 147.337H1027.61C1027.28 144.697 1025.21 143.017 1021.64 143.017C1017.56 143.017 1015.67 144.967 1015.67 147.487C1015.67 149.767 1017.14 150.907 1019.3 151.297L1022.69 151.867C1024.61 152.197 1025.45 152.917 1025.45 154.237C1025.45 155.887 1023.95 156.697 1021.67 156.697C1019.39 156.697 1017.89 155.857 1017.65 154.147H1015.07C1015.4 157.027 1017.5 158.917 1021.79 158.917C1025.87 158.917 1028 156.667 1028 154.177C1028 151.417 1026.32 150.067 1023.68 149.617L1021.97 149.347L1020.53 149.107ZM1031.74 136.717V158.527H1034.29V136.717H1031.74ZM1045.72 143.017C1040.98 143.017 1038.28 146.497 1038.28 150.967C1038.28 155.437 1040.98 158.917 1045.72 158.917C1050.43 158.917 1053.16 155.437 1053.16 150.967C1053.16 146.497 1050.43 143.017 1045.72 143.017ZM1045.72 156.697C1042.36 156.697 1040.83 153.937 1040.83 150.967C1040.83 147.997 1042.36 145.237 1045.72 145.237C1049.05 145.237 1050.61 147.997 1050.61 150.967C1050.61 153.937 1049.05 156.697 1045.72 156.697ZM1063.5 148.357L1060.92 155.827H1060.26L1058.46 143.407H1056L1058.16 158.527H1062.12L1064.76 150.877H1065.39L1068.03 158.527H1071.93L1074.12 143.407H1071.66L1069.92 155.827H1069.26L1066.74 148.357H1063.5ZM1090.99 150.067C1090.9 146.347 1088.74 143.017 1084.24 143.017C1079.65 143.017 1076.95 146.167 1076.95 150.817C1076.95 155.467 1079.59 158.917 1084.3 158.917C1088.05 158.917 1090.24 156.937 1090.72 154.357H1088.14C1087.69 155.797 1086.43 156.697 1084.3 156.697C1081.18 156.697 1079.56 154.537 1079.47 150.937H1090.99V150.067ZM1084.18 145.237C1086.73 145.237 1088.2 146.887 1088.35 148.807H1079.62C1079.95 146.887 1081.45 145.237 1084.18 145.237ZM1099.16 149.107C1097.63 148.867 1096.88 148.417 1096.88 147.247C1096.88 145.957 1098.2 145.237 1100.15 145.237C1102.04 145.237 1103.48 145.897 1103.69 147.337H1106.24C1105.91 144.697 1103.84 143.017 1100.27 143.017C1096.19 143.017 1094.3 144.967 1094.3 147.487C1094.3 149.767 1095.77 150.907 1097.93 151.297L1101.32 151.867C1103.24 152.197 1104.08 152.917 1104.08 154.237C1104.08 155.887 1102.58 156.697 1100.3 156.697C1098.02 156.697 1096.52 155.857 1096.28 154.147H1093.7C1094.03 157.027 1096.13 158.917 1100.42 158.917C1104.5 158.917 1106.63 156.667 1106.63 154.177C1106.63 151.417 1104.95 150.067 1102.31 149.617L1100.6 149.347L1099.16 149.107ZM1113.88 143.407V138.847H1111.33V143.407H1108.72V145.627H1111.33V154.297C1111.33 157.507 1113.25 158.527 1116.52 158.527H1117.69V156.247H1116.58C1114.54 156.247 1113.88 155.467 1113.88 153.937V145.627H1117.69V143.407H1113.88ZM1124.86 158.527V155.047H1121.74V158.527H1124.86ZM1132.59 158.527V155.047H1129.47V158.527H1132.59ZM1140.33 158.527V155.047H1137.21V158.527H1140.33Z" fill="#274867"/>
</g>
<defs>
<clipPath id="clip0_821:56">
<rect width="1474" height="174" fill="white"/>
</clipPath>
</defs>
</svg>
