<?xml version="1.0" encoding="utf-8"?>
<!-- Generator: Adobe Illustrator 20.1.0, SVG Export Plug-In . SVG Version: 6.00 Build 0)  -->
<svg version="1.1" id="Layer_1" xmlns="http://www.w3.org/2000/svg" xmlns:xlink="http://www.w3.org/1999/xlink" x="0px" y="0px"
	 viewBox="0 0 1474 644.8" style="enable-background:new 0 0 1474 644.8;" xml:space="preserve">
<style type="text/css">
	.st0{fill:none;stroke:#007BFF;stroke-width:4;stroke-linecap:round;stroke-linejoin:round;stroke-miterlimit:10;}
	.st1{fill:#007BFF;}
	.st2{fill:#082E51;}
	.st3{opacity:0.12;fill:#007BFF;enable-background:new    ;}
	.st4{fill:#FFFFFF;}
	.st5{fill:none;stroke:#082E51;stroke-width:4;stroke-miterlimit:10;}
	.st6{fill:none;stroke:#082E51;stroke-width:4;stroke-linecap:round;stroke-linejoin:round;stroke-miterlimit:10;}
</style>
<g>
	<path pointer-events="none" class="st0" d="M2301.7,265l-260,0.3"/>
	<path pointer-events="none" class="st1" d="M2295.2,278.4l6.5-13.5l-6.9-13.2l27,13.1L2295.2,278.4z"/>
</g>
<g>
	<path pointer-events="none" class="st0" d="M2183.5,486.3l-0.1-73.9h219.1v-69.8"/>
	<path pointer-events="none" class="st1" d="M2170.1,479.8l13.5,6.5l13.2-6.9l-13.1,27L2170.1,479.8z"/>
</g>
<g>
	<path pointer-events="none" class="st0" d="M2036.7,482.2l-0.1-58.2l-148.1-1v-80.5"/>
	<path pointer-events="none" class="st1" d="M2023.3,475.7l13.5,6.5l13.2-6.9l-13.1,27L2023.3,475.7z"/>
</g>
<g>
	<path pointer-events="none" class="st0" d="M2837.7,265.3l-203,0.3"/>
	<path pointer-events="none" class="st1" d="M2831.2,278.7l6.5-13.5l-6.9-13.2l27,13.1L2831.2,278.7z"/>
</g>
<g>
	<path pointer-events="none" class="st0" d="M2512,486.3l-0.1-63.2H2475v-80.5"/>
	<path pointer-events="none" class="st1" d="M2498.6,479.8l13.5,6.5l13.2-6.9l-13.1,27L2498.6,479.8z"/>
</g>
<line class="st0" x1="2514.6" y1="660.1" x2="2514.6" y2="723.1"/>
<line class="st0" x1="3014.6" y1="343.6" x2="3014.6" y2="406.6"/>
<line class="st0" x1="2475.8" y1="148.1" x2="2475.8" y2="188.1"/>
<line class="st0" x1="2475.8" y1="91.8" x2="2475.8" y2="114.1"/>
<line class="st0" x1="2475.8" y1="19.8" x2="2475.8" y2="54.4"/>
<line class="st0" x1="2475.8" y1="-52.2" x2="2475.8" y2="-22.9"/>
<line class="st0" x1="2475.8" y1="-126.6" x2="2475.8" y2="-90.2"/>
<line class="st0" x1="3014.6" y1="440.1" x2="3014.6" y2="474.1"/>
<line class="st0" x1="3014.6" y1="515.6" x2="3014.6" y2="558.1"/>
<line class="st0" x1="2514.6" y1="763.6" x2="2514.6" y2="807.6"/>
<line class="st0" x1="2514.6" y1="845.6" x2="2514.6" y2="875.6"/>
<g>
	<path class="st2" d="M2348.8-85.5h5.1l6.2,11.5h0.8l6.1-11.5h5.2v24.4h-3V-82h-0.8l-6.4,11.6h-3.2l-6.3-11.6h-0.8v20.9h-3
		L2348.8-85.5L2348.8-85.5z"/>
	<path class="st2" d="M2392.9-69.7h-13.1c0.1,4.1,2,6.6,5.5,6.6c2.4,0,3.9-1,4.4-2.7h2.9c-0.5,2.9-3,5.2-7.3,5.2
		c-5.4,0-8.4-3.9-8.4-9.2s3.1-8.9,8.3-8.9c5.1,0,7.6,3.8,7.7,8V-69.7L2392.9-69.7z M2379.9-72.1h10c-0.2-2.2-1.8-4.1-4.8-4.1
		C2382-76.2,2380.3-74.3,2379.9-72.1z"/>
	<path class="st2" d="M2421.2-72.2V-61h-2.9v-10.9c0-2.8-1.1-4.2-3.3-4.2c-2.7,0-4.2,2.1-4.2,5V-61h-2.9v-10.8
		c0-2.8-1.1-4.3-3.3-4.3c-2.9,0-4.2,2.4-4.2,5.5v9.5h-2.9v-17.2h2.8v1.7h0.8c0.9-1.3,2.2-2.1,4.4-2.1c2.1,0,3.6,0.8,4.5,2.3h0.8
		c1.1-1.5,2.7-2.3,4.9-2.3C2419.5-78.7,2421.2-76.1,2421.2-72.2z"/>
	<path class="st2" d="M2442.4-69.6c0,5.1-3.1,9.1-8.5,9.1c-5.4,0-8.5-4-8.5-9.1s3.1-9.1,8.5-9.1S2442.4-74.7,2442.4-69.6z
		 M2439.5-69.6c0-3.4-1.8-6.5-5.6-6.5s-5.6,3.1-5.6,6.5s1.7,6.5,5.6,6.5S2439.5-66.3,2439.5-69.6z"/>
	<path class="st2" d="M2456.9-75.5h-1.4c-3.4,0-5.5,2.1-5.5,5.9v8.6h-3v-17.3h2.8v2.1h0.8c0.9-1.1,2.5-2.1,5-2.1h1.3V-75.5
		L2456.9-75.5z"/>
	<path class="st2" d="M2463.6-54.2l3.6-8.4l-7.4-15.6h3.1l5.3,11.4h0.9l4.8-11.4h3l-10.3,24.1L2463.6-54.2L2463.6-54.2z"/>
	<path class="st2" d="M2500.4-85.5v24.4h-3.1v-11.1h-13.6V-61h-3.1v-24.5h3.1v10.4h13.6v-10.4H2500.4z"/>
	<path class="st2" d="M2517.3-62.8h-0.8c-1.1,1.3-2.9,2.3-5.4,2.3c-4,0-6.2-2.7-6.2-5.6c0-2.8,1.8-5.7,6.6-5.7h5.6v-0.7
		c0-2.1-1.2-3.6-4.2-3.6c-2.6,0-3.9,1-4,2.5h-2.9c0.2-3.2,3-5,6.8-5c4.3,0,7.1,2.1,7.1,6v11.7h-2.7L2517.3-62.8L2517.3-62.8z
		 M2517.2-68v-1.6h-5.2c-2.8,0-4.1,1.2-4.1,3.3c0,2,1.4,3.2,4,3.2C2514.8-63.1,2517.2-65.3,2517.2-68z"/>
	<path class="st2" d="M2537.8-61v-10.4c0-3.2-1.5-4.8-4.4-4.8c-3.1,0-5.1,2.7-5.1,5.7v9.3h-2.9v-17.1h2.8v1.8h0.8
		c1-1.3,2.9-2.3,5.2-2.3c4.2,0,6.6,2.6,6.6,6.7v10.9h-3V-61L2537.8-61z"/>
	<path class="st2" d="M2561.5-85.9V-61h-2.8v-1.8h-0.8c-1,1.2-2.6,2.3-5.4,2.3c-4.8,0-7.6-4-7.6-9.1c0-5.2,2.8-9.1,7.6-9.1
		c2.7,0,4.3,1.1,5.3,2.3h0.8v-9.5C2558.6-85.9,2561.5-85.9,2561.5-85.9z M2558.6-69.6c0-3.4-1.6-6.5-5.4-6.5c-3.5,0-5.3,2.7-5.3,6.5
		s1.8,6.5,5.3,6.5C2557-63.1,2558.6-66.3,2558.6-69.6z"/>
	<path class="st2" d="M2570-85.9V-61h-2.9v-24.9H2570z"/>
	<path class="st2" d="M2590.6-69.7h-13.1c0.1,4.1,2,6.6,5.5,6.6c2.4,0,3.9-1,4.4-2.7h2.9c-0.5,2.9-3,5.2-7.3,5.2
		c-5.4,0-8.4-3.9-8.4-9.2s3.1-8.9,8.3-8.9c5.1,0,7.6,3.8,7.7,8V-69.7L2590.6-69.7z M2577.6-72.1h10c-0.2-2.2-1.8-4.1-4.8-4.1
		C2579.7-76.2,2578-74.3,2577.6-72.1z"/>
	<path class="st2" d="M2604.9-75.5h-1.4c-3.4,0-5.5,2.1-5.5,5.9v8.6h-2.9v-17.3h2.8v2.1h0.8c0.9-1.1,2.5-2.1,5-2.1h1.3L2604.9-75.5
		L2604.9-75.5z"/>
</g>
<g>
	<path class="st2" d="M2367.6-1.7c3.7,0.8,6.1,2.7,6.1,6.9c0,3.8-3,7.3-9.2,7.3c-5.7,0-9.4-3-9.8-7.3h3.1c0.5,3.3,3.5,4.4,6.8,4.4
		c3.4,0,6-1.6,6-4.4c0-2.6-1.7-3.6-4.1-4.2c-1.2-0.3-3.6-0.7-4.8-1c-3.6-0.7-5.9-2.6-5.9-6.2c0-3.8,3.1-6.8,8.6-6.8
		c5.1,0,8.3,2.7,8.9,6.6h-3.3c-0.6-2.5-2.3-3.8-5.8-3.8c-2.9,0-5.4,1.3-5.4,3.9c0,2.4,2.1,3.1,4.1,3.6C2364-2.5,2366.3-2,2367.6-1.7
		z"/>
	<path class="st2" d="M2386.9-5.3v2.5h-4.3v9.5c0,1.7,0.8,2.6,3.1,2.6h1.3v2.6h-1.3c-3.7,0-5.9-1.2-5.9-4.8v-9.9h-3v-2.5h3v-5.2h2.9
		v5.2H2386.9L2386.9-5.3z"/>
	<path class="st2" d="M2401.5-2.5h-1.4c-3.4,0-5.5,2.1-5.5,5.9V12h-2.9V-5.2h2.8v2.1h0.8c0.9-1.1,2.5-2.1,5-2.1h1.3L2401.5-2.5
		L2401.5-2.5z"/>
	<path class="st2" d="M2420.3,3.3h-13.1c0.1,4.1,2,6.6,5.5,6.6c2.4,0,3.9-1,4.4-2.7h2.9c-0.5,2.9-3,5.2-7.3,5.2
		c-5.4,0-8.4-3.9-8.4-9.2s3.1-8.9,8.3-8.9c5.1,0,7.6,3.8,7.7,8L2420.3,3.3L2420.3,3.3z M2407.3,0.9h10c-0.2-2.2-1.8-4.1-4.8-4.1
		C2409.4-3.2,2407.7-1.3,2407.3,0.9z"/>
	<path class="st2" d="M2435.8,10.2h-0.8c-1.1,1.3-2.9,2.3-5.4,2.3c-4,0-6.2-2.7-6.2-5.6c0-2.8,1.8-5.7,6.6-5.7h5.6V0.5
		c0-2.1-1.2-3.6-4.2-3.6c-2.6,0-3.9,1-4,2.5h-2.9c0.2-3.2,3-5,6.8-5c4.3,0,7.1,2.1,7.1,6v11.7h-2.7v-1.9H2435.8z M2435.7,5V3.4h-5.2
		c-2.8,0-4.1,1.2-4.1,3.3c0,2,1.4,3.2,4,3.2C2433.2,9.9,2435.7,7.7,2435.7,5z"/>
	<path class="st2" d="M2467.6,0.8V12h-2.9V1.2c0-2.8-1.1-4.2-3.3-4.2c-2.7,0-4.2,2.1-4.2,5v10.1h-2.9V1.2c0-2.8-1.1-4.3-3.3-4.3
		c-2.9,0-4.2,2.4-4.2,5.5v9.5h-2.9V-5.3h2.8v1.7h0.8c0.9-1.3,2.2-2.1,4.4-2.1c2.1,0,3.6,0.8,4.5,2.3h0.8c1.1-1.5,2.7-2.3,4.9-2.3
		C2465.9-5.7,2467.6-3.1,2467.6,0.8z"/>
	<path class="st2" d="M2493.1-12.5v24.4h-3.1V0.7h-13.6v11.2h-3.1v-24.4h3.1v10.4h13.6v-10.4H2493.1z"/>
	<path class="st2" d="M2510,10.2h-0.8c-1.1,1.3-2.9,2.3-5.4,2.3c-4,0-6.2-2.7-6.2-5.6c0-2.8,1.8-5.7,6.6-5.7h5.6V0.5
		c0-2.1-1.2-3.6-4.2-3.6c-2.6,0-3.9,1-4,2.5h-2.9c0.2-3.2,3-5,6.8-5c4.3,0,7.1,2.1,7.1,6v11.7h-2.6V10.2z M2509.9,5V3.4h-5.2
		c-2.8,0-4.1,1.2-4.1,3.3c0,2,1.4,3.2,4,3.2C2507.4,9.9,2509.9,7.7,2509.9,5z"/>
	<path class="st2" d="M2530.5,12V1.7c0-3.2-1.5-4.8-4.4-4.8c-3.1,0-5.1,2.7-5.1,5.7v9.3h-3V-5.3h2.8v1.8h0.8c1-1.3,2.9-2.3,5.2-2.3
		c4.2,0,6.6,2.6,6.6,6.7v10.9h-2.9L2530.5,12L2530.5,12z"/>
	<path class="st2" d="M2554.1-12.9V12h-2.8v-1.8h-0.8c-1,1.2-2.6,2.3-5.4,2.3c-4.8,0-7.6-4-7.6-9.1c0-5.2,2.8-9.1,7.6-9.1
		c2.7,0,4.3,1.1,5.3,2.3h0.8v-9.5H2554.1L2554.1-12.9z M2551.3,3.4c0-3.4-1.6-6.5-5.4-6.5c-3.5,0-5.3,2.7-5.3,6.5s1.8,6.5,5.3,6.5
		C2549.7,9.9,2551.3,6.7,2551.3,3.4z"/>
	<path class="st2" d="M2562.7-12.9V12h-2.9v-24.9H2562.7z"/>
	<path class="st2" d="M2583.2,3.3h-13.1c0.1,4.1,2,6.6,5.5,6.6c2.4,0,3.9-1,4.4-2.7h2.9c-0.5,2.9-3,5.2-7.3,5.2
		c-5.4,0-8.4-3.9-8.4-9.2s3.1-8.9,8.3-8.9c5.1,0,7.6,3.8,7.7,8V3.3L2583.2,3.3z M2570.3,0.9h10c-0.2-2.2-1.8-4.1-4.8-4.1
		C2572.3-3.2,2570.6-1.3,2570.3,0.9z"/>
	<path class="st2" d="M2597.6-2.5h-1.4c-3.4,0-5.5,2.1-5.5,5.9V12h-2.9V-5.2h2.8v2.1h0.8c0.9-1.1,2.5-2.1,5-2.1h1.3L2597.6-2.5
		L2597.6-2.5z"/>
</g>
<g>
	<path class="st2" d="M2388.6,63.8v7.9h11.3v2.8h-11.3v10.9h-3.1V61h17.1v2.8H2388.6z"/>
	<path class="st2" d="M2406.9,63.7v-3.1h3.1v3.1H2406.9z M2409.9,85.4h-2.9V68.2h2.9V85.4z"/>
	<path class="st2" d="M2418.5,60.6v24.9h-2.9V60.6H2418.5z"/>
	<path class="st2" d="M2439,76.8h-13.1c0.1,4.1,2,6.6,5.5,6.6c2.4,0,3.9-1,4.4-2.7h2.9c-0.5,2.9-3,5.2-7.3,5.2
		c-5.4,0-8.4-3.9-8.4-9.2s3.1-8.9,8.3-8.9c5.1,0,7.6,3.8,7.7,8V76.8L2439,76.8z M2426.1,74.3h10c-0.2-2.2-1.8-4.1-4.8-4.1
		C2428.2,70.3,2426.5,72.2,2426.1,74.3z"/>
	<path class="st2" d="M2463.7,61v24.4h-3.1V74.2H2447v11.2h-3.1V61h3.1v10.4h13.6V61H2463.7z"/>
	<path class="st2" d="M2480.6,83.6h-0.8c-1.1,1.3-2.9,2.3-5.4,2.3c-4,0-6.2-2.7-6.2-5.6c0-2.8,1.8-5.7,6.6-5.7h5.6v-0.7
		c0-2.1-1.2-3.6-4.2-3.6c-2.6,0-3.9,1-4,2.5h-2.9c0.2-3.2,3-5,6.8-5c4.3,0,7.1,2.1,7.1,6v11.7h-2.7v-1.9H2480.6z M2480.5,78.4v-1.6
		h-5.2c-2.8,0-4.1,1.2-4.1,3.3c0,2,1.4,3.2,4,3.2C2478,83.3,2480.5,81.2,2480.5,78.4z"/>
	<path class="st2" d="M2501.1,85.4V75.1c0-3.2-1.5-4.8-4.4-4.8c-3.1,0-5.1,2.7-5.1,5.7v9.3h-2.9V68.2h2.8V70h0.8
		c1-1.3,2.9-2.3,5.2-2.3c4.2,0,6.6,2.6,6.6,6.7v10.9h-3V85.4L2501.1,85.4z"/>
	<path class="st2" d="M2524.8,60.6v24.9h-2.8v-1.8h-0.8c-1,1.2-2.6,2.3-5.4,2.3c-4.8,0-7.6-4-7.6-9.1c0-5.2,2.8-9.1,7.6-9.1
		c2.7,0,4.3,1.1,5.3,2.3h0.8v-9.5L2524.8,60.6L2524.8,60.6z M2521.9,76.8c0-3.4-1.6-6.5-5.4-6.5c-3.5,0-5.3,2.7-5.3,6.5
		s1.8,6.5,5.3,6.5C2520.3,83.3,2521.9,80.2,2521.9,76.8z"/>
	<path class="st2" d="M2533.3,60.6v24.9h-2.9V60.6H2533.3z"/>
	<path class="st2" d="M2553.8,76.8h-13.1c0.1,4.1,2,6.6,5.5,6.6c2.4,0,3.9-1,4.4-2.7h2.9c-0.5,2.9-3,5.2-7.3,5.2
		c-5.4,0-8.4-3.9-8.4-9.2s3.1-8.9,8.3-8.9c5.1,0,7.6,3.8,7.7,8L2553.8,76.8L2553.8,76.8z M2540.9,74.3h10c-0.2-2.2-1.8-4.1-4.8-4.1
		C2543,70.3,2541.2,72.2,2540.9,74.3z"/>
	<path class="st2" d="M2568.2,70.9h-1.4c-3.4,0-5.5,2.1-5.5,5.9v8.6h-2.9V68.2h2.8v2.1h0.8c0.9-1.1,2.5-2.1,5-2.1h1.3L2568.2,70.9
		L2568.2,70.9z"/>
</g>
<g>
	<path class="st2" d="M2368.6,136.5c-1,4.3-4.3,7.4-9.7,7.4c-7.3,0-11.3-5.4-11.3-12.7c0-7.3,4.1-12.7,11.3-12.7
		c5,0,8.4,2.6,9.4,6.8h-3.3c-0.9-2.6-2.7-4-6.1-4c-5.7,0-8.2,4.7-8.2,9.9c0,5.2,2.5,9.9,8.2,9.9c3.4,0,5.6-1.7,6.4-4.6L2368.6,136.5
		L2368.6,136.5z"/>
	<path class="st2" d="M2389,134.8c0,5.1-3.1,9.1-8.5,9.1c-5.4,0-8.5-4-8.5-9.1s3.1-9.1,8.5-9.1C2385.9,125.7,2389,129.7,2389,134.8z
		 M2386.1,134.8c0-3.4-1.8-6.5-5.6-6.5c-3.8,0-5.6,3.1-5.6,6.5s1.7,6.5,5.6,6.5C2384.3,141.3,2386.1,138.2,2386.1,134.8z"/>
	<path class="st2" d="M2406,143.4v-10.3c0-3.2-1.5-4.8-4.4-4.8c-3.1,0-5.1,2.7-5.1,5.7v9.3h-2.9v-17.1h2.8v1.8h0.8
		c1-1.3,2.9-2.3,5.2-2.3c4.2,0,6.6,2.6,6.6,6.7v10.9h-3L2406,143.4L2406,143.4z"/>
	<path class="st2" d="M2420.6,133l1.9,0.3c3,0.5,4.9,2.1,4.9,5.2c0,2.8-2.4,5.4-7.1,5.4c-4.9,0-7.3-2.2-7.7-5.4h2.9
		c0.3,1.9,2,2.9,4.6,2.9c2.6,0,4.3-0.9,4.3-2.8c0-1.5-1-2.3-3.1-2.7l-3.9-0.6c-2.5-0.4-4.1-1.7-4.1-4.3c0-2.9,2.2-5.1,6.8-5.1
		c4.1,0,6.4,1.9,6.8,4.9h-2.9c-0.2-1.6-1.9-2.4-4-2.4c-2.2,0-3.7,0.8-3.7,2.3c0,1.3,0.9,1.8,2.6,2.1L2420.6,133z"/>
	<path class="st2" d="M2447.7,134.8c0,5.1-3.1,9.1-8.5,9.1c-5.4,0-8.5-4-8.5-9.1s3.1-9.1,8.5-9.1
		C2444.6,125.7,2447.7,129.7,2447.7,134.8z M2444.8,134.8c0-3.4-1.8-6.5-5.6-6.5s-5.6,3.1-5.6,6.5s1.7,6.5,5.6,6.5
		C2443,141.3,2444.8,138.2,2444.8,134.8z"/>
	<path class="st2" d="M2455.2,118.6v24.9h-2.9v-24.9H2455.2z"/>
	<path class="st2" d="M2475.7,134.8h-13.1c0.1,4.1,2,6.6,5.5,6.6c2.4,0,3.9-1,4.4-2.7h2.9c-0.5,2.9-3,5.2-7.3,5.2
		c-5.4,0-8.4-3.9-8.4-9.2s3.1-8.9,8.3-8.9c5.1,0,7.6,3.8,7.7,8V134.8L2475.7,134.8z M2462.8,132.3h10c-0.2-2.2-1.8-4.1-4.8-4.1
		C2464.8,128.3,2463.1,130.1,2462.8,132.3z"/>
	<path class="st2" d="M2500.4,119v24.4h-3.1v-11.2h-13.6v11.2h-3.1V119h3.1v10.4h13.6V119L2500.4,119L2500.4,119z"/>
	<path class="st2" d="M2517.3,141.6h-0.8c-1.1,1.3-2.9,2.3-5.4,2.3c-4,0-6.2-2.7-6.2-5.6c0-2.8,1.8-5.7,6.6-5.7h5.6v-0.7
		c0-2.1-1.2-3.6-4.2-3.6c-2.6,0-3.9,1-4,2.5h-2.9c0.2-3.2,3-5,6.8-5c4.3,0,7.1,2.1,7.1,6v11.7h-2.7L2517.3,141.6L2517.3,141.6
		L2517.3,141.6z M2517.2,136.4v-1.6h-5.2c-2.8,0-4.1,1.2-4.1,3.3c0,2,1.4,3.2,4,3.2C2514.7,141.3,2517.2,139.2,2517.2,136.4z"/>
	<path class="st2" d="M2537.8,143.4v-10.3c0-3.2-1.5-4.8-4.4-4.8c-3.1,0-5.1,2.7-5.1,5.7v9.3h-2.9v-17.1h2.8v1.8h0.8
		c1-1.3,2.9-2.3,5.2-2.3c4.2,0,6.6,2.6,6.6,6.7v10.9h-3V143.4L2537.8,143.4z"/>
	<path class="st2" d="M2561.4,118.6v24.9h-2.8v-1.8h-0.8c-1,1.2-2.6,2.3-5.4,2.3c-4.8,0-7.6-4-7.6-9.1c0-5.2,2.8-9.1,7.6-9.1
		c2.7,0,4.3,1.1,5.3,2.3h0.8v-9.5L2561.4,118.6L2561.4,118.6z M2558.6,134.8c0-3.4-1.6-6.5-5.4-6.5c-3.5,0-5.3,2.7-5.3,6.5
		s1.8,6.5,5.3,6.5C2557,141.3,2558.6,138.2,2558.6,134.8z"/>
	<path class="st2" d="M2570,118.6v24.9h-3v-24.9H2570z"/>
	<path class="st2" d="M2590.5,134.8h-13.1c0.1,4.1,2,6.6,5.5,6.6c2.4,0,3.9-1,4.4-2.7h2.9c-0.5,2.9-3,5.2-7.3,5.2
		c-5.4,0-8.4-3.9-8.4-9.2s3.1-8.9,8.3-8.9c5.1,0,7.6,3.8,7.7,8V134.8L2590.5,134.8z M2577.5,132.3h10c-0.2-2.2-1.8-4.1-4.8-4.1
		C2579.6,128.3,2577.9,130.1,2577.5,132.3z"/>
	<path class="st2" d="M2604.9,128.9h-1.4c-3.4,0-5.5,2.1-5.5,5.9v8.6h-3v-17.2h2.8v2.1h0.8c0.9-1.1,2.5-2.1,5-2.1h1.3V128.9
		L2604.9,128.9z"/>
</g>
<g>
	<path class="st2" d="M2393.6,742.7c3.7,0.8,6.1,2.7,6.1,6.9c0,3.8-3,7.3-9.2,7.3c-5.7,0-9.4-3-9.8-7.3h3.1c0.5,3.3,3.5,4.4,6.8,4.4
		c3.4,0,6-1.6,6-4.4c0-2.6-1.7-3.6-4.1-4.2c-1.2-0.3-3.6-0.7-4.8-1c-3.6-0.7-5.9-2.6-5.9-6.2c0-3.8,3.1-6.8,8.6-6.8
		c5.1,0,8.3,2.7,8.9,6.6h-3.1c-0.6-2.5-2.3-3.8-5.8-3.8c-2.9,0-5.4,1.3-5.4,3.9c0,2.4,2.1,3.1,4.1,3.6
		C2390.1,742,2392.3,742.5,2393.6,742.7z"/>
	<path class="st2" d="M2404.6,734.7v-3.1h3.1v3.1H2404.6z M2407.5,756.4h-2.9v-17.2h2.9V756.4z"/>
	<path class="st2" d="M2437,745.3v11.2h-2.9v-10.8c0-2.8-1.1-4.2-3.3-4.2c-2.7,0-4.2,2.1-4.2,5v10.1h-2.9v-10.8
		c0-2.8-1.1-4.3-3.3-4.3c-2.9,0-4.2,2.4-4.2,5.5v9.5h-2.9v-17.3h2.8v1.7h0.8c0.9-1.3,2.2-2.1,4.4-2.1c2.1,0,3.6,0.8,4.5,2.3h0.8
		c1.1-1.5,2.7-2.3,4.9-2.3C2435.3,738.7,2437,741.3,2437,745.3z"/>
	<path class="st2" d="M2445.2,739.2v1.8h0.8c1-1.2,2.6-2.3,5.4-2.3c4.8,0,7.6,4,7.6,9.1c0,5.2-2.8,9.1-7.6,9.1
		c-2.7,0-4.3-1.1-5.3-2.3h-0.8v8.7h-2.9v-24.1H2445.2z M2445.2,747.8c0,3.4,1.6,6.5,5.4,6.5c3.5,0,5.3-2.7,5.3-6.5s-1.8-6.5-5.3-6.5
		C2446.8,741.3,2445.2,744.4,2445.2,747.8z"/>
	<path class="st2" d="M2466.3,731.6v24.9h-2.9v-24.9H2466.3z"/>
	<path class="st2" d="M2486.9,747.8h-13.1c0.1,4.1,2,6.6,5.5,6.6c2.4,0,3.9-1,4.4-2.7h2.9c-0.5,2.9-3,5.2-7.3,5.2
		c-5.4,0-8.4-3.9-8.4-9.2s3.1-8.9,8.3-8.9c5.1,0,7.6,3.8,7.7,8V747.8L2486.9,747.8z M2473.9,745.3h10c-0.2-2.2-1.8-4.1-4.8-4.1
		C2476,741.3,2474.3,743.1,2473.9,745.3z"/>
	<path class="st2" d="M2494.8,734.8v7.9h11.3v2.8h-11.3v10.9h-3.1V732h17.1v2.8H2494.8z"/>
	<path class="st2" d="M2527.4,747.8c0,5.1-3.1,9.1-8.5,9.1c-5.4,0-8.5-4-8.5-9.1s3.1-9.1,8.5-9.1S2527.4,742.7,2527.4,747.8z
		 M2524.5,747.8c0-3.4-1.8-6.5-5.6-6.5s-5.6,3.1-5.6,6.5s1.7,6.5,5.6,6.5C2522.7,754.3,2524.5,751.2,2524.5,747.8z"/>
	<path class="st2" d="M2541.8,741.9h-1.4c-3.4,0-5.5,2.1-5.5,5.9v8.6h-2.9v-17.2h2.8v2.1h0.8c0.9-1.1,2.5-2.1,5-2.1h1.3
		L2541.8,741.9L2541.8,741.9z"/>
	<path class="st2" d="M2569.4,745.3v11.2h-2.9v-10.8c0-2.8-1.1-4.2-3.3-4.2c-2.7,0-4.2,2.1-4.2,5v10.1h-2.9v-10.8
		c0-2.8-1.1-4.3-3.3-4.3c-2.9,0-4.2,2.4-4.2,5.5v9.5h-2.9v-17.3h2.8v1.7h0.8c0.9-1.3,2.2-2.1,4.4-2.1c2.1,0,3.6,0.8,4.5,2.3h0.8
		c1.1-1.5,2.7-2.3,4.9-2.3C2567.7,738.7,2569.4,741.3,2569.4,745.3z"/>
	<path class="st2" d="M2585.7,754.6h-0.7c-1.1,1.3-2.9,2.3-5.4,2.3c-4,0-6.2-2.7-6.2-5.6c0-2.8,1.8-5.7,6.6-5.7h5.6v-0.7
		c0-2.1-1.2-3.6-4.2-3.6c-2.6,0-3.9,1-4,2.5h-2.9c0.2-3.2,3-5,6.8-5c4.3,0,7.1,2.1,7.1,6v11.7h-2.7L2585.7,754.6L2585.7,754.6z
		 M2585.6,749.4v-1.6h-5.2c-2.8,0-4.1,1.2-4.1,3.3c0,2,1.4,3.2,4,3.2C2583.2,754.3,2585.6,752.2,2585.6,749.4z"/>
	<path class="st2" d="M2602.2,739.2v2.5h-4.3v9.5c0,1.7,0.8,2.6,3.1,2.6h1.3v2.6h-1.3c-3.7,0-5.9-1.2-5.9-4.8v-9.9h-3v-2.5h3V734
		h2.9v5.2H2602.2z"/>
	<path class="st2" d="M2615.3,739.2v2.5h-4.3v9.5c0,1.7,0.8,2.6,3.1,2.6h1.3v2.6h-1.4c-3.7,0-5.9-1.2-5.9-4.8v-9.9h-3v-2.5h3V734
		h2.9v5.2H2615.3z"/>
	<path class="st2" d="M2634.8,747.8h-13.1c0.1,4.1,2,6.6,5.5,6.6c2.4,0,3.9-1,4.4-2.7h2.9c-0.5,2.9-3,5.2-7.3,5.2
		c-5.4,0-8.4-3.9-8.4-9.2s3.1-8.9,8.3-8.9c5.1,0,7.6,3.8,7.7,8L2634.8,747.8L2634.8,747.8z M2621.8,745.3h10
		c-0.2-2.2-1.8-4.1-4.8-4.1C2623.9,741.3,2622.2,743.1,2621.8,745.3z"/>
	<path class="st2" d="M2649.1,741.9h-1.4c-3.4,0-5.5,2.1-5.5,5.9v8.6h-2.9v-17.2h2.8v2.1h0.8c0.9-1.1,2.5-2.1,5-2.1h1.3
		L2649.1,741.9L2649.1,741.9z"/>
</g>
<g>
	<path class="st2" d="M2409,829.3h-1.3l-6.3,11.1h-3.4l7.3-12.9L2399,816h3.3l5.3,9.8h1.3l5.4-9.8h3.3l-6.3,11.4l7.3,13h-3.5
		L2409,829.3z"/>
	<path class="st2" d="M2422.6,816h5.1l6.2,11.5h0.8l6.1-11.5h5.2v24.4h-3v-20.9h-0.8l-6.3,11.6h-3.2l-6.3-11.6h-0.8v20.9h-3V816z"/>
	<path class="st2" d="M2468.9,837.5v2.9h-16.8V816h3.1v21.5H2468.9z"/>
	<path class="st2" d="M2476.5,818.8v7.9h11.3v2.8h-11.3v10.9h-3.1V816h17.1v2.8H2476.5z"/>
	<path class="st2" d="M2509.1,831.8c0,5.1-3.1,9.1-8.5,9.1c-5.4,0-8.5-4-8.5-9.1s3.1-9.1,8.5-9.1
		C2506,822.7,2509.1,826.7,2509.1,831.8z M2506.2,831.8c0-3.4-1.8-6.5-5.6-6.5c-3.8,0-5.6,3.1-5.6,6.5s1.7,6.5,5.6,6.5
		C2504.4,838.3,2506.2,835.2,2506.2,831.8z"/>
	<path class="st2" d="M2523.5,825.9h-1.4c-3.4,0-5.5,2.1-5.5,5.9v8.6h-2.9v-17.2h2.8v2.1h0.8c0.9-1.1,2.5-2.1,5-2.1h1.3
		L2523.5,825.9L2523.5,825.9z"/>
	<path class="st2" d="M2551.1,829.3v11.2h-2.9v-10.8c0-2.8-1.1-4.2-3.3-4.2c-2.7,0-4.2,2.1-4.2,5v10.1h-2.9v-10.8
		c0-2.8-1.1-4.3-3.3-4.3c-2.9,0-4.2,2.4-4.2,5.5v9.5h-2.9v-17.3h2.8v1.7h0.8c0.9-1.3,2.2-2.1,4.4-2.1c2.1,0,3.6,0.8,4.5,2.3h0.8
		c1.1-1.5,2.7-2.3,4.9-2.3C2549.4,822.7,2551.1,825.3,2551.1,829.3z"/>
	<path class="st2" d="M2567.4,838.6h-0.8c-1.1,1.3-2.9,2.3-5.4,2.3c-4,0-6.2-2.7-6.2-5.6c0-2.8,1.8-5.7,6.6-5.7h5.6v-0.7
		c0-2.1-1.2-3.6-4.2-3.6c-2.6,0-3.9,1-4,2.5h-2.9c0.2-3.2,3-5,6.8-5c4.3,0,7.1,2.1,7.1,6v11.7h-2.7v-1.9H2567.4z M2567.3,833.4v-1.6
		h-5.2c-2.8,0-4.1,1.2-4.1,3.3c0,2,1.4,3.2,4,3.2C2564.9,838.3,2567.3,836.2,2567.3,833.4z"/>
	<path class="st2" d="M2583.9,823.2v2.5h-4.3v9.5c0,1.7,0.8,2.6,3.1,2.6h1.3v2.6h-1.3c-3.7,0-5.9-1.2-5.9-4.8v-9.9h-3v-2.5h3V818
		h2.9v5.2H2583.9z"/>
	<path class="st2" d="M2597,823.2v2.5h-4.3v9.5c0,1.7,0.8,2.6,3.1,2.6h1.3v2.6h-1.3c-3.7,0-5.9-1.2-5.9-4.8v-9.9h-3v-2.5h3V818h2.9
		v5.2H2597z"/>
	<path class="st2" d="M2616.5,831.8h-13.1c0.1,4.1,2,6.6,5.5,6.6c2.4,0,3.9-1,4.4-2.7h2.9c-0.5,2.9-3,5.2-7.3,5.2
		c-5.4,0-8.4-3.9-8.4-9.2s3.1-8.9,8.3-8.9c5.1,0,7.6,3.8,7.7,8V831.8L2616.5,831.8z M2603.5,829.3h10c-0.2-2.2-1.8-4.1-4.8-4.1
		C2605.6,825.3,2603.9,827.1,2603.5,829.3z"/>
	<path class="st2" d="M2630.8,825.9h-1.4c-3.4,0-5.5,2.1-5.5,5.9v8.6h-2.9v-17.2h2.8v2.1h0.8c0.9-1.1,2.5-2.1,5-2.1h1.3
		L2630.8,825.9L2630.8,825.9z"/>
</g>
<g>
	<path class="st2" d="M2971.5,424.5c-1,4.3-4.3,7.4-9.7,7.4c-7.3,0-11.3-5.4-11.3-12.7s4.1-12.7,11.3-12.7c5,0,8.4,2.6,9.4,6.8h-3.2
		c-0.9-2.6-2.7-4-6.1-4c-5.7,0-8.2,4.7-8.2,9.9s2.5,9.9,8.2,9.9c3.4,0,5.6-1.7,6.4-4.6L2971.5,424.5L2971.5,424.5z"/>
	<path class="st2" d="M2991.9,422.8c0,5.1-3.1,9.1-8.5,9.1c-5.4,0-8.5-4-8.5-9.1s3.1-9.1,8.5-9.1
		C2988.8,413.7,2991.9,417.7,2991.9,422.8z M2989,422.8c0-3.4-1.8-6.5-5.6-6.5s-5.6,3.1-5.6,6.5s1.7,6.5,5.6,6.5
		C2987.2,429.3,2989,426.2,2989,422.8z"/>
	<path class="st2" d="M3008.9,431.4v-10.3c0-3.2-1.5-4.8-4.4-4.8c-3.1,0-5.1,2.7-5.1,5.7v9.3h-2.9v-17.1h2.8v1.8h0.8
		c1-1.3,2.9-2.3,5.2-2.3c4.2,0,6.6,2.6,6.6,6.7v10.9L3008.9,431.4L3008.9,431.4z"/>
	<path class="st2" d="M3023.5,421l2,0.3c3,0.5,4.9,2.1,4.9,5.2c0,2.8-2.4,5.4-7.1,5.4c-4.9,0-7.3-2.2-7.7-5.4h2.9
		c0.3,1.9,2,2.9,4.6,2.9c2.6,0,4.3-0.9,4.3-2.8c0-1.5-1-2.3-3.1-2.7l-3.9-0.6c-2.5-0.4-4.1-1.7-4.1-4.3c0-2.9,2.2-5.1,6.8-5.1
		c4.1,0,6.4,1.9,6.8,4.9h-2.9c-0.2-1.6-1.9-2.4-4-2.4c-2.2,0-3.7,0.8-3.7,2.3c0,1.3,0.9,1.8,2.6,2.1L3023.5,421z"/>
	<path class="st2" d="M3050.6,422.8c0,5.1-3.1,9.1-8.5,9.1c-5.4,0-8.5-4-8.5-9.1s3.1-9.1,8.5-9.1
		C3047.5,413.7,3050.6,417.7,3050.6,422.8z M3047.7,422.8c0-3.4-1.8-6.5-5.6-6.5s-5.6,3.1-5.6,6.5s1.7,6.5,5.6,6.5
		C3045.9,429.3,3047.7,426.2,3047.7,422.8z"/>
	<path class="st2" d="M3058.1,406.6v24.9h-2.9v-24.9H3058.1z"/>
	<path class="st2" d="M3078.6,422.8h-13.1c0.1,4.1,2,6.6,5.5,6.6c2.4,0,3.9-1,4.4-2.7h2.9c-0.5,2.9-3,5.2-7.3,5.2
		c-5.4,0-8.4-3.9-8.4-9.2s3.1-8.9,8.3-8.9c5.1,0,7.6,3.8,7.7,8V422.8z M3065.7,420.3h10c-0.2-2.2-1.8-4.1-4.8-4.1
		C3067.8,416.3,3066,418.1,3065.7,420.3z"/>
</g>
<g>
	<path class="st2" d="M2990.9,484.8v7.9h11.3v2.8h-11.3v10.9h-3.1V482h17.1v2.8H2990.9z"/>
	<path class="st2" d="M3009.2,484.7v-3.1h3.1v3.1H3009.2z M3012.2,506.4h-2.9v-17.2h2.9V506.4z"/>
	<path class="st2" d="M3020.8,481.6v24.9h-2.9v-24.9H3020.8z"/>
	<path class="st2" d="M3041.3,497.8h-13.1c0.1,4.1,2,6.6,5.5,6.6c2.4,0,3.9-1,4.4-2.7h2.9c-0.5,2.9-3,5.2-7.3,5.2
		c-5.4,0-8.4-3.9-8.4-9.2s3.1-8.9,8.3-8.9c5.1,0,7.6,3.8,7.7,8V497.8z M3028.4,495.3h10c-0.2-2.2-1.8-4.1-4.8-4.1
		C3030.5,491.3,3028.8,493.2,3028.4,495.3z"/>
</g>
<g>
	<path class="st0" d="M2612.9,333.9h-274.2c-6.6,0-12-5.4-12-12V203.3c0-6.6,5.4-12,12-12h274.2c6.6,0,12,5.4,12,12v118.6
		C2624.9,328.5,2619.5,333.9,2612.9,333.9z"/>
	<g>
		<path class="st2" d="M2421.2,246.9v31.5h-4V264h-17.6v14.4h-4v-31.5h4v13.4h17.6v-13.4H2421.2z"/>
		<path class="st2" d="M2443,276h-1c-1.4,1.7-3.7,2.9-6.9,2.9c-5.1,0-8-3.4-8-7.2c0-3.6,2.3-7.4,8.5-7.4h7.2v-0.9
			c0-2.7-1.5-4.6-5.4-4.6c-3.3,0-5,1.3-5.2,3.2h-3.7c0.3-4.1,3.8-6.5,8.8-6.5c5.6,0,9.2,2.7,9.2,7.7v15.1h-3.5V276z M2442.9,269.3
			v-2h-6.7c-3.7,0-5.3,1.6-5.3,4.2c0,2.5,1.9,4.1,5.2,4.1C2439.7,275.6,2442.9,272.9,2442.9,269.3z"/>
		<path class="st2" d="M2469.4,278.3V265c0-4.1-1.9-6.1-5.6-6.1c-4,0-6.6,3.5-6.6,7.4v12h-3.7v-22.2h3.6v2.4h1c1.2-1.7,3.7-3,6.7-3
			c5.5,0,8.5,3.3,8.5,8.7v14.1H2469.4z"/>
		<path class="st2" d="M2499.9,246.3v32h-3.6v-2.4h-1c-1.2,1.5-3.4,3-6.9,3c-6.1,0-9.7-5.1-9.7-11.7c0-6.7,3.6-11.7,9.7-11.7
			c3.5,0,5.6,1.4,6.8,3h1v-12.2L2499.9,246.3L2499.9,246.3z M2496.2,267.2c0-4.4-2-8.4-7-8.4c-4.5,0-6.8,3.5-6.8,8.4
			s2.4,8.4,6.8,8.4C2494.2,275.6,2496.2,271.6,2496.2,267.2z"/>
		<path class="st2" d="M2510.9,246.3v32h-3.7v-32H2510.9z"/>
		<path class="st2" d="M2537.4,267.2h-16.9c0.1,5.3,2.5,8.5,7.1,8.5c3.1,0,5-1.3,5.6-3.4h3.8c-0.7,3.8-3.9,6.7-9.4,6.7
			c-6.9,0-10.8-5.1-10.8-11.9s4-11.5,10.7-11.5c6.6,0,9.8,4.9,9.9,10.4V267.2L2537.4,267.2z M2520.7,264.1h12.8
			c-0.2-2.8-2.4-5.2-6.1-5.2C2523.3,258.8,2521.1,261.2,2520.7,264.1z"/>
		<path class="st2" d="M2555.9,259.7h-1.9c-4.4,0-7.1,2.7-7.1,7.6v11.1h-3.7v-22.2h3.6v2.6h1c1.1-1.4,3.2-2.6,6.4-2.6h1.7V259.7z"/>
	</g>
</g>
<g>
	<path class="st3" d="M2028.1,333.9h-274.2c-6.6,0-12-5.4-12-12V203.3c0-6.6,5.4-12,12-12h274.2c6.6,0,12,5.4,12,12v118.6
		C2040.2,328.5,2034.8,333.9,2028.1,333.9z"/>
	<g>
		<path class="st2" d="M1840.2,270v3.7h-21.6v-31.5h4v27.7L1840.2,270L1840.2,270z"/>
		<path class="st2" d="M1865.7,262.7c0,6.6-4,11.7-10.9,11.7c-7,0-10.9-5.1-10.9-11.7s4-11.7,10.9-11.7
			C1861.7,251,1865.7,256.1,1865.7,262.7z M1862,262.7c0-4.4-2.3-8.4-7.2-8.4c-4.9,0-7.2,4.1-7.2,8.4s2.2,8.4,7.2,8.4
			C1859.7,271.1,1862,267,1862,262.7z"/>
		<path class="st2" d="M1891.5,251.6v21.1c0,6.2-3.9,10.2-10.4,10.2c-5.7,0-9.4-2.4-10-6.8h3.7c0.7,2.6,3,3.6,6.3,3.6
			c4.6,0,6.7-2.8,6.7-7.2v-1.8h-1c-1.2,1.5-3.3,3-6.7,3c-6.1,0-9.9-4.8-9.9-11.3s3.7-11.4,9.9-11.4c3.5,0,5.6,1.4,6.8,3h1v-2.4
			L1891.5,251.6L1891.5,251.6z M1887.8,262.4c0-4.3-2.2-8.1-7-8.1c-4.4,0-6.8,3.2-6.8,8.1c0,4.8,2.5,8.1,6.8,8.1
			C1885.6,270.4,1887.8,266.6,1887.8,262.4z"/>
		<path class="st2" d="M1918.6,251.6v21.1c0,6.2-3.9,10.2-10.4,10.2c-5.7,0-9.4-2.4-10-6.8h3.7c0.7,2.6,3,3.6,6.3,3.6
			c4.6,0,6.7-2.8,6.7-7.2v-1.8h-1c-1.2,1.5-3.3,3-6.7,3c-6.1,0-9.9-4.8-9.9-11.3s3.7-11.4,9.9-11.4c3.5,0,5.6,1.4,6.8,3h1v-2.4
			L1918.6,251.6L1918.6,251.6z M1914.9,262.4c0-4.3-2.2-8.1-7-8.1c-4.4,0-6.8,3.2-6.8,8.1c0,4.8,2.5,8.1,6.8,8.1
			C1912.7,270.4,1914.9,266.6,1914.9,262.4z"/>
		<path class="st2" d="M1945,262.6h-16.9c0.1,5.3,2.5,8.5,7.1,8.5c3.1,0,5-1.3,5.6-3.4h3.8c-0.7,3.8-3.9,6.7-9.4,6.7
			c-6.9,0-10.8-5.1-10.8-11.9s4-11.5,10.7-11.5c6.6,0,9.8,4.9,9.9,10.4V262.6L1945,262.6z M1928.3,259.5h12.8
			c-0.2-2.8-2.4-5.2-6.1-5.2C1931,254.3,1928.8,256.7,1928.3,259.5z"/>
		<path class="st2" d="M1963.6,255.1h-1.9c-4.4,0-7.1,2.7-7.1,7.6v11.1h-3.7v-22.2h3.6v2.6h1c1.1-1.4,3.2-2.6,6.4-2.6h1.7V255.1z"/>
	</g>
</g>
<g>
	<path class="st1" d="M2651.7,652.6h-274.2c-6.6,0-12-5.4-12-12V522c0-6.6,5.4-12,12-12h274.2c6.6,0,12,5.4,12,12v118.6
		C2663.7,647.2,2658.3,652.6,2651.7,652.6z"/>
	<g>
		<path class="st4" d="M2417.2,568.9v10.2h14.6v3.6h-14.6v14h-4v-31.5h22v3.6h-18V568.9z"/>
		<path class="st4" d="M2459.2,585.6c0,6.6-4,11.7-10.9,11.7c-7,0-10.9-5.1-10.9-11.7c0-6.6,4-11.7,10.9-11.7
			C2455.2,573.9,2459.2,579,2459.2,585.6z M2455.5,585.6c0-4.4-2.3-8.4-7.2-8.4c-4.9,0-7.2,4.1-7.2,8.4c0,4.4,2.2,8.4,7.2,8.4
			C2453.2,594,2455.5,590,2455.5,585.6z"/>
		<path class="st4" d="M2477.8,578h-1.9c-4.4,0-7.1,2.7-7.1,7.6v11.1h-3.7v-22.2h3.6v2.6h1c1.1-1.4,3.2-2.6,6.4-2.6h1.7V578z"/>
		<path class="st4" d="M2513.3,582.4v14.4h-3.7v-14c0-3.7-1.4-5.5-4.3-5.5c-3.5,0-5.4,2.7-5.4,6.4v13h-3.7v-13.9
			c0-3.7-1.5-5.6-4.2-5.6c-3.7,0-5.5,3.1-5.5,7.1v12.3h-3.7v-22.2h3.6v2.2h1c1.1-1.7,2.8-2.7,5.6-2.7c2.7,0,4.7,1,5.9,3h1
			c1.4-2,3.5-3,6.3-3C2511.1,573.9,2513.3,577.2,2513.3,582.4z"/>
		<path class="st4" d="M2534.3,594.4h-1c-1.4,1.7-3.7,2.9-6.9,2.9c-5.1,0-8-3.4-8-7.2c0-3.6,2.3-7.4,8.5-7.4h7.2v-0.9
			c0-2.7-1.5-4.6-5.4-4.6c-3.3,0-5,1.3-5.2,3.2h-3.7c0.3-4.1,3.8-6.5,8.8-6.5c5.6,0,9.2,2.7,9.2,7.7v15.1h-3.5V594.4L2534.3,594.4z
			 M2534.2,587.7v-2h-6.7c-3.7,0-5.3,1.6-5.3,4.2c0,2.5,1.9,4.1,5.2,4.1C2531.1,594,2534.2,591.3,2534.2,587.7z"/>
		<path class="st4" d="M2555.5,574.5v3.3h-5.6V590c0,2.2,1,3.4,4,3.4h1.6v3.3h-1.7c-4.8,0-7.6-1.5-7.6-6.2v-12.7h-3.8v-3.3h3.8v-6.7
			h3.7v6.7H2555.5z"/>
		<path class="st4" d="M2572.4,574.5v3.3h-5.6V590c0,2.2,1,3.4,4,3.4h1.6v3.3h-1.7c-4.8,0-7.6-1.5-7.6-6.2v-12.7h-3.8v-3.3h3.8v-6.7
			h3.7v6.7H2572.4z"/>
		<path class="st4" d="M2597.5,585.6h-16.9c0.1,5.3,2.5,8.5,7.1,8.5c3.1,0,5-1.3,5.6-3.4h3.8c-0.7,3.8-3.9,6.7-9.4,6.7
			c-6.9,0-10.8-5.1-10.8-11.9c0-6.8,4-11.5,10.7-11.5c6.6,0,9.8,4.9,9.9,10.4L2597.5,585.6L2597.5,585.6z M2580.8,582.4h12.8
			c-0.2-2.8-2.4-5.2-6.1-5.2C2583.5,577.2,2581.2,579.6,2580.8,582.4z"/>
		<path class="st4" d="M2616,578h-1.9c-4.4,0-7.1,2.7-7.1,7.6v11.1h-3.7v-22.2h3.6v2.6h1c1.1-1.4,3.2-2.6,6.4-2.6h1.7V578z"/>
	</g>
</g>
<path class="st2" d="M2249.9,652.6h-274.3c-6.6,0-12-5.4-12-12V522c0-6.6,5.4-12,12-12h274.2c6.6,0,12,5.4,12,12v118.6
	C2261.9,647.2,2256.5,652.6,2249.9,652.6z"/>
<g>
	<path class="st4" d="M2064.7,569.2v10.2h14.6v3.6h-14.6v14h-4v-31.5h22v3.6h-18V569.2z"/>
	<path class="st4" d="M2088.3,569v-4.1h4v4.1H2088.3z M2092.1,597h-3.7v-22.2h3.7V597z"/>
	<path class="st4" d="M2103.2,565v32h-3.7v-32H2103.2z"/>
	<path class="st4" d="M2121.2,574.8v3.3h-5.6v12.2c0,2.2,1,3.4,4,3.4h1.6v3.3h-1.7c-4.8,0-7.6-1.5-7.6-6.2v-12.7h-3.9v-3.3h3.8v-6.7
		h3.7v6.7H2121.2z"/>
	<path class="st4" d="M2146.3,585.9h-16.9c0.1,5.3,2.5,8.5,7.1,8.5c3.1,0,5-1.3,5.6-3.4h3.8c-0.7,3.8-3.9,6.7-9.4,6.7
		c-6.9,0-10.8-5.1-10.8-11.9s4-11.5,10.7-11.5c6.6,0,9.8,4.9,9.9,10.4V585.9L2146.3,585.9z M2129.6,582.7h12.8
		c-0.2-2.8-2.4-5.2-6.1-5.2C2132.3,577.5,2130.1,579.9,2129.6,582.7z"/>
	<path class="st4" d="M2164.8,578.3h-1.9c-4.4,0-7.1,2.7-7.1,7.6V597h-3.7v-22.2h3.6v2.6h1c1.1-1.4,3.2-2.6,6.4-2.6h1.7V578.3z"/>
</g>
<g>
	<path class="st5" d="M3151.7,333.9h-274.2c-6.6,0-12-5.4-12-12V203.3c0-6.6,5.4-12,12-12h274.2c6.6,0,12,5.4,12,12v118.6
		C3163.7,328.5,3158.3,333.9,3151.7,333.9z"/>
	<g>
		<path class="st2" d="M2972.2,258.5c0,9-5.1,16.3-14.7,16.3c-9.6,0-14.7-7.3-14.7-16.3s5.1-16.3,14.7-16.3
			C2967.1,242.2,2972.2,249.5,2972.2,258.5z M2968.2,258.5c0-6.6-3.2-12.7-10.7-12.7s-10.7,6.1-10.7,12.7s3.2,12.7,10.7,12.7
			S2968.2,265.1,2968.2,258.5z"/>
		<path class="st2" d="M2981.6,252v13.3c0,4.1,1.9,6.1,5.6,6.1c3.9,0,6.6-3.4,6.6-7.4v-12h3.7v22.2h-3.6v-2.4h-1
			c-1.2,1.7-3.7,3-6.7,3c-5.5,0-8.5-3.3-8.5-8.7V252H2981.6z"/>
		<path class="st2" d="M3015.6,252v3.3h-5.6v12.2c0,2.2,1,3.4,4,3.4h1.6v3.3h-1.7c-4.8,0-7.6-1.5-7.6-6.2v-12.7h-3.8V252h3.8v-6.7
			h3.7v6.7L3015.6,252L3015.6,252z"/>
		<path class="st2" d="M3025.4,252v2.4h1c1.2-1.5,3.4-3,6.9-3c6.1,0,9.7,5.1,9.7,11.7c0,6.7-3.6,11.7-9.7,11.7c-3.5,0-5.6-1.4-6.8-3
			h-1V283h-3.7v-31L3025.4,252L3025.4,252z M3025.5,263.1c0,4.4,2,8.4,7,8.4c4.5,0,6.8-3.5,6.8-8.4s-2.4-8.4-6.8-8.4
			C3027.5,254.7,3025.5,258.7,3025.5,263.1z"/>
		<path class="st2" d="M3052.3,252v13.3c0,4.1,1.9,6.1,5.6,6.1c3.9,0,6.6-3.4,6.6-7.4v-12h3.7v22.2h-3.6v-2.4h-1
			c-1.2,1.7-3.7,3-6.7,3c-5.5,0-8.5-3.3-8.5-8.7V252H3052.3z"/>
		<path class="st2" d="M3086.3,252v3.3h-5.6v12.2c0,2.2,1,3.4,4,3.4h1.6v3.3h-1.7c-4.8,0-7.6-1.5-7.6-6.2v-12.7h-3.8V252h3.8v-6.7
			h3.7v6.7L3086.3,252L3086.3,252z"/>
	</g>
</g>
<path class="st0" d="M1292.2,494.8h-146c-3.5,0-6.4-2.9-6.4-6.4v-63.1c0-3.5,2.9-6.4,6.4-6.4h145.9c3.5,0,6.4,2.9,6.4,6.4v63.1
	C1298.6,492,1295.7,494.8,1292.2,494.8z"/>
<path class="st0" d="M934.2,408.8h-146c-3.5,0-6.4-2.9-6.4-6.4v-63.1c0-3.5,2.9-6.4,6.4-6.4h145.9c3.5,0,6.4,2.9,6.4,6.4v63.1
	C940.6,406,937.7,408.8,934.2,408.8z"/>
<path class="st0" d="M854.8,616.8h-146c-3.5,0-6.4-2.9-6.4-6.4v-63.1c0-3.5,2.9-6.4,6.4-6.4h145.9c3.5,0,6.4,2.9,6.4,6.4v63.1
	C861.2,614,858.3,616.8,854.8,616.8z"/>
<path class="st0" d="M178.8,616.8h-146c-3.5,0-6.4-2.9-6.4-6.4v-63.1c0-3.5,2.9-6.4,6.4-6.4h145.9c3.5,0,6.4,2.9,6.4,6.4v63.1
	C185.2,614,182.3,616.8,178.8,616.8z"/>
<path class="st0" d="M178.8,355.8h-146c-3.5,0-6.4-2.9-6.4-6.4v-63.1c0-3.5,2.9-6.4,6.4-6.4h145.9c3.5,0,6.4,2.9,6.4,6.4v63.1
	C185.2,353,182.3,355.8,178.8,355.8z"/>
<polygon class="st0" points="1447,275.8 1219.1,346.5 994.3,275.8 1219.1,205 "/>
<polygon class="st0" points="1108.3,101.8 880.5,172.5 655.7,101.8 880.5,31 "/>
<polygon class="st0" points="692.3,245.4 464.5,316.2 239.7,245.4 464.5,174.6 "/>
<polygon class="st0" points="692.3,504.8 464.5,575.5 239.7,504.8 464.5,434 "/>
<g>
	<path pointer-events="none" class="st6" d="M1220.7,395.7l-0.1-43.4"/>
	<path pointer-events="none" class="st2" d="M1207.3,389.2l13.5,6.5l13.2-6.9l-13.1,27L1207.3,389.2z"/>
</g>
<g>
	<path pointer-events="none" class="st6" d="M465,409.1l-0.1-86.3"/>
	<path pointer-events="none" class="st2" d="M451.6,402.6l13.5,6.5l13.2-6.9l-13.1,27L451.6,402.6z"/>
</g>
<g>
	<path pointer-events="none" class="st6" d="M465.1,148.8l-0.1-47l184,0"/>
	<path pointer-events="none" class="st2" d="M451.7,142.3l13.5,6.5l13.2-6.9l-13.1,27L451.7,142.3z"/>
</g>
<g>
	<path pointer-events="none" class="st6" d="M1113.7,101.8h107l-0.1,79.5"/>
	<path pointer-events="none" class="st2" d="M1220.4,201.4l-13.1-27l13.2,6.9l13.5-6.5L1220.4,201.4z"/>
</g>
<g>
	<path pointer-events="none" class="st6" d="M859.1,310.1l0-34.4H985"/>
	<path pointer-events="none" class="st2" d="M845.7,303.6l13.5,6.5l13.2-6.9l-13.1,27L845.7,303.6z"/>
</g>
<g>
	<path pointer-events="none" class="st6" d="M700,503.7h80.4l0,17.2"/>
	<path pointer-events="none" class="st2" d="M780.2,540.9l-13.1-27l13.2,6.9l13.5-6.5L780.2,540.9z"/>
</g>
<g>
	<path pointer-events="none" class="st6" d="M104.8,520.8l0-17.2l127.6,1.1"/>
	<path pointer-events="none" class="st2" d="M91.4,514.3l13.5,6.5l13.2-6.9l-13.1,27L91.4,514.3z"/>
</g>
<g>
	<path pointer-events="none" class="st6" d="M104.8,259.8l0-17.2l127.6,1.1"/>
	<path pointer-events="none" class="st2" d="M91.4,253.3l13.5,6.5l13.2-6.9l-13.1,27L91.4,253.3z"/>
</g>
<g>
	<path class="st2" d="M192.7,200.7l2.4-5.7l-5-10.6h2.1l3.6,7.7h0.6l3.2-7.7h2.1l-7,16.3H192.7z"/>
	<path class="st2" d="M213.9,190.2H205c0.1,2.8,1.3,4.5,3.7,4.5c1.6,0,2.6-0.7,3-1.8h2c-0.4,2-2.1,3.5-5,3.5c-3.6,0-5.7-2.7-5.7-6.3
		c0-3.6,2.1-6,5.6-6c3.5,0,5.1,2.6,5.2,5.4V190.2z M205.1,188.5h6.7c-0.1-1.5-1.3-2.8-3.2-2.8C206.6,185.8,205.4,187,205.1,188.5z"
		/>
	<path class="st2" d="M221.3,188.9l1.3,0.2c2,0.3,3.3,1.4,3.3,3.5c0,1.9-1.6,3.7-4.8,3.7c-3.3,0-4.9-1.5-5.2-3.7h2
		c0.2,1.3,1.3,2,3.1,2c1.8,0,2.9-0.6,2.9-1.9c0-1-0.6-1.6-2.1-1.8l-2.6-0.4c-1.7-0.3-2.8-1.2-2.8-2.9c0-1.9,1.5-3.5,4.6-3.5
		c2.8,0,4.4,1.3,4.6,3.3h-2c-0.2-1.1-1.3-1.6-2.7-1.6c-1.5,0-2.5,0.6-2.5,1.6c0,0.9,0.6,1.3,1.8,1.4L221.3,188.9z"/>
</g>
<g>
	<path class="st2" d="M606.7,61.5l2.4-5.7l-5-10.6h2.1l3.6,7.7h0.6l3.2-7.7h2.1l-7,16.3H606.7z"/>
	<path class="st2" d="M627.9,51H619c0.1,2.8,1.3,4.5,3.7,4.5c1.6,0,2.6-0.7,3-1.8h2c-0.4,2-2.1,3.5-5,3.5c-3.6,0-5.7-2.7-5.7-6.3
		c0-3.6,2.1-6,5.6-6c3.5,0,5.1,2.6,5.2,5.4V51z M619.1,49.4h6.7c-0.1-1.5-1.3-2.8-3.2-2.8C620.6,46.6,619.4,47.9,619.1,49.4z"/>
	<path class="st2" d="M635.3,49.8l1.3,0.2c2,0.3,3.3,1.4,3.3,3.5c0,1.9-1.6,3.7-4.8,3.7c-3.3,0-4.9-1.5-5.2-3.7h2
		c0.2,1.3,1.3,2,3.1,2c1.8,0,2.9-0.6,2.9-1.9c0-1-0.6-1.6-2.1-1.8l-2.6-0.4c-1.7-0.3-2.8-1.2-2.8-2.9c0-1.9,1.5-3.5,4.6-3.5
		c2.8,0,4.4,1.3,4.6,3.3h-2c-0.2-1.1-1.3-1.6-2.7-1.6c-1.5,0-2.5,0.6-2.5,1.6c0,0.9,0.6,1.3,1.8,1.4L635.3,49.8z"/>
</g>
<g>
	<path class="st2" d="M940.1,244.2l2.4-5.7l-5-10.6h2.1l3.6,7.7h0.6l3.2-7.7h2.1l-7,16.3H940.1z"/>
	<path class="st2" d="M961.3,233.7h-8.9c0.1,2.8,1.3,4.5,3.7,4.5c1.6,0,2.6-0.7,3-1.8h2c-0.4,2-2.1,3.5-5,3.5
		c-3.6,0-5.7-2.7-5.7-6.3c0-3.6,2.1-6,5.6-6c3.5,0,5.1,2.6,5.2,5.4V233.7z M952.5,232h6.7c-0.1-1.5-1.3-2.8-3.2-2.8
		C953.9,229.3,952.7,230.5,952.5,232z"/>
	<path class="st2" d="M968.7,232.4l1.3,0.2c2,0.3,3.3,1.4,3.3,3.5c0,1.9-1.6,3.7-4.8,3.7c-3.3,0-4.9-1.5-5.2-3.7h2
		c0.2,1.3,1.3,2,3.1,2s2.9-0.6,2.9-1.9c0-1-0.6-1.6-2.1-1.8l-2.6-0.4c-1.7-0.3-2.8-1.2-2.8-2.9c0-1.9,1.5-3.5,4.6-3.5
		c2.8,0,4.4,1.3,4.6,3.3h-2c-0.2-1.1-1.3-1.6-2.7-1.6c-1.5,0-2.5,0.6-2.5,1.6c0,0.9,0.6,1.3,1.8,1.4L968.7,232.4z"/>
</g>
<g>
	<path class="st2" d="M1129.3,54.7v-7c0-2.2-1-3.2-3-3.2c-2.1,0-3.5,1.8-3.5,3.9v6.3h-2V43h1.9v1.3h0.5c0.6-0.9,1.9-1.6,3.5-1.6
		c2.9,0,4.5,1.8,4.5,4.6v7.4H1129.3z"/>
	<path class="st2" d="M1145.7,48.8c0,3.5-2.1,6.1-5.7,6.1c-3.7,0-5.7-2.7-5.7-6.1s2.1-6.1,5.7-6.1
		C1143.6,42.7,1145.7,45.4,1145.7,48.8z M1143.7,48.8c0-2.3-1.2-4.4-3.8-4.4c-2.6,0-3.8,2.1-3.8,4.4c0,2.3,1.2,4.4,3.8,4.4
		C1142.5,53.3,1143.7,51.1,1143.7,48.8z"/>
</g>
<g>
	<path class="st2" d="M404.6,350.7v-7c0-2.2-1-3.2-3-3.2c-2.1,0-3.5,1.8-3.5,3.9v6.3h-2V339h1.9v1.3h0.5c0.6-0.9,1.9-1.6,3.5-1.6
		c2.9,0,4.5,1.8,4.5,4.6v7.4H404.6z"/>
	<path class="st2" d="M421,344.8c0,3.5-2.1,6.1-5.7,6.1c-3.7,0-5.7-2.7-5.7-6.1s2.1-6.1,5.7-6.1C418.9,338.7,421,341.4,421,344.8z
		 M419,344.8c0-2.3-1.2-4.4-3.8-4.4c-2.6,0-3.8,2.1-3.8,4.4c0,2.3,1.2,4.4,3.8,4.4C417.8,349.3,419,347.1,419,344.8z"/>
</g>
<g>
	<path class="st2" d="M74.8,315.7v1.3h0.5c0.6-0.8,1.8-1.6,3.6-1.6c3.2,0,5.1,2.7,5.1,6.1c0,3.5-1.9,6.1-5.1,6.1
		c-1.9,0-2.9-0.7-3.6-1.6h-0.5v5.9h-2v-16.3H74.8z M74.8,321.5c0,2.3,1.1,4.4,3.7,4.4c2.3,0,3.6-1.8,3.6-4.4c0-2.6-1.3-4.4-3.6-4.4
		C75.9,317.1,74.8,319.2,74.8,321.5z"/>
	<path class="st2" d="M88.9,315.7v7c0,2.2,1,3.2,3,3.2c2.1,0,3.5-1.8,3.5-3.9v-6.3h2v11.7h-1.9v-1.3h-0.5c-0.6,0.9-1.9,1.6-3.5,1.6
		c-2.9,0-4.5-1.8-4.5-4.6v-7.4H88.9z"/>
	<path class="st2" d="M112.3,321.5c0,3.5-1.9,6.1-5.1,6.1c-1.9,0-3-0.7-3.6-1.6H103v1.3h-1.9v-16.9h2v6.4h0.5
		c0.6-0.8,1.7-1.6,3.6-1.6C110.4,315.4,112.3,318,112.3,321.5z M110.4,321.5c0-2.6-1.3-4.4-3.6-4.4c-2.6,0-3.7,2.1-3.7,4.4
		c0,2.3,1.1,4.4,3.7,4.4C109.1,325.9,110.4,324.1,110.4,321.5z"/>
	<path class="st2" d="M117.4,310.5v16.9h-2v-16.9H117.4z"/>
	<path class="st2" d="M121.2,312.6v-2.1h2.1v2.1H121.2z M123.2,327.4h-2v-11.7h2V327.4z"/>
	<path class="st2" d="M136.9,323.8c-0.4,2.3-2.2,3.8-4.9,3.8c-3.6,0-5.7-2.7-5.7-6.1c0-3.5,2-6.1,5.7-6.1c2.8,0,4.5,1.5,4.8,3.7h-2
		c-0.4-1.2-1.3-2-2.9-2c-2.6,0-3.7,2.1-3.7,4.4c0,2.3,1.1,4.5,3.7,4.5c1.7,0,2.6-0.8,2.9-2.1H136.9z"/>
</g>
<g>
	<path class="st2" d="M58.6,561.1v1.3h0.5c0.6-0.8,1.8-1.6,3.6-1.6c3.2,0,5.1,2.7,5.1,6.1c0,3.5-1.9,6.1-5.1,6.1
		c-1.9,0-2.9-0.7-3.6-1.6h-0.5v5.9h-2v-16.3H58.6z M58.6,567c0,2.3,1.1,4.4,3.7,4.4c2.3,0,3.6-1.8,3.6-4.4c0-2.6-1.3-4.4-3.6-4.4
		C59.7,562.6,58.6,564.7,58.6,567z"/>
	<path class="st2" d="M78.3,571.6h-0.5c-0.7,0.9-2,1.5-3.6,1.5c-2.7,0-4.2-1.8-4.2-3.8c0-1.9,1.2-3.9,4.5-3.9h3.8V565
		c0-1.4-0.8-2.4-2.9-2.4c-1.7,0-2.6,0.7-2.7,1.7h-2c0.2-2.2,2-3.4,4.6-3.4c2.9,0,4.8,1.4,4.8,4v8h-1.9V571.6z M78.3,568.1V567h-3.5
		c-1.9,0-2.8,0.8-2.8,2.2c0,1.3,1,2.2,2.7,2.2C76.6,571.4,78.3,570,78.3,568.1z"/>
	<path class="st2" d="M93.7,569.3c-0.4,2.3-2.2,3.8-4.9,3.8c-3.6,0-5.7-2.7-5.7-6.1c0-3.5,2-6.1,5.7-6.1c2.8,0,4.5,1.5,4.8,3.7h-2
		c-0.4-1.2-1.3-2-2.9-2c-2.6,0-3.7,2.1-3.7,4.4c0,2.3,1.1,4.5,3.7,4.5c1.7,0,2.6-0.8,2.9-2.1H93.7z"/>
	<path class="st2" d="M105.1,572.8l-3.3-6.4h-0.5l-2.7,3v3.4h-2V556h2v11l5.5-5.9h2.3l-3.4,3.6l4.1,8.1H105.1z"/>
	<path class="st2" d="M116.9,571.6h-0.5c-0.7,0.9-2,1.5-3.6,1.5c-2.7,0-4.2-1.8-4.2-3.8c0-1.9,1.2-3.9,4.5-3.9h3.8V565
		c0-1.4-0.8-2.4-2.9-2.4c-1.7,0-2.6,0.7-2.7,1.7h-2c0.2-2.2,2-3.4,4.6-3.4c2.9,0,4.8,1.4,4.8,4v8h-1.9V571.6z M116.8,568.1V567h-3.5
		c-1.9,0-2.8,0.8-2.8,2.2c0,1.3,1,2.2,2.7,2.2C115.2,571.4,116.8,570,116.8,568.1z"/>
	<path class="st2" d="M132.8,561.1v11.1c0,3.3-2,5.4-5.4,5.4c-3,0-4.9-1.3-5.3-3.6h1.9c0.3,1.4,1.6,1.9,3.3,1.9
		c2.4,0,3.5-1.5,3.5-3.8v-0.9h-0.5c-0.6,0.8-1.7,1.6-3.5,1.6c-3.2,0-5.2-2.5-5.2-6c0-3.4,2-6,5.2-6c1.8,0,2.9,0.7,3.6,1.6h0.5v-1.3
		H132.8z M130.9,566.8c0-2.2-1.2-4.3-3.7-4.3c-2.3,0-3.6,1.7-3.6,4.3c0,2.5,1.3,4.2,3.6,4.2C129.7,571.1,130.9,569,130.9,566.8z"/>
	<path class="st2" d="M146.7,567h-8.9c0.1,2.8,1.3,4.5,3.7,4.5c1.6,0,2.6-0.7,3-1.8h2c-0.4,2-2.1,3.5-5,3.5c-3.6,0-5.7-2.7-5.7-6.3
		s2.1-6,5.6-6c3.5,0,5.1,2.6,5.2,5.4V567z M137.9,565.3h6.7c-0.1-1.5-1.3-2.8-3.2-2.8C139.4,562.6,138.2,563.8,137.9,565.3z"/>
	<path class="st2" d="M149.4,567.3v-1.7h6.3v1.7H149.4z"/>
	<path class="st2" d="M71.4,589v1.3h0.5c0.6-0.8,1.8-1.6,3.6-1.6c3.2,0,5.1,2.7,5.1,6.1c0,3.5-1.9,6.1-5.1,6.1
		c-1.9,0-2.9-0.7-3.6-1.6h-0.5v5.9h-2V589H71.4z M71.4,594.8c0,2.3,1.1,4.4,3.7,4.4c2.3,0,3.6-1.8,3.6-4.4s-1.3-4.4-3.6-4.4
		C72.5,590.4,71.4,592.5,71.4,594.8z"/>
	<path class="st2" d="M90.4,590.8h-1c-2.3,0-3.7,1.4-3.7,4v5.8h-2V589h1.9v1.4h0.5c0.6-0.7,1.7-1.4,3.4-1.4h0.9V590.8z"/>
	<path class="st2" d="M93,585.9v-2.1h2.1v2.1H93z M95,600.6h-2V589h2V600.6z"/>
	<path class="st2" d="M97.5,589h2l3.3,9.8h1l3.2-9.8h2.1l-3.9,11.7h-3.7L97.5,589z"/>
	<path class="st2" d="M118.5,599.4H118c-0.7,0.9-2,1.5-3.6,1.5c-2.7,0-4.2-1.8-4.2-3.8c0-1.9,1.2-3.9,4.5-3.9h3.8v-0.5
		c0-1.4-0.8-2.4-2.9-2.4c-1.7,0-2.6,0.7-2.7,1.7h-2c0.2-2.2,2-3.4,4.6-3.4c2.9,0,4.8,1.4,4.8,4v8h-1.9V599.4z M118.5,595.9v-1.1H115
		c-1.9,0-2.8,0.8-2.8,2.2c0,1.3,1,2.2,2.7,2.2C116.8,599.2,118.5,597.8,118.5,595.9z"/>
	<path class="st2" d="M129.7,589v1.7h-2.9v6.4c0,1.2,0.5,1.8,2.1,1.8h0.9v1.8h-0.9c-2.5,0-4-0.8-4-3.3v-6.7h-2V589h2v-3.5h2v3.5
		H129.7z"/>
	<path class="st2" d="M142.9,594.8H134c0.1,2.8,1.3,4.5,3.7,4.5c1.6,0,2.6-0.7,3-1.8h2c-0.4,2-2.1,3.5-5,3.5c-3.6,0-5.7-2.7-5.7-6.3
		c0-3.6,2.1-6,5.6-6c3.5,0,5.1,2.6,5.2,5.4V594.8z M134.1,593.1h6.7c-0.1-1.5-1.3-2.8-3.2-2.8C135.5,590.4,134.3,591.6,134.1,593.1z
		"/>
</g>
<g>
	<path class="st2" d="M379.3,483.9l3,8.6h0.5l1.8-14.2h2l-2.1,16.5h-3.3l-3.1-8.9h-0.5l-3.1,8.9h-3.3l-2.1-16.5h2l1.8,14.2h0.5
		l3-8.6H379.3z"/>
	<path class="st2" d="M389.9,480.1V478h2.1v2.1H389.9z M391.9,494.8h-2v-11.7h2V494.8z"/>
	<path class="st2" d="M397.8,478v16.9h-2V478H397.8z"/>
	<path class="st2" d="M403.5,478v16.9h-2V478H403.5z"/>
	<path class="st2" d="M419.4,483.1v1.7h-2.9v6.4c0,1.2,0.5,1.8,2.1,1.8h0.9v1.8h-0.9c-2.5,0-4-0.8-4-3.3v-6.7h-2v-1.7h2v-3.5h2v3.5
		H419.4z"/>
	<path class="st2" d="M431.1,494.8v-7c0-2.1-1-3.2-3-3.2c-2.1,0-3.5,1.8-3.5,3.9v6.3h-2V478h2v6.4h0.5c0.6-0.9,1.9-1.6,3.5-1.6
		c2.9,0,4.4,1.8,4.4,4.6v7.4H431.1z"/>
	<path class="st2" d="M446.8,489h-8.9c0.1,2.8,1.3,4.5,3.7,4.5c1.6,0,2.6-0.7,3-1.8h2c-0.4,2-2.1,3.5-5,3.5c-3.6,0-5.7-2.7-5.7-6.3
		s2.1-6,5.6-6c3.5,0,5.1,2.6,5.2,5.4V489z M438,487.3h6.7c-0.1-1.5-1.3-2.8-3.2-2.8C439.4,484.6,438.3,485.8,438,487.3z"/>
	<path class="st2" d="M466.4,489h-8.9c0.1,2.8,1.3,4.5,3.7,4.5c1.6,0,2.6-0.7,3-1.8h2c-0.4,2-2.1,3.5-5,3.5c-3.6,0-5.7-2.7-5.7-6.3
		s2.1-6,5.6-6c3.5,0,5.1,2.6,5.2,5.4V489z M457.6,487.3h6.7c-0.1-1.5-1.3-2.8-3.2-2.8C459,484.6,457.9,485.8,457.6,487.3z"/>
	<path class="st2" d="M474,489.9h-0.8l-3,4.9h-2.2l3.6-6l-3.3-5.7h2.1l2.7,4.6h0.8l2.7-4.6h2.1l-3.3,5.6l3.6,6h-2.2L474,489.9z"/>
	<path class="st2" d="M487.6,483.1v1.7h-2.9v6.4c0,1.2,0.5,1.8,2.1,1.8h0.9v1.8h-0.9c-2.5,0-4-0.8-4-3.3v-6.7h-2v-1.7h2v-3.5h2v3.5
		H487.6z"/>
	<path class="st2" d="M500.8,489h-8.9c0.1,2.8,1.3,4.5,3.7,4.5c1.6,0,2.6-0.7,3-1.8h2c-0.4,2-2.1,3.5-5,3.5c-3.6,0-5.7-2.7-5.7-6.3
		s2.1-6,5.6-6c3.5,0,5.1,2.6,5.2,5.4V489z M492,487.3h6.7c-0.1-1.5-1.3-2.8-3.2-2.8C493.4,484.6,492.2,485.8,492,487.3z"/>
	<path class="st2" d="M512.2,494.8v-7c0-2.2-1-3.2-3-3.2c-2.1,0-3.5,1.8-3.5,3.9v6.3h-2v-11.7h1.9v1.3h0.5c0.6-0.9,1.9-1.6,3.5-1.6
		c2.9,0,4.5,1.8,4.5,4.6v7.4H512.2z"/>
	<path class="st2" d="M528.3,478v16.9h-1.9v-1.3h-0.5c-0.6,0.8-1.8,1.6-3.6,1.6c-3.2,0-5.1-2.7-5.1-6.1c0-3.5,1.9-6.1,5.1-6.1
		c1.9,0,2.9,0.7,3.6,1.6h0.5V478H528.3z M526.3,489c0-2.3-1.1-4.4-3.7-4.4c-2.3,0-3.6,1.8-3.6,4.4c0,2.6,1.3,4.4,3.6,4.4
		C525.3,493.4,526.3,491.3,526.3,489z"/>
	<path class="st2" d="M532.1,480.1V478h2.1v2.1H532.1z M534.1,494.8h-2v-11.7h2V494.8z"/>
	<path class="st2" d="M546.4,494.8v-7c0-2.2-1-3.2-3-3.2c-2.1,0-3.5,1.8-3.5,3.9v6.3h-2v-11.7h1.9v1.3h0.5c0.6-0.9,1.9-1.6,3.5-1.6
		c2.9,0,4.5,1.8,4.5,4.6v7.4H546.4z"/>
	<path class="st2" d="M562.4,483.1v11.1c0,3.3-2,5.4-5.4,5.4c-3,0-4.9-1.3-5.3-3.6h1.9c0.3,1.4,1.6,1.9,3.3,1.9
		c2.4,0,3.5-1.5,3.5-3.8v-0.9h-0.5c-0.6,0.8-1.7,1.6-3.5,1.6c-3.2,0-5.2-2.5-5.2-6c0-3.4,2-6,5.2-6c1.8,0,2.9,0.7,3.6,1.6h0.5v-1.3
		H562.4z M560.5,488.8c0-2.2-1.2-4.3-3.7-4.3c-2.3,0-3.6,1.7-3.6,4.3c0,2.5,1.3,4.2,3.6,4.2C559.3,493.1,560.5,491,560.5,488.8z"/>
	<path class="st2" d="M350.3,519.1c-0.4,2.3-2.2,3.8-4.9,3.8c-3.6,0-5.7-2.7-5.7-6.1c0-3.5,2-6.1,5.7-6.1c2.8,0,4.5,1.5,4.8,3.7h-2
		c-0.4-1.2-1.3-2-2.9-2c-2.6,0-3.7,2.1-3.7,4.4c0,2.3,1.1,4.5,3.7,4.5c1.7,0,2.6-0.8,2.9-2.1H350.3z"/>
	<path class="st2" d="M355.2,505.8v16.9h-2v-16.9H355.2z"/>
	<path class="st2" d="M366.5,521.4H366c-0.7,0.9-2,1.5-3.6,1.5c-2.7,0-4.2-1.8-4.2-3.8c0-1.9,1.2-3.9,4.5-3.9h3.8v-0.5
		c0-1.4-0.8-2.4-2.9-2.4c-1.7,0-2.6,0.7-2.7,1.7h-2c0.2-2.2,2-3.4,4.6-3.4c2.9,0,4.8,1.4,4.8,4v8h-1.9V521.4z M366.4,517.9v-1.1
		h-3.5c-1.9,0-2.8,0.8-2.8,2.2c0,1.3,1,2.2,2.7,2.2C364.7,521.2,366.4,519.8,366.4,517.9z"/>
	<path class="st2" d="M376.3,515.5l1.3,0.2c2,0.3,3.3,1.4,3.3,3.5c0,1.9-1.6,3.7-4.8,3.7c-3.3,0-4.9-1.5-5.2-3.7h2
		c0.2,1.3,1.3,2,3.1,2s2.9-0.6,2.9-1.9c0-1-0.6-1.6-2.1-1.8l-2.6-0.4c-1.7-0.3-2.8-1.2-2.8-2.9c0-1.9,1.5-3.5,4.6-3.5
		c2.8,0,4.4,1.3,4.6,3.3h-2c-0.2-1.1-1.3-1.6-2.7-1.6c-1.5,0-2.5,0.6-2.5,1.6c0,0.9,0.6,1.3,1.8,1.4L376.3,515.5z"/>
	<path class="st2" d="M388.2,515.5l1.3,0.2c2,0.3,3.3,1.4,3.3,3.5c0,1.9-1.6,3.7-4.8,3.7c-3.3,0-4.9-1.5-5.2-3.7h2
		c0.2,1.3,1.3,2,3.1,2s2.9-0.6,2.9-1.9c0-1-0.6-1.6-2.1-1.8l-2.6-0.4c-1.7-0.3-2.8-1.2-2.8-2.9c0-1.9,1.5-3.5,4.6-3.5
		c2.8,0,4.4,1.3,4.6,3.3h-2c-0.2-1.1-1.3-1.6-2.7-1.6c-1.5,0-2.5,0.6-2.5,1.6c0,0.9,0.6,1.3,1.8,1.4L388.2,515.5z"/>
	<path class="st2" d="M405.9,516.8H397c0.1,2.8,1.3,4.5,3.7,4.5c1.6,0,2.6-0.7,3-1.8h2c-0.4,2-2.1,3.5-5,3.5c-3.6,0-5.7-2.7-5.7-6.3
		c0-3.6,2.1-6,5.6-6c3.5,0,5.1,2.6,5.2,5.4V516.8z M397.1,515.1h6.7c-0.1-1.5-1.3-2.8-3.2-2.8C398.5,512.4,397.4,513.6,397.1,515.1z
		"/>
	<path class="st2" d="M413.3,515.5l1.3,0.2c2,0.3,3.3,1.4,3.3,3.5c0,1.9-1.6,3.7-4.8,3.7c-3.3,0-4.9-1.5-5.2-3.7h2
		c0.2,1.3,1.3,2,3.1,2c1.8,0,2.9-0.6,2.9-1.9c0-1-0.6-1.6-2.1-1.8l-2.6-0.4c-1.7-0.3-2.8-1.2-2.8-2.9c0-1.9,1.5-3.5,4.6-3.5
		c2.8,0,4.4,1.3,4.6,3.3h-2c-0.2-1.1-1.3-1.6-2.7-1.6c-1.5,0-2.5,0.6-2.5,1.6c0,0.9,0.6,1.3,1.8,1.4L413.3,515.5z"/>
	<path class="st2" d="M435.7,522.6v-7c0-2.2-1-3.2-3-3.2c-2.1,0-3.5,1.8-3.5,3.9v6.3h-2v-11.7h1.9v1.3h0.5c0.6-0.9,1.9-1.6,3.5-1.6
		c2.9,0,4.5,1.8,4.5,4.6v7.4H435.7z"/>
	<path class="st2" d="M451.4,516.8h-8.9c0.1,2.8,1.3,4.5,3.7,4.5c1.6,0,2.6-0.7,3-1.8h2c-0.4,2-2.1,3.5-5,3.5
		c-3.6,0-5.7-2.7-5.7-6.3c0-3.6,2.1-6,5.6-6c3.5,0,5.1,2.6,5.2,5.4V516.8z M442.6,515.1h6.7c-0.1-1.5-1.3-2.8-3.2-2.8
		C444,512.4,442.9,513.6,442.6,515.1z"/>
	<path class="st2" d="M464.6,516.8h-8.9c0.1,2.8,1.3,4.5,3.7,4.5c1.6,0,2.6-0.7,3-1.8h2c-0.4,2-2.1,3.5-5,3.5
		c-3.6,0-5.7-2.7-5.7-6.3c0-3.6,2.1-6,5.6-6c3.5,0,5.1,2.6,5.2,5.4V516.8z M455.8,515.1h6.7c-0.1-1.5-1.3-2.8-3.2-2.8
		C457.2,512.4,456.1,513.6,455.8,515.1z"/>
	<path class="st2" d="M478.1,505.8v16.9h-1.9v-1.3h-0.5c-0.6,0.8-1.8,1.6-3.6,1.6c-3.2,0-5.1-2.7-5.1-6.1c0-3.5,1.9-6.1,5.1-6.1
		c1.9,0,2.9,0.7,3.6,1.6h0.5v-6.4H478.1z M476.2,516.8c0-2.3-1.1-4.4-3.7-4.4c-2.3,0-3.6,1.8-3.6,4.4s1.3,4.4,3.6,4.4
		C475.1,521.2,476.2,519.1,476.2,516.8z"/>
	<path class="st2" d="M494,510.9v1.7h-2.9v6.4c0,1.2,0.5,1.8,2.1,1.8h0.9v1.8h-0.9c-2.5,0-4-0.8-4-3.3v-6.7h-2v-1.7h2v-3.5h2v3.5
		H494z"/>
	<path class="st2" d="M505.7,522.6v-7c0-2.1-1-3.2-3-3.2c-2.1,0-3.5,1.8-3.5,3.9v6.3h-2v-16.9h2v6.4h0.5c0.6-0.9,1.9-1.6,3.5-1.6
		c2.9,0,4.4,1.8,4.4,4.6v7.4H505.7z"/>
	<path class="st2" d="M521.4,516.8h-8.9c0.1,2.8,1.3,4.5,3.7,4.5c1.6,0,2.6-0.7,3-1.8h2c-0.4,2-2.1,3.5-5,3.5
		c-3.6,0-5.7-2.7-5.7-6.3c0-3.6,2.1-6,5.6-6c3.5,0,5.1,2.6,5.2,5.4V516.8z M512.6,515.1h6.7c-0.1-1.5-1.3-2.8-3.2-2.8
		C514,512.4,512.8,513.6,512.6,515.1z"/>
	<path class="st2" d="M532.8,505.8v16.9h-2v-16.9H532.8z"/>
	<path class="st2" d="M547.4,516.8c0,3.5-2.1,6.1-5.7,6.1c-3.7,0-5.7-2.7-5.7-6.1c0-3.5,2.1-6.1,5.7-6.1
		C545.3,510.6,547.4,513.3,547.4,516.8z M545.5,516.8c0-2.3-1.2-4.4-3.8-4.4c-2.6,0-3.8,2.1-3.8,4.4s1.2,4.4,3.8,4.4
		C544.2,521.2,545.5,519.1,545.5,516.8z"/>
	<path class="st2" d="M561,510.9v11.1c0,3.3-2,5.4-5.4,5.4c-3,0-4.9-1.3-5.3-3.6h1.9c0.3,1.4,1.6,1.9,3.3,1.9c2.4,0,3.5-1.5,3.5-3.8
		V521h-0.5c-0.6,0.8-1.7,1.6-3.5,1.6c-3.2,0-5.2-2.5-5.2-6c0-3.4,2-6,5.2-6c1.8,0,2.9,0.7,3.6,1.6h0.5v-1.3H561z M559,516.6
		c0-2.2-1.2-4.3-3.7-4.3c-2.3,0-3.6,1.7-3.6,4.3c0,2.5,1.3,4.2,3.6,4.2C557.8,520.9,559,518.9,559,516.6z"/>
	<path class="st2" d="M564.8,507.9v-2.1h2.1v2.1H564.8z M566.8,522.6h-2v-11.7h2V522.6z"/>
	<path class="st2" d="M580.5,519.1c-0.4,2.3-2.2,3.8-4.9,3.8c-3.6,0-5.7-2.7-5.7-6.1c0-3.5,2-6.1,5.7-6.1c2.8,0,4.5,1.5,4.8,3.7h-2
		c-0.4-1.2-1.3-2-2.9-2c-2.6,0-3.7,2.1-3.7,4.4c0,2.3,1.1,4.5,3.7,4.5c1.7,0,2.6-0.8,2.9-2.1H580.5z"/>
	<path class="st2" d="M592,510.3c0,2.4-1.2,3.3-2.8,4.7c-1.1,0.9-1.5,1.2-1.5,2.7v0.6h-2v-0.6c0-2,0.7-2.7,2.2-3.9
		c1.3-1,2.1-1.7,2.1-3.4c0-1.4-1-2.8-3-2.8s-3,0.9-3.2,3.1h-2c0.1-3,2-4.8,5.1-4.8C590,505.8,592,507.5,592,510.3z M585.4,522.6
		v-2.7h2.4v2.7H585.4z"/>
</g>
<g>
	<path class="st2" d="M333.9,226.1v16.5h-2.1v-16.5H333.9z"/>
	<path class="st2" d="M342.4,235.6l1.3,0.2c2,0.3,3.3,1.4,3.3,3.5c0,1.9-1.6,3.7-4.8,3.7c-3.3,0-4.9-1.5-5.2-3.7h2
		c0.2,1.3,1.3,2,3.1,2s2.9-0.6,2.9-1.9c0-1-0.6-1.6-2.1-1.8l-2.6-0.4c-1.7-0.3-2.8-1.2-2.8-2.9c0-1.9,1.5-3.5,4.6-3.5
		c2.8,0,4.4,1.3,4.6,3.3h-2c-0.2-1.1-1.3-1.6-2.7-1.6c-1.5,0-2.5,0.6-2.5,1.6c0,0.9,0.6,1.3,1.8,1.4L342.4,235.6z"/>
	<path class="st2" d="M356.4,227.9v-2.1h2.1v2.1H356.4z M358.4,242.7h-2V231h2V242.7z"/>
	<path class="st2" d="M368,231v1.7H365v6.4c0,1.2,0.5,1.8,2.1,1.8h0.9v1.8h-0.9c-2.5,0-4-0.8-4-3.3v-6.7h-2V231h2v-3.5h2v3.5H368z"
		/>
	<path class="st2" d="M393.8,235.1v7.6h-2v-7.3c0-1.9-0.7-2.9-2.2-2.9c-1.8,0-2.9,1.4-2.9,3.4v6.8h-2v-7.3c0-1.9-0.8-2.9-2.2-2.9
		c-1.9,0-2.9,1.6-2.9,3.8v6.5h-2V231h1.9v1.1h0.5c0.6-0.9,1.5-1.4,3-1.4c1.4,0,2.5,0.5,3.1,1.6h0.5c0.7-1,1.8-1.6,3.3-1.6
		C392.6,230.7,393.8,232.4,393.8,235.1z"/>
	<path class="st2" d="M407.5,236.8h-8.9c0.1,2.8,1.3,4.5,3.7,4.5c1.6,0,2.6-0.7,3-1.8h2c-0.4,2-2.1,3.5-5,3.5
		c-3.6,0-5.7-2.7-5.7-6.3c0-3.6,2.1-6,5.6-6c3.5,0,5.1,2.6,5.2,5.4V236.8z M398.7,235.1h6.7c-0.1-1.5-1.3-2.8-3.2-2.8
		C400.1,232.4,399,233.7,398.7,235.1z"/>
	<path class="st2" d="M418,241.4h-0.5c-0.7,0.9-2,1.5-3.6,1.5c-2.7,0-4.2-1.8-4.2-3.8c0-1.9,1.2-3.9,4.5-3.9h3.8v-0.5
		c0-1.4-0.8-2.4-2.9-2.4c-1.7,0-2.6,0.7-2.7,1.7h-2c0.2-2.2,2-3.4,4.6-3.4c2.9,0,4.8,1.4,4.8,4v8H418V241.4z M417.9,237.9v-1.1h-3.5
		c-1.9,0-2.8,0.8-2.8,2.2c0,1.3,1,2.2,2.7,2.2C416.3,241.2,417.9,239.8,417.9,237.9z"/>
	<path class="st2" d="M431.9,242.7v-7c0-2.2-1-3.2-3-3.2c-2.1,0-3.5,1.8-3.5,3.9v6.3h-2V231h1.9v1.3h0.5c0.6-0.9,1.9-1.6,3.5-1.6
		c2.9,0,4.5,1.8,4.5,4.6v7.4H431.9z"/>
	<path class="st2" d="M443.1,231v1.7h-2.9v6.4c0,1.2,0.5,1.8,2.1,1.8h0.9v1.8h-0.9c-2.5,0-4-0.8-4-3.3v-6.7h-2V231h2v-3.5h2v3.5
		H443.1z"/>
	<path class="st2" d="M458.5,231v1.7h-2.9v6.4c0,1.2,0.5,1.8,2.1,1.8h0.9v1.8h-0.9c-2.5,0-4-0.8-4-3.3v-6.7h-2V231h2v-3.5h2v3.5
		H458.5z"/>
	<path class="st2" d="M472.3,236.8c0,3.5-2.1,6.1-5.7,6.1c-3.7,0-5.7-2.7-5.7-6.1s2.1-6.1,5.7-6.1
		C470.2,230.7,472.3,233.4,472.3,236.8z M470.3,236.8c0-2.3-1.2-4.4-3.8-4.4c-2.6,0-3.8,2.1-3.8,4.4c0,2.3,1.2,4.4,3.8,4.4
		C469.1,241.2,470.3,239.1,470.3,236.8z"/>
	<path class="st2" d="M493,236.8c0,3.5-1.9,6.1-5.1,6.1c-1.9,0-3-0.7-3.6-1.6h-0.5v1.3h-1.9v-16.9h2v6.4h0.5
		c0.6-0.8,1.7-1.6,3.6-1.6C491.1,230.7,493,233.3,493,236.8z M491,236.8c0-2.6-1.3-4.4-3.6-4.4c-2.6,0-3.7,2.1-3.7,4.4
		c0,2.3,1.1,4.4,3.7,4.4C489.8,241.2,491,239.4,491,236.8z"/>
	<path class="st2" d="M506.2,236.8h-8.9c0.1,2.8,1.3,4.5,3.7,4.5c1.6,0,2.6-0.7,3-1.8h2c-0.4,2-2.1,3.5-5,3.5
		c-3.6,0-5.7-2.7-5.7-6.3c0-3.6,2.1-6,5.6-6c3.5,0,5.1,2.6,5.2,5.4V236.8z M497.4,235.1h6.7c-0.1-1.5-1.3-2.8-3.2-2.8
		C498.8,232.4,497.7,233.7,497.4,235.1z"/>
	<path class="st2" d="M517.5,231v7c0,2.2,1,3.2,3,3.2c2.1,0,3.5-1.8,3.5-3.9V231h2v11.7H524v-1.3h-0.5c-0.6,0.9-1.9,1.6-3.5,1.6
		c-2.9,0-4.5-1.8-4.5-4.6V231H517.5z"/>
	<path class="st2" d="M534.1,235.6l1.3,0.2c2,0.3,3.3,1.4,3.3,3.5c0,1.9-1.6,3.7-4.8,3.7c-3.3,0-4.9-1.5-5.2-3.7h2
		c0.2,1.3,1.3,2,3.1,2s2.9-0.6,2.9-1.9c0-1-0.6-1.6-2.1-1.8l-2.6-0.4c-1.7-0.3-2.8-1.2-2.8-2.9c0-1.9,1.5-3.5,4.6-3.5
		c2.8,0,4.4,1.3,4.6,3.3h-2c-0.2-1.1-1.3-1.6-2.7-1.6c-1.5,0-2.5,0.6-2.5,1.6c0,0.9,0.6,1.3,1.8,1.4L534.1,235.6z"/>
	<path class="st2" d="M551.7,236.8h-8.9c0.1,2.8,1.3,4.5,3.7,4.5c1.6,0,2.6-0.7,3-1.8h2c-0.4,2-2.1,3.5-5,3.5
		c-3.6,0-5.7-2.7-5.7-6.3c0-3.6,2.1-6,5.6-6c3.5,0,5.1,2.6,5.2,5.4V236.8z M543,235.1h6.7c-0.1-1.5-1.3-2.8-3.2-2.8
		C544.4,232.4,543.2,233.7,543,235.1z"/>
	<path class="st2" d="M565.2,225.8v16.9h-1.9v-1.3h-0.5c-0.6,0.8-1.8,1.6-3.6,1.6c-3.2,0-5.1-2.7-5.1-6.1c0-3.5,1.9-6.1,5.1-6.1
		c1.9,0,2.9,0.7,3.6,1.6h0.5v-6.4H565.2z M563.3,236.8c0-2.3-1.1-4.4-3.7-4.4c-2.3,0-3.6,1.8-3.6,4.4c0,2.6,1.3,4.4,3.6,4.4
		C562.2,241.2,563.3,239.1,563.3,236.8z"/>
	<path class="st2" d="M586.7,236.8c0,3.5-1.9,6.1-5.1,6.1c-1.9,0-3-0.7-3.6-1.6h-0.5v1.3h-1.9v-16.9h2v6.4h0.5
		c0.6-0.8,1.7-1.6,3.6-1.6C584.8,230.7,586.7,233.3,586.7,236.8z M584.7,236.8c0-2.6-1.3-4.4-3.6-4.4c-2.6,0-3.7,2.1-3.7,4.4
		c0,2.3,1.1,4.4,3.7,4.4C583.4,241.2,584.7,239.4,584.7,236.8z"/>
	<path class="st2" d="M590.9,247.3l2.4-5.7l-5-10.6h2.1l3.6,7.7h0.6l3.2-7.7h2.1l-7,16.3H590.9z"/>
	<path class="st2" d="M379.4,266.9c-0.4,2.3-2.2,3.8-4.9,3.8c-3.6,0-5.7-2.7-5.7-6.1c0-3.5,2-6.1,5.7-6.1c2.8,0,4.5,1.5,4.8,3.7h-2
		c-0.4-1.2-1.3-2-2.9-2c-2.6,0-3.7,2.1-3.7,4.4c0,2.3,1.1,4.5,3.7,4.5c1.7,0,2.6-0.8,2.9-2.1H379.4z"/>
	<path class="st2" d="M384.3,253.6v16.9h-2v-16.9H384.3z"/>
	<path class="st2" d="M395.5,269.2H395c-0.7,0.9-2,1.5-3.6,1.5c-2.7,0-4.2-1.8-4.2-3.8c0-1.9,1.2-3.9,4.5-3.9h3.8v-0.5
		c0-1.4-0.8-2.4-2.9-2.4c-1.7,0-2.6,0.7-2.7,1.7h-2c0.2-2.2,2-3.4,4.6-3.4c2.9,0,4.8,1.4,4.8,4v8h-1.9V269.2z M395.5,265.7v-1.1H392
		c-1.9,0-2.8,0.8-2.8,2.2c0,1.3,1,2.2,2.7,2.2C393.8,269,395.5,267.6,395.5,265.7z"/>
	<path class="st2" d="M405.4,263.4l1.3,0.2c2,0.3,3.3,1.4,3.3,3.5c0,1.9-1.6,3.7-4.8,3.7c-3.3,0-4.9-1.5-5.2-3.7h2
		c0.2,1.3,1.3,2,3.1,2s2.9-0.6,2.9-1.9c0-1-0.6-1.6-2.1-1.8l-2.6-0.4c-1.7-0.3-2.8-1.2-2.8-2.9c0-1.9,1.5-3.5,4.6-3.5
		c2.8,0,4.4,1.3,4.6,3.3h-2c-0.2-1.1-1.3-1.6-2.7-1.6c-1.5,0-2.5,0.6-2.5,1.6c0,0.9,0.6,1.3,1.8,1.4L405.4,263.4z"/>
	<path class="st2" d="M417.3,263.4l1.3,0.2c2,0.3,3.3,1.4,3.3,3.5c0,1.9-1.6,3.7-4.8,3.7c-3.3,0-4.9-1.5-5.2-3.7h2
		c0.2,1.3,1.3,2,3.1,2s2.9-0.6,2.9-1.9c0-1-0.6-1.6-2.1-1.8l-2.6-0.4c-1.7-0.3-2.8-1.2-2.8-2.9c0-1.9,1.5-3.5,4.6-3.5
		c2.8,0,4.4,1.3,4.6,3.3h-2c-0.2-1.1-1.3-1.6-2.7-1.6c-1.5,0-2.5,0.6-2.5,1.6c0,0.9,0.6,1.3,1.8,1.4L417.3,263.4z"/>
	<path class="st2" d="M441.1,266.9c-0.4,2.3-2.2,3.8-4.9,3.8c-3.6,0-5.7-2.7-5.7-6.1c0-3.5,2-6.1,5.7-6.1c2.8,0,4.5,1.5,4.8,3.7h-2
		c-0.4-1.2-1.3-2-2.9-2c-2.6,0-3.7,2.1-3.7,4.4c0,2.3,1.1,4.5,3.7,4.5c1.7,0,2.6-0.8,2.9-2.1H441.1z"/>
	<path class="st2" d="M454.9,264.6c0,3.5-2.1,6.1-5.7,6.1c-3.7,0-5.7-2.7-5.7-6.1s2.1-6.1,5.7-6.1
		C452.8,258.5,454.9,261.2,454.9,264.6z M452.9,264.6c0-2.3-1.2-4.4-3.8-4.4c-2.6,0-3.8,2.1-3.8,4.4c0,2.3,1.2,4.4,3.8,4.4
		C451.7,269,452.9,266.9,452.9,264.6z"/>
	<path class="st2" d="M466.4,270.5v-7c0-2.2-1-3.2-3-3.2c-2.1,0-3.5,1.8-3.5,3.9v6.3h-2v-11.7h1.9v1.3h0.5c0.6-0.9,1.9-1.6,3.5-1.6
		c2.9,0,4.5,1.8,4.5,4.6v7.4H466.4z"/>
	<path class="st2" d="M476.3,263.4l1.3,0.2c2,0.3,3.3,1.4,3.3,3.5c0,1.9-1.6,3.7-4.8,3.7c-3.3,0-4.9-1.5-5.2-3.7h2
		c0.2,1.3,1.3,2,3.1,2c1.8,0,2.9-0.6,2.9-1.9c0-1-0.6-1.6-2.1-1.8l-2.6-0.4c-1.7-0.3-2.8-1.2-2.8-2.9c0-1.9,1.5-3.5,4.6-3.5
		c2.8,0,4.4,1.3,4.6,3.3h-2c-0.2-1.1-1.3-1.6-2.7-1.6c-1.5,0-2.5,0.6-2.5,1.6c0,0.9,0.6,1.3,1.8,1.4L476.3,263.4z"/>
	<path class="st2" d="M485.6,258.8v7c0,2.2,1,3.2,3,3.2c2.1,0,3.5-1.8,3.5-3.9v-6.3h2v11.7h-1.9v-1.3h-0.5c-0.6,0.9-1.9,1.6-3.5,1.6
		c-2.9,0-4.5-1.8-4.5-4.6v-7.4H485.6z"/>
	<path class="st2" d="M514,262.9v7.6h-2v-7.3c0-1.9-0.7-2.9-2.2-2.9c-1.8,0-2.9,1.4-2.9,3.4v6.8h-2v-7.3c0-1.9-0.8-2.9-2.2-2.9
		c-1.9,0-2.9,1.6-2.9,3.8v6.5h-2v-11.7h1.9v1.1h0.5c0.6-0.9,1.5-1.4,3-1.4c1.4,0,2.5,0.5,3.1,1.6h0.5c0.7-1,1.8-1.6,3.3-1.6
		C512.8,258.5,514,260.2,514,262.9z"/>
	<path class="st2" d="M527.7,264.6h-8.9c0.1,2.8,1.3,4.5,3.7,4.5c1.6,0,2.6-0.7,3-1.8h2c-0.4,2-2.1,3.5-5,3.5
		c-3.6,0-5.7-2.7-5.7-6.3c0-3.6,2.1-6,5.6-6c3.5,0,5.1,2.6,5.2,5.4V264.6z M518.9,263h6.7c-0.1-1.5-1.3-2.8-3.2-2.8
		C520.3,260.2,519.2,261.5,518.9,263z"/>
	<path class="st2" d="M537.4,260.6h-1c-2.3,0-3.7,1.4-3.7,4v5.8h-2v-11.7h1.9v1.4h0.5c0.6-0.7,1.7-1.4,3.4-1.4h0.9V260.6z"/>
	<path class="st2" d="M544.4,263.4l1.3,0.2c2,0.3,3.3,1.4,3.3,3.5c0,1.9-1.6,3.7-4.8,3.7c-3.3,0-4.9-1.5-5.2-3.7h2
		c0.2,1.3,1.3,2,3.1,2s2.9-0.6,2.9-1.9c0-1-0.6-1.6-2.1-1.8l-2.6-0.4c-1.7-0.3-2.8-1.2-2.8-2.9c0-1.9,1.5-3.5,4.6-3.5
		c2.8,0,4.4,1.3,4.6,3.3h-2c-0.2-1.1-1.3-1.6-2.7-1.6c-1.5,0-2.5,0.6-2.5,1.6c0,0.9,0.6,1.3,1.8,1.4L544.4,263.4z"/>
	<path class="st2" d="M560.8,258.1c0,2.4-1.2,3.3-2.8,4.7c-1.1,0.9-1.5,1.2-1.5,2.7v0.6h-2v-0.6c0-2,0.7-2.7,2.2-3.9
		c1.3-1,2.1-1.7,2.1-3.4c0-1.4-1-2.8-3-2.8s-3,0.9-3.2,3.1h-2c0.1-3,2-4.8,5.1-4.8C558.8,253.6,560.8,255.4,560.8,258.1z
		 M554.2,270.5v-2.7h2.4v2.7H554.2z"/>
</g>
<g>
	<path class="st2" d="M821.3,56.1v16.5h-2.1V56.1H821.3z"/>
	<path class="st2" d="M829.8,65.6l1.3,0.2c2,0.3,3.3,1.4,3.3,3.5c0,1.9-1.6,3.7-4.8,3.7c-3.3,0-4.9-1.5-5.2-3.7h2
		c0.2,1.3,1.3,2,3.1,2c1.8,0,2.9-0.6,2.9-1.9c0-1-0.6-1.6-2.1-1.8l-2.6-0.4c-1.7-0.3-2.8-1.2-2.8-2.9c0-1.9,1.5-3.5,4.6-3.5
		c2.8,0,4.4,1.3,4.6,3.3h-2c-0.2-1.1-1.3-1.6-2.7-1.6c-1.5,0-2.5,0.6-2.5,1.6c0,0.9,0.6,1.3,1.8,1.4L829.8,65.6z"/>
	<path class="st2" d="M843.8,57.9v-2.1h2.1v2.1H843.8z M845.8,72.7h-2V61h2V72.7z"/>
	<path class="st2" d="M855.3,61v1.7h-2.9v6.4c0,1.2,0.5,1.8,2.1,1.8h0.9v1.8h-0.9c-2.5,0-4-0.8-4-3.3v-6.7h-2V61h2v-3.5h2V61H855.3z
		"/>
	<path class="st2" d="M881.1,65.1v7.6h-2v-7.3c0-1.9-0.7-2.9-2.2-2.9c-1.8,0-2.9,1.4-2.9,3.4v6.8h-2v-7.3c0-1.9-0.8-2.9-2.2-2.9
		c-1.9,0-2.9,1.6-2.9,3.8v6.5h-2V61h1.9v1.1h0.5c0.6-0.9,1.5-1.4,3-1.4c1.4,0,2.5,0.5,3.1,1.6h0.5c0.7-1,1.8-1.6,3.3-1.6
		C880,60.7,881.1,62.4,881.1,65.1z"/>
	<path class="st2" d="M894.9,66.8H886c0.1,2.8,1.3,4.5,3.7,4.5c1.6,0,2.6-0.7,3-1.8h2c-0.4,2-2.1,3.5-5,3.5c-3.6,0-5.7-2.7-5.7-6.3
		c0-3.6,2.1-6,5.6-6c3.5,0,5.1,2.6,5.2,5.4V66.8z M886.1,65.1h6.7c-0.1-1.5-1.3-2.8-3.2-2.8C887.5,62.4,886.3,63.7,886.1,65.1z"/>
	<path class="st2" d="M903.6,61v1.7h-2.9v6.4c0,1.2,0.5,1.8,2.1,1.8h0.9v1.8h-0.9c-2.5,0-4-0.8-4-3.3v-6.7h-2V61h2v-3.5h2V61H903.6z
		"/>
	<path class="st2" d="M915.2,72.7v-7c0-2.1-1-3.2-3-3.2c-2.1,0-3.5,1.8-3.5,3.9v6.3h-2V55.8h2v6.4h0.5c0.6-0.9,1.9-1.6,3.5-1.6
		c2.9,0,4.4,1.8,4.4,4.6v7.4H915.2z"/>
	<path class="st2" d="M931.6,66.8c0,3.5-2.1,6.1-5.7,6.1c-3.7,0-5.7-2.7-5.7-6.1c0-3.5,2.1-6.1,5.7-6.1
		C929.5,60.7,931.6,63.4,931.6,66.8z M929.6,66.8c0-2.3-1.2-4.4-3.8-4.4c-2.6,0-3.8,2.1-3.8,4.4c0,2.3,1.2,4.4,3.8,4.4
		C928.4,71.2,929.6,69.1,929.6,66.8z"/>
	<path class="st2" d="M945.1,55.8v16.9h-1.9v-1.3h-0.5c-0.6,0.8-1.8,1.6-3.6,1.6c-3.2,0-5.1-2.7-5.1-6.1c0-3.5,1.9-6.1,5.1-6.1
		c1.9,0,2.9,0.7,3.6,1.6h0.5v-6.4H945.1z M943.2,66.8c0-2.3-1.1-4.4-3.7-4.4c-2.3,0-3.6,1.8-3.6,4.4c0,2.6,1.3,4.4,3.6,4.4
		C942.1,71.2,943.2,69.1,943.2,66.8z"/>
	<path class="st2" d="M773,92.6l1.9,5.8h0.5l1.3-9.6h1.9l-1.7,11.7h-3l-2-5.9h-0.5l-2,5.9h-3.1l-1.7-11.7h1.9l1.4,9.6h0.5l2-5.8H773
		z"/>
	<path class="st2" d="M781.6,85.7v-2.1h2.1v2.1H781.6z M783.7,100.5h-2V88.8h2V100.5z"/>
	<path class="st2" d="M793.2,88.8v1.7h-2.9v6.4c0,1.2,0.5,1.8,2.1,1.8h0.9v1.8h-0.9c-2.5,0-4-0.8-4-3.3v-6.7h-2v-1.7h2v-3.5h2v3.5
		H793.2z"/>
	<path class="st2" d="M804.8,100.5v-7c0-2.1-1-3.2-3-3.2c-2.1,0-3.5,1.8-3.5,3.9v6.3h-2V83.6h2V90h0.5c0.6-0.9,1.9-1.6,3.5-1.6
		c2.9,0,4.4,1.8,4.4,4.6v7.4H804.8z"/>
	<path class="st2" d="M824.3,99.2h-0.5c-0.7,0.9-2,1.5-3.6,1.5c-2.7,0-4.2-1.8-4.2-3.8c0-1.9,1.2-3.9,4.5-3.9h3.8v-0.5
		c0-1.4-0.8-2.4-2.9-2.4c-1.7,0-2.6,0.7-2.7,1.7h-2c0.2-2.2,2-3.4,4.6-3.4c2.9,0,4.8,1.4,4.8,4v8h-1.9V99.2z M824.2,95.7v-1.1h-3.5
		c-1.9,0-2.8,0.8-2.8,2.2c0,1.3,1,2.2,2.7,2.2C822.6,99,824.2,97.6,824.2,95.7z"/>
	<path class="st2" d="M844.6,100.5v-7c0-2.1-1-3.2-3-3.2c-2.1,0-3.5,1.8-3.5,3.9v6.3h-2V83.6h2V90h0.5c0.6-0.9,1.9-1.6,3.5-1.6
		c2.9,0,4.4,1.8,4.4,4.6v7.4H844.6z"/>
	<path class="st2" d="M850.2,85.7v-2.1h2.1v2.1H850.2z M852.2,100.5h-2V88.8h2V100.5z"/>
	<path class="st2" d="M866.5,88.8v11.1c0,3.3-2,5.4-5.4,5.4c-3,0-4.9-1.3-5.3-3.6h1.9c0.3,1.4,1.6,1.9,3.3,1.9
		c2.4,0,3.5-1.5,3.5-3.8v-0.9h-0.5c-0.6,0.8-1.7,1.6-3.5,1.6c-3.2,0-5.2-2.5-5.2-6c0-3.4,2-6,5.2-6c1.8,0,2.9,0.7,3.6,1.6h0.5v-1.3
		H866.5z M864.6,94.5c0-2.2-1.2-4.3-3.7-4.3c-2.3,0-3.6,1.7-3.6,4.3c0,2.5,1.3,4.2,3.6,4.2C863.4,98.7,864.6,96.7,864.6,94.5z"/>
	<path class="st2" d="M878.8,100.5v-7c0-2.1-1-3.2-3-3.2c-2.1,0-3.5,1.8-3.5,3.9v6.3h-2V83.6h2V90h0.5c0.6-0.9,1.9-1.6,3.5-1.6
		c2.9,0,4.4,1.8,4.4,4.6v7.4H878.8z"/>
	<path class="st2" d="M883.6,94.9v-1.7h6.3v1.7H883.6z"/>
	<path class="st2" d="M894.9,83.6v16.9h-2V83.6H894.9z"/>
	<path class="st2" d="M908.8,94.6h-8.9c0.1,2.8,1.3,4.5,3.7,4.5c1.6,0,2.6-0.7,3-1.8h2c-0.4,2-2.1,3.5-5,3.5c-3.6,0-5.7-2.7-5.7-6.3
		c0-3.6,2.1-6,5.6-6c3.5,0,5.1,2.6,5.2,5.4V94.6z M900.1,93h6.7c-0.1-1.5-1.3-2.8-3.2-2.8C901.5,90.2,900.3,91.5,900.1,93z"/>
	<path class="st2" d="M910.5,88.8h2l3.3,9.8h1l3.2-9.8h2.1l-3.9,11.7h-3.7L910.5,88.8z"/>
	<path class="st2" d="M934.3,94.6h-8.9c0.1,2.8,1.3,4.5,3.7,4.5c1.6,0,2.6-0.7,3-1.8h2c-0.4,2-2.1,3.5-5,3.5c-3.6,0-5.7-2.7-5.7-6.3
		c0-3.6,2.1-6,5.6-6c3.5,0,5.1,2.6,5.2,5.4V94.6z M925.5,93h6.7c-0.1-1.5-1.3-2.8-3.2-2.8C927,90.2,925.8,91.5,925.5,93z"/>
	<path class="st2" d="M939.4,83.6v16.9h-2V83.6H939.4z"/>
	<path class="st2" d="M951.6,83.6v16.9h-2V83.6H951.6z"/>
	<path class="st2" d="M966.1,94.6c0,3.5-2.1,6.1-5.7,6.1c-3.7,0-5.7-2.7-5.7-6.1s2.1-6.1,5.7-6.1C964,88.5,966.1,91.2,966.1,94.6z
		 M964.2,94.6c0-2.3-1.2-4.4-3.8-4.4c-2.6,0-3.8,2.1-3.8,4.4c0,2.3,1.2,4.4,3.8,4.4C963,99,964.2,96.9,964.2,94.6z"/>
	<path class="st2" d="M979.7,88.8v11.1c0,3.3-2,5.4-5.4,5.4c-3,0-4.9-1.3-5.3-3.6h1.9c0.3,1.4,1.6,1.9,3.3,1.9
		c2.4,0,3.5-1.5,3.5-3.8v-0.9h-0.5c-0.6,0.8-1.7,1.6-3.5,1.6c-3.2,0-5.2-2.5-5.2-6c0-3.4,2-6,5.2-6c1.8,0,2.9,0.7,3.6,1.6h0.5v-1.3
		H979.7z M977.8,94.5c0-2.2-1.2-4.3-3.7-4.3c-2.3,0-3.6,1.7-3.6,4.3c0,2.5,1.3,4.2,3.6,4.2C976.6,98.7,977.8,96.7,977.8,94.5z"/>
	<path class="st2" d="M983.5,85.7v-2.1h2.1v2.1H983.5z M985.5,100.5h-2V88.8h2V100.5z"/>
	<path class="st2" d="M999.2,96.9c-0.4,2.3-2.2,3.8-4.9,3.8c-3.6,0-5.7-2.7-5.7-6.1c0-3.5,2-6.1,5.7-6.1c2.8,0,4.5,1.5,4.8,3.7h-2
		c-0.4-1.2-1.3-2-2.9-2c-2.6,0-3.7,2.1-3.7,4.4c0,2.3,1.1,4.5,3.7,4.5c1.7,0,2.6-0.8,2.9-2.1H999.2z"/>
	<path class="st2" d="M776.7,131.5h-1.9c-2-2.4-3.7-5.9-3.7-10.5c0-4.6,1.6-8,3.5-10.4h1.9c-1.9,2.5-3.6,5.8-3.6,10.4
		C773,125.7,774.8,129,776.7,131.5z"/>
	<path class="st2" d="M786.2,127h-0.5c-0.7,0.9-2,1.5-3.6,1.5c-2.7,0-4.2-1.8-4.2-3.8c0-1.9,1.2-3.9,4.5-3.9h3.8v-0.5
		c0-1.4-0.8-2.4-2.9-2.4c-1.7,0-2.6,0.7-2.7,1.7h-2c0.2-2.2,2-3.4,4.6-3.4c2.9,0,4.8,1.4,4.8,4v8h-1.9V127z M786.1,123.5v-1.1h-3.5
		c-1.9,0-2.8,0.8-2.8,2.2c0,1.3,1,2.2,2.7,2.2C784.5,126.9,786.1,125.4,786.1,123.5z"/>
	<path class="st2" d="M800.4,114.4v2.7H798v-3.1l1.3-2.2h1.3l-1.3,2.2v0.4H800.4z M804.5,114.4v2.7h-2.4v-3.1l1.3-2.2h1.3l-1.3,2.2
		v0.4H804.5z"/>
	<path class="st2" d="M817.6,124.7c-0.4,2.3-2.2,3.8-4.9,3.8c-3.6,0-5.7-2.7-5.7-6.1c0-3.5,2-6.1,5.7-6.1c2.8,0,4.5,1.5,4.8,3.7h-2
		c-0.4-1.2-1.3-2-2.9-2c-2.6,0-3.7,2.1-3.7,4.4c0,2.3,1.1,4.5,3.7,4.5c1.7,0,2.6-0.8,2.9-2.1H817.6z"/>
	<path class="st2" d="M831.3,122.4c0,3.5-2.1,6.1-5.7,6.1c-3.7,0-5.7-2.7-5.7-6.1s2.1-6.1,5.7-6.1
		C829.2,116.3,831.3,119,831.3,122.4z M829.4,122.4c0-2.3-1.2-4.4-3.8-4.4c-2.6,0-3.8,2.1-3.8,4.4c0,2.3,1.2,4.4,3.8,4.4
		C828.1,126.9,829.4,124.7,829.4,122.4z"/>
	<path class="st2" d="M842.8,128.3v-7c0-2.2-1-3.2-3-3.2c-2.1,0-3.5,1.8-3.5,3.9v6.3h-2v-11.7h1.9v1.3h0.5c0.6-0.9,1.9-1.6,3.5-1.6
		c2.9,0,4.5,1.8,4.5,4.6v7.4H842.8z"/>
	<path class="st2" d="M854.1,116.6v1.7h-2.9v6.4c0,1.2,0.5,1.8,2.1,1.8h0.9v1.8h-0.9c-2.5,0-4-0.8-4-3.3v-6.7h-2v-1.7h2v-3.5h2v3.5
		H854.1z"/>
	<path class="st2" d="M864,118.4h-1c-2.3,0-3.7,1.4-3.7,4v5.8h-2v-11.7h1.9v1.4h0.5c0.6-0.7,1.7-1.4,3.4-1.4h0.9V118.4z"/>
	<path class="st2" d="M877.3,122.4c0,3.5-2.1,6.1-5.7,6.1c-3.7,0-5.7-2.7-5.7-6.1s2.1-6.1,5.7-6.1
		C875.2,116.3,877.3,119,877.3,122.4z M875.4,122.4c0-2.3-1.2-4.4-3.8-4.4c-2.6,0-3.8,2.1-3.8,4.4c0,2.3,1.2,4.4,3.8,4.4
		C874.1,126.9,875.4,124.7,875.4,122.4z"/>
	<path class="st2" d="M882.4,111.4v16.9h-2v-16.9H882.4z"/>
	<path class="st2" d="M903.8,122.4c0,3.5-1.9,6.1-5.1,6.1c-1.9,0-3-0.7-3.6-1.6h-0.5v1.3h-1.9v-16.9h2v6.4h0.5
		c0.6-0.8,1.7-1.6,3.6-1.6C901.9,116.3,903.8,118.9,903.8,122.4z M901.8,122.4c0-2.6-1.3-4.4-3.6-4.4c-2.6,0-3.7,2.1-3.7,4.4
		c0,2.3,1.1,4.4,3.7,4.4C900.6,126.9,901.8,125,901.8,122.4z"/>
	<path class="st2" d="M908.6,116.6v7c0,2.2,1,3.2,3,3.2c2.1,0,3.5-1.8,3.5-3.9v-6.3h2v11.7h-1.9V127h-0.5c-0.6,0.9-1.9,1.6-3.5,1.6
		c-2.9,0-4.5-1.8-4.5-4.6v-7.4H908.6z"/>
	<path class="st2" d="M926.5,116.6v1.7h-2.9v6.4c0,1.2,0.5,1.8,2.1,1.8h0.9v1.8h-0.9c-2.5,0-4-0.8-4-3.3v-6.7h-2v-1.7h2v-3.5h2v3.5
		H926.5z"/>
	<path class="st2" d="M935.4,116.6v1.7h-2.9v6.4c0,1.2,0.5,1.8,2.1,1.8h0.9v1.8h-0.9c-2.5,0-4-0.8-4-3.3v-6.7h-2v-1.7h2v-3.5h2v3.5
		H935.4z"/>
	<path class="st2" d="M949.2,122.4c0,3.5-2.1,6.1-5.7,6.1c-3.7,0-5.7-2.7-5.7-6.1s2.1-6.1,5.7-6.1
		C947.1,116.3,949.2,119,949.2,122.4z M947.3,122.4c0-2.3-1.2-4.4-3.8-4.4c-2.6,0-3.8,2.1-3.8,4.4c0,2.3,1.2,4.4,3.8,4.4
		C946.1,126.9,947.3,124.7,947.3,122.4z"/>
	<path class="st2" d="M960.7,128.3v-7c0-2.2-1-3.2-3-3.2c-2.1,0-3.5,1.8-3.5,3.9v6.3h-2v-11.7h1.9v1.3h0.5c0.6-0.9,1.9-1.6,3.5-1.6
		c2.9,0,4.5,1.8,4.5,4.6v7.4H960.7z"/>
	<path class="st2" d="M966.2,114.4v-2.7h2.4v3.1l-1.3,2.2h-1.3l1.3-2.2v-0.4H966.2z M970.3,114.4v-2.7h2.4v3.1l-1.3,2.2h-1.3
		l1.3-2.2v-0.4H970.3z"/>
	<path class="st2" d="M985.6,115.9c0,2.4-1.2,3.3-2.8,4.7c-1.1,0.9-1.5,1.2-1.5,2.7v0.6h-2v-0.6c0-2,0.7-2.7,2.2-3.9
		c1.3-1,2.1-1.7,2.1-3.4c0-1.4-1-2.8-3-2.8s-3,0.9-3.2,3.1h-2c0.1-3,2-4.8,5.1-4.8C983.7,111.4,985.6,113.2,985.6,115.9z
		 M979.1,128.3v-2.7h2.4v2.7H979.1z"/>
	<path class="st2" d="M987.4,110.7h1.9c1.9,2.4,3.5,5.8,3.5,10.4c0,4.6-1.7,8.1-3.7,10.5h-1.9c1.9-2.5,3.7-5.8,3.7-10.5
		C991,116.4,989.3,113.2,987.4,110.7z"/>
</g>
<g>
	<path class="st2" d="M1098.4,250.6v16.5h-2.1v-16.5H1098.4z"/>
	<path class="st2" d="M1106.9,260l1.3,0.2c2,0.3,3.3,1.4,3.3,3.5c0,1.9-1.6,3.7-4.8,3.7c-3.3,0-4.9-1.5-5.2-3.7h2
		c0.2,1.3,1.3,2,3.1,2c1.8,0,2.9-0.6,2.9-1.9c0-1-0.6-1.6-2.1-1.8l-2.6-0.4c-1.7-0.3-2.8-1.2-2.8-2.9c0-1.9,1.5-3.5,4.6-3.5
		c2.8,0,4.4,1.3,4.6,3.3h-2c-0.2-1.1-1.3-1.6-2.7-1.6c-1.5,0-2.5,0.6-2.5,1.6c0,0.9,0.6,1.3,1.8,1.4L1106.9,260z"/>
	<path class="st2" d="M1126.5,255.4v1.7h-2.9v6.4c0,1.2,0.5,1.8,2.1,1.8h0.9v1.8h-0.9c-2.5,0-4-0.8-4-3.3v-6.7h-2v-1.7h2v-3.5h2v3.5
		H1126.5z"/>
	<path class="st2" d="M1138.2,267.1v-7c0-2.1-1-3.2-3-3.2c-2.1,0-3.5,1.8-3.5,3.9v6.3h-2v-16.9h2v6.4h0.5c0.6-0.9,1.9-1.6,3.5-1.6
		c2.9,0,4.4,1.8,4.4,4.6v7.4H1138.2z"/>
	<path class="st2" d="M1153.9,261.2h-8.9c0.1,2.8,1.3,4.5,3.7,4.5c1.6,0,2.6-0.7,3-1.8h2c-0.4,2-2.1,3.5-5,3.5
		c-3.6,0-5.7-2.7-5.7-6.3c0-3.6,2.1-6,5.6-6c3.5,0,5.1,2.6,5.2,5.4V261.2z M1145.1,259.6h6.7c-0.1-1.5-1.3-2.8-3.2-2.8
		C1146.5,256.8,1145.4,258.1,1145.1,259.6z"/>
	<path class="st2" d="M1163.6,257.3h-1c-2.3,0-3.7,1.4-3.7,4v5.8h-2v-11.7h1.9v1.4h0.5c0.6-0.7,1.7-1.4,3.4-1.4h0.9V257.3z"/>
	<path class="st2" d="M1176.3,261.2h-8.9c0.1,2.8,1.3,4.5,3.7,4.5c1.6,0,2.6-0.7,3-1.8h2c-0.4,2-2.1,3.5-5,3.5
		c-3.6,0-5.7-2.7-5.7-6.3c0-3.6,2.1-6,5.6-6c3.5,0,5.1,2.6,5.2,5.4V261.2z M1167.5,259.6h6.7c-0.1-1.5-1.3-2.8-3.2-2.8
		C1169,256.8,1167.8,258.1,1167.5,259.6z"/>
	<path class="st2" d="M1193.3,265.9h-0.5c-0.7,0.9-2,1.5-3.6,1.5c-2.7,0-4.2-1.8-4.2-3.8c0-1.9,1.2-3.9,4.5-3.9h3.8v-0.5
		c0-1.4-0.8-2.4-2.9-2.4c-1.7,0-2.6,0.7-2.7,1.7h-2c0.2-2.2,2-3.4,4.6-3.4c2.9,0,4.8,1.4,4.8,4v8h-1.9V265.9z M1193.2,262.4v-1.1
		h-3.5c-1.9,0-2.8,0.8-2.8,2.2c0,1.3,1,2.2,2.7,2.2C1191.6,265.7,1193.2,264.2,1193.2,262.4z"/>
	<path class="st2" d="M1209.5,260l1.3,0.2c2,0.3,3.3,1.4,3.3,3.5c0,1.9-1.6,3.7-4.8,3.7c-3.3,0-4.9-1.5-5.2-3.7h2
		c0.2,1.3,1.3,2,3.1,2s2.9-0.6,2.9-1.9c0-1-0.6-1.6-2.1-1.8l-2.6-0.4c-1.7-0.3-2.8-1.2-2.8-2.9c0-1.9,1.5-3.5,4.6-3.5
		c2.8,0,4.4,1.3,4.6,3.3h-2c-0.2-1.1-1.3-1.6-2.7-1.6c-1.5,0-2.5,0.6-2.5,1.6c0,0.9,0.6,1.3,1.8,1.4L1209.5,260z"/>
	<path class="st2" d="M1219,255.4v1.3h0.5c0.6-0.8,1.8-1.6,3.6-1.6c3.2,0,5.1,2.7,5.1,6.1c0,3.5-1.9,6.1-5.1,6.1
		c-1.9,0-2.9-0.7-3.6-1.6h-0.5v5.9h-2v-16.3H1219z M1219,261.3c0,2.3,1.1,4.4,3.7,4.4c2.3,0,3.6-1.8,3.6-4.4c0-2.6-1.3-4.4-3.6-4.4
		C1220.1,256.8,1219,259,1219,261.3z"/>
	<path class="st2" d="M1241.5,261.2h-8.9c0.1,2.8,1.3,4.5,3.7,4.5c1.6,0,2.6-0.7,3-1.8h2c-0.4,2-2.1,3.5-5,3.5
		c-3.6,0-5.7-2.7-5.7-6.3c0-3.6,2.1-6,5.6-6c3.5,0,5.1,2.6,5.2,5.4V261.2z M1232.7,259.6h6.7c-0.1-1.5-1.3-2.8-3.2-2.8
		C1234.1,256.8,1232.9,258.1,1232.7,259.6z"/>
	<path class="st2" d="M1254.4,263.6c-0.4,2.3-2.2,3.8-4.9,3.8c-3.6,0-5.7-2.7-5.7-6.1c0-3.5,2-6.1,5.7-6.1c2.8,0,4.5,1.5,4.8,3.7h-2
		c-0.4-1.2-1.3-2-2.9-2c-2.6,0-3.7,2.1-3.7,4.4c0,2.3,1.1,4.5,3.7,4.5c1.7,0,2.6-0.8,2.9-2.1H1254.4z"/>
	<path class="st2" d="M1257.3,252.4v-2.1h2.1v2.1H1257.3z M1259.4,267.1h-2v-11.7h2V267.1z"/>
	<path class="st2" d="M1265.9,257.1v10h-2v-10h-2v-1.7h2v-1.3c0-2.7,1.5-3.8,4-3.8h1.1v1.7h-1.1c-1.6,0-2.1,1-2.1,2.2v1.3h3.2v1.7
		H1265.9z M1271.5,252.4v-2.1h2.1v2.1H1271.5z M1273.5,267.1h-2v-11.7h2V267.1z"/>
	<path class="st2" d="M1287.2,263.6c-0.4,2.3-2.2,3.8-4.9,3.8c-3.6,0-5.7-2.7-5.7-6.1c0-3.5,2-6.1,5.7-6.1c2.8,0,4.5,1.5,4.8,3.7h-2
		c-0.4-1.2-1.3-2-2.9-2c-2.6,0-3.7,2.1-3.7,4.4c0,2.3,1.1,4.5,3.7,4.5c1.7,0,2.6-0.8,2.9-2.1H1287.2z"/>
	<path class="st2" d="M1298.6,250.3v16.9h-2v-16.9H1298.6z"/>
	<path class="st2" d="M1313.2,261.3c0,3.5-2.1,6.1-5.7,6.1c-3.7,0-5.7-2.7-5.7-6.1s2.1-6.1,5.7-6.1
		C1311.1,255.1,1313.2,257.8,1313.2,261.3z M1311.2,261.3c0-2.3-1.2-4.4-3.8-4.4c-2.6,0-3.8,2.1-3.8,4.4c0,2.3,1.2,4.4,3.8,4.4
		C1310,265.7,1311.2,263.6,1311.2,261.3z"/>
	<path class="st2" d="M1326.7,255.4v11.1c0,3.3-2,5.4-5.4,5.4c-3,0-4.9-1.3-5.3-3.6h1.9c0.3,1.4,1.6,1.9,3.3,1.9
		c2.4,0,3.5-1.5,3.5-3.8v-0.9h-0.5c-0.6,0.8-1.7,1.6-3.5,1.6c-3.2,0-5.2-2.5-5.2-6c0-3.4,2-6,5.2-6c1.8,0,2.9,0.7,3.6,1.6h0.5v-1.3
		H1326.7z M1324.8,261.1c0-2.2-1.2-4.3-3.7-4.3c-2.3,0-3.6,1.7-3.6,4.3c0,2.5,1.3,4.2,3.6,4.2
		C1323.6,265.4,1324.8,263.3,1324.8,261.1z"/>
	<path class="st2" d="M1330.5,252.4v-2.1h2.1v2.1H1330.5z M1332.5,267.1h-2v-11.7h2V267.1z"/>
	<path class="st2" d="M1346.3,263.6c-0.4,2.3-2.2,3.8-4.9,3.8c-3.6,0-5.7-2.7-5.7-6.1c0-3.5,2-6.1,5.7-6.1c2.8,0,4.5,1.5,4.8,3.7h-2
		c-0.4-1.2-1.3-2-2.9-2c-2.6,0-3.7,2.1-3.7,4.4c0,2.3,1.1,4.5,3.7,4.5c1.7,0,2.6-0.8,2.9-2.1H1346.3z"/>
	<path class="st2" d="M1098.6,283.2h2l3.3,9.8h1l3.2-9.8h2.1l-3.9,11.7h-3.7L1098.6,283.2z"/>
	<path class="st2" d="M1119.7,293.7h-0.5c-0.7,0.9-2,1.5-3.6,1.5c-2.7,0-4.2-1.8-4.2-3.8c0-1.9,1.2-3.9,4.5-3.9h3.8v-0.5
		c0-1.4-0.8-2.4-2.9-2.4c-1.7,0-2.6,0.7-2.7,1.7h-2c0.2-2.2,2-3.4,4.6-3.4c2.9,0,4.8,1.4,4.8,4v8h-1.9V293.7z M1119.6,290.2v-1.1
		h-3.5c-1.9,0-2.8,0.8-2.8,2.2c0,1.3,1,2.2,2.7,2.2C1118,293.5,1119.6,292,1119.6,290.2z"/>
	<path class="st2" d="M1127.1,278.1v16.9h-2v-16.9H1127.1z"/>
	<path class="st2" d="M1132.7,283.2v7c0,2.2,1,3.2,3,3.2c2.1,0,3.5-1.8,3.5-3.9v-6.3h2v11.7h-1.9v-1.3h-0.5
		c-0.6,0.9-1.9,1.6-3.5,1.6c-2.9,0-4.5-1.8-4.5-4.6v-7.4H1132.7z"/>
	<path class="st2" d="M1152.4,293.7h-0.5c-0.7,0.9-2,1.5-3.6,1.5c-2.7,0-4.2-1.8-4.2-3.8c0-1.9,1.2-3.9,4.5-3.9h3.8v-0.5
		c0-1.4-0.8-2.4-2.9-2.4c-1.7,0-2.6,0.7-2.7,1.7h-2c0.2-2.2,2-3.4,4.6-3.4c2.9,0,4.8,1.4,4.8,4v8h-1.9V293.7z M1152.3,290.2v-1.1
		h-3.5c-1.9,0-2.8,0.8-2.8,2.2c0,1.3,1,2.2,2.7,2.2C1150.7,293.5,1152.3,292,1152.3,290.2z"/>
	<path class="st2" d="M1169,289.1c0,3.5-1.9,6.1-5.1,6.1c-1.9,0-3-0.7-3.6-1.6h-0.5v1.3h-1.9v-16.9h2v6.4h0.5
		c0.6-0.8,1.7-1.6,3.6-1.6C1167.1,282.9,1169,285.6,1169,289.1z M1167,289.1c0-2.6-1.3-4.4-3.6-4.4c-2.6,0-3.7,2.1-3.7,4.4
		c0,2.3,1.1,4.4,3.7,4.4C1165.8,293.5,1167,291.7,1167,289.1z"/>
	<path class="st2" d="M1174.1,278.1v16.9h-2v-16.9H1174.1z"/>
	<path class="st2" d="M1188,289.1h-8.9c0.1,2.8,1.3,4.5,3.7,4.5c1.6,0,2.6-0.7,3-1.8h2c-0.4,2-2.1,3.5-5,3.5c-3.6,0-5.7-2.7-5.7-6.3
		c0-3.6,2.1-6,5.6-6c3.5,0,5.1,2.6,5.2,5.4V289.1z M1179.2,287.4h6.7c-0.1-1.5-1.3-2.8-3.2-2.8
		C1180.6,284.7,1179.5,285.9,1179.2,287.4z"/>
	<path class="st2" d="M1200.2,285v10h-2v-10h-2v-1.7h2v-1.3c0-2.7,1.5-3.8,4-3.8h1.1v1.7h-1.1c-1.6,0-2.1,1-2.1,2.2v1.3h3.2v1.7
		H1200.2z"/>
	<path class="st2" d="M1216.5,289.1c0,3.5-2.1,6.1-5.7,6.1c-3.7,0-5.7-2.7-5.7-6.1s2.1-6.1,5.7-6.1
		C1214.4,282.9,1216.5,285.6,1216.5,289.1z M1214.5,289.1c0-2.3-1.2-4.4-3.8-4.4c-2.6,0-3.8,2.1-3.8,4.4c0,2.3,1.2,4.4,3.8,4.4
		C1213.3,293.5,1214.5,291.4,1214.5,289.1z"/>
	<path class="st2" d="M1226.2,285.1h-1c-2.3,0-3.7,1.4-3.7,4v5.8h-2v-11.7h1.9v1.4h0.5c0.6-0.7,1.7-1.4,3.4-1.4h0.9V285.1z"/>
	<path class="st2" d="M1245.4,289.1h-8.9c0.1,2.8,1.3,4.5,3.7,4.5c1.6,0,2.6-0.7,3-1.8h2c-0.4,2-2.1,3.5-5,3.5
		c-3.6,0-5.7-2.7-5.7-6.3c0-3.6,2.1-6,5.6-6c3.5,0,5.1,2.6,5.2,5.4V289.1z M1236.6,287.4h6.7c-0.1-1.5-1.3-2.8-3.2-2.8
		C1238,284.7,1236.8,285.9,1236.6,287.4z"/>
	<path class="st2" d="M1253,290h-0.8l-3,4.9h-2.2l3.6-6l-3.3-5.7h2.1l2.7,4.6h0.8l2.7-4.6h2.1l-3.3,5.6l3.6,6h-2.2L1253,290z"/>
	<path class="st2" d="M1266.5,283.2v1.7h-2.9v6.4c0,1.2,0.5,1.8,2.1,1.8h0.9v1.8h-0.9c-2.5,0-4-0.8-4-3.3V285h-2v-1.7h2v-3.5h2v3.5
		H1266.5z"/>
	<path class="st2" d="M1279.7,289.1h-8.9c0.1,2.8,1.3,4.5,3.7,4.5c1.6,0,2.6-0.7,3-1.8h2c-0.4,2-2.1,3.5-5,3.5
		c-3.6,0-5.7-2.7-5.7-6.3c0-3.6,2.1-6,5.6-6c3.5,0,5.1,2.6,5.2,5.4V289.1z M1270.9,287.4h6.7c-0.1-1.5-1.3-2.8-3.2-2.8
		C1272.3,284.7,1271.2,285.9,1270.9,287.4z"/>
	<path class="st2" d="M1291.2,294.9v-7c0-2.2-1-3.2-3-3.2c-2.1,0-3.5,1.8-3.5,3.9v6.3h-2v-11.7h1.9v1.3h0.5c0.6-0.9,1.9-1.6,3.5-1.6
		c2.9,0,4.5,1.8,4.5,4.6v7.4H1291.2z"/>
	<path class="st2" d="M1307.2,278.1v16.9h-1.9v-1.3h-0.5c-0.6,0.8-1.8,1.6-3.6,1.6c-3.2,0-5.1-2.7-5.1-6.1c0-3.5,1.9-6.1,5.1-6.1
		c1.9,0,2.9,0.7,3.6,1.6h0.5v-6.4H1307.2z M1305.3,289.1c0-2.3-1.1-4.4-3.7-4.4c-2.3,0-3.6,1.8-3.6,4.4c0,2.6,1.3,4.4,3.6,4.4
		C1304.2,293.5,1305.3,291.4,1305.3,289.1z"/>
	<path class="st2" d="M1311,280.2v-2.1h2.1v2.1H1311z M1313,294.9h-2v-11.7h2V294.9z"/>
	<path class="st2" d="M1325.3,294.9v-7c0-2.2-1-3.2-3-3.2c-2.1,0-3.5,1.8-3.5,3.9v6.3h-2v-11.7h1.9v1.3h0.5c0.6-0.9,1.9-1.6,3.5-1.6
		c2.9,0,4.5,1.8,4.5,4.6v7.4H1325.3z"/>
	<path class="st2" d="M1341.3,283.2v11.1c0,3.3-2,5.4-5.4,5.4c-3,0-4.9-1.3-5.3-3.6h1.9c0.3,1.4,1.6,1.9,3.3,1.9
		c2.4,0,3.5-1.5,3.5-3.8v-0.9h-0.5c-0.6,0.8-1.7,1.6-3.5,1.6c-3.2,0-5.2-2.5-5.2-6c0-3.4,2-6,5.2-6c1.8,0,2.9,0.7,3.6,1.6h0.5v-1.3
		H1341.3z M1339.4,288.9c0-2.2-1.2-4.3-3.7-4.3c-2.3,0-3.6,1.7-3.6,4.3c0,2.5,1.3,4.2,3.6,4.2
		C1338.2,293.2,1339.4,291.1,1339.4,288.9z"/>
	<path class="st2" d="M1186.1,319.2c-0.4,2.3-2.2,3.8-4.9,3.8c-3.6,0-5.7-2.7-5.7-6.1c0-3.5,2-6.1,5.7-6.1c2.8,0,4.5,1.5,4.8,3.7h-2
		c-0.4-1.2-1.3-2-2.9-2c-2.6,0-3.7,2.1-3.7,4.4c0,2.3,1.1,4.5,3.7,4.5c1.7,0,2.6-0.8,2.9-2.1H1186.1z"/>
	<path class="st2" d="M1191,305.9v16.9h-2v-16.9H1191z"/>
	<path class="st2" d="M1202.2,321.5h-0.5c-0.7,0.9-2,1.5-3.6,1.5c-2.7,0-4.2-1.8-4.2-3.8c0-1.9,1.2-3.9,4.5-3.9h3.8v-0.5
		c0-1.4-0.8-2.4-2.9-2.4c-1.7,0-2.6,0.7-2.7,1.7h-2c0.2-2.2,2-3.4,4.6-3.4c2.9,0,4.8,1.4,4.8,4v8h-1.9V321.5z M1202.2,318v-1.1h-3.5
		c-1.9,0-2.8,0.8-2.8,2.2c0,1.3,1,2.2,2.7,2.2C1200.5,321.3,1202.2,319.9,1202.2,318z"/>
	<path class="st2" d="M1212.1,315.6l1.3,0.2c2,0.3,3.3,1.4,3.3,3.5c0,1.9-1.6,3.7-4.8,3.7c-3.3,0-4.9-1.5-5.2-3.7h2
		c0.2,1.3,1.3,2,3.1,2s2.9-0.6,2.9-1.9c0-1-0.6-1.6-2.1-1.8l-2.6-0.4c-1.7-0.3-2.8-1.2-2.8-2.9c0-1.9,1.5-3.5,4.6-3.5
		c2.8,0,4.4,1.3,4.6,3.3h-2c-0.2-1.1-1.3-1.6-2.7-1.6c-1.5,0-2.5,0.6-2.5,1.6c0,0.9,0.6,1.3,1.8,1.4L1212.1,315.6z"/>
	<path class="st2" d="M1224,315.6l1.3,0.2c2,0.3,3.3,1.4,3.3,3.5c0,1.9-1.6,3.7-4.8,3.7c-3.3,0-4.9-1.5-5.2-3.7h2
		c0.2,1.3,1.3,2,3.1,2s2.9-0.6,2.9-1.9c0-1-0.6-1.6-2.1-1.8l-2.6-0.4c-1.7-0.3-2.8-1.2-2.8-2.9c0-1.9,1.5-3.5,4.6-3.5
		c2.8,0,4.4,1.3,4.6,3.3h-2c-0.2-1.1-1.3-1.6-2.7-1.6c-1.5,0-2.5,0.6-2.5,1.6c0,0.9,0.6,1.3,1.8,1.4L1224,315.6z"/>
	<path class="st2" d="M1241.7,316.9h-8.9c0.1,2.8,1.3,4.5,3.7,4.5c1.6,0,2.6-0.7,3-1.8h2c-0.4,2-2.1,3.5-5,3.5
		c-3.6,0-5.7-2.7-5.7-6.3c0-3.6,2.1-6,5.6-6c3.5,0,5.1,2.6,5.2,5.4V316.9z M1232.9,315.2h6.7c-0.1-1.5-1.3-2.8-3.2-2.8
		C1234.3,312.5,1233.1,313.7,1232.9,315.2z"/>
	<path class="st2" d="M1249.1,315.6l1.3,0.2c2,0.3,3.3,1.4,3.3,3.5c0,1.9-1.6,3.7-4.8,3.7c-3.3,0-4.9-1.5-5.2-3.7h2
		c0.2,1.3,1.3,2,3.1,2c1.8,0,2.9-0.6,2.9-1.9c0-1-0.6-1.6-2.1-1.8l-2.6-0.4c-1.7-0.3-2.8-1.2-2.8-2.9c0-1.9,1.5-3.5,4.6-3.5
		c2.8,0,4.4,1.3,4.6,3.3h-2c-0.2-1.1-1.3-1.6-2.7-1.6c-1.5,0-2.5,0.6-2.5,1.6c0,0.9,0.6,1.3,1.8,1.4L1249.1,315.6z"/>
	<path class="st2" d="M1265.5,310.4c0,2.4-1.2,3.3-2.8,4.7c-1.1,0.9-1.5,1.2-1.5,2.7v0.6h-2v-0.6c0-2,0.7-2.7,2.2-3.9
		c1.3-1,2.1-1.7,2.1-3.4c0-1.4-1-2.8-3-2.8s-3,0.9-3.2,3.1h-2c0.1-3,2-4.8,5.1-4.8C1263.5,305.9,1265.5,307.6,1265.5,310.4z
		 M1259,322.7V320h2.4v2.7H1259z"/>
</g>
<g>
	<path class="st2" d="M1183.2,453.2v1.3h0.5c0.6-0.8,1.8-1.6,3.6-1.6c3.2,0,5.1,2.7,5.1,6.1c0,3.5-1.9,6.1-5.1,6.1
		c-1.9,0-2.9-0.7-3.6-1.6h-0.5v5.9h-2v-16.3H1183.2z M1183.3,459c0,2.3,1.1,4.4,3.7,4.4c2.3,0,3.6-1.8,3.6-4.4
		c0-2.6-1.3-4.4-3.6-4.4C1184.4,454.6,1183.3,456.7,1183.3,459z"/>
	<path class="st2" d="M1202.3,455h-1c-2.3,0-3.7,1.4-3.7,4v5.8h-2v-11.7h1.9v1.4h0.5c0.6-0.7,1.7-1.4,3.4-1.4h0.9V455z"/>
	<path class="st2" d="M1204.8,450.1V448h2.1v2.1H1204.8z M1206.9,464.9h-2v-11.7h2V464.9z"/>
	<path class="st2" d="M1209.3,453.2h2l3.3,9.8h1l3.2-9.8h2.1l-3.9,11.7h-3.7L1209.3,453.2z"/>
	<path class="st2" d="M1230.4,463.6h-0.5c-0.7,0.9-2,1.5-3.6,1.5c-2.7,0-4.2-1.8-4.2-3.8c0-1.9,1.2-3.9,4.5-3.9h3.8V457
		c0-1.4-0.8-2.4-2.9-2.4c-1.7,0-2.6,0.7-2.7,1.7h-2c0.2-2.2,2-3.4,4.6-3.4c2.9,0,4.8,1.4,4.8,4v8h-1.9V463.6z M1230.4,460.1v-1.1
		h-3.5c-1.9,0-2.8,0.8-2.8,2.2c0,1.3,1,2.2,2.7,2.2C1228.7,463.5,1230.4,462,1230.4,460.1z"/>
	<path class="st2" d="M1241.5,453.2v1.7h-2.9v6.4c0,1.2,0.5,1.8,2.1,1.8h0.9v1.8h-0.9c-2.5,0-4-0.8-4-3.3v-6.7h-2v-1.7h2v-3.5h2v3.5
		H1241.5z"/>
	<path class="st2" d="M1254.7,459h-8.9c0.1,2.8,1.3,4.5,3.7,4.5c1.6,0,2.6-0.7,3-1.8h2c-0.4,2-2.1,3.5-5,3.5c-3.6,0-5.7-2.7-5.7-6.3
		s2.1-6,5.6-6c3.5,0,5.1,2.6,5.2,5.4V459z M1246,457.4h6.7c-0.1-1.5-1.3-2.8-3.2-2.8C1247.4,454.6,1246.2,455.9,1246,457.4z"/>
</g>
<g>
	<path class="st2" d="M808.7,367.9v1.3h0.5c0.6-0.8,1.8-1.6,3.6-1.6c3.2,0,5.1,2.7,5.1,6.1c0,3.5-1.9,6.1-5.1,6.1
		c-1.9,0-2.9-0.7-3.6-1.6h-0.5v5.9h-2v-16.3H808.7z M808.8,373.7c0,2.3,1.1,4.4,3.7,4.4c2.3,0,3.6-1.8,3.6-4.4s-1.3-4.4-3.6-4.4
		C809.9,369.3,808.8,371.4,808.8,373.7z"/>
	<path class="st2" d="M827.8,369.7h-1c-2.3,0-3.7,1.4-3.7,4v5.8h-2v-11.7h1.9v1.4h0.5c0.6-0.7,1.7-1.4,3.4-1.4h0.9V369.7z"/>
	<path class="st2" d="M841.1,373.7c0,3.5-2.1,6.1-5.7,6.1c-3.7,0-5.7-2.7-5.7-6.1c0-3.5,2.1-6.1,5.7-6.1
		C839,367.5,841.1,370.2,841.1,373.7z M839.1,373.7c0-2.3-1.2-4.4-3.8-4.4c-2.6,0-3.8,2.1-3.8,4.4c0,2.3,1.2,4.4,3.8,4.4
		C837.9,378.1,839.1,376,839.1,373.7z"/>
	<path class="st2" d="M849.9,367.9v1.7h-2.9v6.4c0,1.2,0.5,1.8,2.1,1.8h0.9v1.8h-0.9c-2.5,0-4-0.8-4-3.3v-6.7h-2v-1.7h2v-3.5h2v3.5
		H849.9z"/>
	<path class="st2" d="M863,373.7h-8.9c0.1,2.8,1.3,4.5,3.7,4.5c1.6,0,2.6-0.7,3-1.8h2c-0.4,2-2.1,3.5-5,3.5c-3.6,0-5.7-2.7-5.7-6.3
		c0-3.6,2.1-6,5.6-6c3.5,0,5.1,2.6,5.2,5.4V373.7z M854.3,372h6.7c-0.1-1.5-1.3-2.8-3.2-2.8C855.7,369.3,854.5,370.5,854.3,372z"/>
	<path class="st2" d="M876,376c-0.4,2.3-2.2,3.8-4.9,3.8c-3.6,0-5.7-2.7-5.7-6.1c0-3.5,2-6.1,5.7-6.1c2.8,0,4.5,1.5,4.8,3.7h-2
		c-0.4-1.2-1.3-2-2.9-2c-2.6,0-3.7,2.1-3.7,4.4c0,2.3,1.1,4.5,3.7,4.5c1.7,0,2.6-0.8,2.9-2.1H876z"/>
	<path class="st2" d="M884.6,367.9v1.7h-2.9v6.4c0,1.2,0.5,1.8,2.1,1.8h0.9v1.8h-0.9c-2.5,0-4-0.8-4-3.3v-6.7h-2v-1.7h2v-3.5h2v3.5
		H884.6z"/>
	<path class="st2" d="M897.8,373.7h-8.9c0.1,2.8,1.3,4.5,3.7,4.5c1.6,0,2.6-0.7,3-1.8h2c-0.4,2-2.1,3.5-5,3.5
		c-3.6,0-5.7-2.7-5.7-6.3c0-3.6,2.1-6,5.6-6c3.5,0,5.1,2.6,5.2,5.4V373.7z M889,372h6.7c-0.1-1.5-1.3-2.8-3.2-2.8
		C890.4,369.3,889.2,370.5,889,372z"/>
	<path class="st2" d="M911.3,362.7v16.9h-1.9v-1.3h-0.5c-0.6,0.8-1.8,1.6-3.6,1.6c-3.2,0-5.1-2.7-5.1-6.1c0-3.5,1.9-6.1,5.1-6.1
		c1.9,0,2.9,0.7,3.6,1.6h0.5v-6.4H911.3z M909.3,373.7c0-2.3-1.1-4.4-3.7-4.4c-2.3,0-3.6,1.8-3.6,4.4s1.3,4.4,3.6,4.4
		C908.2,378.1,909.3,376,909.3,373.7z"/>
</g>
<g>
	<path class="st2" d="M730.1,574.9v1.3h0.5c0.6-0.8,1.8-1.6,3.6-1.6c3.2,0,5.1,2.7,5.1,6.1c0,3.5-1.9,6.1-5.1,6.1
		c-1.9,0-2.9-0.7-3.6-1.6h-0.5v5.9h-2v-16.3H730.1z M730.1,580.7c0,2.3,1.1,4.4,3.7,4.4c2.3,0,3.6-1.8,3.6-4.4
		c0-2.6-1.3-4.4-3.6-4.4C731.2,576.3,730.1,578.4,730.1,580.7z"/>
	<path class="st2" d="M749.1,576.7h-1c-2.3,0-3.7,1.4-3.7,4v5.8h-2v-11.7h1.9v1.4h0.5c0.6-0.7,1.7-1.4,3.4-1.4h0.9V576.7z"/>
	<path class="st2" d="M762.5,580.7c0,3.5-2.1,6.1-5.7,6.1c-3.7,0-5.7-2.7-5.7-6.1c0-3.5,2.1-6.1,5.7-6.1
		C760.4,574.5,762.5,577.2,762.5,580.7z M760.5,580.7c0-2.3-1.2-4.4-3.8-4.4c-2.6,0-3.8,2.1-3.8,4.4c0,2.3,1.2,4.4,3.8,4.4
		C759.3,585.1,760.5,583,760.5,580.7z"/>
	<path class="st2" d="M771.2,574.9v1.7h-2.9v6.4c0,1.2,0.5,1.8,2.1,1.8h0.9v1.8h-0.9c-2.5,0-4-0.8-4-3.3v-6.7h-2v-1.7h2v-3.5h2v3.5
		H771.2z"/>
	<path class="st2" d="M784.4,580.7h-8.9c0.1,2.8,1.3,4.5,3.7,4.5c1.6,0,2.6-0.7,3-1.8h2c-0.4,2-2.1,3.5-5,3.5
		c-3.6,0-5.7-2.7-5.7-6.3s2.1-6,5.6-6c3.5,0,5.1,2.6,5.2,5.4V580.7z M775.6,579h6.7c-0.1-1.5-1.3-2.8-3.2-2.8
		C777,576.3,775.9,577.5,775.6,579z"/>
	<path class="st2" d="M797.3,583c-0.4,2.3-2.2,3.8-4.9,3.8c-3.6,0-5.7-2.7-5.7-6.1c0-3.5,2-6.1,5.7-6.1c2.8,0,4.5,1.5,4.8,3.7h-2
		c-0.4-1.2-1.3-2-2.9-2c-2.6,0-3.7,2.1-3.7,4.4c0,2.3,1.1,4.5,3.7,4.5c1.7,0,2.6-0.8,2.9-2.1H797.3z"/>
	<path class="st2" d="M805.9,574.9v1.7H803v6.4c0,1.2,0.5,1.8,2.1,1.8h0.9v1.8H805c-2.5,0-4-0.8-4-3.3v-6.7h-2v-1.7h2v-3.5h2v3.5
		H805.9z"/>
	<path class="st2" d="M819.1,580.7h-8.9c0.1,2.8,1.3,4.5,3.7,4.5c1.6,0,2.6-0.7,3-1.8h2c-0.4,2-2.1,3.5-5,3.5
		c-3.6,0-5.7-2.7-5.7-6.3s2.1-6,5.6-6c3.5,0,5.1,2.6,5.2,5.4V580.7z M810.3,579h6.7c-0.1-1.5-1.3-2.8-3.2-2.8
		C811.7,576.3,810.6,577.5,810.3,579z"/>
	<path class="st2" d="M832.6,569.7v16.9h-1.9v-1.3h-0.5c-0.6,0.8-1.8,1.6-3.6,1.6c-3.2,0-5.1-2.7-5.1-6.1c0-3.5,1.9-6.1,5.1-6.1
		c1.9,0,2.9,0.7,3.6,1.6h0.5v-6.4H832.6z M830.7,580.7c0-2.3-1.1-4.4-3.7-4.4c-2.3,0-3.6,1.8-3.6,4.4c0,2.6,1.3,4.4,3.6,4.4
		C829.6,585.1,830.7,583,830.7,580.7z"/>
</g>
<g>
	<path class="st2" d="M220,466.9v-7c0-2.2-1-3.2-3-3.2c-2.1,0-3.5,1.8-3.5,3.9v6.3h-2v-11.7h1.9v1.3h0.5c0.6-0.9,1.9-1.6,3.5-1.6
		c2.9,0,4.5,1.8,4.5,4.6v7.4H220z"/>
	<path class="st2" d="M236.3,461c0,3.5-2.1,6.1-5.7,6.1c-3.7,0-5.7-2.7-5.7-6.1c0-3.5,2.1-6.1,5.7-6.1
		C234.2,454.9,236.3,457.6,236.3,461z M234.4,461c0-2.3-1.2-4.4-3.8-4.4c-2.6,0-3.8,2.1-3.8,4.4c0,2.3,1.2,4.4,3.8,4.4
		C233.2,465.5,234.4,463.3,234.4,461z"/>
</g>
<g>
	<path class="st2" d="M1255.3,395.7v-7c0-2.2-1-3.2-3-3.2c-2.1,0-3.5,1.8-3.5,3.9v6.3h-2V384h1.9v1.3h0.5c0.6-0.9,1.9-1.6,3.5-1.6
		c2.9,0,4.5,1.8,4.5,4.6v7.4H1255.3z"/>
	<path class="st2" d="M1271.7,389.9c0,3.5-2.1,6.1-5.7,6.1c-3.7,0-5.7-2.7-5.7-6.1c0-3.5,2.1-6.1,5.7-6.1
		C1269.6,383.7,1271.7,386.4,1271.7,389.9z M1269.7,389.9c0-2.3-1.2-4.4-3.8-4.4c-2.6,0-3.8,2.1-3.8,4.4c0,2.3,1.2,4.4,3.8,4.4
		C1268.5,394.3,1269.7,392.2,1269.7,389.9z"/>
</g>
<g>
	<path class="st2" d="M674.7,471.5l2.4-5.7l-5-10.6h2.1l3.6,7.7h0.6l3.2-7.7h2.1l-7,16.3H674.7z"/>
	<path class="st2" d="M695.9,461H687c0.1,2.8,1.3,4.5,3.7,4.5c1.6,0,2.6-0.7,3-1.8h2c-0.4,2-2.1,3.5-5,3.5c-3.6,0-5.7-2.7-5.7-6.3
		s2.1-6,5.6-6c3.5,0,5.1,2.6,5.2,5.4V461z M687.1,459.4h6.7c-0.1-1.5-1.3-2.8-3.2-2.8C688.6,456.6,687.4,457.9,687.1,459.4z"/>
	<path class="st2" d="M703.3,459.8l1.3,0.2c2,0.3,3.3,1.4,3.3,3.5c0,1.9-1.6,3.7-4.8,3.7c-3.3,0-4.9-1.5-5.2-3.7h2
		c0.2,1.3,1.3,2,3.1,2c1.8,0,2.9-0.6,2.9-1.9c0-1-0.6-1.6-2.1-1.8l-2.6-0.4c-1.7-0.3-2.8-1.2-2.8-2.9c0-1.9,1.5-3.5,4.6-3.5
		c2.8,0,4.4,1.3,4.6,3.3h-2c-0.2-1.1-1.3-1.6-2.7-1.6c-1.5,0-2.5,0.6-2.5,1.6c0,0.9,0.6,1.3,1.8,1.4L703.3,459.8z"/>
</g>
</svg>
