<svg width="1474" height="668" viewBox="0 0 1474 668" fill="none" xmlns="http://www.w3.org/2000/svg">
<g clip-path="url(#clip0_844_43)">
<rect width="1474" height="668" fill="white"/>
<path d="M73 577C73 577 159.501 610.5 248.109 20.999" stroke="#F96A02" stroke-width="4" stroke-linecap="round" stroke-linejoin="round"/>
<path d="M591.036 578.002C591.036 578.002 637.501 562.5 681.999 22.501" stroke="#007BFF" stroke-width="4" stroke-linecap="round" stroke-linejoin="round"/>
<path d="M1129 577.5C1129 577.5 1148.5 585.5 1168.5 22.0004" stroke="#F96A02" stroke-width="4" stroke-linecap="round" stroke-linejoin="round"/>
<path d="M1125.54 577.5C1125.54 577.5 1145.05 585.5 1165.04 22.0004" stroke="#007BFF" stroke-width="4" stroke-linecap="round" stroke-linejoin="round"/>
<path d="M73.0001 576.5C73.0001 576.5 145.502 528.123 222.173 21.6195" stroke="#007BFF" stroke-width="4" stroke-linecap="round" stroke-linejoin="round"/>
<path d="M592.164 576.882C592.164 576.882 642 616 692.5 20.0013" stroke="#F96A02" stroke-width="4" stroke-linecap="round" stroke-linejoin="round"/>
<path d="M72 622L72 35" stroke="#274867" stroke-width="2" stroke-miterlimit="10"/>
<path d="M21 579L352 579" stroke="#274867" stroke-width="2" stroke-miterlimit="10"/>
<path d="M72.1905 23L80.3828 39.3671L72.1905 35.2753L63.9982 39.3671L72.1905 23Z" fill="#274867" stroke="#274867" stroke-miterlimit="10"/>
<path d="M363.691 579.192L347.324 587.385L351.416 579.192L347.324 571L363.691 579.192Z" fill="#274867" stroke="#274867" stroke-miterlimit="10"/>
<path d="M590 622L590 35" stroke="#274867" stroke-width="2" stroke-miterlimit="10"/>
<path d="M539 579L870 579" stroke="#274867" stroke-width="2" stroke-miterlimit="10"/>
<path d="M590.191 23L598.383 39.3671L590.191 35.2753L581.998 39.3671L590.191 23Z" fill="#274867" stroke="#274867" stroke-miterlimit="10"/>
<path d="M881.691 579.192L865.324 587.385L869.416 579.192L865.324 571L881.691 579.192Z" fill="#274867" stroke="#274867" stroke-miterlimit="10"/>
<path d="M1124 622L1124 35" stroke="#274867" stroke-width="2" stroke-miterlimit="10"/>
<path d="M1073 579L1404 579" stroke="#274867" stroke-width="2" stroke-miterlimit="10"/>
<path d="M1124.19 23L1132.38 39.3671L1124.19 35.2753L1116 39.3671L1124.19 23Z" fill="#274867" stroke="#274867" stroke-miterlimit="10"/>
<path d="M1415.69 579.192L1399.32 587.385L1403.42 579.192L1399.32 571L1415.69 579.192Z" fill="#274867" stroke="#274867" stroke-miterlimit="10"/>
<line x1="297.5" y1="23" x2="297.5" y2="622" stroke="#274867" stroke-opacity="0.5"/>
<line x1="771.5" y1="23" x2="771.5" y2="622" stroke="#274867" stroke-opacity="0.5"/>
<line x1="1375.5" y1="31" x2="1375.5" y2="630" stroke="#274867" stroke-opacity="0.5"/>
<line x1="185.5" y1="23" x2="185.5" y2="622" stroke="#274867" stroke-opacity="0.5"/>
<line x1="364" y1="463.5" x2="21" y2="463.5" stroke="#274867" stroke-opacity="0.5"/>
<line x1="364" y1="351.5" x2="21" y2="351.5" stroke="#274867" stroke-opacity="0.5"/>
<line x1="364" y1="238.5" x2="21" y2="238.5" stroke="#274867" stroke-opacity="0.5"/>
<line x1="364" y1="122.5" x2="21" y2="122.5" stroke="#274867" stroke-opacity="0.5"/>
<line x1="882" y1="203.5" x2="539" y2="203.5" stroke="#274867" stroke-opacity="0.5"/>
<line x1="1454" y1="52.5" x2="1049" y2="52.5" stroke="#274867" stroke-opacity="0.5"/>
<line x1="1454" y1="303.5" x2="1049" y2="303.5" stroke="#274867" stroke-opacity="0.5"/>
<line x1="882" y1="385.5" x2="539" y2="385.5" stroke="#274867" stroke-opacity="0.5"/>
<path d="M1106.49 589.864C1102.94 589.864 1100.32 592.552 1100.32 598.6C1100.32 604.648 1102.94 607.312 1106.49 607.312C1110.04 607.312 1112.68 604.648 1112.68 598.6C1112.68 592.552 1110.04 589.864 1106.49 589.864ZM1106.49 605.44C1103.7 605.44 1102.43 602.752 1102.43 598.6C1102.43 594.424 1103.7 591.736 1106.49 591.736C1109.3 591.736 1110.57 594.424 1110.57 598.6C1110.57 602.752 1109.3 605.44 1106.49 605.44Z" fill="#274867"/>
<path d="M1368.61 595.696C1367.05 595.696 1366.14 596.176 1365.37 596.872H1364.84L1365.22 592.024H1373.12V590.2H1363.52L1362.78 599.056H1364.89C1365.61 598 1366.71 597.472 1368.22 597.472C1370.48 597.472 1371.9 599.104 1371.9 601.408C1371.9 603.904 1370.38 605.44 1368.15 605.44C1366.11 605.44 1364.74 604.384 1364.48 602.296H1362.39C1362.58 605.128 1364.55 607.312 1368.25 607.312C1371.66 607.312 1374.01 604.96 1374.01 601.312C1374.01 598.192 1371.97 595.696 1368.61 595.696ZM1382.76 589.864C1379.21 589.864 1376.59 592.552 1376.59 598.6C1376.59 604.648 1379.21 607.312 1382.76 607.312C1386.31 607.312 1388.95 604.648 1388.95 598.6C1388.95 592.552 1386.31 589.864 1382.76 589.864ZM1382.76 605.44C1379.98 605.44 1378.71 602.752 1378.71 598.6C1378.71 594.424 1379.98 591.736 1382.76 591.736C1385.57 591.736 1386.84 594.424 1386.84 598.6C1386.84 602.752 1385.57 605.44 1382.76 605.44Z" fill="#274867"/>
<path d="M1321.33 631.864V649H1323.49V631.864H1321.33ZM1338.54 649V641.32C1338.54 638.416 1336.91 636.592 1333.93 636.592C1332.3 636.592 1330.96 637.264 1330.28 638.2H1329.76V636.904H1327.79V649H1329.83V642.448C1329.83 640.312 1331.27 638.416 1333.43 638.416C1335.47 638.416 1336.5 639.52 1336.5 641.752V649H1338.54ZM1348.08 638.368C1350.5 638.368 1351.8 640.264 1351.8 642.952C1351.8 645.64 1350.5 647.536 1348.08 647.536C1345.39 647.536 1344.29 645.328 1344.29 642.952C1344.29 640.576 1345.39 638.368 1348.08 638.368ZM1342.27 636.904V653.8H1344.31V647.704H1344.84C1345.49 648.568 1346.62 649.312 1348.54 649.312C1351.87 649.312 1353.84 646.6 1353.84 642.952C1353.84 639.376 1351.87 636.592 1348.54 636.592C1346.62 636.592 1345.44 637.36 1344.77 638.2H1344.24V636.904H1342.27ZM1356.85 636.904V644.584C1356.85 647.488 1358.48 649.312 1361.45 649.312C1363.09 649.312 1364.43 648.64 1365.1 647.704H1365.63V649H1367.6V636.904H1365.56V643.456C1365.56 645.64 1364.09 647.488 1361.96 647.488C1359.92 647.488 1358.89 646.384 1358.89 644.152V636.904H1356.85ZM1374.33 636.904V633.256H1372.29V636.904H1370.2V638.68H1372.29V645.616C1372.29 648.184 1373.83 649 1376.44 649H1377.38V647.176H1376.49C1374.86 647.176 1374.33 646.552 1374.33 645.328V638.68H1377.38V636.904H1374.33ZM1390.77 641.464C1389.55 641.272 1388.95 640.912 1388.95 639.976C1388.95 638.944 1390.01 638.368 1391.57 638.368C1393.08 638.368 1394.23 638.896 1394.4 640.048H1396.44C1396.17 637.936 1394.52 636.592 1391.66 636.592C1388.4 636.592 1386.89 638.152 1386.89 640.168C1386.89 641.992 1388.06 642.904 1389.79 643.216L1392.5 643.672C1394.04 643.936 1394.71 644.512 1394.71 645.568C1394.71 646.888 1393.51 647.536 1391.69 647.536C1389.86 647.536 1388.66 646.864 1388.47 645.496H1386.41C1386.67 647.8 1388.35 649.312 1391.78 649.312C1395.05 649.312 1396.75 647.512 1396.75 645.52C1396.75 643.312 1395.41 642.232 1393.29 641.872L1391.93 641.656L1390.77 641.464ZM1401.9 633.76V631.552H1399.74V633.76H1401.9ZM1401.83 636.904H1399.79V649H1401.83V636.904ZM1415.08 649V647.224H1407.66V646.696L1415 639.184V636.904H1405.43V638.68H1412.39V639.184L1405.02 646.696V649H1415.08ZM1428.67 642.232C1428.6 639.256 1426.87 636.592 1423.27 636.592C1419.6 636.592 1417.44 639.112 1417.44 642.832C1417.44 646.552 1419.55 649.312 1423.32 649.312C1426.32 649.312 1428.07 647.728 1428.46 645.664H1426.39C1426.03 646.816 1425.03 647.536 1423.32 647.536C1420.83 647.536 1419.53 645.808 1419.46 642.928H1428.67V642.232ZM1423.23 638.368C1425.27 638.368 1426.44 639.688 1426.56 641.224H1419.58C1419.84 639.688 1421.04 638.368 1423.23 638.368Z" fill="#274867"/>
<path d="M718.328 631.864V649H720.488V631.864H718.328ZM735.54 649V641.32C735.54 638.416 733.908 636.592 730.932 636.592C729.3 636.592 727.956 637.264 727.284 638.2H726.756V636.904H724.788V649H726.828V642.448C726.828 640.312 728.268 638.416 730.428 638.416C732.468 638.416 733.5 639.52 733.5 641.752V649H735.54ZM745.081 638.368C747.505 638.368 748.801 640.264 748.801 642.952C748.801 645.64 747.505 647.536 745.081 647.536C742.393 647.536 741.289 645.328 741.289 642.952C741.289 640.576 742.393 638.368 745.081 638.368ZM739.273 636.904V653.8H741.313V647.704H741.841C742.489 648.568 743.617 649.312 745.537 649.312C748.873 649.312 750.841 646.6 750.841 642.952C750.841 639.376 748.873 636.592 745.537 636.592C743.617 636.592 742.441 637.36 741.769 638.2H741.241V636.904H739.273ZM753.846 636.904V644.584C753.846 647.488 755.478 649.312 758.454 649.312C760.086 649.312 761.43 648.64 762.102 647.704H762.63V649H764.598V636.904H762.558V643.456C762.558 645.64 761.094 647.488 758.958 647.488C756.918 647.488 755.886 646.384 755.886 644.152V636.904H753.846ZM771.331 636.904V633.256H769.291V636.904H767.203V638.68H769.291V645.616C769.291 648.184 770.827 649 773.443 649H774.379V647.176H773.491C771.859 647.176 771.331 646.552 771.331 645.328V638.68H774.379V636.904H771.331ZM787.773 641.464C786.549 641.272 785.949 640.912 785.949 639.976C785.949 638.944 787.005 638.368 788.565 638.368C790.077 638.368 791.229 638.896 791.397 640.048H793.437C793.173 637.936 791.517 636.592 788.661 636.592C785.397 636.592 783.885 638.152 783.885 640.168C783.885 641.992 785.061 642.904 786.789 643.216L789.501 643.672C791.037 643.936 791.709 644.512 791.709 645.568C791.709 646.888 790.509 647.536 788.685 647.536C786.861 647.536 785.661 646.864 785.469 645.496H783.405C783.669 647.8 785.349 649.312 788.781 649.312C792.045 649.312 793.749 647.512 793.749 645.52C793.749 643.312 792.405 642.232 790.293 641.872L788.925 641.656L787.773 641.464ZM798.901 633.76V631.552H796.741V633.76H798.901ZM798.829 636.904H796.789V649H798.829V636.904ZM812.075 649V647.224H804.659V646.696L812.003 639.184V636.904H802.427V638.68H809.387V639.184L802.019 646.696V649H812.075ZM825.675 642.232C825.603 639.256 823.875 636.592 820.275 636.592C816.603 636.592 814.443 639.112 814.443 642.832C814.443 646.552 816.555 649.312 820.323 649.312C823.323 649.312 825.075 647.728 825.459 645.664H823.395C823.035 646.816 822.027 647.536 820.323 647.536C817.827 647.536 816.531 645.808 816.459 642.928H825.675V642.232ZM820.227 638.368C822.267 638.368 823.443 639.688 823.563 641.224H816.579C816.843 639.688 818.043 638.368 820.227 638.368Z" fill="#274867"/>
<path d="M247.328 631.864V649H249.488V631.864H247.328ZM264.54 649V641.32C264.54 638.416 262.908 636.592 259.932 636.592C258.3 636.592 256.956 637.264 256.284 638.2H255.756V636.904H253.788V649H255.828V642.448C255.828 640.312 257.268 638.416 259.428 638.416C261.468 638.416 262.5 639.52 262.5 641.752V649H264.54ZM274.081 638.368C276.505 638.368 277.801 640.264 277.801 642.952C277.801 645.64 276.505 647.536 274.081 647.536C271.393 647.536 270.289 645.328 270.289 642.952C270.289 640.576 271.393 638.368 274.081 638.368ZM268.273 636.904V653.8H270.313V647.704H270.841C271.489 648.568 272.617 649.312 274.537 649.312C277.873 649.312 279.841 646.6 279.841 642.952C279.841 639.376 277.873 636.592 274.537 636.592C272.617 636.592 271.441 637.36 270.769 638.2H270.241V636.904H268.273ZM282.846 636.904V644.584C282.846 647.488 284.478 649.312 287.454 649.312C289.086 649.312 290.43 648.64 291.102 647.704H291.63V649H293.598V636.904H291.558V643.456C291.558 645.64 290.094 647.488 287.958 647.488C285.918 647.488 284.886 646.384 284.886 644.152V636.904H282.846ZM300.331 636.904V633.256H298.291V636.904H296.203V638.68H298.291V645.616C298.291 648.184 299.827 649 302.443 649H303.379V647.176H302.491C300.859 647.176 300.331 646.552 300.331 645.328V638.68H303.379V636.904H300.331ZM316.773 641.464C315.549 641.272 314.949 640.912 314.949 639.976C314.949 638.944 316.005 638.368 317.565 638.368C319.077 638.368 320.229 638.896 320.397 640.048H322.437C322.173 637.936 320.517 636.592 317.661 636.592C314.397 636.592 312.885 638.152 312.885 640.168C312.885 641.992 314.061 642.904 315.789 643.216L318.501 643.672C320.037 643.936 320.709 644.512 320.709 645.568C320.709 646.888 319.509 647.536 317.685 647.536C315.861 647.536 314.661 646.864 314.469 645.496H312.405C312.669 647.8 314.349 649.312 317.781 649.312C321.045 649.312 322.749 647.512 322.749 645.52C322.749 643.312 321.405 642.232 319.293 641.872L317.925 641.656L316.773 641.464ZM327.901 633.76V631.552H325.741V633.76H327.901ZM327.829 636.904H325.789V649H327.829V636.904ZM341.075 649V647.224H333.659V646.696L341.003 639.184V636.904H331.427V638.68H338.387V639.184L331.019 646.696V649H341.075ZM354.675 642.232C354.603 639.256 352.875 636.592 349.275 636.592C345.603 636.592 343.443 639.112 343.443 642.832C343.443 646.552 345.555 649.312 349.323 649.312C352.323 649.312 354.075 647.728 354.459 645.664H352.395C352.035 646.816 351.027 647.536 349.323 647.536C346.827 647.536 345.531 645.808 345.459 642.928H354.675V642.232ZM349.227 638.368C351.267 638.368 352.443 639.688 352.563 641.224H345.579C345.843 639.688 347.043 638.368 349.227 638.368Z" fill="#274867"/>
<path d="M1032.86 86.128L1032.86 99.568L1034.78 99.568L1034.78 93.904L1050 93.904L1050 91.744L1034.78 91.744L1034.78 86.128L1032.86 86.128ZM1034.76 81.5517L1032.55 81.5517L1032.55 83.7117L1034.76 83.7117L1034.76 81.5517ZM1037.9 81.6237L1037.9 83.6637L1050 83.6637L1050 81.6237L1037.9 81.6237ZM1037.59 64.9219C1037.59 66.4339 1038.12 67.5859 1039.2 68.3299L1039.2 68.8579C1038.12 69.5059 1037.59 70.5859 1037.59 72.0499C1037.59 73.5859 1038.14 74.5219 1039.08 75.1219L1039.08 75.6499L1037.9 75.6499L1037.9 77.6179L1050 77.6179L1050 75.5779L1043.3 75.5779C1041.12 75.5779 1039.42 74.6179 1039.42 72.6019C1039.42 71.0899 1040.45 70.2979 1042.44 70.2979L1050 70.2979L1050 68.2579L1042.92 68.2579C1040.88 68.2579 1039.42 67.2019 1039.42 65.3059C1039.42 63.7459 1040.4 62.9779 1042.39 62.9779L1050 62.9779L1050 60.9379L1042.18 60.9379C1039.39 60.9379 1037.59 62.1379 1037.59 64.9219ZM1043.23 46.7159C1040.26 46.7879 1037.59 48.5159 1037.59 52.1159C1037.59 55.7879 1040.11 57.9479 1043.83 57.9479C1047.55 57.9479 1050.31 55.8359 1050.31 52.0679C1050.31 49.0679 1048.73 47.3159 1046.66 46.9319L1046.66 48.9959C1047.82 49.3559 1048.54 50.3639 1048.54 52.0679C1048.54 54.5639 1046.81 55.8599 1043.93 55.9319L1043.93 46.7159L1043.23 46.7159ZM1039.37 52.1639C1039.37 50.1239 1040.69 48.9479 1042.22 48.8279L1042.22 55.8119C1040.69 55.5479 1039.37 54.3479 1039.37 52.1639Z" fill="#274867"/>
<path d="M517.864 86.128L517.864 99.568L519.784 99.568L519.784 93.904L535 93.904L535 91.744L519.784 91.744L519.784 86.128L517.864 86.128ZM519.76 81.5517L517.552 81.5517L517.552 83.7117L519.76 83.7117L519.76 81.5517ZM522.904 81.6237L522.904 83.6637L535 83.6637L535 81.6237L522.904 81.6237ZM522.592 64.9219C522.592 66.4339 523.12 67.5859 524.2 68.3299L524.2 68.8579C523.12 69.5059 522.592 70.5859 522.592 72.0499C522.592 73.5859 523.144 74.5219 524.08 75.1219L524.08 75.6499L522.904 75.6499L522.904 77.6179L535 77.6179L535 75.5779L528.304 75.5779C526.12 75.5779 524.416 74.6179 524.416 72.6019C524.416 71.0899 525.448 70.2979 527.44 70.2979L535 70.2979L535 68.2579L527.92 68.2579C525.88 68.2579 524.416 67.2019 524.416 65.3059C524.416 63.7459 525.4 62.9779 527.392 62.9779L535 62.9779L535 60.9379L527.176 60.9379C524.392 60.9379 522.592 62.1379 522.592 64.9219ZM528.232 46.7159C525.256 46.7879 522.592 48.5159 522.592 52.1159C522.592 55.7879 525.112 57.9479 528.832 57.9479C532.552 57.9479 535.312 55.8359 535.312 52.0679C535.312 49.0679 533.728 47.3159 531.664 46.9319L531.664 48.9959C532.816 49.3559 533.536 50.3639 533.536 52.0679C533.536 54.5639 531.808 55.8599 528.928 55.9319L528.928 46.7159L528.232 46.7159ZM524.368 52.1639C524.368 50.1239 525.688 48.9479 527.224 48.8279L527.224 55.8119C525.688 55.5479 524.368 54.3479 524.368 52.1639Z" fill="#274867"/>
<path d="M550.896 26.2V28.024H558.24V28.552L554.136 32.104V34.336C554.52 34.24 555 34.192 555.6 34.192C558.072 34.192 559.392 35.56 559.392 37.768C559.392 40.072 557.88 41.44 555.576 41.44C553.56 41.44 552 40.216 551.808 38.296H549.696C549.888 41.152 552.168 43.312 555.576 43.312C559.008 43.312 561.504 41.248 561.504 37.768C561.504 34.528 559.392 32.728 556.512 32.656V32.152L560.712 28.552V26.2H550.896ZM570.152 25.864C566.6 25.864 563.984 28.552 563.984 34.6C563.984 40.648 566.6 43.312 570.152 43.312C573.704 43.312 576.344 40.648 576.344 34.6C576.344 28.552 573.704 25.864 570.152 25.864ZM570.152 41.44C567.368 41.44 566.096 38.752 566.096 34.6C566.096 30.424 567.368 27.736 570.152 27.736C572.96 27.736 574.232 30.424 574.232 34.6C574.232 38.752 572.96 41.44 570.152 41.44Z" fill="#274867"/>
<path d="M552.384 198.832C552.6 196.72 553.92 195.736 555.816 195.736C557.856 195.736 559.2 196.864 559.2 198.976C559.2 200.968 557.736 202.336 556.584 203.368C555.696 204.184 554.112 205.528 552.768 206.608L550.296 208.624V211H561.84V209.128H553.368V208.6L557.592 205.048C559.584 203.392 561.312 201.256 561.312 198.976C561.312 195.616 559.008 193.864 555.864 193.864C552.888 193.864 550.464 195.472 550.272 198.832H552.384ZM570.457 193.864C566.905 193.864 564.289 196.552 564.289 202.6C564.289 208.648 566.905 211.312 570.457 211.312C574.009 211.312 576.649 208.648 576.649 202.6C576.649 196.552 574.009 193.864 570.457 193.864ZM570.457 209.44C567.673 209.44 566.401 206.752 566.401 202.6C566.401 198.424 567.673 195.736 570.457 195.736C573.265 195.736 574.537 198.424 574.537 202.6C574.537 206.752 573.265 209.44 570.457 209.44Z" fill="#274867"/>
<path d="M241.176 208V200.368C241.176 197.32 239.64 195.472 236.592 195.472C234.96 195.472 233.76 196.024 233.064 196.96H232.488V195.784H229.872V208H232.584V201.472C232.584 199.552 233.808 197.896 235.752 197.896C237.552 197.896 238.464 198.904 238.464 200.896V208H241.176ZM246.699 198.376V197.968L248.667 196.6C249.699 195.856 250.491 194.968 250.491 193.624C250.491 191.704 249.147 190.696 247.227 190.696C245.235 190.696 243.843 191.704 243.771 193.816H245.643C245.667 192.832 246.243 192.376 247.179 192.376C248.019 192.376 248.595 192.808 248.595 193.696C248.595 194.704 247.515 195.496 246.531 196.144L243.771 197.992V200.008H250.779V198.376H246.699Z" fill="#F96A02"/>
<path d="M697.176 208V200.368C697.176 197.32 695.64 195.472 692.592 195.472C690.96 195.472 689.76 196.024 689.064 196.96H688.488V195.784H685.872V208H688.584V201.472C688.584 199.552 689.808 197.896 691.752 197.896C693.552 197.896 694.464 198.904 694.464 200.896V208H697.176ZM702.699 198.376V197.968L704.667 196.6C705.699 195.856 706.491 194.968 706.491 193.624C706.491 191.704 705.147 190.696 703.227 190.696C701.235 190.696 699.843 191.704 699.771 193.816H701.643C701.667 192.832 702.243 192.376 703.179 192.376C704.019 192.376 704.595 192.808 704.595 193.696C704.595 194.704 703.515 195.496 702.531 196.144L699.771 197.992V200.008H706.779V198.376H702.699Z" fill="#F96A02"/>
<path d="M1182.18 208V200.368C1182.18 197.32 1180.64 195.472 1177.59 195.472C1175.96 195.472 1174.76 196.024 1174.06 196.96H1173.49V195.784H1170.87V208H1173.58V201.472C1173.58 199.552 1174.81 197.896 1176.75 197.896C1178.55 197.896 1179.46 198.904 1179.46 200.896V208H1182.18ZM1187.7 198.376V197.968L1189.67 196.6C1190.7 195.856 1191.49 194.968 1191.49 193.624C1191.49 191.704 1190.15 190.696 1188.23 190.696C1186.23 190.696 1184.84 191.704 1184.77 193.816H1186.64C1186.67 192.832 1187.24 192.376 1188.18 192.376C1189.02 192.376 1189.59 192.808 1189.59 193.696C1189.59 194.704 1188.51 195.496 1187.53 196.144L1184.77 197.992V200.008H1191.78V198.376H1187.7Z" fill="#F96A02"/>
<path d="M191 131.824L183.368 131.824C180.32 131.824 178.472 133.36 178.472 136.408C178.472 138.04 179.024 139.24 179.96 139.936L179.96 140.512L178.784 140.512L178.784 143.128L191 143.128L191 140.416L184.472 140.416C182.552 140.416 180.896 139.192 180.896 137.248C180.896 135.448 181.904 134.536 183.896 134.536L191 134.536L191 131.824ZM181.376 126.301L180.968 126.301L179.6 124.333C178.856 123.301 177.968 122.509 176.624 122.509C174.704 122.509 173.696 123.853 173.696 125.773C173.696 127.765 174.704 129.157 176.816 129.229L176.816 127.357C175.832 127.333 175.376 126.757 175.376 125.821C175.376 124.981 175.808 124.405 176.696 124.405C177.704 124.405 178.496 125.485 179.144 126.469L180.992 129.229L183.008 129.229L183.008 122.221L181.376 122.221L181.376 126.301ZM182.96 114.368L182.96 119.336L185.264 119.336L185.264 114.368L190.232 114.368L190.232 112.04L185.264 112.04L185.264 107.048L182.96 107.048L182.96 112.04L177.992 112.04L177.992 114.368L182.96 114.368ZM191 91.8865L183.368 91.8865C180.32 91.8865 178.472 93.4225 178.472 96.4705C178.472 98.1025 179.024 99.3025 179.96 99.9985L179.96 100.574L178.784 100.574L178.784 103.19L191 103.19L191 100.478L184.472 100.478C182.552 100.478 180.896 99.2545 180.896 97.3105C180.896 95.5105 181.904 94.5985 183.896 94.5985L191 94.5985L191 91.8865Z" fill="#007BFF"/>
<path d="M659 131.824L651.368 131.824C648.32 131.824 646.472 133.36 646.472 136.408C646.472 138.04 647.024 139.24 647.96 139.936L647.96 140.512L646.784 140.512L646.784 143.128L659 143.128L659 140.416L652.472 140.416C650.552 140.416 648.896 139.192 648.896 137.248C648.896 135.448 649.904 134.536 651.896 134.536L659 134.536L659 131.824ZM649.376 126.301L648.968 126.301L647.6 124.333C646.856 123.301 645.968 122.509 644.624 122.509C642.704 122.509 641.696 123.853 641.696 125.773C641.696 127.765 642.704 129.157 644.816 129.229L644.816 127.357C643.832 127.333 643.376 126.757 643.376 125.821C643.376 124.981 643.808 124.405 644.696 124.405C645.704 124.405 646.496 125.485 647.144 126.469L648.992 129.229L651.008 129.229L651.008 122.221L649.376 122.221L649.376 126.301ZM650.96 114.368L650.96 119.336L653.264 119.336L653.264 114.368L658.232 114.368L658.232 112.04L653.264 112.04L653.264 107.048L650.96 107.048L650.96 112.04L645.992 112.04L645.992 114.368L650.96 114.368ZM659 91.8865L651.368 91.8865C648.32 91.8865 646.472 93.4225 646.472 96.4705C646.472 98.1025 647.024 99.3025 647.96 99.9985L647.96 100.574L646.784 100.574L646.784 103.19L659 103.19L659 100.478L652.472 100.478C650.552 100.478 648.896 99.2545 648.896 97.3105C648.896 95.5105 649.904 94.5985 651.896 94.5985L659 94.5985L659 91.8865Z" fill="#007BFF"/>
<path d="M1149 131.824L1141.37 131.824C1138.32 131.824 1136.47 133.36 1136.47 136.408C1136.47 138.04 1137.02 139.24 1137.96 139.936L1137.96 140.512L1136.78 140.512L1136.78 143.128L1149 143.128L1149 140.416L1142.47 140.416C1140.55 140.416 1138.9 139.192 1138.9 137.248C1138.9 135.448 1139.9 134.536 1141.9 134.536L1149 134.536L1149 131.824ZM1139.38 126.301L1138.97 126.301L1137.6 124.333C1136.86 123.301 1135.97 122.509 1134.62 122.509C1132.7 122.509 1131.7 123.853 1131.7 125.773C1131.7 127.765 1132.7 129.157 1134.82 129.229L1134.82 127.357C1133.83 127.333 1133.38 126.757 1133.38 125.821C1133.38 124.981 1133.81 124.405 1134.7 124.405C1135.7 124.405 1136.5 125.485 1137.14 126.469L1138.99 129.229L1141.01 129.229L1141.01 122.221L1139.38 122.221L1139.38 126.301ZM1140.96 114.368L1140.96 119.336L1143.26 119.336L1143.26 114.368L1148.23 114.368L1148.23 112.04L1143.26 112.04L1143.26 107.048L1140.96 107.048L1140.96 112.04L1135.99 112.04L1135.99 114.368L1140.96 114.368ZM1149 91.8865L1141.37 91.8865C1138.32 91.8865 1136.47 93.4225 1136.47 96.4705C1136.47 98.1025 1137.02 99.3025 1137.96 99.9985L1137.96 100.574L1136.78 100.574L1136.78 103.19L1149 103.19L1149 100.478L1142.47 100.478C1140.55 100.478 1138.9 99.2545 1138.9 97.3105C1138.9 95.5105 1139.9 94.5985 1141.9 94.5985L1149 94.5985L1149 91.8865Z" fill="#007BFF"/>
<path d="M551.416 394H561.184V392.128H557.512V377.2H554.896L551.392 379.576V381.784L554.92 379.408H555.4V392.128H551.416V394ZM569.582 376.864C566.03 376.864 563.414 379.552 563.414 385.6C563.414 391.648 566.03 394.312 569.582 394.312C573.134 394.312 575.774 391.648 575.774 385.6C575.774 379.552 573.134 376.864 569.582 376.864ZM569.582 392.44C566.798 392.44 565.526 389.752 565.526 385.6C565.526 381.424 566.798 378.736 569.582 378.736C572.39 378.736 573.662 381.424 573.662 385.6C573.662 389.752 572.39 392.44 569.582 392.44Z" fill="#274867"/>
<path d="M577.488 589.864C573.936 589.864 571.32 592.552 571.32 598.6C571.32 604.648 573.936 607.312 577.488 607.312C581.04 607.312 583.68 604.648 583.68 598.6C583.68 592.552 581.04 589.864 577.488 589.864ZM577.488 605.44C574.704 605.44 573.432 602.752 573.432 598.6C573.432 594.424 574.704 591.736 577.488 591.736C580.296 591.736 581.568 594.424 581.568 598.6C581.568 602.752 580.296 605.44 577.488 605.44Z" fill="#274867"/>
<path d="M51.488 589.864C47.936 589.864 45.32 592.552 45.32 598.6C45.32 604.648 47.936 607.312 51.488 607.312C55.04 607.312 57.68 604.648 57.68 598.6C57.68 592.552 55.04 589.864 51.488 589.864ZM51.488 605.44C48.704 605.44 47.432 602.752 47.432 598.6C47.432 594.424 48.704 591.736 51.488 591.736C54.296 591.736 55.568 594.424 55.568 598.6C55.568 602.752 54.296 605.44 51.488 605.44Z" fill="#274867"/>
<path d="M180.384 594.832C180.6 592.72 181.92 591.736 183.816 591.736C185.856 591.736 187.2 592.864 187.2 594.976C187.2 596.968 185.736 598.336 184.584 599.368C183.696 600.184 182.112 601.528 180.768 602.608L178.296 604.624V607H189.84V605.128H181.368V604.6L185.592 601.048C187.584 599.392 189.312 597.256 189.312 594.976C189.312 591.616 187.008 589.864 183.864 589.864C180.888 589.864 178.464 591.472 178.272 594.832H180.384Z" fill="#274867"/>
<path d="M47.384 460.832C47.6 458.72 48.92 457.736 50.816 457.736C52.856 457.736 54.2 458.864 54.2 460.976C54.2 462.968 52.736 464.336 51.584 465.368C50.696 466.184 49.112 467.528 47.768 468.608L45.296 470.624L45.296 473H56.84V471.128H48.368V470.6L52.592 467.048C54.584 465.392 56.312 463.256 56.312 460.976C56.312 457.616 54.008 455.864 50.864 455.864C47.888 455.864 45.464 457.472 45.272 460.832H47.384Z" fill="#274867"/>
<path d="M301.304 601.192V590.2H298.352L290.936 600.664V603.064H299.24V607H301.304V603.064H303.608V601.192H301.304ZM293.144 601.192V600.664L298.736 592.576H299.264V601.192H293.144Z" fill="#274867"/>
<path d="M55.304 353.192V342.2H52.352L44.936 352.664V355.064H53.24V359H55.304V355.064H57.608V353.192H55.304ZM47.144 353.192V352.664L52.736 344.576H53.264V353.192H47.144Z" fill="#274867"/>
<path d="M51.824 234.056C49.808 234.056 48.464 234.992 47.888 235.688H47.36C47.48 232.016 49.016 229.736 51.704 229.736C53.336 229.736 54.248 230.456 54.656 231.872H56.744C56.36 229.568 54.56 227.864 51.704 227.864C47.312 227.864 45.32 231.944 45.32 237.056C45.32 243.104 47.912 245.312 51.488 245.312C55.064 245.312 57.2 242.72 57.2 239.528C57.2 236.336 54.896 234.056 51.824 234.056ZM51.464 243.44C49.424 243.44 47.768 242.048 47.768 239.6C47.768 237.2 49.4 235.904 51.416 235.904C53.456 235.904 55.088 237.128 55.088 239.624C55.088 242.12 53.504 243.44 51.464 243.44Z" fill="#274867"/>
<path d="M54.776 120.88C55.64 120.496 56.888 119.224 56.888 117.352C56.888 114.688 54.584 112.864 51.32 112.864C48.056 112.864 45.752 114.688 45.752 117.352C45.752 119.272 46.976 120.496 47.864 120.88V121.408C46.736 121.792 45.248 123.208 45.248 125.416C45.248 128.2 47.624 130.312 51.32 130.312C55.016 130.312 57.392 128.2 57.392 125.416C57.392 123.184 55.88 121.792 54.776 121.408V120.88ZM51.32 114.688C53.24 114.688 54.824 115.648 54.824 117.448C54.824 119.248 53.24 120.232 51.32 120.232C49.4 120.232 47.816 119.248 47.816 117.448C47.816 115.648 49.4 114.688 51.32 114.688ZM51.32 128.44C48.848 128.44 47.336 127.168 47.336 125.224C47.336 123.232 48.848 122.056 51.32 122.056C53.792 122.056 55.304 123.232 55.304 125.224C55.304 127.168 53.792 128.44 51.32 128.44Z" fill="#274867"/>
<path d="M758.416 607H768.184V605.128H764.512V590.2H761.896L758.392 592.576V594.784L761.92 592.408H762.4V605.128H758.416V607ZM776.582 589.864C773.03 589.864 770.414 592.552 770.414 598.6C770.414 604.648 773.03 607.312 776.582 607.312C780.134 607.312 782.774 604.648 782.774 598.6C782.774 592.552 780.134 589.864 776.582 589.864ZM776.582 605.44C773.798 605.44 772.526 602.752 772.526 598.6C772.526 594.424 773.798 591.736 776.582 591.736C779.39 591.736 780.662 594.424 780.662 598.6C780.662 602.752 779.39 605.44 776.582 605.44Z" fill="#274867"/>
<path d="M12.864 79.128L12.864 92.568L14.784 92.568L14.784 86.904L30 86.904L30 84.744L14.784 84.744L14.784 79.128L12.864 79.128ZM14.76 74.5517L12.552 74.5517L12.552 76.7117L14.76 76.7117L14.76 74.5517ZM17.904 74.6237L17.904 76.6637L30 76.6637L30 74.6237L17.904 74.6237ZM17.592 57.9219C17.592 59.4339 18.12 60.5859 19.2 61.3299L19.2 61.8579C18.12 62.5059 17.592 63.5859 17.592 65.0499C17.592 66.5859 18.144 67.5219 19.08 68.1219L19.08 68.6499L17.904 68.6499L17.904 70.6179L30 70.6179L30 68.5779L23.304 68.5779C21.12 68.5779 19.416 67.6179 19.416 65.6019C19.416 64.0899 20.448 63.2979 22.44 63.2979L30 63.2979L30 61.2579L22.92 61.2579C20.88 61.2579 19.416 60.2019 19.416 58.3059C19.416 56.7459 20.4 55.9779 22.392 55.9779L30 55.9779L30 53.9379L22.176 53.9379C19.392 53.9379 17.592 55.1379 17.592 57.9219ZM23.232 39.7159C20.256 39.7879 17.592 41.5159 17.592 45.1159C17.592 48.7879 20.112 50.9479 23.832 50.9479C27.552 50.9479 30.312 48.8359 30.312 45.0679C30.312 42.0679 28.728 40.3159 26.664 39.9319L26.664 41.9959C27.816 42.3559 28.536 43.3639 28.536 45.0679C28.536 47.5639 26.808 48.8599 23.928 48.9319L23.928 39.7159L23.232 39.7159ZM19.368 45.1639C19.368 43.1239 20.688 41.9479 22.224 41.8279L22.224 48.8119C20.688 48.5479 19.368 47.3479 19.368 45.1639Z" fill="#274867"/>
<path d="M1069.42 59H1079.18V57.128H1075.51V42.2H1072.9L1069.39 44.576V46.784L1072.92 44.408H1073.4V57.128H1069.42V59ZM1087.58 41.864C1084.03 41.864 1081.41 44.552 1081.41 50.6C1081.41 56.648 1084.03 59.312 1087.58 59.312C1091.13 59.312 1093.77 56.648 1093.77 50.6C1093.77 44.552 1091.13 41.864 1087.58 41.864ZM1087.58 57.44C1084.8 57.44 1083.53 54.752 1083.53 50.6C1083.53 46.424 1084.8 43.736 1087.58 43.736C1090.39 43.736 1091.66 46.424 1091.66 50.6C1091.66 54.752 1090.39 57.44 1087.58 57.44ZM1102.58 41.864C1099.03 41.864 1096.41 44.552 1096.41 50.6C1096.41 56.648 1099.03 59.312 1102.58 59.312C1106.13 59.312 1108.77 56.648 1108.77 50.6C1108.77 44.552 1106.13 41.864 1102.58 41.864ZM1102.58 57.44C1099.8 57.44 1098.53 54.752 1098.53 50.6C1098.53 46.424 1099.8 43.736 1102.58 43.736C1105.39 43.736 1106.66 46.424 1106.66 50.6C1106.66 54.752 1105.39 57.44 1102.58 57.44Z" fill="#274867"/>
<path d="M1088.61 299.696C1087.05 299.696 1086.14 300.176 1085.37 300.872H1084.84L1085.22 296.024H1093.12V294.2H1083.52L1082.78 303.056H1084.89C1085.61 302 1086.71 301.472 1088.22 301.472C1090.48 301.472 1091.9 303.104 1091.9 305.408C1091.9 307.904 1090.38 309.44 1088.15 309.44C1086.11 309.44 1084.74 308.384 1084.48 306.296H1082.39C1082.58 309.128 1084.55 311.312 1088.25 311.312C1091.66 311.312 1094.01 308.96 1094.01 305.312C1094.01 302.192 1091.97 299.696 1088.61 299.696ZM1102.76 293.864C1099.21 293.864 1096.59 296.552 1096.59 302.6C1096.59 308.648 1099.21 311.312 1102.76 311.312C1106.31 311.312 1108.95 308.648 1108.95 302.6C1108.95 296.552 1106.31 293.864 1102.76 293.864ZM1102.76 309.44C1099.98 309.44 1098.71 306.752 1098.71 302.6C1098.71 298.424 1099.98 295.736 1102.76 295.736C1105.57 295.736 1106.84 298.424 1106.84 302.6C1106.84 306.752 1105.57 309.44 1102.76 309.44Z" fill="#274867"/>
</g>
<defs>
<clipPath id="clip0_844_43">
<rect width="1474" height="668" fill="white"/>
</clipPath>
</defs>
</svg>
