<svg width="1474" height="708" viewBox="0 0 1474 708" fill="none" xmlns="http://www.w3.org/2000/svg">
<g clip-path="url(#clip0_823:592)">
<rect width="1474" height="708" fill="white"/>
<line x1="1432" y1="71" x2="1091" y2="71" stroke="#274867" stroke-opacity="0.5"/>
<line x1="1432" y1="162" x2="1091" y2="162" stroke="#274867" stroke-opacity="0.5"/>
<line x1="1432" y1="254" x2="1091" y2="254" stroke="#274867" stroke-opacity="0.5"/>
<line x1="1432" y1="346" x2="1091" y2="346" stroke="#274867" stroke-opacity="0.5"/>
<line x1="1432" y1="438" x2="1091" y2="438" stroke="#274867" stroke-opacity="0.5"/>
<line x1="1432" y1="528" x2="1091" y2="528" stroke="#274867" stroke-opacity="0.5"/>
<line x1="1218.95" y1="663" x2="1218.95" y2="29" stroke="#274867" stroke-opacity="0.5"/>
<line x1="1310.95" y1="663" x2="1310.95" y2="29" stroke="#274867" stroke-opacity="0.5"/>
<line x1="1402.95" y1="663" x2="1402.95" y2="29" stroke="#274867" stroke-opacity="0.5"/>
<path d="M1129.9 620.003C1129.9 620.003 1158.95 605.003 1181.45 16.0005" stroke="#F96A02" stroke-width="4" stroke-linecap="round" stroke-linejoin="round"/>
<path d="M1129.45 620.98L1429.45 319.5" stroke="#007BFF" stroke-width="4" stroke-linecap="round" stroke-linejoin="round"/>
<line x1="401" y1="122.5" x2="50" y2="122.5" stroke="#274867" stroke-opacity="0.5"/>
<line x1="180.5" y1="662" x2="180.5" y2="40" stroke="#274867" stroke-opacity="0.5"/>
<line x1="281.5" y1="662" x2="281.5" y2="40" stroke="#274867" stroke-opacity="0.5"/>
<line x1="378.5" y1="662" x2="378.5" y2="40" stroke="#274867" stroke-opacity="0.5"/>
<line x1="401" y1="222.5" x2="50" y2="222.5" stroke="#274867" stroke-opacity="0.5"/>
<line x1="401" y1="322.5" x2="50" y2="322.5" stroke="#274867" stroke-opacity="0.5"/>
<line x1="401" y1="420.5" x2="50" y2="420.5" stroke="#274867" stroke-opacity="0.5"/>
<line x1="401" y1="520.5" x2="50" y2="520.5" stroke="#274867" stroke-opacity="0.5"/>
<path d="M46.82 118.86C47 117.1 48.1 116.28 49.68 116.28C51.38 116.28 52.5 117.22 52.5 118.98C52.5 120.64 51.28 121.78 50.32 122.64C49.58 123.32 48.26 124.44 47.14 125.34L45.08 127.02V129H54.7V127.44H47.64V127L51.16 124.04C52.82 122.66 54.26 120.88 54.26 118.98C54.26 116.18 52.34 114.72 49.72 114.72C47.24 114.72 45.22 116.06 45.06 118.86H46.82ZM59.2606 129V126.68H57.1806V129H59.2606ZM67.1369 119.58C65.8369 119.58 65.0769 119.98 64.4369 120.56H63.9969L64.3169 116.52H70.8969V115H62.8969L62.2769 122.38H64.0369C64.6369 121.5 65.5569 121.06 66.8169 121.06C68.6969 121.06 69.8769 122.42 69.8769 124.34C69.8769 126.42 68.6169 127.7 66.7569 127.7C65.0569 127.7 63.9169 126.82 63.6969 125.08H61.9569C62.1169 127.44 63.7569 129.26 66.8369 129.26C69.6769 129.26 71.6369 127.3 71.6369 124.26C71.6369 121.66 69.9369 119.58 67.1369 119.58Z" fill="#274867"/>
<path d="M46.18 328H54.32V326.44H51.26V314H49.08L46.16 315.98V317.82L49.1 315.84H49.5V326.44H46.18V328ZM58.6981 328V325.68H56.6181V328H58.6981ZM66.5744 318.58C65.2744 318.58 64.5144 318.98 63.8744 319.56H63.4344L63.7544 315.52H70.3344V314H62.3344L61.7144 321.38H63.4744C64.0744 320.5 64.9944 320.06 66.2544 320.06C68.1344 320.06 69.3144 321.42 69.3144 323.34C69.3144 325.42 68.0544 326.7 66.1944 326.7C64.4944 326.7 63.3544 325.82 63.1344 324.08H61.3944C61.5544 326.44 63.1944 328.26 66.2744 328.26C69.1144 328.26 71.0744 326.3 71.0744 323.26C71.0744 320.66 69.3744 318.58 66.5744 318.58Z" fill="#274867"/>
<path d="M63.18 428H71.32V426.44H68.26V414H66.08L63.16 415.98V417.82L66.1 415.84H66.5V426.44H63.18V428Z" fill="#274867"/>
<path d="M50.24 512.72C47.28 512.72 45.1 514.96 45.1 520C45.1 525.04 47.28 527.26 50.24 527.26C53.2 527.26 55.4 525.04 55.4 520C55.4 514.96 53.2 512.72 50.24 512.72ZM50.24 525.7C47.92 525.7 46.86 523.46 46.86 520C46.86 516.52 47.92 514.28 50.24 514.28C52.58 514.28 53.64 516.52 53.64 520C53.64 523.46 52.58 525.7 50.24 525.7ZM59.3973 527V524.68H57.3173V527H59.3973ZM67.2736 517.58C65.9736 517.58 65.2136 517.98 64.5736 518.56H64.1336L64.4536 514.52H71.0336V513H63.0336L62.4136 520.38H64.1736C64.7736 519.5 65.6936 519.06 66.9536 519.06C68.8336 519.06 70.0136 520.42 70.0136 522.34C70.0136 524.42 68.7536 525.7 66.8936 525.7C65.1936 525.7 64.0536 524.82 63.8336 523.08H62.0936C62.2536 525.44 63.8936 527.26 66.9736 527.26C69.8136 527.26 71.7736 525.3 71.7736 522.26C71.7736 519.66 70.0736 517.58 67.2736 517.58Z" fill="#274867"/>
<path d="M171.24 627.72C168.28 627.72 166.1 629.96 166.1 635C166.1 640.04 168.28 642.26 171.24 642.26C174.2 642.26 176.4 640.04 176.4 635C176.4 629.96 174.2 627.72 171.24 627.72ZM171.24 640.7C168.92 640.7 167.86 638.46 167.86 635C167.86 631.52 168.92 629.28 171.24 629.28C173.58 629.28 174.64 631.52 174.64 635C174.64 638.46 173.58 640.7 171.24 640.7ZM180.397 642V639.68H178.317V642H180.397ZM188.274 632.58C186.974 632.58 186.214 632.98 185.574 633.56H185.134L185.454 629.52H192.034V628H184.034L183.414 635.38H185.174C185.774 634.5 186.694 634.06 187.954 634.06C189.834 634.06 191.014 635.42 191.014 637.34C191.014 639.42 189.754 640.7 187.894 640.7C186.194 640.7 185.054 639.82 184.834 638.08H183.094C183.254 640.44 184.894 642.26 187.974 642.26C190.814 642.26 192.774 640.3 192.774 637.26C192.774 634.66 191.074 632.58 188.274 632.58Z" fill="#274867"/>
<path d="M366.18 642H374.32V640.44H371.26V628H369.08L366.16 629.98V631.82L369.1 629.84H369.5V640.44H366.18V642ZM378.698 642V639.68H376.618V642H378.698ZM386.574 632.58C385.274 632.58 384.514 632.98 383.874 633.56H383.434L383.754 629.52H390.334V628H382.334L381.714 635.38H383.474C384.074 634.5 384.994 634.06 386.254 634.06C388.134 634.06 389.314 635.42 389.314 637.34C389.314 639.42 388.054 640.7 386.194 640.7C384.494 640.7 383.354 639.82 383.134 638.08H381.394C381.554 640.44 383.194 642.26 386.274 642.26C389.114 642.26 391.074 640.3 391.074 637.26C391.074 634.66 389.374 632.58 386.574 632.58Z" fill="#274867"/>
<path d="M301.94 666.72V681H303.74V666.72H301.94ZM316.284 681V674.6C316.284 672.18 314.924 670.66 312.444 670.66C311.084 670.66 309.964 671.22 309.404 672H308.964V670.92H307.324V681H309.024V675.54C309.024 673.76 310.224 672.18 312.024 672.18C313.724 672.18 314.584 673.1 314.584 674.96V681H316.284ZM324.234 672.14C326.254 672.14 327.334 673.72 327.334 675.96C327.334 678.2 326.254 679.78 324.234 679.78C321.994 679.78 321.074 677.94 321.074 675.96C321.074 673.98 321.994 672.14 324.234 672.14ZM319.394 670.92V685H321.094V679.92H321.534C322.074 680.64 323.014 681.26 324.614 681.26C327.394 681.26 329.034 679 329.034 675.96C329.034 672.98 327.394 670.66 324.614 670.66C323.014 670.66 322.034 671.3 321.474 672H321.034V670.92H319.394ZM331.539 670.92V677.32C331.539 679.74 332.899 681.26 335.379 681.26C336.739 681.26 337.859 680.7 338.419 679.92H338.859V681H340.499V670.92H338.799V676.38C338.799 678.2 337.579 679.74 335.799 679.74C334.099 679.74 333.239 678.82 333.239 676.96V670.92H331.539ZM346.109 670.92V667.88H344.409V670.92H342.669V672.4H344.409V678.18C344.409 680.32 345.689 681 347.869 681H348.649V679.48H347.909C346.549 679.48 346.109 678.96 346.109 677.94V672.4H348.649V670.92H346.109ZM359.811 674.72C358.791 674.56 358.291 674.26 358.291 673.48C358.291 672.62 359.171 672.14 360.471 672.14C361.731 672.14 362.691 672.58 362.831 673.54H364.531C364.311 671.78 362.931 670.66 360.551 670.66C357.831 670.66 356.571 671.96 356.571 673.64C356.571 675.16 357.551 675.92 358.991 676.18L361.251 676.56C362.531 676.78 363.091 677.26 363.091 678.14C363.091 679.24 362.091 679.78 360.571 679.78C359.051 679.78 358.051 679.22 357.891 678.08H356.171C356.391 680 357.791 681.26 360.651 681.26C363.371 681.26 364.791 679.76 364.791 678.1C364.791 676.26 363.671 675.36 361.911 675.06L360.771 674.88L359.811 674.72ZM369.085 668.3V666.46H367.285V668.3H369.085ZM369.025 670.92H367.325V681H369.025V670.92ZM380.063 681V679.52H373.883V679.08L380.003 672.82V670.92H372.023V672.4H377.823V672.82L371.683 679.08V681H380.063ZM391.396 675.36C391.336 672.88 389.896 670.66 386.896 670.66C383.836 670.66 382.036 672.76 382.036 675.86C382.036 678.96 383.796 681.26 386.936 681.26C389.436 681.26 390.896 679.94 391.216 678.22H389.496C389.196 679.18 388.356 679.78 386.936 679.78C384.856 679.78 383.776 678.34 383.716 675.94H391.396V675.36ZM386.856 672.14C388.556 672.14 389.536 673.24 389.636 674.52H383.816C384.036 673.24 385.036 672.14 386.856 672.14Z" fill="#274867"/>
<path d="M1348.94 667.72V682H1350.74V667.72H1348.94ZM1363.28 682V675.6C1363.28 673.18 1361.92 671.66 1359.44 671.66C1358.08 671.66 1356.96 672.22 1356.4 673H1355.96V671.92H1354.32V682H1356.02V676.54C1356.02 674.76 1357.22 673.18 1359.02 673.18C1360.72 673.18 1361.58 674.1 1361.58 675.96V682H1363.28ZM1371.23 673.14C1373.25 673.14 1374.33 674.72 1374.33 676.96C1374.33 679.2 1373.25 680.78 1371.23 680.78C1368.99 680.78 1368.07 678.94 1368.07 676.96C1368.07 674.98 1368.99 673.14 1371.23 673.14ZM1366.39 671.92V686H1368.09V680.92H1368.53C1369.07 681.64 1370.01 682.26 1371.61 682.26C1374.39 682.26 1376.03 680 1376.03 676.96C1376.03 673.98 1374.39 671.66 1371.61 671.66C1370.01 671.66 1369.03 672.3 1368.47 673H1368.03V671.92H1366.39ZM1378.54 671.92V678.32C1378.54 680.74 1379.9 682.26 1382.38 682.26C1383.74 682.26 1384.86 681.7 1385.42 680.92H1385.86V682H1387.5V671.92H1385.8V677.38C1385.8 679.2 1384.58 680.74 1382.8 680.74C1381.1 680.74 1380.24 679.82 1380.24 677.96V671.92H1378.54ZM1393.11 671.92V668.88H1391.41V671.92H1389.67V673.4H1391.41V679.18C1391.41 681.32 1392.69 682 1394.87 682H1395.65V680.48H1394.91C1393.55 680.48 1393.11 679.96 1393.11 678.94V673.4H1395.65V671.92H1393.11ZM1406.81 675.72C1405.79 675.56 1405.29 675.26 1405.29 674.48C1405.29 673.62 1406.17 673.14 1407.47 673.14C1408.73 673.14 1409.69 673.58 1409.83 674.54H1411.53C1411.31 672.78 1409.93 671.66 1407.55 671.66C1404.83 671.66 1403.57 672.96 1403.57 674.64C1403.57 676.16 1404.55 676.92 1405.99 677.18L1408.25 677.56C1409.53 677.78 1410.09 678.26 1410.09 679.14C1410.09 680.24 1409.09 680.78 1407.57 680.78C1406.05 680.78 1405.05 680.22 1404.89 679.08H1403.17C1403.39 681 1404.79 682.26 1407.65 682.26C1410.37 682.26 1411.79 680.76 1411.79 679.1C1411.79 677.26 1410.67 676.36 1408.91 676.06L1407.77 675.88L1406.81 675.72ZM1416.08 669.3V667.46H1414.28V669.3H1416.08ZM1416.02 671.92H1414.32V682H1416.02V671.92ZM1427.06 682V680.52H1420.88V680.08L1427 673.82V671.92H1419.02V673.4H1424.82V673.82L1418.68 680.08V682H1427.06ZM1438.4 676.36C1438.34 673.88 1436.9 671.66 1433.9 671.66C1430.84 671.66 1429.04 673.76 1429.04 676.86C1429.04 679.96 1430.8 682.26 1433.94 682.26C1436.44 682.26 1437.9 680.94 1438.22 679.22H1436.5C1436.2 680.18 1435.36 680.78 1433.94 680.78C1431.86 680.78 1430.78 679.34 1430.72 676.94H1438.4V676.36ZM1433.86 673.14C1435.56 673.14 1436.54 674.24 1436.64 675.52H1430.82C1431.04 674.24 1432.04 673.14 1433.86 673.14Z" fill="#274867"/>
<path d="M276.18 642H284.32V640.44H281.26V628H279.08L276.16 629.98V631.82L279.1 629.84H279.5V640.44H276.18V642Z" fill="#274867"/>
<path d="M66.24 627.72C63.28 627.72 61.1 629.96 61.1 635C61.1 640.04 63.28 642.26 66.24 642.26C69.2 642.26 71.4 640.04 71.4 635C71.4 629.96 69.2 627.72 66.24 627.72ZM66.24 640.7C63.92 640.7 62.86 638.46 62.86 635C62.86 631.52 63.92 629.28 66.24 629.28C68.58 629.28 69.64 631.52 69.64 635C69.64 638.46 68.58 640.7 66.24 640.7Z" fill="#274867"/>
<path d="M1114.24 628.72C1111.28 628.72 1109.1 630.96 1109.1 636C1109.1 641.04 1111.28 643.26 1114.24 643.26C1117.2 643.26 1119.4 641.04 1119.4 636C1119.4 630.96 1117.2 628.72 1114.24 628.72ZM1114.24 641.7C1111.92 641.7 1110.86 639.46 1110.86 636C1110.86 632.52 1111.92 630.28 1114.24 630.28C1116.58 630.28 1117.64 632.52 1117.64 636C1117.64 639.46 1116.58 641.7 1114.24 641.7Z" fill="#274867"/>
<path d="M63.82 218.86C64 217.1 65.1 216.28 66.68 216.28C68.38 216.28 69.5 217.22 69.5 218.98C69.5 220.64 68.28 221.78 67.32 222.64C66.58 223.32 65.26 224.44 64.14 225.34L62.08 227.02V229H71.7V227.44H64.64V227L68.16 224.04C69.82 222.66 71.26 220.88 71.26 218.98C71.26 216.18 69.34 214.72 66.72 214.72C64.24 214.72 62.22 216.06 62.06 218.86H63.82Z" fill="#274867"/>
<path d="M30.72 74.44L30.72 85.64L32.32 85.64L32.32 80.92L45 80.92L45 79.12L32.32 79.12L32.32 74.44L30.72 74.44ZM32.3 70.6264L30.46 70.6264L30.46 72.4264L32.3 72.4264L32.3 70.6264ZM34.92 70.6864L34.92 72.3864L45 72.3864L45 70.6864L34.92 70.6864ZM34.66 56.7683C34.66 58.0283 35.1 58.9883 36 59.6083L36 60.0483C35.1 60.5883 34.66 61.4883 34.66 62.7083C34.66 63.9883 35.12 64.7683 35.9 65.2683L35.9 65.7083L34.92 65.7083L34.92 67.3483L45 67.3483L45 65.6483L39.42 65.6483C37.6 65.6483 36.18 64.8483 36.18 63.1683C36.18 61.9083 37.04 61.2483 38.7 61.2483L45 61.2483L45 59.5483L39.1 59.5483C37.4 59.5483 36.18 58.6683 36.18 57.0883C36.18 55.7883 37 55.1483 38.66 55.1483L45 55.1483L45 53.4483L38.48 53.4483C36.16 53.4483 34.66 54.4483 34.66 56.7683ZM39.36 41.5966C36.88 41.6566 34.66 43.0966 34.66 46.0966C34.66 49.1566 36.76 50.9566 39.86 50.9566C42.96 50.9566 45.26 49.1966 45.26 46.0566C45.26 43.5566 43.94 42.0966 42.22 41.7766L42.22 43.4966C43.18 43.7966 43.78 44.6366 43.78 46.0566C43.78 48.1366 42.34 49.2166 39.94 49.2766L39.94 41.5966L39.36 41.5966ZM36.14 46.1366C36.14 44.4366 37.24 43.4566 38.52 43.3566L38.52 49.1766C37.24 48.9566 36.14 47.9566 36.14 46.1366Z" fill="#274867"/>
<path d="M1045.72 75.44L1045.72 86.64L1047.32 86.64L1047.32 81.92L1060 81.92L1060 80.12L1047.32 80.12L1047.32 75.44L1045.72 75.44ZM1047.3 71.6264L1045.46 71.6264L1045.46 73.4264L1047.3 73.4264L1047.3 71.6264ZM1049.92 71.6864L1049.92 73.3864L1060 73.3864L1060 71.6864L1049.92 71.6864ZM1049.66 57.7683C1049.66 59.0283 1050.1 59.9883 1051 60.6083L1051 61.0483C1050.1 61.5883 1049.66 62.4883 1049.66 63.7083C1049.66 64.9883 1050.12 65.7683 1050.9 66.2683L1050.9 66.7083L1049.92 66.7083L1049.92 68.3483L1060 68.3483L1060 66.6483L1054.42 66.6483C1052.6 66.6483 1051.18 65.8483 1051.18 64.1683C1051.18 62.9083 1052.04 62.2483 1053.7 62.2483L1060 62.2483L1060 60.5483L1054.1 60.5483C1052.4 60.5483 1051.18 59.6683 1051.18 58.0883C1051.18 56.7883 1052 56.1483 1053.66 56.1483L1060 56.1483L1060 54.4483L1053.48 54.4483C1051.16 54.4483 1049.66 55.4483 1049.66 57.7683ZM1054.36 42.5966C1051.88 42.6566 1049.66 44.0966 1049.66 47.0966C1049.66 50.1566 1051.76 51.9566 1054.86 51.9566C1057.96 51.9566 1060.26 50.1966 1060.26 47.0566C1060.26 44.5566 1058.94 43.0966 1057.22 42.7766L1057.22 44.4966C1058.18 44.7966 1058.78 45.6366 1058.78 47.0566C1058.78 49.1366 1057.34 50.2166 1054.94 50.2766L1054.94 42.5966L1054.36 42.5966ZM1051.14 47.1366C1051.14 45.4366 1052.24 44.4566 1053.52 44.3566L1053.52 50.1766C1052.24 49.9566 1051.14 48.9566 1051.14 47.1366Z" fill="#274867"/>
<path d="M82 619C82 619 232 650.5 384 156" stroke="#F96A02" stroke-width="4" stroke-linecap="round" stroke-linejoin="round"/>
<path d="M82.5 619.5L386 316" stroke="#007BFF" stroke-width="4" stroke-linecap="round" stroke-linejoin="round"/>
<line x1="81" y1="40" x2="81" y2="662" stroke="#274867" stroke-width="2"/>
<line x1="1128" y1="29" x2="1128" y2="663" stroke="#274867" stroke-width="2"/>
<line x1="400" y1="621" x2="53" y2="621" stroke="#274867" stroke-width="2"/>
<line x1="1432" y1="622" x2="1091" y2="622" stroke="#274867" stroke-width="2"/>
<path d="M352.176 385V377.368C352.176 374.32 350.64 372.472 347.592 372.472C345.96 372.472 344.76 373.024 344.064 373.96H343.488V372.784H340.872V385H343.584V378.472C343.584 376.552 344.808 374.896 346.752 374.896C348.552 374.896 349.464 375.904 349.464 377.896V385H352.176Z" fill="#007BFF"/>
<path d="M328.176 264V256.368C328.176 253.32 326.64 251.472 323.592 251.472C321.96 251.472 320.76 252.024 320.064 252.96H319.488V251.784H316.872V264H319.584V257.472C319.584 255.552 320.808 253.896 322.752 253.896C324.552 253.896 325.464 254.904 325.464 256.896V264H328.176ZM333.699 254.376V253.968L335.667 252.6C336.699 251.856 337.491 250.968 337.491 249.624C337.491 247.704 336.147 246.696 334.227 246.696C332.235 246.696 330.843 247.704 330.771 249.816H332.643C332.667 248.832 333.243 248.376 334.179 248.376C335.019 248.376 335.595 248.808 335.595 249.696C335.595 250.704 334.515 251.496 333.531 252.144L330.771 253.992V256.008H337.779V254.376H333.699Z" fill="#F96A02"/>
<line x1="922" y1="116.5" x2="581" y2="116.5" stroke="#274867" stroke-opacity="0.5"/>
<line x1="922" y1="41.5" x2="581" y2="41.5" stroke="#274867" stroke-opacity="0.5"/>
<line x1="922" y1="200.5" x2="581" y2="200.5" stroke="#274867" stroke-opacity="0.5"/>
<line x1="922" y1="283.5" x2="581" y2="283.5" stroke="#274867" stroke-opacity="0.5"/>
<line x1="922" y1="368.5" x2="581" y2="368.5" stroke="#274867" stroke-opacity="0.5"/>
<line x1="922" y1="453.5" x2="581" y2="453.5" stroke="#274867" stroke-opacity="0.5"/>
<line x1="922" y1="536.5" x2="581" y2="536.5" stroke="#274867" stroke-opacity="0.5"/>
<line x1="701.5" y1="662" x2="701.5" y2="28" stroke="#274867" stroke-opacity="0.5"/>
<line x1="785.5" y1="662" x2="785.5" y2="28" stroke="#274867" stroke-opacity="0.5"/>
<line x1="869.5" y1="662" x2="869.5" y2="28" stroke="#274867" stroke-opacity="0.5"/>
<path d="M589.18 48H597.32V46.44H594.26V34H592.08L589.16 35.98V37.82L592.1 35.84H592.5V46.44H589.18V48ZM607.498 43.16V34H605.038L598.858 42.72V44.72H605.778V48H607.498V44.72H609.418V43.16H607.498ZM600.698 43.16V42.72L605.358 35.98H605.798V43.16H600.698Z" fill="#274867"/>
<path d="M1086.18 78H1094.32V76.44H1091.26V64H1089.08L1086.16 65.98V67.82L1089.1 65.84H1089.5V76.44H1086.18V78ZM1097.9 67.86C1098.08 66.1 1099.18 65.28 1100.76 65.28C1102.46 65.28 1103.58 66.22 1103.58 67.98C1103.58 69.64 1102.36 70.78 1101.4 71.64C1100.66 72.32 1099.34 73.44 1098.22 74.34L1096.16 76.02V78H1105.78V76.44H1098.72V76L1102.24 73.04C1103.9 71.66 1105.34 69.88 1105.34 67.98C1105.34 65.18 1103.42 63.72 1100.8 63.72C1098.32 63.72 1096.3 65.06 1096.14 67.86H1097.9ZM1112.96 63.72C1110 63.72 1107.82 65.96 1107.82 71C1107.82 76.04 1110 78.26 1112.96 78.26C1115.92 78.26 1118.12 76.04 1118.12 71C1118.12 65.96 1115.92 63.72 1112.96 63.72ZM1112.96 76.7C1110.64 76.7 1109.58 74.46 1109.58 71C1109.58 67.52 1110.64 65.28 1112.96 65.28C1115.3 65.28 1116.36 67.52 1116.36 71C1116.36 74.46 1115.3 76.7 1112.96 76.7Z" fill="#274867"/>
<path d="M1086.18 168H1094.32V166.44H1091.26V154H1089.08L1086.16 155.98V157.82L1089.1 155.84H1089.5V166.44H1086.18V168ZM1101.32 153.72C1098.36 153.72 1096.18 155.96 1096.18 161C1096.18 166.04 1098.36 168.26 1101.32 168.26C1104.28 168.26 1106.48 166.04 1106.48 161C1106.48 155.96 1104.28 153.72 1101.32 153.72ZM1101.32 166.7C1099 166.7 1097.94 164.46 1097.94 161C1097.94 157.52 1099 155.28 1101.32 155.28C1103.66 155.28 1104.72 157.52 1104.72 161C1104.72 164.46 1103.66 166.7 1101.32 166.7ZM1113.82 153.72C1110.86 153.72 1108.68 155.96 1108.68 161C1108.68 166.04 1110.86 168.26 1113.82 168.26C1116.78 168.26 1118.98 166.04 1118.98 161C1118.98 155.96 1116.78 153.72 1113.82 153.72ZM1113.82 166.7C1111.5 166.7 1110.44 164.46 1110.44 161C1110.44 157.52 1111.5 155.28 1113.82 155.28C1116.16 155.28 1117.22 157.52 1117.22 161C1117.22 164.46 1116.16 166.7 1113.82 166.7Z" fill="#274867"/>
<path d="M1104.98 253.4C1105.7 253.08 1106.74 252.02 1106.74 250.46C1106.74 248.24 1104.82 246.72 1102.1 246.72C1099.38 246.72 1097.46 248.24 1097.46 250.46C1097.46 252.06 1098.48 253.08 1099.22 253.4V253.84C1098.28 254.16 1097.04 255.34 1097.04 257.18C1097.04 259.5 1099.02 261.26 1102.1 261.26C1105.18 261.26 1107.16 259.5 1107.16 257.18C1107.16 255.32 1105.9 254.16 1104.98 253.84V253.4ZM1102.1 248.24C1103.7 248.24 1105.02 249.04 1105.02 250.54C1105.02 252.04 1103.7 252.86 1102.1 252.86C1100.5 252.86 1099.18 252.04 1099.18 250.54C1099.18 249.04 1100.5 248.24 1102.1 248.24ZM1102.1 259.7C1100.04 259.7 1098.78 258.64 1098.78 257.02C1098.78 255.36 1100.04 254.38 1102.1 254.38C1104.16 254.38 1105.42 255.36 1105.42 257.02C1105.42 258.64 1104.16 259.7 1102.1 259.7ZM1114.47 246.72C1111.51 246.72 1109.33 248.96 1109.33 254C1109.33 259.04 1111.51 261.26 1114.47 261.26C1117.43 261.26 1119.63 259.04 1119.63 254C1119.63 248.96 1117.43 246.72 1114.47 246.72ZM1114.47 259.7C1112.15 259.7 1111.09 257.46 1111.09 254C1111.09 250.52 1112.15 248.28 1114.47 248.28C1116.81 248.28 1117.87 250.52 1117.87 254C1117.87 257.46 1116.81 259.7 1114.47 259.7Z" fill="#274867"/>
<path d="M1102.52 341.88C1100.84 341.88 1099.72 342.66 1099.24 343.24H1098.8C1098.9 340.18 1100.18 338.28 1102.42 338.28C1103.78 338.28 1104.54 338.88 1104.88 340.06H1106.62C1106.3 338.14 1104.8 336.72 1102.42 336.72C1098.76 336.72 1097.1 340.12 1097.1 344.38C1097.1 349.42 1099.26 351.26 1102.24 351.26C1105.22 351.26 1107 349.1 1107 346.44C1107 343.78 1105.08 341.88 1102.52 341.88ZM1102.22 349.7C1100.52 349.7 1099.14 348.54 1099.14 346.5C1099.14 344.5 1100.5 343.42 1102.18 343.42C1103.88 343.42 1105.24 344.44 1105.24 346.52C1105.24 348.6 1103.92 349.7 1102.22 349.7ZM1114.1 336.72C1111.14 336.72 1108.96 338.96 1108.96 344C1108.96 349.04 1111.14 351.26 1114.1 351.26C1117.06 351.26 1119.26 349.04 1119.26 344C1119.26 338.96 1117.06 336.72 1114.1 336.72ZM1114.1 349.7C1111.78 349.7 1110.72 347.46 1110.72 344C1110.72 340.52 1111.78 338.28 1114.1 338.28C1116.44 338.28 1117.5 340.52 1117.5 344C1117.5 347.46 1116.44 349.7 1114.1 349.7Z" fill="#274867"/>
<path d="M1396.52 633.88C1394.84 633.88 1393.72 634.66 1393.24 635.24H1392.8C1392.9 632.18 1394.18 630.28 1396.42 630.28C1397.78 630.28 1398.54 630.88 1398.88 632.06H1400.62C1400.3 630.14 1398.8 628.72 1396.42 628.72C1392.76 628.72 1391.1 632.12 1391.1 636.38C1391.1 641.42 1393.26 643.26 1396.24 643.26C1399.22 643.26 1401 641.1 1401 638.44C1401 635.78 1399.08 633.88 1396.52 633.88ZM1396.22 641.7C1394.52 641.7 1393.14 640.54 1393.14 638.5C1393.14 636.5 1394.5 635.42 1396.18 635.42C1397.88 635.42 1399.24 636.44 1399.24 638.52C1399.24 640.6 1397.92 641.7 1396.22 641.7ZM1408.1 628.72C1405.14 628.72 1402.96 630.96 1402.96 636C1402.96 641.04 1405.14 643.26 1408.1 643.26C1411.06 643.26 1413.26 641.04 1413.26 636C1413.26 630.96 1411.06 628.72 1408.1 628.72ZM1408.1 641.7C1405.78 641.7 1404.72 639.46 1404.72 636C1404.72 632.52 1405.78 630.28 1408.1 630.28C1410.44 630.28 1411.5 632.52 1411.5 636C1411.5 639.46 1410.44 641.7 1408.1 641.7Z" fill="#274867"/>
<path d="M1105.42 439.16V430H1102.96L1096.78 438.72V440.72H1103.7V444H1105.42V440.72H1107.34V439.16H1105.42ZM1098.62 439.16V438.72L1103.28 431.98H1103.72V439.16H1098.62ZM1114.49 429.72C1111.53 429.72 1109.35 431.96 1109.35 437C1109.35 442.04 1111.53 444.26 1114.49 444.26C1117.45 444.26 1119.65 442.04 1119.65 437C1119.65 431.96 1117.45 429.72 1114.49 429.72ZM1114.49 442.7C1112.17 442.7 1111.11 440.46 1111.11 437C1111.11 433.52 1112.17 431.28 1114.49 431.28C1116.83 431.28 1117.89 433.52 1117.89 437C1117.89 440.46 1116.83 442.7 1114.49 442.7Z" fill="#274867"/>
<path d="M1307.42 638.16V629H1304.96L1298.78 637.72V639.72H1305.7V643H1307.42V639.72H1309.34V638.16H1307.42ZM1300.62 638.16V637.72L1305.28 630.98H1305.72V638.16H1300.62ZM1316.49 628.72C1313.53 628.72 1311.35 630.96 1311.35 636C1311.35 641.04 1313.53 643.26 1316.49 643.26C1319.45 643.26 1321.65 641.04 1321.65 636C1321.65 630.96 1319.45 628.72 1316.49 628.72ZM1316.49 641.7C1314.17 641.7 1313.11 639.46 1313.11 636C1313.11 632.52 1314.17 630.28 1316.49 630.28C1318.83 630.28 1319.89 632.52 1319.89 636C1319.89 639.46 1318.83 641.7 1316.49 641.7Z" fill="#274867"/>
<path d="M1098.82 524.86C1099 523.1 1100.1 522.28 1101.68 522.28C1103.38 522.28 1104.5 523.22 1104.5 524.98C1104.5 526.64 1103.28 527.78 1102.32 528.64C1101.58 529.32 1100.26 530.44 1099.14 531.34L1097.08 533.02V535H1106.7V533.44H1099.64V533L1103.16 530.04C1104.82 528.66 1106.26 526.88 1106.26 524.98C1106.26 522.18 1104.34 520.72 1101.72 520.72C1099.24 520.72 1097.22 522.06 1097.06 524.86H1098.82ZM1113.88 520.72C1110.92 520.72 1108.74 522.96 1108.74 528C1108.74 533.04 1110.92 535.26 1113.88 535.26C1116.84 535.26 1119.04 533.04 1119.04 528C1119.04 522.96 1116.84 520.72 1113.88 520.72ZM1113.88 533.7C1111.56 533.7 1110.5 531.46 1110.5 528C1110.5 524.52 1111.56 522.28 1113.88 522.28C1116.22 522.28 1117.28 524.52 1117.28 528C1117.28 531.46 1116.22 533.7 1113.88 533.7Z" fill="#274867"/>
<path d="M1208.82 632.86C1209 631.1 1210.1 630.28 1211.68 630.28C1213.38 630.28 1214.5 631.22 1214.5 632.98C1214.5 634.64 1213.28 635.78 1212.32 636.64C1211.58 637.32 1210.26 638.44 1209.14 639.34L1207.08 641.02V643H1216.7V641.44H1209.64V641L1213.16 638.04C1214.82 636.66 1216.26 634.88 1216.26 632.98C1216.26 630.18 1214.34 628.72 1211.72 628.72C1209.24 628.72 1207.22 630.06 1207.06 632.86H1208.82ZM1223.88 628.72C1220.92 628.72 1218.74 630.96 1218.74 636C1218.74 641.04 1220.92 643.26 1223.88 643.26C1226.84 643.26 1229.04 641.04 1229.04 636C1229.04 630.96 1226.84 628.72 1223.88 628.72ZM1223.88 641.7C1221.56 641.7 1220.5 639.46 1220.5 636C1220.5 632.52 1221.56 630.28 1223.88 630.28C1226.22 630.28 1227.28 632.52 1227.28 636C1227.28 639.46 1226.22 641.7 1223.88 641.7Z" fill="#274867"/>
<path d="M590.18 124H598.32V122.44H595.26V110H593.08L590.16 111.98V113.82L593.1 111.84H593.5V122.44H590.18V124ZM601.898 113.86C602.078 112.1 603.178 111.28 604.758 111.28C606.458 111.28 607.578 112.22 607.578 113.98C607.578 115.64 606.358 116.78 605.398 117.64C604.658 118.32 603.338 119.44 602.218 120.34L600.158 122.02V124H609.778V122.44H602.718V122L606.238 119.04C607.898 117.66 609.338 115.88 609.338 113.98C609.338 111.18 607.418 109.72 604.798 109.72C602.318 109.72 600.298 111.06 600.138 113.86H601.898Z" fill="#274867"/>
<path d="M589.18 207H597.32V205.44H594.26V193H592.08L589.16 194.98V196.82L592.1 194.84H592.5V205.44H589.18V207ZM604.318 192.72C601.358 192.72 599.178 194.96 599.178 200C599.178 205.04 601.358 207.26 604.318 207.26C607.278 207.26 609.478 205.04 609.478 200C609.478 194.96 607.278 192.72 604.318 192.72ZM604.318 205.7C601.998 205.7 600.938 203.46 600.938 200C600.938 196.52 601.998 194.28 604.318 194.28C606.658 194.28 607.718 196.52 607.718 200C607.718 203.46 606.658 205.7 604.318 205.7Z" fill="#274867"/>
<path d="M606.98 283.4C607.7 283.08 608.74 282.02 608.74 280.46C608.74 278.24 606.82 276.72 604.1 276.72C601.38 276.72 599.46 278.24 599.46 280.46C599.46 282.06 600.48 283.08 601.22 283.4V283.84C600.28 284.16 599.04 285.34 599.04 287.18C599.04 289.5 601.02 291.26 604.1 291.26C607.18 291.26 609.16 289.5 609.16 287.18C609.16 285.32 607.9 284.16 606.98 283.84V283.4ZM604.1 278.24C605.7 278.24 607.02 279.04 607.02 280.54C607.02 282.04 605.7 282.86 604.1 282.86C602.5 282.86 601.18 282.04 601.18 280.54C601.18 279.04 602.5 278.24 604.1 278.24ZM604.1 289.7C602.04 289.7 600.78 288.64 600.78 287.02C600.78 285.36 602.04 284.38 604.1 284.38C606.16 284.38 607.42 285.36 607.42 287.02C607.42 288.64 606.16 289.7 604.1 289.7Z" fill="#274867"/>
<path d="M605.52 366.88C603.84 366.88 602.72 367.66 602.24 368.24H601.8C601.9 365.18 603.18 363.28 605.42 363.28C606.78 363.28 607.54 363.88 607.88 365.06H609.62C609.3 363.14 607.8 361.72 605.42 361.72C601.76 361.72 600.1 365.12 600.1 369.38C600.1 374.42 602.26 376.26 605.24 376.26C608.22 376.26 610 374.1 610 371.44C610 368.78 608.08 366.88 605.52 366.88ZM605.22 374.7C603.52 374.7 602.14 373.54 602.14 371.5C602.14 369.5 603.5 368.42 605.18 368.42C606.88 368.42 608.24 369.44 608.24 371.52C608.24 373.6 606.92 374.7 605.22 374.7Z" fill="#274867"/>
<path d="M870.52 632.88C868.84 632.88 867.72 633.66 867.24 634.24H866.8C866.9 631.18 868.18 629.28 870.42 629.28C871.78 629.28 872.54 629.88 872.88 631.06H874.62C874.3 629.14 872.8 627.72 870.42 627.72C866.76 627.72 865.1 631.12 865.1 635.38C865.1 640.42 867.26 642.26 870.24 642.26C873.22 642.26 875 640.1 875 637.44C875 634.78 873.08 632.88 870.52 632.88ZM870.22 640.7C868.52 640.7 867.14 639.54 867.14 637.5C867.14 635.5 868.5 634.42 870.18 634.42C871.88 634.42 873.24 635.44 873.24 637.52C873.24 639.6 871.92 640.7 870.22 640.7Z" fill="#274867"/>
<path d="M607.42 455.16V446H604.96L598.78 454.72V456.72H605.7V460H607.42V456.72H609.34V455.16H607.42ZM600.62 455.16V454.72L605.28 447.98H605.72V455.16H600.62Z" fill="#274867"/>
<path d="M788.42 637.16V628H785.96L779.78 636.72V638.72H786.7V642H788.42V638.72H790.34V637.16H788.42ZM781.62 637.16V636.72L786.28 629.98H786.72V637.16H781.62Z" fill="#274867"/>
<path d="M601.82 532.86C602 531.1 603.1 530.28 604.68 530.28C606.38 530.28 607.5 531.22 607.5 532.98C607.5 534.64 606.28 535.78 605.32 536.64C604.58 537.32 603.26 538.44 602.14 539.34L600.08 541.02V543H609.7V541.44H602.64V541L606.16 538.04C607.82 536.66 609.26 534.88 609.26 532.98C609.26 530.18 607.34 528.72 604.72 528.72C602.24 528.72 600.22 530.06 600.06 532.86H601.82Z" fill="#274867"/>
<path d="M698.82 631.86C699 630.1 700.1 629.28 701.68 629.28C703.38 629.28 704.5 630.22 704.5 631.98C704.5 633.64 703.28 634.78 702.32 635.64C701.58 636.32 700.26 637.44 699.14 638.34L697.08 640.02V642H706.7V640.44H699.64V640L703.16 637.04C704.82 635.66 706.26 633.88 706.26 631.98C706.26 629.18 704.34 627.72 701.72 627.72C699.24 627.72 697.22 629.06 697.06 631.86H698.82Z" fill="#274867"/>
<path d="M838.94 666.72V681H840.74V666.72H838.94ZM853.284 681V674.6C853.284 672.18 851.924 670.66 849.444 670.66C848.084 670.66 846.964 671.22 846.404 672H845.964V670.92H844.324V681H846.024V675.54C846.024 673.76 847.224 672.18 849.024 672.18C850.724 672.18 851.584 673.1 851.584 674.96V681H853.284ZM861.234 672.14C863.254 672.14 864.334 673.72 864.334 675.96C864.334 678.2 863.254 679.78 861.234 679.78C858.994 679.78 858.074 677.94 858.074 675.96C858.074 673.98 858.994 672.14 861.234 672.14ZM856.394 670.92V685H858.094V679.92H858.534C859.074 680.64 860.014 681.26 861.614 681.26C864.394 681.26 866.034 679 866.034 675.96C866.034 672.98 864.394 670.66 861.614 670.66C860.014 670.66 859.034 671.3 858.474 672H858.034V670.92H856.394ZM868.539 670.92V677.32C868.539 679.74 869.899 681.26 872.379 681.26C873.739 681.26 874.859 680.7 875.419 679.92H875.859V681H877.499V670.92H875.799V676.38C875.799 678.2 874.579 679.74 872.799 679.74C871.099 679.74 870.239 678.82 870.239 676.96V670.92H868.539ZM883.109 670.92V667.88H881.409V670.92H879.669V672.4H881.409V678.18C881.409 680.32 882.689 681 884.869 681H885.649V679.48H884.909C883.549 679.48 883.109 678.96 883.109 677.94V672.4H885.649V670.92H883.109ZM896.811 674.72C895.791 674.56 895.291 674.26 895.291 673.48C895.291 672.62 896.171 672.14 897.471 672.14C898.731 672.14 899.691 672.58 899.831 673.54H901.531C901.311 671.78 899.931 670.66 897.551 670.66C894.831 670.66 893.571 671.96 893.571 673.64C893.571 675.16 894.551 675.92 895.991 676.18L898.251 676.56C899.531 676.78 900.091 677.26 900.091 678.14C900.091 679.24 899.091 679.78 897.571 679.78C896.051 679.78 895.051 679.22 894.891 678.08H893.171C893.391 680 894.791 681.26 897.651 681.26C900.371 681.26 901.791 679.76 901.791 678.1C901.791 676.26 900.671 675.36 898.911 675.06L897.771 674.88L896.811 674.72ZM906.085 668.3V666.46H904.285V668.3H906.085ZM906.025 670.92H904.325V681H906.025V670.92ZM917.063 681V679.52H910.883V679.08L917.003 672.82V670.92H909.023V672.4H914.823V672.82L908.683 679.08V681H917.063ZM928.396 675.36C928.336 672.88 926.896 670.66 923.896 670.66C920.836 670.66 919.036 672.76 919.036 675.86C919.036 678.96 920.796 681.26 923.936 681.26C926.436 681.26 927.896 679.94 928.216 678.22H926.496C926.196 679.18 925.356 679.78 923.936 679.78C921.856 679.78 920.776 678.34 920.716 675.94H928.396V675.36ZM923.856 672.14C925.556 672.14 926.536 673.24 926.636 674.52H920.816C921.036 673.24 922.036 672.14 923.856 672.14Z" fill="#274867"/>
<path d="M604.24 627.72C601.28 627.72 599.1 629.96 599.1 635C599.1 640.04 601.28 642.26 604.24 642.26C607.2 642.26 609.4 640.04 609.4 635C609.4 629.96 607.2 627.72 604.24 627.72ZM604.24 640.7C601.92 640.7 600.86 638.46 600.86 635C600.86 631.52 601.92 629.28 604.24 629.28C606.58 629.28 607.64 631.52 607.64 635C607.64 638.46 606.58 640.7 604.24 640.7Z" fill="#274867"/>
<path d="M535.72 74.44L535.72 85.64L537.32 85.64L537.32 80.92L550 80.92L550 79.12L537.32 79.12L537.32 74.44L535.72 74.44ZM537.3 70.6264L535.46 70.6264L535.46 72.4264L537.3 72.4264L537.3 70.6264ZM539.92 70.6864L539.92 72.3864L550 72.3864L550 70.6864L539.92 70.6864ZM539.66 56.7683C539.66 58.0283 540.1 58.9883 541 59.6083L541 60.0483C540.1 60.5883 539.66 61.4883 539.66 62.7083C539.66 63.9883 540.12 64.7683 540.9 65.2683L540.9 65.7083L539.92 65.7083L539.92 67.3483L550 67.3483L550 65.6483L544.42 65.6483C542.6 65.6483 541.18 64.8483 541.18 63.1683C541.18 61.9083 542.04 61.2483 543.7 61.2483L550 61.2483L550 59.5483L544.1 59.5483C542.4 59.5483 541.18 58.6683 541.18 57.0883C541.18 55.7883 542 55.1483 543.66 55.1483L550 55.1483L550 53.4483L543.48 53.4483C541.16 53.4483 539.66 54.4483 539.66 56.7683ZM544.36 41.5966C541.88 41.6566 539.66 43.0966 539.66 46.0966C539.66 49.1566 541.76 50.9566 544.86 50.9566C547.96 50.9566 550.26 49.1966 550.26 46.0566C550.26 43.5566 548.94 42.0966 547.22 41.7766L547.22 43.4966C548.18 43.7966 548.78 44.6366 548.78 46.0566C548.78 48.1366 547.34 49.2166 544.94 49.2766L544.94 41.5966L544.36 41.5966ZM541.14 46.1366C541.14 44.4366 542.24 43.4566 543.52 43.3566L543.52 49.1766C542.24 48.9566 541.14 47.9566 541.14 46.1366Z" fill="#274867"/>
<path d="M618.999 618.501C618.999 618.501 700 647.502 774.998 28.0003" stroke="#F96A02" stroke-width="4" stroke-linecap="round" stroke-linejoin="round"/>
<path d="M619 618.219L943 294.002" stroke="#007BFF" stroke-width="4" stroke-linecap="round" stroke-linejoin="round"/>
<line x1="618" y1="28" x2="618" y2="662" stroke="#274867" stroke-width="2"/>
<line x1="922" y1="621" x2="581" y2="621" stroke="#274867" stroke-width="2"/>
<path d="M923.176 350V342.368C923.176 339.32 921.64 337.472 918.592 337.472C916.96 337.472 915.76 338.024 915.064 338.96H914.488V337.784H911.872V350H914.584V343.472C914.584 341.552 915.808 339.896 917.752 339.896C919.552 339.896 920.464 340.904 920.464 342.896V350H923.176Z" fill="#007BFF"/>
<path d="M1387.18 396V388.368C1387.18 385.32 1385.64 383.472 1382.59 383.472C1380.96 383.472 1379.76 384.024 1379.06 384.96H1378.49V383.784H1375.87V396H1378.58V389.472C1378.58 387.552 1379.81 385.896 1381.75 385.896C1383.55 385.896 1384.46 386.904 1384.46 388.896V396H1387.18Z" fill="#007BFF"/>
<path d="M740.176 149V141.368C740.176 138.32 738.64 136.472 735.592 136.472C733.96 136.472 732.76 137.024 732.064 137.96H731.488V136.784H728.872V149H731.584V142.472C731.584 140.552 732.808 138.896 734.752 138.896C736.552 138.896 737.464 139.904 737.464 141.896V149H740.176ZM745.699 139.376V138.968L747.667 137.6C748.699 136.856 749.491 135.968 749.491 134.624C749.491 132.704 748.147 131.696 746.227 131.696C744.235 131.696 742.843 132.704 742.771 134.816H744.643C744.667 133.832 745.243 133.376 746.179 133.376C747.019 133.376 747.595 133.808 747.595 134.696C747.595 135.704 746.515 136.496 745.531 137.144L742.771 138.992V141.008H749.779V139.376H745.699Z" fill="#F96A02"/>
<path d="M1157.18 135V127.368C1157.18 124.32 1155.64 122.472 1152.59 122.472C1150.96 122.472 1149.76 123.024 1149.06 123.96H1148.49V122.784H1145.87V135H1148.58V128.472C1148.58 126.552 1149.81 124.896 1151.75 124.896C1153.55 124.896 1154.46 125.904 1154.46 127.896V135H1157.18ZM1162.7 125.376V124.968L1164.67 123.6C1165.7 122.856 1166.49 121.968 1166.49 120.624C1166.49 118.704 1165.15 117.696 1163.23 117.696C1161.23 117.696 1159.84 118.704 1159.77 120.816H1161.64C1161.67 119.832 1162.24 119.376 1163.18 119.376C1164.02 119.376 1164.59 119.808 1164.59 120.696C1164.59 121.704 1163.51 122.496 1162.53 123.144L1159.77 124.992V127.008H1166.78V125.376H1162.7Z" fill="#F96A02"/>
</g>
<defs>
<clipPath id="clip0_823:592">
<rect width="1474" height="708" fill="white"/>
</clipPath>
</defs>
</svg>
