<svg width="1464" height="1163" viewBox="0 0 1464 1163" fill="none" xmlns="http://www.w3.org/2000/svg">
<g clip-path="url(#clip0)">
<path d="M1618 0H0V1238H1618V0Z" transform="translate(-54 -30)" stroke="#007BFF" stroke-width="1.8375" stroke-miterlimit="10"/>
<path d="M37.7 0H525.6C546.4 0 563.3 16.9 563.3 37.7V149.7C563.3 170.5 546.4 187.4 525.6 187.4H37.7C16.9 187.4 0 170.5 0 149.7V37.6C0.1 16.9 17 0 37.7 0Z" transform="translate(106.2 516.8)" stroke="#007BFF" stroke-width="1.8375" stroke-miterlimit="10"/>
<path d="M27.3 33.6V38H0V0H26.5V4.39996H4.80002V16.1H22.3V20.5H4.80002V33.7H27.3V33.6Z" transform="translate(328.2 585.4)" fill="#082E51"/>
<path d="M15.3 4.20001H13.1C7.80001 4.20001 4.5 7.40002 4.5 13.4V26.8H0V0H4.39999V3.20001H5.60001C6.90001 1.50001 9.49999 0 13.4 0H15.4V4.20001H15.3Z" transform="translate(362.4 596.6)" fill="#082E51"/>
<path d="M15.3 4.20001H13.1C7.80001 4.20001 4.5 7.40002 4.5 13.4V26.8H0V0H4.39999V3.20001H5.60001C6.90001 1.50001 9.49999 0 13.4 0H15.4V4.20001H15.3Z" transform="translate(383.7 596.6)" fill="#082E51"/>
<path d="M26.4 14.1C26.4 22 21.6 28.2 13.2 28.2C4.80001 28.2 0 22 0 14.1C0 6.19998 4.80001 0 13.2 0C21.5 0 26.4 6.19998 26.4 14.1ZM21.8 14.1C21.8 8.79998 19 3.89996 13.1 3.89996C7.10001 3.89996 4.39999 8.79998 4.39999 14.1C4.39999 19.4 7.10001 24.3 13.1 24.3C19.1 24.3 21.8 19.4 21.8 14.1Z" transform="translate(403.3 595.9)" fill="#082E51"/>
<path d="M15.4 4.20001H13.1C7.80001 4.20001 4.5 7.40002 4.5 13.4V26.8H0V0H4.39999V3.20001H5.60001C6.90001 1.50001 9.49999 0 13.4 0H15.4V4.20001Z" transform="translate(436.7 596.6)" fill="#082E51"/>
<path d="M37.7 0H525.6C546.4 0 563.3 16.9 563.3 37.7V149.7C563.3 170.5 546.4 187.4 525.6 187.4H37.7C16.9 187.4 0 170.5 0 149.7V37.6C0 16.9 16.9 0 37.7 0Z" transform="translate(435.3 114.8)" fill="#007BFF"/>
<path d="M29.9 4.30002H17.4V38.1H12.6V4.30002H0V0H29.9V4.30002Z" transform="translate(587.9 187.4)" fill="white"/>
<path d="M19.3 38.8V22.7C19.3 17.9 17 15.3 12.5 15.3C7.7 15.3 4.5 19.5 4.5 24.2V38.7H0V0H4.5V14.9H5.69995C7.09995 12.8 10.1 11.3 13.7 11.3C20.3 11.3 23.9 15.3 23.9 21.8V38.8H19.3Z" transform="translate(623.2 186.6)" fill="white"/>
<path d="M15.3 4.19998H13.1C7.80004 4.19998 4.5 7.39999 4.5 13.4V26.8H0V0H4.40002V3.19998H5.60004C6.90004 1.49998 9.50002 0 13.4 0H15.4V4.19998H15.3Z" transform="translate(655.4 198.7)" fill="white"/>
<path d="M26.4 14.1C26.4 22 21.6 28.2 13.2 28.2C4.80001 28.2 0 22 0 14.1C0 6.20001 4.80001 0 13.2 0C21.5 0 26.4 6.20001 26.4 14.1ZM21.8 14.1C21.8 8.80001 19 3.89999 13.1 3.89999C7.09998 3.89999 4.39996 8.80001 4.39996 14.1C4.39996 19.4 7.09998 24.3 13.1 24.3C19.1 24.3 21.8 19.4 21.8 14.1Z" transform="translate(675 197.9)" fill="white"/>
<path d="M19 8.69998L23.5 22H24.7L27.8 0H32.2L28.3 26.8H21.3L16.6 13.2H15.5L10.8 26.8H3.79999L0 0H4.39996L7.59998 22H8.79999L13.4 8.69998H19Z" transform="translate(706.5 198.7)" fill="white"/>
<path d="M19.2 24.7H18C16.3 26.8 13.5 28.2 9.60004 28.2C3.40004 28.2 0 24 0 19.5C0 15.2 2.79999 10.6 10.3 10.6H19V9.5C19 6.3 17.1 3.89999 12.5 3.89999C8.5 3.89999 6.49999 5.40002 6.29999 7.80002H1.79999C2.19999 2.80002 6.4 0 12.5 0C19.3 0 23.6 3.20002 23.6 9.30002V27.6H19.3V24.7H19.2ZM19.1 16.7V14.2H11.1C6.70004 14.2 4.70001 16.1 4.70001 19.3C4.70001 22.3 6.90002 24.3 10.9 24.3C15.3 24.3 19.1 20.9 19.1 16.7Z" transform="translate(743.1 197.9)" fill="white"/>
<path d="M25.8 25.3C25.8 33.2 21.4 39.4 14 39.4C9.7 39.4 7.09998 37.7 5.59998 35.8H4.40002V38.7H0V0H4.5V14.8H5.70001C7.10001 12.9 9.60002 11.2 13.9 11.2C21.4 11.2 25.8 17.2 25.8 25.3ZM21.3 25.3C21.3 19.3 18.4 15.1 13 15.1C7 15.1 4.59998 20 4.59998 25.3C4.59998 30.6 7 35.5 13 35.5C18.4 35.5 21.3 31.3 21.3 25.3Z" transform="translate(774.8 186.7)" fill="white"/>
<path d="M4.5 0V38.7H0V0H4.5Z" transform="translate(807.7 186.7)" fill="white"/>
<path d="M24.8 14.1H4.40002C4.60002 20.5 7.4 24.3 13 24.3C16.8 24.3 19 22.7 19.8 20.1H24.4C23.5 24.7 19.7 28.2 13 28.2C4.6 28.2 0 22.1 0 13.8C0 5.50002 4.80002 0 12.9 0C20.9 0 24.7 5.9 24.9 12.5V14.1H24.8ZM4.60004 10.3H20.1C19.8 6.90002 17.2 4 12.7 4C7.90001 3.9 5.20004 6.90002 4.60004 10.3Z" transform="translate(819.4 197.9)" fill="white"/>
<path d="M0 180V94H214.9V0" transform="translate(387.9 322.8)" stroke="#007BFF" stroke-width="4" stroke-miterlimit="10" stroke-linecap="round"/>
<path d="M0 13.4L11.6 1.8C14 -0.6 17.8 -0.6 20.2 1.8L31.8 13.4" transform="translate(586.9 313.7)" stroke="#007BFF" stroke-width="4" stroke-miterlimit="10" stroke-linecap="round"/>
<path d="M0 0V94H214.9V180" transform="translate(886.3 322.8)" stroke="#007BFF" stroke-width="4" stroke-miterlimit="10" stroke-linecap="round"/>
<path d="M0 13.4L11.6 1.8C14 -0.6 17.8 -0.6 20.2 1.8L31.8 13.4" transform="translate(870.4 313.7)" stroke="#007BFF" stroke-width="4" stroke-miterlimit="10" stroke-linecap="round"/>
<path d="M37.7 0H525.6C546.4 0 563.3 16.9 563.3 37.7V149.7C563.3 170.5 546.4 187.4 525.6 187.4H37.7C16.9 187.4 0 170.5 0 149.7V37.6C0.1 16.9 17 0 37.7 0Z" transform="translate(816.9 516.8)" stroke="#007BFF" stroke-width="1.8375" stroke-miterlimit="10"/>
<path d="M27.3 33.6V38H0V0H26.5V4.40002H4.80005V16H22.3V20.4H4.80005V33.6H27.3Z" transform="translate(976.5 589.5)" fill="#082E51"/>
<path d="M13.7 15.6H11.8L5 26.8H0L8.40002 13.1L0.900024 0H5.69995L11.9 10.7H13.8L20.1 0H24.8L17.2 12.9L25.5 26.8H20.4L13.7 15.6Z" transform="translate(1008.3 600.6)" fill="#082E51"/>
<path d="M24.3 19.4C23.3 24.7 19.2 28.2 13 28.2C4.6 28.2 0 22 0 14.1C0 5.99998 4.7 0 13 0C19.4 0 23.2 3.5 24.1 8.5H19.6C18.7 5.8 16.7 4 13 4C6.9 4 4.5 8.69998 4.5 14.1C4.5 19.5 7 24.4 13 24.4C16.8 24.4 19.1 22.5 19.8 19.6H24.3V19.4Z" transform="translate(1037.8 599.9)" fill="#082E51"/>
<path d="M24.8 14.1H4.40002C4.60002 20.5 7.4 24.3 13 24.3C16.8 24.3 19 22.7 19.8 20.1H24.4C23.5 24.7 19.7 28.2 13 28.2C4.6 28.2 0 22.1 0 13.8C0 5.49999 4.80002 0 12.9 0C20.9 0 24.7 5.9 24.9 12.5V14.1H24.8ZM4.59998 10.3H20.1C19.8 6.89999 17.2 4 12.7 4C7.89995 3.9 5.19998 6.89999 4.59998 10.3Z" transform="translate(1067.3 599.9)" fill="#082E51"/>
<path d="M4.29993 0.699951V3.59998H5.5C7 1.69998 9.60002 0 13.9 0C21.3 0 25.7 6.19998 25.7 14.1C25.7 22.2 21.3 28.2 13.9 28.2C9.60002 28.2 7.09995 26.5 5.69995 24.6H4.5V38.1H0V0.599976H4.29993V0.699951ZM4.40002 14.1C4.40002 19.4 6.89993 24.3 12.7999 24.3C18.1999 24.3 21.1 20.1 21.1 14.1C21.1 8.09998 18.1999 3.89996 12.7999 3.89996C6.79993 3.89996 4.40002 8.79998 4.40002 14.1Z" transform="translate(1099.2 599.9)" fill="#082E51"/>
<path d="M15.9 8.09998V12H9.1001V26.8C9.1001 29.5 10.3 30.9 13.9 30.9H15.9V34.9H13.8C8.00005 34.9 4.6001 33.1 4.6001 27.4V12H0V8.09998H4.6001V0H9.1001V8.09998H15.9Z" transform="translate(1129 592.5)" fill="#082E51"/>
<path d="M0 4.89996V0H4.80005V4.89996H0ZM4.69995 38.7H0.199951V11.9H4.69995V38.7Z" transform="translate(1152.3 588.7)" fill="#082E51"/>
<path d="M26.4 14.1C26.4 22 21.6 28.2 13.2 28.2C4.79995 28.2 0 22 0 14.1C0 6.19998 4.79995 0 13.2 0C21.6 0 26.4 6.19998 26.4 14.1ZM21.9 14.1C21.9 8.79998 19.1 3.89996 13.2 3.89996C7.19995 3.89996 4.5 8.79998 4.5 14.1C4.5 19.4 7.19995 24.3 13.2 24.3C19.1 24.3 21.9 19.4 21.9 14.1Z" transform="translate(1164.2 599.9)" fill="#082E51"/>
<path d="M19.2999 27.6V11.5C19.2999 6.5 17 4.10004 12.5 4.10004C7.7 4.10004 4.5 8.3 4.5 13V27.5H0V0.700012H4.40002V3.60004H5.59998C7.09998 1.50004 10.1 0 13.7 0C20.3 0 23.9 4 23.9 10.5V27.5H19.2999V27.6Z" transform="translate(1197.7 599.8)" fill="#082E51"/>
<path d="M37.7 0H525.6C546.4 0 563.3 16.9 563.3 37.7V149.8C563.3 170.6 546.4 187.5 525.6 187.5H37.7C16.9 187.5 0 170.6 0 149.8V37.6C0.1 16.9 17 0 37.7 0Z" transform="translate(816.9 872.7)" stroke="#007BFF" stroke-width="1.8375" stroke-miterlimit="10"/>
<path opacity="0.12" d="M34.9 0H485.8C505.1 0 520.7 13 520.7 29.2V115.7C520.7 131.9 505.1 144.9 485.8 144.9H34.9C15.6 144.9 0 131.9 0 115.7V29.2C0 13 15.6 0 34.9 0Z" transform="translate(838.3 894)" fill="#007BFF"/>
<path d="M16.9 0C24.9 0 29.4 4.10004 29.4 11.1C29.4 15.8 27.4 19.1 23.6 20.8L29.7 38.0001H24.7L19 21.9C18 22 16.9 22.1 15.9 22.1H4.79999V38.0001H0V0H16.9V0ZM16.3 17.8C22.4 17.8 24.7 15.2001 24.7 11.0001C24.7 6.70006 22.5 4.20001 16.3 4.20001H5V17.8H16.3Z" transform="translate(870.5 945.3)" fill="#082E51"/>
<path d="M4.5 0V16.1C4.5 21.1 6.79999 23.5 11.3 23.5C16 23.5 19.3 19.4 19.3 14.6V0H23.8V26.8H19.4V23.9H18.3C16.8 26 13.8 27.5 10.2 27.5C3.60001 27.5 0 23.5 0 17V0H4.5V0Z" transform="translate(907.5 956.5)" fill="#082E51"/>
<path d="M19.3 27.5V11.3999C19.3 6.3999 17 4 12.5 4C7.7 4 4.5 8.1999 4.5 12.8999V27.3999H0V0.699951H4.40002V3.59998H5.60004C7.10004 1.49998 10.1 0 13.7 0C20.3 0 23.9 4 23.9 10.5V27.5H19.3V27.5Z" transform="translate(940.1 955.8)" fill="#082E51"/>
<path d="M15.9 8.09998V12H9.09998V26.7999C9.09998 29.4999 10.3 30.9 13.9 30.9H15.9V34.9H13.8C8.00005 34.9 4.59998 33.1 4.59998 27.4V12H0V8.09998H4.59998V0H9.09998V8.09998H15.9V8.09998Z" transform="translate(969.3 948.4)" fill="#082E51"/>
<path d="M0 4.90002V0H4.79993V4.90002H0ZM4.59998 38.7001H0.0999756V11.9H4.59998V38.7001Z" transform="translate(992.7 944.6)" fill="#082E51"/>
<path d="M36.9 10.2V27.6H32.4V10.7C32.4 6.29995 30.7 4.09998 27.2 4.09998C23 4.09998 20.7 7.2999 20.7 11.8999V27.6H16.2V10.7999C16.2 6.39993 14.4 4.09998 11.1 4.09998C6.59998 4.09998 4.5 7.89995 4.5 12.7V27.6H0V0.699951H4.40002V3.29993H5.59998C6.89998 1.19993 9.00002 0 12.4 0C15.6 0 18 1.19998 19.5 3.59998H20.7C22.4 1.19998 24.9 0 28.3 0C34.3 0 36.9 3.99995 36.9 10.2Z" transform="translate(1006.3 955.8)" fill="#082E51"/>
<path d="M24.8 14.1H4.40002C4.60002 20.5 7.4 24.2999 13 24.2999C16.8 24.2999 19 22.7 19.8 20.1H24.4C23.5 24.7 19.7 28.2 13 28.2C4.6 28.2 0 22.0999 0 13.7999C0 5.49993 4.80002 0 12.9 0C20.9 0 24.7 5.9 24.9 12.5V14.1H24.8ZM4.6001 10.2999H20.1001C19.8001 6.89993 17.2001 4 12.7001 4C7.90007 3.9 5.2001 6.89993 4.6001 10.2999Z" transform="translate(1050 955.8)" fill="#082E51"/>
<path d="M27.3 33.6V38H0V0H26.5V4.39996H4.80005V16.2H22.3V20.6H4.80005V33.7999H27.3V33.6Z" transform="translate(1082.3 945.4)" fill="#082E51"/>
<path d="M13.7 15.6H11.7999L5 26.8H0L8.40002 13.1L0.900024 0H5.69995L11.9 10.7H13.7999L20.1 0H24.7999L17.2 12.9L25.5 26.8H20.4L13.7 15.6Z" transform="translate(1114.2 956.5)" fill="#082E51"/>
<path d="M24.2999 19.3999C23.2999 24.6999 19.2 28.2 13 28.2C4.6 28.2 0 22 0 14.1C0 5.99998 4.7 0 13 0C19.4 0 23.2 3.5 24.1 8.5H19.6C18.7 5.8 16.7 4 13 4C6.9 4 4.5 8.69998 4.5 14.1C4.5 19.5 7 24.3999 13 24.3999C16.8 24.3999 19.0999 22.5 19.7999 19.6H24.2999V19.3999Z" transform="translate(1143.6 955.8)" fill="#082E51"/>
<path d="M24.7999 14.1H4.3999C4.5999 20.5 7.4 24.2999 13 24.2999C16.8 24.2999 18.9999 22.7 19.7999 20.1H24.3999C23.4999 24.7 19.7 28.2 13 28.2C4.6 28.2 0 22.0999 0 13.7999C0 5.49993 4.7999 0 12.8999 0C20.8999 0 24.6999 5.9 24.8999 12.5V14.1H24.7999ZM4.69995 10.2999H20.2C19.9 6.89993 17.2999 4 12.7999 4C7.89993 3.9 5.19995 6.89993 4.69995 10.2999Z" transform="translate(1173.1 955.8)" fill="#082E51"/>
<path d="M4.30005 0.699951V3.59998H5.5C7 1.69998 9.60002 0 13.9 0C21.3 0 25.7001 6.19998 25.7001 14.1C25.7001 22.2 21.3 28.2 13.9 28.2C9.60002 28.2 7.10007 26.5 5.70007 24.6H4.5V38.1H0V0.699951H4.30005ZM4.40002 14.1C4.40002 19.4 6.90005 24.2999 12.8 24.2999C18.2 24.2999 21.1001 20.1 21.1001 14.1C21.1001 8.09998 18.2 3.8999 12.8 3.8999C6.90005 3.8999 4.40002 8.79998 4.40002 14.1Z" transform="translate(1205 955.8)" fill="#082E51"/>
<path d="M15.9 8.09998V12H9.09998V26.7999C9.09998 29.4999 10.3 30.9 13.9 30.9H15.9V34.9H13.8C8.00005 34.9 4.59998 33.1 4.59998 27.4V12H0V8.09998H4.59998V0H9.09998V8.09998H15.9V8.09998Z" transform="translate(1234.8 948.4)" fill="#082E51"/>
<path d="M0 4.90002V0H4.79993V4.90002H0ZM4.59998 38.7001H0.0999756V11.9H4.59998V38.7001Z" transform="translate(1258.2 944.6)" fill="#082E51"/>
<path d="M26.3999 14.1C26.3999 22 21.6 28.2 13.2 28.2C4.79995 28.2 0 22 0 14.1C0 6.19998 4.79995 0 13.2 0C21.5 0 26.3999 6.19998 26.3999 14.1ZM21.7999 14.1C21.7999 8.79998 19 3.8999 13.1 3.8999C7.09998 3.8999 4.3999 8.79998 4.3999 14.1C4.3999 19.4 7.09998 24.2999 13.1 24.2999C19.1 24.2999 21.7999 19.4 21.7999 14.1Z" transform="translate(1270.1 955.8)" fill="#082E51"/>
<path d="M19.2999 27.5V11.3999C19.2999 6.3999 17 4 12.5 4C7.7 4 4.5 8.1999 4.5 12.8999V27.3999H0V0.699951H4.3999V3.59998H5.59998C7.09998 1.49998 10.1 0 13.7 0C20.3 0 23.8999 4 23.8999 10.5V27.5H19.2999V27.5Z" transform="translate(1303.6 955.8)" fill="#082E51"/>
<path d="M0 137.1V51.1V0" transform="translate(1098.5 723.5)" stroke="#007BFF" stroke-width="4" stroke-miterlimit="10" stroke-linecap="round"/>
<path d="M0 13.4L11.6 1.8C14 -0.6 17.8 -0.6 20.2 1.8L31.7999 13.4" transform="translate(1082.7 715.2)" stroke="#007BFF" stroke-width="4" stroke-miterlimit="10" stroke-linecap="round"/>
</g>
<defs>
<clipPath id="clip0">
<rect width="1464" height="1163" fill="white"/>
</clipPath>
</defs>
</svg>
