<?xml version="1.0" encoding="utf-8"?>
<!-- Generator: Adobe Illustrator 20.1.0, SVG Export Plug-In . SVG Version: 6.00 Build 0)  -->
<svg version="1.1" id="Layer_1" xmlns="http://www.w3.org/2000/svg" xmlns:xlink="http://www.w3.org/1999/xlink" x="0px" y="0px"
	 viewBox="0 0 1474 1041.1" style="enable-background:new 0 0 1474 1041.1;" xml:space="preserve">
<style type="text/css">
	.st0{opacity:0.12;fill:#007BFF;enable-background:new    ;}
	.st1{fill:none;stroke:#007BFF;stroke-width:4;stroke-miterlimit:10;}
	.st2{fill:#082E51;}
	.st3{fill:#FFFFFF;stroke:#007BFF;stroke-width:4;stroke-miterlimit:10;}
	.st4{fill:none;stroke:#007BFF;stroke-width:4;stroke-linecap:round;stroke-miterlimit:10;}
</style>
<path class="st0" d="M1417,1025.2H854.6c-19.7,0-35.6-16-35.6-35.6V126.8c0-19.7,16-35.6,35.6-35.6H1417c19.7,0,35.6,16,35.6,35.6
	v862.7C1452.6,1009.2,1436.6,1025.2,1417,1025.2z"/>
<rect x="360" y="91.2" class="st1" width="236" height="934"/>
<line class="st1" x1="360" y1="323.2" x2="596" y2="323.2"/>
<line class="st1" x1="360" y1="558.2" x2="596" y2="558.2"/>
<line class="st1" x1="360" y1="791.2" x2="596" y2="791.2"/>
<g>
	<path class="st2" d="M424.3,25.9c-0.9-3.7-3.6-5.6-8.8-5.6c-4.4,0-8,1.8-8,5.7c0,3.4,2.9,4.6,6.1,5.1c1.3,0.3,6.3,1.2,7.8,1.5
		c6.4,1.4,10.9,4.7,10.9,12c0,6.8-5.3,12.8-16.3,12.8c-10.1,0-16.5-5.3-17.3-13h7.1c0.9,5.1,5.3,6.8,10.5,6.8s8.9-2.2,8.9-6.4
		c0-3.9-2.6-5.4-6.3-6.2l-8.1-1.6c-6.5-1.2-10.4-4.7-10.4-11c0-6.7,5.4-12,15.2-12c8.9,0,14.9,4.6,15.8,11.8L424.3,25.9L424.3,25.9z
		"/>
	<path class="st2" d="M455.4,26.9v5.6h-7V47c0,2.5,1.2,3.9,4.6,3.9h2.5v5.7h-2.6c-6.6,0-11.1-2-11.1-8.8V32.4h-4.7v-5.6h4.7v-8.6
		h6.6v8.7C448.4,26.9,455.4,26.9,455.4,26.9z"/>
	<path class="st2" d="M481.9,53.9h-1.4c-1.8,2.3-4.6,3.5-8.8,3.5c-6.8,0-10.6-4.6-10.6-9.8c0-4.7,3.2-10,11.8-10h8.8v-0.9
		c0-3.3-1.9-5.4-6.3-5.4c-3.8,0-5.7,1.5-6,3.8h-6.5c0.3-5.6,5.3-9,12.3-9c7.7,0,12.9,3.4,12.9,10.8v19.8H482L481.9,53.9L481.9,53.9z
		 M481.6,44.6v-2.3H474c-4.2,0-6.3,1.8-6.3,4.9c0,3,2.2,4.8,6,4.8C478.2,52,481.6,48.7,481.6,44.6z"/>
	<path class="st2" d="M522.8,47.1c-0.9,6.1-5.9,10.3-13.1,10.3c-9.2,0-14.7-6.5-14.7-15.7s5.5-15.6,14.7-15.6c7.3,0,12,4,12.9,9.8
		H516c-0.9-2.6-2.7-4.2-6.3-4.2c-5.9,0-8.2,4.6-8.2,9.9c0,5.4,2.3,10.1,8.2,10.1c3.7,0,5.8-1.7,6.5-4.7L522.8,47.1L522.8,47.1z"/>
	<path class="st2" d="M551.3,56.6l-7.7-15h-1.4l-5.7,6.3v8.7h-6.6V14.1h6.6V40L549,26.8h7.5l-8.6,9.2l10.3,20.5L551.3,56.6
		L551.3,56.6z"/>
</g>
<g>
	<path class="st2" d="M456.1,212c3.3,1.5,5.6,5,5.6,9.2c0,6.8-4.6,11.9-14.3,11.9H428v-41.7h18.9c9.1,0,13.6,5,13.6,10.8
		c0,3.7-1.6,6.8-4.4,8.4V212L456.1,212z M446.3,208.6c5.1,0,7-2,7-5.6s-1.9-5.5-7-5.5h-11.2v11.1H446.3z M446.5,227.1
		c5.8,0,8-2.4,8-6.3c0-4-2.2-6.3-8-6.3H435v12.6H446.5L446.5,227.1z"/>
	<path class="st2" d="M467.9,227.2h9.5v-28H476l-8.1,5.5v-6.8l8.2-5.6h8.1v35h8.7v6h-25L467.9,227.2L467.9,227.2z"/>
	<path class="st2" d="M529.1,212.7c0,14.8-6.7,21.2-15.6,21.2c-8.9,0-15.6-6.4-15.6-21.2c0-14.9,6.7-21.3,15.6-21.3
		C522.4,191.5,529.1,197.9,529.1,212.7z M522.2,212.7c0-8.4-2.2-15.2-8.7-15.2s-8.7,6.8-8.7,15.2c0,8.3,2.2,15.1,8.7,15.1
		S522.2,221,522.2,212.7z"/>
</g>
<g>
	<path class="st2" d="M456.1,444c3.3,1.5,5.6,5,5.6,9.2c0,6.8-4.6,11.9-14.3,11.9H428v-41.7h18.9c9.1,0,13.6,5,13.6,10.8
		c0,3.7-1.6,6.8-4.4,8.4V444L456.1,444z M446.3,440.6c5.1,0,7-2,7-5.6s-1.9-5.5-7-5.5h-11.2v11.1H446.3z M446.5,459.1
		c5.8,0,8-2.4,8-6.3c0-4-2.2-6.3-8-6.3H435v12.6L446.5,459.1L446.5,459.1z"/>
	<path class="st2" d="M467.9,459.2h9.5v-28H476l-8.1,5.5v-6.8l8.2-5.6h8.1v35h8.7v6h-25L467.9,459.2L467.9,459.2z"/>
	<path class="st2" d="M529.1,444.7c0,14.8-6.7,21.2-15.6,21.2c-8.9,0-15.6-6.4-15.6-21.2c0-14.9,6.7-21.3,15.6-21.3
		C522.4,423.5,529.1,429.9,529.1,444.7z M522.2,444.7c0-8.4-2.2-15.2-8.7-15.2s-8.7,6.8-8.7,15.2c0,8.3,2.2,15.1,8.7,15.1
		S522.2,453,522.2,444.7z"/>
</g>
<g>
	<rect x="901.8" y="265.2" class="st3" width="468" height="118"/>
	<line class="st1" x1="1081.8" y1="265.2" x2="1081.8" y2="383.2"/>
	<g>
		<path class="st2" d="M971.3,323c3.3,1.5,5.6,5,5.6,9.2c0,6.8-4.6,11.9-14.3,11.9h-19.4v-41.7h18.9c9.1,0,13.6,5,13.6,10.8
			c0,3.7-1.6,6.8-4.4,8.4L971.3,323L971.3,323z M961.5,319.6c5.1,0,7-2,7-5.6s-1.9-5.5-7-5.5h-11.2v11.1H961.5z M961.7,338.1
			c5.8,0,8-2.4,8-6.3c0-4-2.2-6.3-8-6.3h-11.5v12.6L961.7,338.1L961.7,338.1z"/>
		<path class="st2" d="M983.1,338.2h9.5v-28h-1.4l-8.1,5.5v-6.8l8.2-5.6h8.1v35h8.7v6h-25V338.2z"/>
		<path class="st2" d="M1044.3,323.7c0,14.8-6.7,21.2-15.6,21.2s-15.6-6.4-15.6-21.2c0-14.9,6.7-21.3,15.6-21.3
			C1037.6,302.5,1044.3,308.9,1044.3,323.7z M1037.4,323.7c0-8.4-2.2-15.2-8.7-15.2s-8.7,6.8-8.7,15.2c0,8.3,2.2,15.1,8.7,15.1
			C1035.3,338.9,1037.4,332,1037.4,323.7z"/>
	</g>
	<g>
		<path class="st2" d="M1150.7,305v7.8h-7.5v-9.1l3.9-6.3h4.1l-3.9,6.3v1.3L1150.7,305L1150.7,305z M1162.3,305v7.8h-7.5v-9.1
			l3.9-6.3h4.1l-3.9,6.3v1.3L1162.3,305L1162.3,305z"/>
		<path class="st2" d="M1164.2,350.9v-5.6h2.7c3.7,0,5-2,5-5.3v-30.6h6.6v31c0,7.3-4.3,10.5-10.5,10.5H1164.2z M1171.8,303.1v-6.4
			h6.8v6.4H1171.8z"/>
		<path class="st2" d="M1206.3,336.5h-1.4c-1.8,2.3-4.6,3.5-8.8,3.5c-6.8,0-10.6-4.6-10.6-9.8c0-4.7,3.2-10,11.8-10h8.8v-0.9
			c0-3.3-1.9-5.4-6.3-5.4c-3.8,0-5.7,1.5-6,3.8h-6.5c0.3-5.6,5.3-9,12.3-9c7.7,0,12.9,3.4,12.9,10.8v19.7h-6.1v-2.7H1206.3z
			 M1206,327.2v-2.3h-7.6c-4.2,0-6.3,1.8-6.3,4.9c0,3,2.2,4.8,6,4.8C1202.6,334.6,1206,331.3,1206,327.2z"/>
		<path class="st2" d="M1217.8,309.4h6.7l7.1,23.5h2.7l6.8-23.5h6.7l-9.2,29.8H1227L1217.8,309.4z"/>
		<path class="st2" d="M1271.8,336.5h-1.4c-1.8,2.3-4.6,3.5-8.8,3.5c-6.8,0-10.6-4.6-10.6-9.8c0-4.7,3.2-10,11.8-10h8.8v-0.9
			c0-3.3-1.9-5.4-6.3-5.4c-3.8,0-5.7,1.5-6,3.8h-6.5c0.3-5.6,5.3-9,12.3-9c7.7,0,12.9,3.4,12.9,10.8v19.7h-6.1v-2.7H1271.8z
			 M1271.6,327.2v-2.3h-7.6c-4.2,0-6.3,1.8-6.3,4.9c0,3,2.2,4.8,6,4.8C1268.1,334.6,1271.6,331.3,1271.6,327.2z"/>
		<path class="st2" d="M1286.4,305.3v-7.8h7.5v9.1l-3.9,6.3h-4.1l3.9-6.3v-1.3L1286.4,305.3L1286.4,305.3z M1298,305.3v-7.8h7.5v9.1
			l-3.9,6.3h-4.1l3.9-6.3v-1.3L1298,305.3L1298,305.3z"/>
	</g>
</g>
<g>
	<path class="st2" d="M1101.1,14.9v41.7h-7V38.4h-20.9v18.2h-7V14.9h7v17h20.9v-17H1101.1z"/>
	<path class="st2" d="M1137.5,42.3h-22c0.2,6.1,3,9.5,8.4,9.5c3.6,0,5.6-1.4,6.5-3.8h6.7c-1.1,5.6-5.6,9.4-13.3,9.4
		c-9.4,0-14.9-6.5-14.9-15.8s5.6-15.4,14.7-15.4c8.9,0,13.7,6.3,13.9,14L1137.5,42.3L1137.5,42.3z M1115.8,37.4h14.9
		c-0.4-3.3-2.7-6-7.1-6C1118.9,31.4,1116.6,33.9,1115.8,37.4z"/>
	<path class="st2" d="M1163.4,53.9h-1.4c-1.8,2.3-4.6,3.5-8.8,3.5c-6.8,0-10.6-4.6-10.6-9.8c0-4.7,3.2-10,11.8-10h8.8v-0.9
		c0-3.3-1.9-5.4-6.3-5.4c-3.8,0-5.7,1.5-6,3.8h-6.5c0.3-5.6,5.3-9,12.3-9c7.7,0,12.9,3.4,12.9,10.8v19.8h-6.1v-2.8H1163.4z
		 M1163.2,44.6v-2.3h-7.6c-4.2,0-6.3,1.8-6.3,4.9c0,3,2.2,4.8,6,4.8C1159.7,52,1163.2,48.7,1163.2,44.6z"/>
	<path class="st2" d="M1184.6,26.9v2.9h1.4c1.6-2,4.3-3.6,8.8-3.6c8.1,0,12.9,6.7,12.9,15.6c0,9.1-4.9,15.7-12.9,15.7
		c-4.4,0-7-1.5-8.5-3.6h-1.4v14.6h-6.6V27L1184.6,26.9L1184.6,26.9z M1184.7,41.7c0,5.3,2.5,10.1,8.2,10.1c5.4,0,8.1-4.3,8.1-10.1
		c0-5.7-2.7-10-8.1-10C1187.1,31.7,1184.7,36.5,1184.7,41.7z"/>
</g>
<g>
	<path class="st4" d="M858.5,342.4l14.5,7.5c3.1,1.6,4.2,5.2,2.6,8.2l-7.5,14.5"/>
	<line class="st4" x1="870.1" y1="355.3" x2="603.8" y2="440.6"/>
</g>
<g>
	<path class="st4" d="M868.1,277.1l7.5,14.5c1.6,3,0.5,6.7-2.6,8.2l-14.5,7.5"/>
	<line class="st4" x1="603.8" y1="209.1" x2="870.1" y2="294.3"/>
</g>
<g>
	<g>
		<path class="st2" d="M313.7,685.7c0,9.2-5,16.2-13.3,16.2c-4.6,0-7.4-1.6-9.1-3.8h-1.5v3h-6.6v-44h6.8v16.2h1.5
			c1.6-2.2,4.3-3.8,8.8-3.8C308.7,669.5,313.7,676.4,313.7,685.7z M306.9,685.7c0-5.9-2.8-10.3-8.4-10.3c-6,0-8.5,5-8.5,10.3
			c0,5.5,2.5,10.4,8.5,10.4C304.1,696.1,306.9,691.7,306.9,685.7z"/>
	</g>
</g>
<g>
	<path class="st2" d="M424.2,695h9.8v-29h-1.5l-8.4,5.7v-7.1l8.5-5.8h8.4V695h9v6.2h-25.8V695z"/>
	<path class="st2" d="M487.5,680c0,15.3-7,22-16.1,22c-9.2,0-16.1-6.7-16.1-22c0-15.4,6.9-22,16.1-22
		C480.6,657.9,487.5,664.6,487.5,680z M480.4,680c0-8.7-2.2-15.7-9-15.7s-9,7.1-9,15.7c0,8.6,2.2,15.7,9,15.7S480.4,688.5,480.4,680
		z"/>
	<path class="st2" d="M526,680c0,15.3-7,22-16.1,22c-9.2,0-16.1-6.7-16.1-22c0-15.4,6.9-22,16.1-22C519.1,657.9,526,664.6,526,680z
		 M518.9,680c0-8.7-2.2-15.7-9-15.7s-9,7.1-9,15.7c0,8.6,2.2,15.7,9,15.7S518.9,688.5,518.9,680z"/>
</g>
<g>
	<path class="st2" d="M424.2,925.9h9.8v-29h-1.5l-8.4,5.7v-7.1l8.5-5.8h8.4v36.2h9v6.2h-25.8V925.9z"/>
	<path class="st2" d="M487.5,910.9c0,15.3-7,22-16.1,22c-9.2,0-16.1-6.7-16.1-22c0-15.4,6.9-22,16.1-22S487.5,895.6,487.5,910.9z
		 M480.4,910.9c0-8.7-2.2-15.7-9-15.7s-9,7.1-9,15.7c0,8.6,2.2,15.7,9,15.7S480.4,919.5,480.4,910.9z"/>
	<path class="st2" d="M526,910.9c0,15.3-7,22-16.1,22c-9.2,0-16.1-6.7-16.1-22c0-15.4,6.9-22,16.1-22
		C519.1,888.9,526,895.6,526,910.9z M518.9,910.9c0-8.7-2.2-15.7-9-15.7s-9,7.1-9,15.7c0,8.6,2.2,15.7,9,15.7
		S518.9,919.5,518.9,910.9z"/>
</g>
<g>
	<g>
		<path class="st2" d="M305.9,922.1h-1.5c-1.9,2.4-4.8,3.6-9.1,3.6c-7.1,0-11-4.8-11-10.1c0-4.8,3.3-10.3,12.2-10.3h9.1v-0.9
			c0-3.4-1.9-5.6-6.5-5.6c-3.9,0-5.9,1.6-6.2,3.9h-6.8c0.3-5.8,5.4-9.3,12.7-9.3c8,0,13.3,3.5,13.3,11.1V925h-6.4v-2.9H305.9z
			 M305.7,912.5v-2.4h-7.9c-4.4,0-6.5,1.9-6.5,5.1c0,3.1,2.3,5,6.2,5C302.1,920.2,305.7,916.8,305.7,912.5z"/>
	</g>
</g>
<g>
	<path class="st2" d="M202.9,251.4v-5.6h2.7c3.7,0,5-2,5-5.3v-30.6h6.6v31c0,7.3-4.3,10.5-10.5,10.5L202.9,251.4L202.9,251.4z
		 M210.4,203.6v-6.4h6.8v6.4H210.4z"/>
	<path class="st2" d="M244.9,237h-1.4c-1.8,2.3-4.6,3.5-8.8,3.5c-6.8,0-10.6-4.6-10.6-9.8c0-4.7,3.2-10,11.8-10h8.8v-0.9
		c0-3.3-1.9-5.4-6.3-5.4c-3.8,0-5.7,1.5-6,3.8h-6.5c0.3-5.6,5.3-9,12.3-9c7.7,0,12.9,3.4,12.9,10.8v19.8H245L244.9,237L244.9,237z
		 M244.7,227.7v-2.3h-7.6c-4.2,0-6.3,1.8-6.3,4.9c0,3,2.2,4.8,6,4.8C241.2,235.1,244.7,231.8,244.7,227.7z"/>
	<path class="st2" d="M256.5,210h6.7l7.1,23.5h2.7l6.8-23.5h6.7l-9.2,29.8h-11.6L256.5,210z"/>
	<path class="st2" d="M310.5,237h-1.4c-1.8,2.3-4.6,3.5-8.8,3.5c-6.8,0-10.6-4.6-10.6-9.8c0-4.7,3.2-10,11.8-10h8.8v-0.9
		c0-3.3-1.9-5.4-6.3-5.4c-3.8,0-5.7,1.5-6,3.8h-6.5c0.3-5.6,5.3-9,12.3-9c7.7,0,12.9,3.4,12.9,10.8v19.8h-6.1L310.5,237L310.5,237z
		 M310.2,227.7v-2.3h-7.6c-4.2,0-6.3,1.8-6.3,4.9c0,3,2.2,4.8,6,4.8C306.8,235.1,310.2,231.8,310.2,227.7z"/>
</g>
<g>
	<path class="st2" d="M42.1,454.4v48.1h-5.6v-48.1H42.1z"/>
	<path class="st2" d="M74.2,498.9h-1.5c-2,2.6-5.6,4.4-10.4,4.4c-7.7,0-12-5.2-12-10.8c0-5.4,3.5-11,12.8-11H74v-1.3
		c0-4-2.3-6.9-8.1-6.9c-5,0-7.5,1.9-7.7,4.8h-5.6c0.5-6.1,5.8-9.7,13.2-9.7c8.4,0,13.8,4,13.8,11.5v22.7h-5.3V498.9z M74,488.9v-3
		H64c-5.5,0-8,2.4-8,6.3c0,3.8,2.8,6.1,7.7,6.1C69.3,498.4,74,494.2,74,488.9z"/>
	<path class="st2" d="M113.8,502.4v-20c0-6.1-2.8-9.2-8.5-9.2c-6,0-9.9,5.2-9.9,11.1v18h-5.6v-33.3h5.4v3.6h1.5
		c1.9-2.6,5.6-4.4,10-4.4c8.2,0,12.7,5,12.7,13v21.2H113.8z"/>
	<path class="st2" d="M159.5,469.1v31.7c0,9.3-5.8,15.3-15.5,15.3c-8.5,0-14.1-3.6-15.1-10.2h5.6c1,4,4.4,5.4,9.5,5.4
		c6.9,0,10-4.2,10-10.8v-2.6h-1.5c-1.8,2.3-5,4.4-10,4.4c-9.2,0-14.8-7.3-14.8-17c0-9.8,5.6-17.1,14.8-17.1c5.2,0,8.4,2.1,10.2,4.4
		h1.5v-3.6H159.5z M154,485.3c0-6.4-3.4-12.2-10.5-12.2c-6.5,0-10.2,4.8-10.2,12.2c0,7.2,3.7,12.1,10.2,12.1
		C150.7,497.4,154,491.7,154,485.3z"/>
	<path class="st2" d="M175.5,469.1v20c0,6.1,2.8,9.2,8.5,9.2c5.9,0,9.9-5.1,9.9-11.1v-18h5.6v33.3H194v-3.6h-1.5
		c-1.9,2.6-5.6,4.4-10,4.4c-8.2,0-12.7-5-12.7-13v-21.2H175.5z"/>
	<path class="st2" d="M231.5,498.9h-1.5c-2,2.6-5.6,4.4-10.4,4.4c-7.7,0-12-5.2-12-10.8c0-5.4,3.5-11,12.8-11h10.8v-1.3
		c0-4-2.3-6.9-8.1-6.9c-5,0-7.5,1.9-7.7,4.8h-5.6c0.5-6.1,5.8-9.7,13.2-9.7c8.4,0,13.8,4,13.8,11.5v22.7h-5.3V498.9z M231.3,488.9
		v-3h-10c-5.5,0-8,2.4-8,6.3c0,3.8,2.8,6.1,7.7,6.1C226.6,498.4,231.3,494.2,231.3,488.9z"/>
	<path class="st2" d="M277,469.1v31.7c0,9.3-5.8,15.3-15.5,15.3c-8.5,0-14.1-3.6-15.1-10.2h5.6c1,4,4.4,5.4,9.5,5.4
		c6.9,0,10-4.2,10-10.8v-2.6h-1.5c-1.8,2.3-5,4.4-10,4.4c-9.2,0-14.8-7.3-14.8-17c0-9.8,5.6-17.1,14.8-17.1c5.2,0,8.4,2.1,10.2,4.4
		h1.5v-3.6H277z M271.5,485.3c0-6.4-3.4-12.2-10.5-12.2c-6.5,0-10.2,4.8-10.2,12.2c0,7.2,3.7,12.1,10.2,12.1
		C268.1,497.4,271.5,491.7,271.5,485.3z"/>
	<path class="st2" d="M316.7,485.7h-25.4c0.2,7.9,3.8,12.7,10.6,12.7c4.7,0,7.5-2,8.5-5.2h5.7c-1.1,5.7-5.9,10-14.1,10
		c-10.4,0-16.2-7.6-16.2-17.9s6-17.2,16.1-17.2c9.9,0,14.7,7.3,14.9,15.5V485.7z M291.6,481h19.2c-0.3-4.2-3.6-7.9-9.2-7.9
		C295.7,473.1,292.4,476.8,291.6,481z"/>
</g>
</svg>
