<?xml version="1.0" encoding="utf-8"?>
<!-- Generator: Adobe Illustrator 20.1.0, SVG Export Plug-In . SVG Version: 6.00 Build 0)  -->
<svg version="1.1" id="Layer_1" xmlns="http://www.w3.org/2000/svg" xmlns:xlink="http://www.w3.org/1999/xlink" x="0px" y="0px"
	 viewBox="0 0 1230.1 1053.1" style="enable-background:new 0 0 1230.1 1053.1;" xml:space="preserve">
<style type="text/css">
	.st0{opacity:0.12;fill:#007BFF;enable-background:new    ;}
	.st1{fill:none;stroke:#007BFF;stroke-width:4;stroke-miterlimit:10;}
	.st2{fill:#082E51;}
	.st3{fill:#FFFFFF;stroke:#007BFF;stroke-width:4;stroke-miterlimit:10;}
	.st4{fill:none;stroke:#007BFF;stroke-width:4;stroke-linecap:round;stroke-miterlimit:10;}
</style>
<path class="st0" d="M1175.1,1031.2H612.8c-19.7,0-35.6-16-35.6-35.6V132.8c0-19.7,16-35.6,35.6-35.6h562.3
	c19.7,0,35.6,16,35.6,35.6v862.7C1210.7,1015.2,1194.8,1031.2,1175.1,1031.2z"/>
<rect x="118.1" y="97.2" class="st1" width="236" height="934"/>
<line class="st1" x1="118.1" y1="329.2" x2="354.1" y2="329.2"/>
<line class="st1" x1="118.1" y1="564.2" x2="354.1" y2="564.2"/>
<line class="st1" x1="118.1" y1="797.2" x2="354.1" y2="797.2"/>
<g>
	<path class="st2" d="M182.4,31.9c-0.9-3.7-3.6-5.6-8.8-5.6c-4.4,0-8,1.8-8,5.7c0,3.4,2.9,4.6,6.1,5.1c1.3,0.3,6.3,1.2,7.8,1.5
		c6.4,1.4,10.9,4.7,10.9,12c0,6.8-5.3,12.8-16.3,12.8c-10.1,0-16.5-5.3-17.3-13h7.1c0.9,5.1,5.3,6.8,10.5,6.8s8.9-2.2,8.9-6.4
		c0-3.9-2.6-5.4-6.3-6.2l-8.1-1.6c-6.5-1.2-10.4-4.7-10.4-11c0-6.7,5.4-12,15.2-12c8.9,0,14.9,4.6,15.8,11.8L182.4,31.9L182.4,31.9z
		"/>
	<path class="st2" d="M213.6,32.9v5.6h-7V53c0,2.5,1.2,3.9,4.6,3.9h2.5v5.7h-2.6c-6.6,0-11.1-2-11.1-8.8V38.4h-4.8v-5.6h4.7v-8.6
		h6.6v8.7H213.6z"/>
	<path class="st2" d="M240,59.9h-1.4c-1.8,2.3-4.6,3.5-8.8,3.5c-6.8,0-10.6-4.6-10.6-9.8c0-4.7,3.2-10,11.8-10h8.8v-0.9
		c0-3.3-1.9-5.4-6.3-5.4c-3.8,0-5.7,1.5-6,3.8H221c0.3-5.6,5.3-9,12.3-9c7.7,0,12.9,3.4,12.9,10.8v19.8h-6.1L240,59.9L240,59.9z
		 M239.8,50.6v-2.3h-7.6c-4.2,0-6.3,1.8-6.3,4.9c0,3,2.2,4.8,6,4.8C236.3,58,239.8,54.7,239.8,50.6z"/>
	<path class="st2" d="M280.9,53.1c-0.9,6.1-5.9,10.3-13.1,10.3c-9.2,0-14.7-6.5-14.7-15.7s5.5-15.6,14.7-15.6c7.3,0,12,4,12.9,9.8
		h-6.5c-0.9-2.6-2.7-4.2-6.3-4.2c-5.9,0-8.2,4.6-8.2,9.9c0,5.4,2.3,10.1,8.2,10.1c3.7,0,5.8-1.7,6.5-4.7L280.9,53.1L280.9,53.1z"/>
	<path class="st2" d="M309.5,62.6l-7.7-15h-1.4l-5.7,6.3v8.7h-6.6V20.1h6.6V46l12.5-13.2h7.5l-8.6,9.2l10.3,20.5h-6.9L309.5,62.6
		L309.5,62.6z"/>
</g>
<g>
	<path class="st2" d="M214.3,218c3.3,1.5,5.6,5,5.6,9.2c0,6.8-4.6,11.9-14.3,11.9h-19.4v-41.7h18.9c9.1,0,13.6,5,13.6,10.8
		c0,3.7-1.6,6.8-4.4,8.4V218z M204.4,214.6c5.1,0,7-2,7-5.6s-1.9-5.5-7-5.5h-11.2v11.1H204.4z M204.7,233.1c5.8,0,8-2.4,8-6.3
		c0-4-2.2-6.3-8-6.3h-11.5v12.6L204.7,233.1L204.7,233.1z"/>
	<path class="st2" d="M226.1,233.2h9.5v-28h-1.4l-8.1,5.5v-6.8l8.2-5.6h8.1v35h8.7v6h-25L226.1,233.2L226.1,233.2z"/>
	<path class="st2" d="M287.2,218.7c0,14.8-6.7,21.2-15.6,21.2s-15.6-6.4-15.6-21.2c0-14.9,6.7-21.3,15.6-21.3
		C280.5,197.5,287.2,203.9,287.2,218.7z M280.4,218.7c0-8.4-2.2-15.2-8.7-15.2s-8.7,6.8-8.7,15.2c0,8.3,2.2,15.1,8.7,15.1
		S280.4,227,280.4,218.7z"/>
</g>
<g>
	<path class="st2" d="M214.3,450c3.3,1.5,5.6,5,5.6,9.2c0,6.8-4.6,11.9-14.3,11.9h-19.4v-41.7h18.9c9.1,0,13.6,5,13.6,10.8
		c0,3.7-1.6,6.8-4.4,8.4V450z M204.4,446.6c5.1,0,7-2,7-5.6s-1.9-5.5-7-5.5h-11.2v11.1H204.4z M204.7,465.1c5.8,0,8-2.4,8-6.3
		c0-4-2.2-6.3-8-6.3h-11.5v12.6H204.7z"/>
	<path class="st2" d="M226.1,465.2h9.5v-28h-1.4l-8.1,5.5v-6.8l8.2-5.6h8.1v35h8.7v6h-25L226.1,465.2L226.1,465.2z"/>
	<path class="st2" d="M287.2,450.7c0,14.8-6.7,21.2-15.6,21.2s-15.6-6.4-15.6-21.2c0-14.9,6.7-21.3,15.6-21.3
		C280.5,429.5,287.2,435.9,287.2,450.7z M280.4,450.7c0-8.4-2.2-15.2-8.7-15.2s-8.7,6.8-8.7,15.2c0,8.3,2.2,15.1,8.7,15.1
		S280.4,459,280.4,450.7z"/>
</g>
<g>
	<path class="st2" d="M215.7,705.2v-7.8h7.5v7.8H215.7z"/>
	<path class="st2" d="M231.9,705.2v-7.8h7.5v7.8H231.9z"/>
	<path class="st2" d="M248,705.2v-7.8h7.5v7.8H248z"/>
</g>
<g>
	<path class="st2" d="M209.8,918.2h-17.1l-3.8,12h-7l13.9-41.7H207l13.9,41.7h-7.2L209.8,918.2z M194.7,912h13.1l-5.3-16.7H200
		L194.7,912z"/>
	<path class="st2" d="M251.6,889.3v7.2l-8.9,7.2v1.5c6.1,0.3,10.9,4.5,10.9,12.1c0,8.6-6.3,13.7-15,13.7s-14.7-5.5-15-12.7h6.8
		c0.4,4.2,3.7,6.7,8.1,6.7c5.1,0,8.2-2.9,8.2-7.7c0-4.7-2.9-7.7-8.2-7.7c-1.5,0-2.7,0.1-3.7,0.4v-6.2l8.8-7.2v-1.4h-17.4v-5.8
		L251.6,889.3L251.6,889.3z"/>
	<path class="st2" d="M285.9,889.3v7.2l-8.9,7.2v1.5c6.1,0.3,10.9,4.5,10.9,12.1c0,8.6-6.3,13.7-15,13.7s-14.7-5.5-15-12.7h6.8
		c0.4,4.2,3.7,6.7,8.1,6.7c5.1,0,8.2-2.9,8.2-7.7c0-4.7-2.9-7.7-8.2-7.7c-1.5,0-2.7,0.1-3.7,0.4v-6.2l8.8-7.2v-1.4h-17.4v-5.8
		L285.9,889.3L285.9,889.3z"/>
</g>
<g>
	<path class="st2" d="M30,217.4c-0.4-2.5-2.8-3.2-5.8-3.2c-3.2,0-5.4,0.9-5.4,3.1c0,1.9,1.3,2.6,3.8,3l5.8,0.9
		c5.4,0.9,9.1,3.7,9.1,9.2c0,5-4.3,9.5-12.7,9.5c-8.7,0-13-3.9-13.6-9.8h6.6c0.5,3,3,4.3,6.9,4.3c3.8,0,6.3-1.1,6.3-3.9
		c0-2.3-1.4-3.3-4.9-4l-6.2-1.1c-4.4-0.8-7.6-3.2-7.6-7.8c0-5,3.8-9.1,12.2-9.1c7.3,0,11.6,3.5,12.2,8.7H30L30,217.4L30,217.4z"/>
	<path class="st2" d="M69.4,198.3v7.2l-8.9,7.2v1.5c6.1,0.3,10.9,4.5,10.9,12.1c0,8.6-6.3,13.7-15,13.7s-14.7-5.5-15-12.7h6.8
		c0.4,4.2,3.7,6.7,8.1,6.7c5.1,0,8.2-2.9,8.2-7.7c0-4.7-2.9-7.7-8.2-7.7c-1.5,0-2.7,0.1-3.7,0.4v-6.2l8.8-7.2v-1.4H44v-5.8h25.4
		L69.4,198.3L69.4,198.3z"/>
</g>
<g>
	<rect x="659.9" y="271.2" class="st3" width="468" height="118"/>
	<line class="st1" x1="839.9" y1="271.2" x2="839.9" y2="389.2"/>
	<g>
		<path class="st2" d="M729.5,329c3.3,1.5,5.6,5,5.6,9.2c0,6.8-4.6,11.9-14.3,11.9h-19.4v-41.7h18.9c9.1,0,13.6,5,13.6,10.8
			c0,3.7-1.6,6.8-4.4,8.4L729.5,329L729.5,329z M719.6,325.6c5.1,0,7-2,7-5.6s-1.9-5.5-7-5.5h-11.2v11.1H719.6z M719.9,344.1
			c5.8,0,8-2.4,8-6.3c0-4-2.2-6.3-8-6.3h-11.5v12.6L719.9,344.1L719.9,344.1z"/>
		<path class="st2" d="M741.3,344.2h9.5v-28h-1.4l-8.1,5.5v-6.8l8.2-5.6h8.1v35h8.7v6h-25V344.2z"/>
		<path class="st2" d="M802.4,329.7c0,14.8-6.7,21.2-15.6,21.2c-8.9,0-15.6-6.4-15.6-21.2c0-14.9,6.7-21.3,15.6-21.3
			C795.7,308.5,802.4,314.9,802.4,329.7z M795.6,329.7c0-8.4-2.2-15.2-8.7-15.2s-8.7,6.8-8.7,15.2c0,8.3,2.2,15.1,8.7,15.1
			S795.6,338,795.6,329.7z"/>
	</g>
	<g>
		<path class="st2" d="M908.8,311v7.8h-7.5v-9.1l3.9-6.3h4.1l-3.9,6.3v1.3L908.8,311L908.8,311z M920.4,311v7.8h-7.5v-9.1l3.9-6.3
			h4.1l-3.9,6.3v1.3L920.4,311L920.4,311z"/>
		<path class="st2" d="M922.4,356.9v-5.6h2.7c3.7,0,5-2,5-5.3v-30.6h6.6v31c0,7.3-4.3,10.5-10.5,10.5H922.4z M929.9,309.1v-6.4h6.8
			v6.4H929.9z"/>
		<path class="st2" d="M964.4,342.5H963c-1.8,2.3-4.6,3.5-8.8,3.5c-6.8,0-10.6-4.6-10.6-9.8c0-4.7,3.2-10,11.8-10h8.8v-0.9
			c0-3.3-1.9-5.4-6.3-5.4c-3.8,0-5.7,1.5-6,3.8h-6.5c0.3-5.6,5.3-9,12.3-9c7.7,0,12.9,3.4,12.9,10.8v19.7h-6.1v-2.7H964.4z
			 M964.2,333.2v-2.3h-7.6c-4.2,0-6.3,1.8-6.3,4.9c0,3,2.2,4.8,6,4.8C960.7,340.6,964.2,337.3,964.2,333.2z"/>
		<path class="st2" d="M976,315.4h6.7l7.1,23.5h2.7l6.8-23.5h6.7l-9.2,29.8h-11.6L976,315.4z"/>
		<path class="st2" d="M1029.9,342.5h-1.4c-1.8,2.3-4.6,3.5-8.8,3.5c-6.8,0-10.6-4.6-10.6-9.8c0-4.7,3.2-10,11.8-10h8.8v-0.9
			c0-3.3-1.9-5.4-6.3-5.4c-3.8,0-5.7,1.5-6,3.8h-6.5c0.3-5.6,5.3-9,12.3-9c7.7,0,12.9,3.4,12.9,10.8v19.7h-6.1v-2.7H1029.9z
			 M1029.7,333.2v-2.3h-7.6c-4.2,0-6.3,1.8-6.3,4.9c0,3,2.2,4.8,6,4.8C1026.3,340.6,1029.7,337.3,1029.7,333.2z"/>
		<path class="st2" d="M1044.5,311.3v-7.8h7.5v9.1l-3.9,6.3h-4.1l3.9-6.3v-1.3L1044.5,311.3L1044.5,311.3z M1056.1,311.3v-7.8h7.5
			v9.1l-3.9,6.3h-4.1l3.9-6.3v-1.3L1056.1,311.3L1056.1,311.3z"/>
	</g>
</g>
<g>
	<rect x="659.9" y="812.2" class="st3" width="468" height="118"/>
	<line class="st1" x1="839.9" y1="812.2" x2="839.9" y2="930.2"/>
	<g>
		<path class="st2" d="M724.4,879.2h-17.2l-3.8,12h-7l13.9-41.7h11.2l13.9,41.7h-7.2L724.4,879.2z M709.2,873h13.1l-5.3-16.7h-2.5
			L709.2,873z"/>
		<path class="st2" d="M766.1,850.3v7.2l-8.9,7.2v1.5c6.1,0.3,10.9,4.5,10.9,12.1c0,8.6-6.3,13.7-15,13.7s-14.7-5.5-15-12.7h6.8
			c0.4,4.2,3.7,6.7,8.1,6.7c5.1,0,8.2-2.9,8.2-7.7c0-4.7-2.9-7.7-8.2-7.7c-1.5,0-2.7,0.1-3.7,0.4v-6.2l8.8-7.2v-1.4h-17.4v-5.8
			L766.1,850.3L766.1,850.3z"/>
		<path class="st2" d="M800.4,850.3v7.2l-8.9,7.2v1.5c6.1,0.3,10.9,4.5,10.9,12.1c0,8.6-6.3,13.7-15,13.7c-8.8,0-14.7-5.5-15-12.7
			h6.8c0.4,4.2,3.7,6.7,8.1,6.7c5.1,0,8.2-2.9,8.2-7.7c0-4.7-2.9-7.7-8.2-7.7c-1.5,0-2.7,0.1-3.7,0.4v-6.2l8.8-7.2v-1.4H775v-5.8
			L800.4,850.3L800.4,850.3z"/>
	</g>
	<g>
		<path class="st2" d="M910.8,851v7.8h-7.5v-9.1l3.9-6.3h4.1l-3.9,6.3v1.3H910.8z M922.4,851v7.8h-7.5v-9.1l3.9-6.3h4.1l-3.9,6.3
			v1.3H922.4z"/>
		<path class="st2" d="M924.4,896.9v-5.6h2.7c3.7,0,5-2,5-5.3v-30.6h6.6v31c0,7.2-4.3,10.5-10.5,10.5L924.4,896.9L924.4,896.9z
			 M931.9,849.1v-6.4h6.8v6.4H931.9z"/>
		<path class="st2" d="M966.4,882.5H965c-1.8,2.3-4.6,3.5-8.8,3.5c-6.8,0-10.6-4.6-10.6-9.8c0-4.7,3.2-10,11.8-10h8.8v-0.9
			c0-3.3-1.9-5.4-6.3-5.4c-3.8,0-5.7,1.5-6,3.8h-6.5c0.3-5.6,5.3-9,12.3-9c7.7,0,12.9,3.4,12.9,10.8v19.7h-6.1v-2.7H966.4z
			 M966.2,873.2v-2.3h-7.6c-4.2,0-6.3,1.8-6.3,4.9c0,3,2.2,4.8,6,4.8C962.7,880.6,966.2,877.3,966.2,873.2z"/>
		<path class="st2" d="M978,855.4h6.7l7.1,23.5h2.7l6.8-23.5h6.7l-9.2,29.8h-11.6L978,855.4z"/>
		<path class="st2" d="M1031.9,882.5h-1.4c-1.8,2.3-4.6,3.5-8.8,3.5c-6.8,0-10.6-4.6-10.6-9.8c0-4.7,3.2-10,11.8-10h8.8v-0.9
			c0-3.3-1.9-5.4-6.3-5.4c-3.8,0-5.7,1.5-6,3.8h-6.5c0.3-5.6,5.3-9,12.3-9c7.7,0,12.9,3.4,12.9,10.8v19.7h-6.1v-2.7H1031.9z
			 M1031.7,873.2v-2.3h-7.6c-4.2,0-6.3,1.8-6.3,4.9c0,3,2.2,4.8,6,4.8C1028.3,880.6,1031.7,877.3,1031.7,873.2z"/>
		<path class="st2" d="M1046.5,851.3v-7.8h7.5v9.1l-3.9,6.3h-4.1l3.9-6.3v-1.3H1046.5z M1058.1,851.3v-7.8h7.5v9.1l-3.9,6.3h-4.1
			l3.9-6.3v-1.3H1058.1z"/>
	</g>
</g>
<g>
	<path class="st2" d="M29.5,449.4c-0.4-2.5-2.8-3.2-5.8-3.2c-3.2,0-5.4,0.9-5.4,3.1c0,1.9,1.3,2.6,3.8,3l5.8,0.9
		c5.4,0.9,9.1,3.7,9.1,9.2c0,5-4.3,9.5-12.7,9.5c-8.7,0-13-3.9-13.6-9.8h6.6c0.5,3,3,4.3,6.9,4.3c3.8,0,6.3-1.1,6.3-3.9
		c0-2.3-1.4-3.3-4.9-4l-6.2-1.1c-4.4-0.8-7.6-3.2-7.6-7.8c0-5,3.8-9.1,12.2-9.1c7.3,0,11.6,3.5,12.2,8.7h-6.7L29.5,449.4L29.5,449.4
		z"/>
	<path class="st2" d="M42.3,442.1c0.5-8.4,6.2-12.6,14.3-12.6c8,0,13.7,4.4,13.7,12.8c0,5.6-3.6,10.2-8.3,13.9l-9.5,7.7v1.4h18.9v6
		H42.2V464l14.7-11.6c3-2.4,6.5-5.7,6.5-10c0-4.5-2.9-6.8-7.1-6.8c-4,0-6.9,2-7.4,6.5L42.3,442.1L42.3,442.1z"/>
</g>
<g>
	<path class="st2" d="M30,908.4c-0.4-2.5-2.8-3.2-5.8-3.2c-3.2,0-5.4,0.9-5.4,3.1c0,1.9,1.3,2.6,3.8,3l5.8,0.9
		c5.4,0.9,9.1,3.7,9.1,9.2c0,5-4.3,9.5-12.7,9.5c-8.7,0-13-3.9-13.6-9.8h6.6c0.5,3,3,4.3,6.9,4.3c3.8,0,6.3-1.1,6.3-3.9
		c0-2.3-1.4-3.3-4.9-4l-6.2-1.1c-4.4-0.8-7.6-3.2-7.6-7.8c0-5,3.8-9.1,12.2-9.1c7.3,0,11.6,3.5,12.2,8.7H30L30,908.4L30,908.4z"/>
	<path class="st2" d="M43.1,924.2h9.5v-28h-1.4l-8.1,5.5v-6.8l8.2-5.6h8.1v35h8.7v6h-25V924.2z"/>
</g>
<g>
	<path class="st2" d="M859.3,20.9v41.7h-7V44.4h-20.9v18.2h-7V20.9h7v17h20.8v-17H859.3z"/>
	<path class="st2" d="M895.6,48.3h-22c0.2,6.1,3,9.5,8.4,9.5c3.6,0,5.6-1.4,6.5-3.8h6.7c-1.1,5.6-5.6,9.4-13.3,9.4
		c-9.4,0-14.9-6.5-14.9-15.8s5.6-15.4,14.7-15.4c8.9,0,13.7,6.3,13.9,14V48.3z M873.9,43.4h14.9c-0.4-3.3-2.7-6-7.1-6
		C877,37.4,874.7,39.9,873.9,43.4z"/>
	<path class="st2" d="M921.5,59.9h-1.4c-1.8,2.3-4.6,3.5-8.8,3.5c-6.8,0-10.6-4.6-10.6-9.8c0-4.7,3.2-10,11.8-10h8.8v-0.9
		c0-3.3-1.9-5.4-6.3-5.4c-3.8,0-5.7,1.5-6,3.8h-6.5c0.3-5.6,5.3-9,12.3-9c7.7,0,12.9,3.4,12.9,10.8v19.8h-6.1v-2.8L921.5,59.9
		L921.5,59.9z M921.3,50.6v-2.3h-7.6c-4.2,0-6.3,1.8-6.3,4.9c0,3,2.2,4.8,6,4.8C917.8,58,921.3,54.7,921.3,50.6z"/>
	<path class="st2" d="M942.7,32.9v2.9h1.4c1.6-2,4.3-3.6,8.8-3.6c8.1,0,12.9,6.7,12.9,15.6c0,9.1-4.9,15.7-12.9,15.7
		c-4.4,0-7-1.5-8.5-3.6H943v14.6h-6.6V33L942.7,32.9L942.7,32.9z M942.8,47.7c0,5.3,2.5,10.1,8.2,10.1c5.4,0,8.1-4.3,8.1-10.1
		c0-5.7-2.7-10-8.1-10C945.3,37.7,942.8,42.5,942.8,47.7z"/>
</g>
<g>
	<path class="st4" d="M616.6,348.4l14.5,7.5c3.1,1.6,4.2,5.2,2.6,8.2l-7.5,14.5"/>
	<line class="st4" x1="628.3" y1="361.3" x2="361.9" y2="446.6"/>
</g>
<g>
	<path class="st4" d="M626.2,283.1l7.5,14.5c1.6,3,0.5,6.7-2.6,8.2l-14.5,7.5"/>
	<line class="st4" x1="361.9" y1="215.1" x2="628.3" y2="300.3"/>
</g>
<g>
	<path class="st4" d="M611.9,854.5l11.7,11.4c2.5,2.3,2.6,6.2,0.1,8.6l-11.4,11.7"/>
	<line class="st4" x1="361.9" y1="870.2" x2="619.3" y2="870.2"/>
</g>
</svg>
