<?xml version="1.0" encoding="utf-8"?>
<!-- Generator: Adobe Illustrator 20.1.0, SVG Export Plug-In . SVG Version: 6.00 Build 0)  -->
<svg version="1.1" id="Layer_1" xmlns="http://www.w3.org/2000/svg" xmlns:xlink="http://www.w3.org/1999/xlink" x="0px" y="0px"
	 viewBox="0 0 1440.3 1038.1" style="enable-background:new 0 0 1440.3 1038.1;" xml:space="preserve">
<style type="text/css">
	.st0{opacity:0.12;fill:#007BFF;enable-background:new    ;}
	.st1{fill:none;stroke:#007BFF;stroke-width:4;stroke-miterlimit:10;}
	.st2{fill:#082E51;}
	.st3{fill:#FFFFFF;stroke:#007BFF;stroke-width:4;stroke-miterlimit:10;}
	.st4{fill:none;stroke:#007BFF;stroke-width:4;stroke-linecap:round;stroke-miterlimit:10;}
</style>
<path class="st0" d="M1383.3,1025.2H820.9c-19.7,0-35.6-16-35.6-35.6V126.8c0-19.7,16-35.6,35.6-35.6h562.4
	c19.7,0,35.6,16,35.6,35.6v862.7C1418.9,1009.2,1402.9,1025.2,1383.3,1025.2z"/>
<rect x="326.3" y="91.2" class="st1" width="236" height="934"/>
<line class="st1" x1="326.3" y1="323.2" x2="562.3" y2="323.2"/>
<line class="st1" x1="326.3" y1="558.2" x2="562.3" y2="558.2"/>
<line class="st1" x1="326.3" y1="791.2" x2="562.3" y2="791.2"/>
<g>
	<path class="st2" d="M386.8,25.9c-0.9-3.7-3.6-5.6-8.8-5.6c-4.4,0-8,1.8-8,5.7c0,3.4,2.9,4.6,6.1,5.1c1.3,0.3,6.3,1.2,7.8,1.5
		c6.4,1.4,10.9,4.7,10.9,12c0,6.8-5.3,12.8-16.3,12.8c-10.1,0-16.5-5.3-17.3-13h7.1c0.9,5.1,5.3,6.8,10.5,6.8s8.9-2.2,8.9-6.4
		c0-3.9-2.6-5.4-6.3-6.2l-8.1-1.6c-6.5-1.2-10.4-4.7-10.4-11c0-6.7,5.4-12,15.2-12c8.9,0,14.9,4.6,15.8,11.8L386.8,25.9L386.8,25.9z
		"/>
	<path class="st2" d="M418,26.9v5.6h-7V47c0,2.5,1.2,3.9,4.6,3.9h2.5v5.7h-2.6c-6.6,0-11.1-2-11.1-8.8V32.4h-4.7v-5.6h4.7v-8.6h6.6
		v8.7H418z"/>
	<path class="st2" d="M444.4,53.9H443c-1.8,2.3-4.6,3.5-8.8,3.5c-6.8,0-10.6-4.6-10.6-9.8c0-4.7,3.2-10,11.8-10h8.8v-0.9
		c0-3.3-1.9-5.4-6.3-5.4c-3.8,0-5.7,1.5-6,3.8h-6.5c0.3-5.6,5.3-9,12.3-9c7.7,0,12.9,3.4,12.9,10.8v19.8h-6.1L444.4,53.9L444.4,53.9
		z M444.1,44.6v-2.3h-7.6c-4.2,0-6.3,1.8-6.3,4.9c0,3,2.2,4.8,6,4.8C440.7,52,444.1,48.7,444.1,44.6z"/>
	<path class="st2" d="M485.3,47.1c-0.9,6.1-5.9,10.3-13.1,10.3c-9.2,0-14.7-6.5-14.7-15.7s5.5-15.6,14.7-15.6c7.3,0,12,4,12.9,9.8
		h-6.5c-0.9-2.6-2.7-4.2-6.3-4.2c-5.9,0-8.2,4.6-8.2,9.9c0,5.4,2.3,10.1,8.2,10.1c3.7,0,5.8-1.7,6.5-4.7L485.3,47.1L485.3,47.1z"/>
	<path class="st2" d="M513.8,56.6l-7.7-15h-1.4l-5.7,6.3v8.7h-6.6V14.1h6.6V40l12.5-13.2h7.5l-8.6,9.2l10.3,20.5h-6.9V56.6z"/>
</g>
<g>
	<path class="st2" d="M418.6,212c3.3,1.5,5.6,5,5.6,9.2c0,6.8-4.6,11.9-14.3,11.9h-19.4v-41.7h18.9c9.1,0,13.6,5,13.6,10.8
		c0,3.7-1.6,6.8-4.4,8.4L418.6,212L418.6,212z M408.8,208.6c5.1,0,7-2,7-5.6s-1.9-5.5-7-5.5h-11.2v11.1H408.8z M409,227.1
		c5.8,0,8-2.4,8-6.3c0-4-2.2-6.3-8-6.3h-11.5v12.6L409,227.1L409,227.1z"/>
	<path class="st2" d="M430.4,227.2h9.5v-28h-1.4l-8.1,5.5v-6.8l8.2-5.6h8.1v35h8.7v6h-25L430.4,227.2L430.4,227.2z"/>
	<path class="st2" d="M491.6,212.7c0,14.8-6.7,21.2-15.6,21.2s-15.6-6.4-15.6-21.2c0-14.9,6.7-21.3,15.6-21.3
		C484.8,191.5,491.6,197.9,491.6,212.7z M484.7,212.7c0-8.4-2.2-15.2-8.7-15.2s-8.7,6.8-8.7,15.2c0,8.3,2.2,15.1,8.7,15.1
		S484.7,221,484.7,212.7z"/>
</g>
<g>
	<rect x="868.1" y="265.2" class="st3" width="468" height="118"/>
	<line class="st1" x1="1048.1" y1="265.2" x2="1048.1" y2="383.2"/>
	<g>
		<path class="st2" d="M937.6,323c3.3,1.5,5.6,5,5.6,9.2c0,6.8-4.6,11.9-14.3,11.9h-19.4v-41.7h18.9c9.1,0,13.6,5,13.6,10.8
			c0,3.7-1.6,6.8-4.4,8.4L937.6,323L937.6,323z M927.8,319.6c5.1,0,7-2,7-5.6s-1.9-5.5-7-5.5h-11.2v11.1H927.8z M928,338.1
			c5.8,0,8-2.4,8-6.3c0-4-2.2-6.3-8-6.3h-11.5v12.6L928,338.1L928,338.1z"/>
		<path class="st2" d="M949.4,338.2h9.5v-28h-1.4l-8.1,5.5v-6.8l8.2-5.6h8.1v35h8.7v6h-25V338.2z"/>
		<path class="st2" d="M1010.6,323.7c0,14.8-6.7,21.2-15.6,21.2s-15.6-6.4-15.6-21.2c0-14.9,6.7-21.3,15.6-21.3
			C1003.9,302.5,1010.6,308.9,1010.6,323.7z M1003.7,323.7c0-8.4-2.2-15.2-8.7-15.2s-8.7,6.8-8.7,15.2c0,8.3,2.2,15.1,8.7,15.1
			C1001.6,338.9,1003.7,332,1003.7,323.7z"/>
	</g>
	<g>
		<path class="st2" d="M1117,305v7.8h-7.5v-9.1l3.9-6.3h4.1l-3.9,6.3v1.3L1117,305L1117,305z M1128.6,305v7.8h-7.5v-9.1l3.9-6.3h4.1
			l-3.9,6.3v1.3L1128.6,305L1128.6,305z"/>
		<path class="st2" d="M1130.5,350.9v-5.6h2.7c3.7,0,5-2,5-5.3v-30.6h6.6v31c0,7.3-4.3,10.5-10.5,10.5H1130.5z M1138.1,303.1v-6.4
			h6.8v6.4H1138.1z"/>
		<path class="st2" d="M1172.6,336.5h-1.4c-1.8,2.3-4.6,3.5-8.8,3.5c-6.8,0-10.6-4.6-10.6-9.8c0-4.7,3.2-10,11.8-10h8.8v-0.9
			c0-3.3-1.9-5.4-6.3-5.4c-3.8,0-5.7,1.5-6,3.8h-6.5c0.3-5.6,5.3-9,12.3-9c7.7,0,12.9,3.4,12.9,10.8v19.7h-6.1v-2.7H1172.6z
			 M1172.3,327.2v-2.3h-7.6c-4.2,0-6.3,1.8-6.3,4.9c0,3,2.2,4.8,6,4.8C1168.9,334.6,1172.3,331.3,1172.3,327.2z"/>
		<path class="st2" d="M1184.1,309.4h6.7l7.1,23.5h2.7l6.8-23.5h6.7l-9.2,29.8h-11.6L1184.1,309.4z"/>
		<path class="st2" d="M1238.1,336.5h-1.4c-1.8,2.3-4.6,3.5-8.8,3.5c-6.8,0-10.6-4.6-10.6-9.8c0-4.7,3.2-10,11.8-10h8.8v-0.9
			c0-3.3-1.9-5.4-6.3-5.4c-3.8,0-5.7,1.5-6,3.8h-6.5c0.3-5.6,5.3-9,12.3-9c7.7,0,12.9,3.4,12.9,10.8v19.7h-6.1v-2.7H1238.1z
			 M1237.9,327.2v-2.3h-7.6c-4.2,0-6.3,1.8-6.3,4.9c0,3,2.2,4.8,6,4.8C1234.4,334.6,1237.9,331.3,1237.9,327.2z"/>
		<path class="st2" d="M1252.7,305.3v-7.8h7.5v9.1l-3.9,6.3h-4.1l3.9-6.3v-1.3L1252.7,305.3L1252.7,305.3z M1264.3,305.3v-7.8h7.5
			v9.1l-3.9,6.3h-4.1l3.9-6.3v-1.3L1264.3,305.3L1264.3,305.3z"/>
	</g>
</g>
<g>
	<path class="st2" d="M1067.4,14.9v41.7h-7V38.4h-20.9v18.2h-7V14.9h7v17h20.9v-17H1067.4z"/>
	<path class="st2" d="M1103.8,42.3h-22c0.2,6.1,3,9.5,8.4,9.5c3.6,0,5.6-1.4,6.5-3.8h6.7c-1.1,5.6-5.6,9.4-13.3,9.4
		c-9.4,0-14.9-6.5-14.9-15.8s5.6-15.4,14.7-15.4c8.9,0,13.7,6.3,13.9,14L1103.8,42.3L1103.8,42.3z M1082.1,37.4h14.9
		c-0.4-3.3-2.7-6-7.1-6C1085.2,31.4,1082.9,33.9,1082.1,37.4z"/>
	<path class="st2" d="M1129.7,53.9h-1.4c-1.8,2.3-4.6,3.5-8.8,3.5c-6.8,0-10.6-4.6-10.6-9.8c0-4.7,3.2-10,11.8-10h8.8v-0.9
		c0-3.3-1.9-5.4-6.3-5.4c-3.8,0-5.7,1.5-6,3.8h-6.5c0.3-5.6,5.3-9,12.3-9c7.7,0,12.9,3.4,12.9,10.8v19.8h-6.1v-2.8H1129.7z
		 M1129.5,44.6v-2.3h-7.6c-4.2,0-6.3,1.8-6.3,4.9c0,3,2.2,4.8,6,4.8C1126,52,1129.5,48.7,1129.5,44.6z"/>
	<path class="st2" d="M1150.9,26.9v2.9h1.4c1.6-2,4.3-3.6,8.8-3.6c8.1,0,12.9,6.7,12.9,15.6c0,9.1-4.9,15.7-12.9,15.7
		c-4.4,0-7-1.5-8.5-3.6h-1.4v14.6h-6.6V27L1150.9,26.9L1150.9,26.9z M1151,41.7c0,5.3,2.5,10.1,8.2,10.1c5.4,0,8.1-4.3,8.1-10.1
		c0-5.7-2.7-10-8.1-10C1153.4,31.7,1151,36.5,1151,41.7z"/>
</g>
<g>
	<path class="st4" d="M834.4,277.1l7.5,14.5c1.6,3,0.5,6.7-2.6,8.2l-14.5,7.5"/>
	<line class="st4" x1="570.1" y1="209.1" x2="836.4" y2="294.3"/>
</g>
<g>
	<path class="st2" d="M390.2,695h9.8v-29h-1.5l-8.4,5.7v-7.1l8.5-5.8h8.4V695h9v6.2h-25.8V695z"/>
	<path class="st2" d="M453.5,680c0,15.3-7,22-16.1,22c-9.2,0-16.1-6.7-16.1-22c0-15.4,6.9-22,16.1-22
		C446.5,657.9,453.5,664.6,453.5,680z M446.4,680c0-8.7-2.2-15.7-9-15.7s-9,7.1-9,15.7c0,8.6,2.2,15.7,9,15.7S446.4,688.5,446.4,680
		z"/>
	<path class="st2" d="M492,680c0,15.3-7,22-16.1,22c-9.2,0-16.1-6.7-16.1-22c0-15.4,6.9-22,16.1-22C485,657.9,492,664.6,492,680z
		 M484.9,680c0-8.7-2.2-15.7-9-15.7s-9,7.1-9,15.7c0,8.6,2.2,15.7,9,15.7S484.9,688.5,484.9,680z"/>
</g>
<g>
	<path class="st2" d="M126.6,148.2c-0.9-3.9-3.7-5.8-9.1-5.8c-4.5,0-8.3,1.9-8.3,5.9c0,3.6,3,4.7,6.3,5.3c1.3,0.3,6.5,1.3,8.1,1.6
		c6.6,1.5,11.3,4.9,11.3,12.4c0,7-5.5,13.3-16.9,13.3c-10.5,0-17.1-5.4-17.9-13.4h7.4c1,5.3,5.4,7.1,10.8,7.1c5.4,0,9.3-2.3,9.3-6.6
		c0-4.1-2.7-5.6-6.5-6.4l-8.4-1.6c-6.7-1.3-10.8-4.9-10.8-11.4c0-6.9,5.6-12.4,15.7-12.4c9.2,0,15.4,4.8,16.3,12.2h-7.3V148.2z"/>
	<path class="st2" d="M158.9,149.2v5.8h-7.3v15c0,2.6,1.3,4.1,4.7,4.1h2.5v5.9h-2.7c-6.8,0-11.4-2.1-11.4-9.1V155h-4.9v-5.8h4.9v-9
		h6.8v9H158.9z"/>
	<path class="st2" d="M186.2,155.5h-2.8c-6.3,0-9.6,3.6-9.6,10v14.4H167v-30.7h6.6v3.6h1.5c1.3-1.7,3.8-3.6,8.6-3.6h2.6v6.3H186.2z"
		/>
	<path class="st2" d="M192.7,142.6V136h7v6.6H192.7z M199.6,180h-6.8v-30.8h6.8V180z"/>
	<path class="st2" d="M230.8,180v-17.9c0-5-2.3-7.6-6.8-7.6c-4.9,0-8,4.2-8,9V180h-6.8v-30.8h6.6v3h1.5c1.8-2.4,4.8-3.8,8.9-3.8
		c7.7,0,11.6,4.7,11.6,12.3v19.2L230.8,180L230.8,180z"/>
	<path class="st2" d="M275.3,149.2v29.3c0,8.7-5.9,14.2-14.9,14.2c-8.2,0-13.7-3.4-14.4-9.9h6.8c0.7,3.1,3.3,4.3,7.5,4.3
		c5.8,0,8.2-3.6,8.2-9V176H267c-1.5,2.1-4.2,3.8-8.6,3.8c-8.4,0-13.6-6.7-13.6-15.6c0-9,5.3-15.7,13.6-15.7c4.6,0,7.4,1.8,8.8,3.8
		h1.5v-3L275.3,149.2L275.3,149.2z M268.7,164.1c0-5.3-2.8-9.9-8.6-9.9c-5.3,0-8.4,4.1-8.4,9.9c0,5.7,3.1,9.8,8.4,9.8
		C265.8,173.9,268.7,169.3,268.7,164.1z"/>
	<path class="st2" d="M19.6,208.6v44h-6.8v-44H19.6z"/>
	<path class="st2" d="M48.3,249.8h-1.5c-1.9,2.4-4.8,3.6-9.1,3.6c-7.1,0-11-4.8-11-10.1c0-4.8,3.3-10.3,12.2-10.3H48v-0.9
		c0-3.4-1.9-5.6-6.5-5.6c-3.9,0-5.9,1.6-6.2,3.9h-6.8c0.3-5.8,5.4-9.3,12.7-9.3c8,0,13.3,3.5,13.3,11.1v20.5h-6.2V249.8z M48,240.1
		v-2.4h-7.9c-4.4,0-6.5,1.9-6.5,5.1c0,3.1,2.3,5,6.2,5C44.5,247.8,48,244.4,48,240.1z"/>
	<path class="st2" d="M85.3,252.6v-17.9c0-5-2.3-7.6-6.8-7.6c-4.9,0-8,4.2-8,9v16.5h-6.8v-30.8h6.6v3h1.5c1.8-2.4,4.8-3.8,8.9-3.8
		c7.7,0,11.6,4.7,11.6,12.3v19.2L85.3,252.6L85.3,252.6z"/>
	<path class="st2" d="M129.8,221.8v29.3c0,8.7-5.9,14.2-14.9,14.2c-8.2,0-13.7-3.4-14.4-9.9h6.8c0.7,3.1,3.3,4.3,7.5,4.3
		c5.8,0,8.2-3.6,8.2-9v-2.1h-1.5c-1.5,2.1-4.2,3.8-8.6,3.8c-8.4,0-13.6-6.7-13.6-15.6c0-9,5.3-15.7,13.6-15.7c4.6,0,7.4,1.8,8.8,3.8
		h1.5v-3L129.8,221.8L129.8,221.8z M123.2,236.7c0-5.3-2.8-9.9-8.6-9.9c-5.3,0-8.4,4.1-8.4,9.9c0,5.7,3.1,9.8,8.4,9.8
		C120.3,246.5,123.2,242,123.2,236.7z"/>
	<path class="st2" d="M145.6,221.8v17.9c0,5,2.3,7.6,6.8,7.6c4.9,0,8-4.2,8-9v-16.5h6.8v30.8h-6.6v-3h-1.3c-1.8,2.4-4.8,3.8-8.9,3.8
		c-7.7,0-11.6-4.7-11.6-12.3v-19.2L145.6,221.8L145.6,221.8z"/>
	<path class="st2" d="M196,249.8h-1.5c-1.9,2.4-4.8,3.6-9.1,3.6c-7.1,0-11-4.8-11-10.1c0-4.8,3.3-10.3,12.2-10.3h9.1v-0.9
		c0-3.4-1.9-5.6-6.5-5.6c-3.9,0-5.9,1.6-6.2,3.9h-6.7c0.3-5.8,5.4-9.3,12.7-9.3c8,0,13.3,3.5,13.3,11.1v20.5h-6.4L196,249.8
		L196,249.8z M195.8,240.1v-2.4h-7.9c-4.4,0-6.5,1.9-6.5,5.1c0,3.1,2.3,5,6.2,5C192.2,247.8,195.8,244.4,195.8,240.1z"/>
	<path class="st2" d="M240,221.8v29.3c0,8.7-5.9,14.2-14.9,14.2c-8.2,0-13.7-3.4-14.4-9.9h6.8c0.7,3.1,3.3,4.3,7.5,4.3
		c5.8,0,8.2-3.6,8.2-9v-2.1h-1.5c-1.5,2.1-4.2,3.8-8.6,3.8c-8.4,0-13.6-6.7-13.6-15.6c0-9,5.3-15.7,13.6-15.7c4.6,0,7.4,1.8,8.8,3.8
		h1.5v-3L240,221.8L240,221.8z M233.4,236.7c0-5.3-2.8-9.9-8.6-9.9c-5.3,0-8.4,4.1-8.4,9.9c0,5.7,3.1,9.8,8.4,9.8
		C230.5,246.5,233.4,242,233.4,236.7z"/>
	<path class="st2" d="M277.1,237.8h-22.8c0.2,6.3,3.1,9.8,8.7,9.8c3.7,0,5.8-1.5,6.7-3.9h7c-1.1,5.7-5.7,9.7-13.7,9.7
		c-9.7,0-15.4-6.8-15.4-16.4s5.7-16,15.2-16c9.3,0,14.2,6.5,14.3,14.5L277.1,237.8L277.1,237.8z M254.7,232.7h15.4
		c-0.4-3.4-2.8-6.2-7.4-6.2C257.9,226.5,255.5,229.1,254.7,232.7z"/>
</g>
<g>
	<path class="st2" d="M61.8,661.7v-6.6h7v6.6H61.8z M68.7,699.1h-6.8v-30.8h6.8V699.1z"/>
	<path class="st2" d="M99.9,699.1v-17.9c0-5-2.3-7.6-6.8-7.6c-4.9,0-8,4.2-8,9v16.5h-6.8v-30.8h6.6v3h1.5c1.8-2.4,4.8-3.8,8.9-3.8
		c7.7,0,11.6,4.7,11.6,12.3V699L99.9,699.1L99.9,699.1z"/>
	<path class="st2" d="M131.5,668.3v5.8h-7.2v15c0,2.6,1.3,4.1,4.7,4.1h2.5v5.9h-2.7c-6.8,0-11.4-2.1-11.4-9.1v-15.9h-4.9v-5.8h4.9
		v-9h6.8v9H131.5z"/>
	<path class="st2" d="M178.1,699.1v-17.9c0-5-2.3-7.6-6.8-7.6c-4.9,0-8,4.2-8,9v16.5h-6.8v-30.8h6.6v3h1.5c1.8-2.4,4.8-3.8,8.9-3.8
		c7.7,0,11.6,4.7,11.6,12.3V699L178.1,699.1L178.1,699.1z"/>
	<path class="st2" d="M200.4,668.3v17.9c0,5,2.3,7.6,6.8,7.6c4.9,0,8-4.2,8-9v-16.5h6.8v30.8h-6.6v-3h-1.5c-1.8,2.4-4.8,3.8-8.9,3.8
		c-7.7,0-11.6-4.7-11.6-12.3v-19.2L200.4,668.3L200.4,668.3z"/>
	<path class="st2" d="M275.7,679.5v19.7h-6.8v-18.5c0-4.6-1.6-7-5.3-7c-4.3,0-6.5,3.3-6.5,7.9v17.6h-6.8v-18.5c0-4.5-1.6-7-5.3-7
		c-4.5,0-6.6,3.9-6.6,8.7v16.8h-6.8v-30.8h6.6v2.8h1.5c1.5-2.4,3.9-3.6,7.7-3.6c3.7,0,6.4,1.3,8,3.8h1.5c1.9-2.5,4.7-3.8,8.5-3.8
		C272.5,667.5,275.7,672.2,275.7,679.5z"/>
</g>
<g>
	<path class="st2" d="M420.4,924.2v-8.1h7.8v8.1H420.4z"/>
	<path class="st2" d="M437.1,924.2v-8.1h7.8v8.1H437.1z"/>
	<path class="st2" d="M453.8,924.2v-8.1h7.8v8.1H453.8z"/>
</g>
<g>
	<path class="st2" d="M420.4,453v-8.1h7.8v8.1H420.4z"/>
	<path class="st2" d="M437.1,453v-8.1h7.8v8.1H437.1z"/>
	<path class="st2" d="M453.8,453v-8.1h7.8v8.1H453.8z"/>
</g>
</svg>
