<?xml version="1.0" encoding="utf-8"?>
<!-- Generator: Adobe Illustrator 20.1.0, SVG Export Plug-In . SVG Version: 6.00 Build 0)  -->
<svg version="1.1" id="Layer_1" xmlns="http://www.w3.org/2000/svg" xmlns:xlink="http://www.w3.org/1999/xlink" x="0px" y="0px"
	 viewBox="0 0 1600 1100" style="enable-background:new 0 0 1600 1100;" xml:space="preserve">
<style type="text/css">
	.st0{opacity:0.12;fill:#007BFF;enable-background:new    ;}
	.st1{fill:#007BFF;}
	.st2{fill:none;}
	.st3{enable-background:new    ;}
	.st4{fill:#082E51;}
	.st5{fill:none;stroke:#007BFF;stroke-miterlimit:10;}
	.st6{fill:none;stroke:#007BFF;stroke-width:0.8509;stroke-miterlimit:10;}
	.st7{fill:none;stroke:#007BFF;stroke-width:4;stroke-linecap:round;stroke-miterlimit:10;}
</style>
<g>
	<path class="st0" d="M1463.8,129.2H1364l-50.8,50.8v134.6c0,9.5,7.7,17.2,17.2,17.2h133.4c9.5,0,17.2-7.7,17.2-17.2V146.4
		C1481,136.9,1473.3,129.2,1463.8,129.2z"/>
</g>
<g>
	<g>
		<path class="st1" d="M1517.9,741.3l-33.8-58.5c-10.9-19-31.3-30.7-53.2-30.7h-67.6c-21.9,0-42.3,11.8-53.2,30.7l-33.8,58.5
			c-10.9,19-10.9,42.5,0,61.5l33.8,58.5c10.9,19,31.3,30.7,53.2,30.7h67.6c21.9,0,42.3-11.8,53.2-30.7l33.8-58.5
			C1528.8,783.8,1528.8,760.2,1517.9,741.3z"/>
	</g>
</g>
<rect x="87.5" y="394.3" class="st2" width="288" height="75.7"/>
<g class="st3">
	<path class="st4" d="M100.4,412.4h3.2c0.3,3.5,2.1,5.1,5,5.1c2.8,0,4.7-1.8,4.7-5.5v-17h3.2v17c0,5.3-2.9,8.4-7.9,8.4
		C103.9,420.3,100.7,417.5,100.4,412.4z"/>
	<path class="st4" d="M133.5,418h-0.8c-1.1,1.4-3,2.3-5.5,2.3c-4.1,0-6.3-2.7-6.3-5.7c0-2.8,1.9-5.8,6.8-5.8h5.7v-0.7
		c0-2.1-1.2-3.7-4.3-3.7c-2.6,0-4,1-4.1,2.6h-3c0.2-3.3,3-5.1,7-5.1c4.4,0,7.3,2.1,7.3,6.1v12h-2.8V418z M133.4,412.8v-1.7h-5.3
		c-2.9,0-4.2,1.3-4.2,3.4c0,2,1.5,3.3,4.1,3.3C131,417.8,133.4,415.6,133.4,412.8z"/>
	<path class="st4" d="M139.7,402.3h3.1l4.9,14.8h1.4l4.8-14.8h3.1l-5.9,17.6h-5.6L139.7,402.3z"/>
	<path class="st4" d="M171.6,418h-0.8c-1.1,1.4-3,2.3-5.5,2.3c-4.1,0-6.3-2.7-6.3-5.7c0-2.8,1.9-5.8,6.8-5.8h5.7v-0.7
		c0-2.1-1.2-3.7-4.3-3.7c-2.6,0-4,1-4.1,2.6h-3c0.2-3.3,3-5.1,7-5.1c4.4,0,7.3,2.1,7.3,6.1v12h-2.8L171.6,418L171.6,418z
		 M171.4,412.8v-1.7h-5.3c-2.9,0-4.2,1.3-4.2,3.4c0,2,1.5,3.3,4.1,3.3C169,417.8,171.4,415.6,171.4,412.8z"/>
	<path class="st4" d="M199.2,394.9c7.7,0,11.6,5,11.6,12.5s-3.9,12.5-11.6,12.5h-9.3v-25H199.2z M199.2,417c6.1,0,8.4-4.4,8.4-9.6
		s-2.3-9.6-8.4-9.6H193v19.3L199.2,417L199.2,417z"/>
	<path class="st4" d="M230.8,411h-13.4c0.1,4.2,2,6.7,5.6,6.7c2.5,0,4-1.1,4.5-2.7h3c-0.6,3-3.1,5.3-7.5,5.3c-5.5,0-8.6-4-8.6-9.5
		s3.2-9.1,8.5-9.1s7.8,3.9,7.9,8.2V411z M217.6,408.6h10.2c-0.2-2.2-1.9-4.2-4.9-4.2C219.7,404.4,218,406.3,217.6,408.6z"/>
	<path class="st4" d="M233.4,402.3h3.1l4.9,14.8h1.4l4.8-14.8h3.1l-5.9,17.6h-5.6L233.4,402.3z"/>
	<path class="st4" d="M269.3,411h-13.4c0.1,4.2,2,6.7,5.6,6.7c2.5,0,4-1.1,4.5-2.7h3c-0.6,3-3.1,5.3-7.5,5.3c-5.5,0-8.6-4-8.6-9.5
		s3.2-9.1,8.5-9.1s7.8,3.9,7.9,8.2V411z M256.1,408.6h10.2c-0.2-2.2-1.9-4.2-4.9-4.2C258.2,404.4,256.5,406.3,256.1,408.6z"/>
	<path class="st4" d="M276.9,394.4v25.4h-3v-25.4H276.9z"/>
	<path class="st4" d="M299,411.1c0,5.2-3.2,9.3-8.7,9.3s-8.7-4.1-8.7-9.3c0-5.2,3.2-9.3,8.7-9.3S299,405.9,299,411.1z M296,411.1
		c0-3.5-1.8-6.7-5.7-6.7c-3.9,0-5.7,3.2-5.7,6.7s1.8,6.7,5.7,6.7S296,414.5,296,411.1z"/>
	<path class="st4" d="M306.5,402.3v1.9h0.8c1-1.2,2.7-2.3,5.5-2.3c4.9,0,7.7,4.1,7.7,9.3c0,5.3-2.9,9.3-7.7,9.3
		c-2.8,0-4.4-1.1-5.4-2.3h-0.8v8.9h-3v-24.6h2.9V402.3z M306.5,411.1c0,3.5,1.6,6.7,5.5,6.7c3.5,0,5.4-2.8,5.4-6.7
		c0-3.9-1.9-6.7-5.4-6.7C308.2,404.4,306.5,407.6,306.5,411.1z"/>
	<path class="st4" d="M340.4,411H327c0.1,4.2,2,6.7,5.6,6.7c2.5,0,4-1.1,4.5-2.7h3c-0.6,3-3.1,5.3-7.5,5.3c-5.5,0-8.6-4-8.6-9.5
		s3.2-9.1,8.5-9.1s7.8,3.9,7.9,8.2V411z M327.2,408.6h10.2c-0.2-2.2-1.9-4.2-4.9-4.2C329.3,404.4,327.5,406.3,327.2,408.6z"/>
	<path class="st4" d="M355.1,405.1h-1.5c-3.5,0-5.6,2.1-5.6,6v8.8h-3v-17.6h2.9v2.1h0.8c0.9-1.1,2.6-2.1,5.1-2.1h1.3L355.1,405.1
		L355.1,405.1z"/>
</g>
<rect x="493" y="394.3" class="st2" width="254" height="75.7"/>
<g class="st3">
	<path class="st4" d="M583.1,419.8v-4.1h3.6v4.1H583.1z"/>
	<path class="st4" d="M587.9,426.8v-2.6h1.6c2.4,0,3.3-1.3,3.3-3.6v-18.5h3v18.6c0,3.9-2,6.1-5.7,6.1H587.9z M592.7,397.6v-3.2h3.2
		v3.2H592.7z"/>
	<path class="st4" d="M612.9,417.9h-0.8c-1.1,1.4-3,2.3-5.5,2.3c-4.1,0-6.3-2.7-6.3-5.7c0-2.8,1.9-5.8,6.8-5.8h5.7V408
		c0-2.1-1.2-3.7-4.3-3.7c-2.6,0-4,1-4.1,2.6h-3c0.2-3.3,3-5.1,7-5.1c4.4,0,7.3,2.1,7.3,6.1v12h-2.8L612.9,417.9L612.9,417.9z
		 M612.8,412.7V411h-5.3c-2.9,0-4.2,1.3-4.2,3.4c0,2,1.5,3.3,4.1,3.3C610.3,417.7,612.8,415.5,612.8,412.7z"/>
	<path class="st4" d="M619,402.2h3.1L627,417h1.4l4.8-14.8h3.1l-5.9,17.6h-5.6L619,402.2z"/>
	<path class="st4" d="M650.9,417.9h-0.8c-1.1,1.4-3,2.3-5.5,2.3c-4.1,0-6.3-2.7-6.3-5.7c0-2.8,1.9-5.8,6.8-5.8h5.7V408
		c0-2.1-1.2-3.7-4.3-3.7c-2.6,0-4,1-4.1,2.6h-3c0.2-3.3,3-5.1,7-5.1c4.4,0,7.3,2.1,7.3,6.1v12h-2.8L650.9,417.9L650.9,417.9z
		 M650.8,412.7V411h-5.3c-2.9,0-4.2,1.3-4.2,3.4c0,2,1.5,3.3,4.1,3.3C648.3,417.7,650.8,415.5,650.8,412.7z"/>
</g>
<g class="st3">
	<path class="st4" d="M520.5,466.7h-2.9c-3-3.6-5.6-8.9-5.6-15.9c0-6.9,2.5-12,5.3-15.6h2.9c-2.8,3.8-5.4,8.7-5.4,15.6
		C514.8,457.9,517.6,462.9,520.5,466.7z"/>
	<path class="st4" d="M529.7,451.1l2,0.3c3.1,0.5,5,2.1,5,5.3c0,2.9-2.5,5.5-7.2,5.5c-5,0-7.5-2.2-7.8-5.6h3c0.3,2,2,3,4.7,3
		s4.4-0.9,4.4-2.9c0-1.5-1-2.4-3.2-2.8l-4-0.7c-2.5-0.5-4.2-1.8-4.2-4.4c0-2.9,2.2-5.2,7-5.2c4.2,0,6.6,2,7,5h-3
		c-0.2-1.7-1.9-2.5-4.1-2.5c-2.3,0-3.8,0.8-3.8,2.3c0,1.4,0.9,1.9,2.7,2.2L529.7,451.1z"/>
	<path class="st4" d="M557.4,453c0,5.2-3.2,9.3-8.7,9.3s-8.7-4.1-8.7-9.3c0-5.2,3.2-9.3,8.7-9.3S557.4,447.8,557.4,453z M554.4,453
		c0-3.5-1.8-6.7-5.7-6.7s-5.7,3.2-5.7,6.7s1.8,6.7,5.7,6.7C552.6,459.7,554.4,456.4,554.4,453z"/>
	<path class="st4" d="M564.8,444.2v10.6c0,3.3,1.5,4.9,4.5,4.9c3.1,0,5.3-2.7,5.3-5.9v-9.6h3v17.6h-2.9v-1.9h-0.8
		c-1,1.4-2.9,2.3-5.3,2.3c-4.3,0-6.7-2.7-6.7-6.9v-11.2h2.9V444.2z"/>
	<path class="st4" d="M593.3,447h-1.5c-3.5,0-5.6,2.1-5.6,6v8.8h-3v-17.6h2.9v2.1h0.8c0.9-1.1,2.6-2.1,5.1-2.1h1.3V447z"/>
	<path class="st4" d="M612.1,456.5c-0.7,3.5-3.3,5.8-7.4,5.8c-5.5,0-8.6-4.1-8.6-9.3c0-5.3,3.1-9.3,8.6-9.3c4.2,0,6.7,2.3,7.3,5.6
		h-3c-0.6-1.8-1.9-3-4.3-3c-4,0-5.6,3.1-5.6,6.6s1.6,6.8,5.6,6.8c2.5,0,4-1.2,4.4-3.2H612.1z"/>
	<path class="st4" d="M631.8,452.9h-13.4c0.1,4.2,2,6.7,5.6,6.7c2.5,0,4-1.1,4.5-2.7h3c-0.6,3-3.1,5.3-7.5,5.3c-5.5,0-8.6-4-8.6-9.5
		s3.2-9.1,8.5-9.1s7.8,3.9,7.9,8.2V452.9z M618.6,450.5h10.2c-0.2-2.2-1.9-4.2-4.9-4.2C620.7,446.3,618.9,448.2,618.6,450.5z"/>
	<path class="st4" d="M661.1,456.5c-0.7,3.5-3.3,5.8-7.4,5.8c-5.5,0-8.6-4.1-8.6-9.3c0-5.3,3.1-9.3,8.6-9.3c4.2,0,6.7,2.3,7.3,5.6
		h-3c-0.6-1.8-1.9-3-4.3-3c-4,0-5.6,3.1-5.6,6.6s1.6,6.8,5.6,6.8c2.5,0,4-1.2,4.4-3.2H661.1z"/>
	<path class="st4" d="M681.8,453c0,5.2-3.2,9.3-8.7,9.3s-8.7-4.1-8.7-9.3c0-5.2,3.2-9.3,8.7-9.3S681.8,447.8,681.8,453z M678.8,453
		c0-3.5-1.8-6.7-5.7-6.7s-5.7,3.2-5.7,6.7s1.8,6.7,5.7,6.7S678.8,456.4,678.8,453z"/>
	<path class="st4" d="M702.2,436.3v25.4h-2.9v-1.9h-0.8c-1,1.2-2.7,2.3-5.5,2.3c-4.9,0-7.7-4.1-7.7-9.3c0-5.3,2.9-9.3,7.7-9.3
		c2.8,0,4.4,1.1,5.4,2.3h0.8v-9.7h3V436.3z M699.3,453c0-3.5-1.6-6.7-5.5-6.7c-3.5,0-5.4,2.8-5.4,6.7c0,3.9,1.9,6.7,5.4,6.7
		C697.7,459.7,699.3,456.4,699.3,453z"/>
	<path class="st4" d="M723.3,452.9h-13.4c0.1,4.2,2,6.7,5.6,6.7c2.5,0,4-1.1,4.5-2.7h3c-0.6,3-3.1,5.3-7.5,5.3c-5.5,0-8.6-4-8.6-9.5
		s3.2-9.1,8.5-9.1s7.8,3.9,7.9,8.2V452.9z M710,450.5h10.2c-0.2-2.2-1.9-4.2-4.9-4.2C712.2,446.3,710.4,448.2,710,450.5z"/>
	<path class="st4" d="M725.5,435.2h2.9c2.9,3.6,5.3,8.8,5.3,15.6c0,7-2.5,12.3-5.6,15.9h-2.9c2.9-3.8,5.6-8.8,5.6-15.9
		C730.8,443.9,728.3,439,725.5,435.2z"/>
</g>
<rect x="1296.1" y="394.3" class="st2" width="202" height="75.7"/>
<rect x="1290.4" y="925.9" class="st2" width="202" height="75.7"/>
<rect x="518" y="925.9" class="st2" width="202" height="75.7"/>
<rect x="899.9" y="925.9" class="st2" width="202" height="75.7"/>
<g class="st3">
	<path class="st4" d="M1351.7,419.8v-4.1h3.6v4.1H1351.7z"/>
	<path class="st4" d="M1374.9,414.5c-0.7,3.5-3.3,5.8-7.4,5.8c-5.5,0-8.6-4.1-8.6-9.3c0-5.3,3.1-9.3,8.6-9.3c4.2,0,6.7,2.3,7.3,5.6
		h-3c-0.6-1.8-1.9-3-4.3-3c-4,0-5.6,3.1-5.6,6.6s1.6,6.8,5.6,6.8c2.5,0,4-1.2,4.4-3.2H1374.9z"/>
	<path class="st4" d="M1382.3,394.3v25.4h-3v-25.4H1382.3z"/>
	<path class="st4" d="M1399.3,417.9h-0.8c-1.1,1.4-3,2.3-5.5,2.3c-4.1,0-6.3-2.7-6.3-5.7c0-2.8,1.9-5.8,6.8-5.8h5.7V408
		c0-2.1-1.2-3.7-4.3-3.7c-2.6,0-4,1-4.1,2.6h-3c0.2-3.3,3-5.1,7-5.1c4.4,0,7.3,2.1,7.3,6.1v12h-2.8L1399.3,417.9L1399.3,417.9z
		 M1399.2,412.7V411h-5.3c-2.9,0-4.2,1.3-4.2,3.4c0,2,1.5,3.3,4.1,3.3C1396.7,417.7,1399.2,415.5,1399.2,412.7z"/>
	<path class="st4" d="M1414.1,409.1l2,0.3c3.1,0.5,5,2.1,5,5.3c0,2.9-2.5,5.5-7.2,5.5c-5,0-7.5-2.2-7.8-5.6h3c0.3,2,2,3,4.7,3
		s4.4-0.9,4.4-2.9c0-1.5-1-2.4-3.2-2.8l-4-0.7c-2.5-0.5-4.2-1.8-4.2-4.4c0-2.9,2.2-5.2,7-5.2c4.2,0,6.6,2,7,5h-3
		c-0.2-1.7-1.9-2.5-4.1-2.5c-2.3,0-3.8,0.8-3.8,2.3c0,1.4,0.9,1.9,2.7,2.2L1414.1,409.1z"/>
	<path class="st4" d="M1432.1,409.1l2,0.3c3.1,0.5,5,2.1,5,5.3c0,2.9-2.5,5.5-7.2,5.5c-5,0-7.5-2.2-7.8-5.6h3c0.3,2,2,3,4.7,3
		s4.4-0.9,4.4-2.9c0-1.5-1-2.4-3.2-2.8l-4-0.7c-2.5-0.5-4.2-1.8-4.2-4.4c0-2.9,2.2-5.2,7-5.2c4.2,0,6.6,2,7,5h-3
		c-0.2-1.7-1.9-2.5-4.1-2.5c-2.3,0-3.8,0.8-3.8,2.3c0,1.4,0.9,1.9,2.7,2.2L1432.1,409.1z"/>
</g>
<g class="st3">
	<path class="st4" d="M1321.7,466.7h-2.9c-3-3.6-5.6-8.9-5.6-15.9c0-6.9,2.5-12,5.3-15.6h2.9c-2.8,3.8-5.4,8.7-5.4,15.6
		C1316.1,457.9,1318.9,462.9,1321.7,466.7z"/>
	<path class="st4" d="M1341.6,453c0,5.2-2.9,9.3-7.7,9.3c-2.8,0-4.5-1.1-5.5-2.3h-0.8v1.9h-2.9v-25.4h3v9.7h0.8
		c0.9-1.3,2.6-2.3,5.4-2.3C1338.8,443.7,1341.6,447.7,1341.6,453z M1338.7,453c0-3.9-1.9-6.7-5.4-6.7c-3.9,0-5.5,3.2-5.5,6.7
		s1.6,6.7,5.5,6.7C1336.8,459.7,1338.7,456.9,1338.7,453z"/>
	<path class="st4" d="M1348,468.8l3.6-8.6l-7.5-16h3.2l5.4,11.6h0.9l4.9-11.6h3.1l-10.6,24.6H1348z"/>
	<path class="st4" d="M1373.7,444.2v2.6h-4.4v9.7c0,1.8,0.8,2.7,3.2,2.7h1.3v2.7h-1.4c-3.8,0-6.1-1.2-6.1-4.9v-10.1h-3v-2.6h3V439h3
		v5.3L1373.7,444.2L1373.7,444.2z"/>
	<path class="st4" d="M1393.6,452.9h-13.4c0.1,4.2,2,6.7,5.6,6.7c2.5,0,4-1.1,4.5-2.7h3c-0.6,3-3.1,5.3-7.5,5.3
		c-5.5,0-8.6-4-8.6-9.5s3.2-9.1,8.5-9.1s7.8,3.9,7.9,8.2V452.9z M1380.3,450.5h10.2c-0.2-2.2-1.9-4.2-4.9-4.2
		C1382.5,446.3,1380.7,448.2,1380.3,450.5z"/>
	<path class="st4" d="M1413.1,456.5c-0.7,3.5-3.3,5.8-7.4,5.8c-5.5,0-8.6-4.1-8.6-9.3c0-5.3,3.1-9.3,8.6-9.3c4.2,0,6.7,2.3,7.3,5.6
		h-3c-0.6-1.8-1.9-3-4.3-3c-4,0-5.6,3.1-5.6,6.6s1.6,6.8,5.6,6.8c2.5,0,4-1.2,4.4-3.2H1413.1z"/>
	<path class="st4" d="M1433.8,453c0,5.2-3.2,9.3-8.7,9.3s-8.7-4.1-8.7-9.3c0-5.2,3.2-9.3,8.7-9.3
		C1430.6,443.7,1433.8,447.8,1433.8,453z M1430.9,453c0-3.5-1.8-6.7-5.7-6.7c-3.9,0-5.7,3.2-5.7,6.7s1.8,6.7,5.7,6.7
		C1429,459.7,1430.9,456.4,1430.9,453z"/>
	<path class="st4" d="M1454.3,436.3v25.4h-2.9v-1.9h-0.8c-1,1.2-2.7,2.3-5.5,2.3c-4.9,0-7.7-4.1-7.7-9.3c0-5.3,2.9-9.3,7.7-9.3
		c2.8,0,4.4,1.1,5.4,2.3h0.8v-9.7h3V436.3z M1451.3,453c0-3.5-1.6-6.7-5.5-6.7c-3.5,0-5.4,2.8-5.4,6.7c0,3.9,1.9,6.7,5.4,6.7
		C1449.7,459.7,1451.3,456.4,1451.3,453z"/>
	<path class="st4" d="M1475.3,452.9h-13.4c0.1,4.2,2,6.7,5.6,6.7c2.5,0,4-1.1,4.5-2.7h3c-0.6,3-3.1,5.3-7.5,5.3
		c-5.5,0-8.6-4-8.6-9.5s3.2-9.1,8.5-9.1s7.8,3.9,7.9,8.2V452.9z M1462,450.5h10.2c-0.2-2.2-1.9-4.2-4.9-4.2
		C1464.2,446.3,1462.4,448.2,1462,450.5z"/>
	<path class="st4" d="M1477.5,435.2h2.9c2.9,3.6,5.3,8.8,5.3,15.6c0,7-2.5,12.3-5.6,15.9h-2.9c2.9-3.8,5.6-8.8,5.6-15.9
		C1482.9,443.9,1480.3,439,1477.5,435.2z"/>
</g>
<g class="st3">
	<path class="st4" d="M948.1,955v3h-17.2v-25h3.2v22H948.1z"/>
	<path class="st4" d="M968.4,949.1c0,5.2-3.2,9.3-8.7,9.3s-8.7-4.1-8.7-9.3s3.2-9.3,8.7-9.3C965.2,939.9,968.4,943.9,968.4,949.1z
		 M965.5,949.1c0-3.5-1.8-6.7-5.7-6.7s-5.7,3.2-5.7,6.7s1.8,6.7,5.7,6.7C963.6,955.8,965.5,952.6,965.5,949.1z"/>
	<path class="st4" d="M984.3,946.1l2.9,8.7h0.8l2-14.5h2.9l-2.6,17.6h-4.6l-3.1-8.9H982l-3.1,8.9h-4.6l-2.5-17.6h2.9l2.1,14.5h0.8
		l3-8.7H984.3z"/>
	<path class="st4" d="M996.1,949.6V947h9.6v2.6H996.1z"/>
	<path class="st4" d="M1013.2,932.5V958h-3v-25.4L1013.2,932.5L1013.2,932.5z"/>
	<path class="st4" d="M1034.3,949.1h-13.4c0.1,4.2,2,6.7,5.6,6.7c2.5,0,4-1.1,4.5-2.7h3c-0.6,3-3.1,5.3-7.5,5.3
		c-5.5,0-8.6-4-8.6-9.5s3.2-9.1,8.5-9.1c5.2,0,7.8,3.9,7.9,8.2V949.1z M1021,946.6h10.2c-0.2-2.2-1.9-4.2-4.9-4.2
		C1023.1,942.5,1021.4,944.4,1021,946.6z"/>
	<path class="st4" d="M1036.8,940.3h3.1l4.9,14.8h1.4l4.8-14.8h3.1l-5.9,17.6h-5.6L1036.8,940.3z"/>
	<path class="st4" d="M1072.8,949.1h-13.4c0.1,4.2,2,6.7,5.6,6.7c2.5,0,4-1.1,4.5-2.7h3c-0.6,3-3.1,5.3-7.5,5.3
		c-5.5,0-8.6-4-8.6-9.5s3.2-9.1,8.5-9.1c5.2,0,7.8,3.9,7.9,8.2V949.1z M1059.5,946.6h10.2c-0.2-2.2-1.9-4.2-4.9-4.2
		C1061.6,942.5,1059.9,944.4,1059.5,946.6z"/>
	<path class="st4" d="M1080.4,932.5V958h-3v-25.4L1080.4,932.5L1080.4,932.5z"/>
</g>
<g class="st3">
	<path class="st4" d="M984.5,994.7c-0.7,3.5-3.3,5.8-7.4,5.8c-5.5,0-8.6-4.1-8.6-9.3c0-5.3,3.1-9.3,8.6-9.3c4.2,0,6.7,2.3,7.3,5.6
		h-3c-0.6-1.8-1.9-3-4.3-3c-4,0-5.6,3.1-5.6,6.6s1.6,6.8,5.6,6.8c2.5,0,4-1.2,4.4-3.2L984.5,994.7L984.5,994.7z"/>
	<path class="st4" d="M1005.3,991.1c0,5.2-3.2,9.3-8.7,9.3s-8.7-4.1-8.7-9.3s3.2-9.3,8.7-9.3
		C1002.1,981.9,1005.3,985.9,1005.3,991.1z M1002.3,991.1c0-3.5-1.8-6.7-5.7-6.7s-5.7,3.2-5.7,6.7s1.8,6.7,5.7,6.7
		S1002.3,994.6,1002.3,991.1z"/>
	<path class="st4" d="M1025.7,974.5v25.4h-2.9V998h-0.8c-1,1.2-2.7,2.3-5.5,2.3c-4.9,0-7.7-4.1-7.7-9.3c0-5.3,2.9-9.3,7.7-9.3
		c2.8,0,4.4,1.1,5.4,2.3h0.8v-9.7h3V974.5z M1022.8,991.1c0-3.5-1.6-6.7-5.5-6.7c-3.5,0-5.4,2.8-5.4,6.7s1.9,6.7,5.4,6.7
		C1021.2,997.8,1022.8,994.6,1022.8,991.1z"/>
	<path class="st4" d="M1046.7,991.1h-13.4c0.1,4.2,2,6.7,5.6,6.7c2.5,0,4-1.1,4.5-2.7h3c-0.6,3-3.1,5.3-7.5,5.3
		c-5.5,0-8.6-4-8.6-9.5s3.2-9.1,8.5-9.1c5.2,0,7.8,3.9,7.9,8.2V991.1z M1033.5,988.6h10.2c-0.2-2.2-1.9-4.2-4.9-4.2
		C1035.6,984.5,1033.9,986.4,1033.5,988.6z"/>
</g>
<g class="st3">
	<path class="st4" d="M1360.7,950.4h3.2c0.3,3.5,2.1,5.1,5,5.1c2.8,0,4.7-1.8,4.7-5.5v-17h3.2v17c0,5.3-2.9,8.4-7.9,8.4
		C1364.1,958.4,1361,955.6,1360.7,950.4z"/>
	<path class="st4" d="M1380.4,933h3.3l6.8,21.8h1.8l6.8-21.8h3.3l-8,25h-6L1380.4,933z"/>
	<path class="st4" d="M1406.3,933h5.2l6.3,11.7h0.8l6.2-11.7h5.3v25h-3.1v-21.4h-0.8l-6.4,11.9h-3.3l-6.4-11.9h-0.8V958h-3.1v-25
		H1406.3z"/>
</g>
<rect x="888.1" y="394.3" class="st2" width="241" height="75.7"/>
<g class="st3">
	<path class="st4" d="M1031.6,397.6v-3.2h3.2v3.2H1031.6z M1034.7,419.8h-3v-17.6h3V419.8z"/>
	<path class="st4" d="M955,412.7c-1,4.4-4.4,7.6-9.9,7.6c-7.5,0-11.6-5.5-11.6-13s4.2-13,11.6-13c5.1,0,8.6,2.7,9.6,7h-3.3
		c-0.9-2.7-2.8-4.1-6.3-4.1c-5.8,0-8.4,4.8-8.4,10.1c0,5.3,2.6,10.1,8.4,10.1c3.5,0,5.8-1.8,6.6-4.7H955z"/>
	<path class="st4" d="M975.9,411c0,5.2-3.2,9.3-8.7,9.3s-8.7-4.1-8.7-9.3c0-5.2,3.2-9.3,8.7-9.3C972.8,401.7,975.9,405.8,975.9,411z
		 M973,411c0-3.5-1.8-6.7-5.7-6.7s-5.7,3.2-5.7,6.7s1.8,6.7,5.7,6.7C971.1,417.7,973,414.4,973,411z"/>
	<path class="st4" d="M1004.9,408.4v11.4h-3v-11.1c0-2.9-1.1-4.3-3.4-4.3c-2.8,0-4.3,2.1-4.3,5.1v10.3h-3v-11c0-2.9-1.2-4.4-3.4-4.4
		c-2.9,0-4.3,2.5-4.3,5.7v9.8h-3v-17.6h2.9v1.7h0.8c0.9-1.4,2.2-2.2,4.5-2.2c2.1,0,3.7,0.8,4.7,2.3h0.8c1.1-1.6,2.8-2.3,5-2.3
		C1003.2,401.7,1004.9,404.3,1004.9,408.4z"/>
	<path class="st4" d="M1013.2,402.2v1.9h0.8c1-1.2,2.7-2.3,5.5-2.3c4.9,0,7.7,4.1,7.7,9.3c0,5.3-2.9,9.3-7.7,9.3
		c-2.8,0-4.4-1.1-5.4-2.3h-0.8v8.9h-3v-24.6h2.9L1013.2,402.2L1013.2,402.2z M1013.3,411c0,3.5,1.6,6.7,5.5,6.7
		c3.5,0,5.4-2.8,5.4-6.7c0-3.9-1.9-6.7-5.4-6.7C1014.9,404.3,1013.3,407.5,1013.3,411z"/>
	<path class="st4" d="M1043.9,394.3v25.4h-3v-25.4H1043.9z"/>
	<path class="st4" d="M1064.8,410.9h-13.4c0.1,4.2,2,6.7,5.6,6.7c2.5,0,4-1.1,4.5-2.7h3c-0.6,3-3.1,5.3-7.5,5.3
		c-5.5,0-8.6-4-8.6-9.5s3.2-9.1,8.5-9.1s7.8,3.9,7.9,8.2V410.9z M1051.5,408.5h10.2c-0.2-2.2-1.9-4.2-4.9-4.2
		C1053.7,404.3,1051.9,406.2,1051.5,408.5z"/>
	<path class="st4" d="M1079.5,405h-1.5c-3.5,0-5.6,2.1-5.6,6v8.8h-3v-17.6h2.9v2.1h0.8c0.9-1.1,2.6-2.1,5.1-2.1h1.3L1079.5,405
		L1079.5,405z"/>
</g>
<g class="st3">
	<path class="st4" d="M558.2,949.7c-1,4.4-4.4,7.6-9.9,7.6c-7.5,0-11.6-5.5-11.6-13s4.2-13,11.6-13c5.1,0,8.6,2.7,9.6,7h-3.3
		c-0.9-2.7-2.8-4.1-6.3-4.1c-5.8,0-8.4,4.8-8.4,10.1s2.6,10.1,8.4,10.1c3.5,0,5.8-1.8,6.6-4.7L558.2,949.7L558.2,949.7z"/>
	<path class="st4" d="M579.1,948c0,5.2-3.2,9.3-8.7,9.3s-8.7-4.1-8.7-9.3s3.2-9.3,8.7-9.3C575.9,938.7,579.1,942.8,579.1,948z
		 M576.1,948c0-3.5-1.8-6.7-5.7-6.7s-5.7,3.2-5.7,6.7s1.8,6.7,5.7,6.7S576.1,951.4,576.1,948z"/>
	<path class="st4" d="M608.1,945.4v11.4h-3v-11.1c0-2.9-1.1-4.3-3.4-4.3c-2.8,0-4.3,2.1-4.3,5.1v10.3h-3v-11c0-2.9-1.2-4.4-3.4-4.4
		c-2.9,0-4.3,2.5-4.3,5.7v9.8h-3v-17.6h2.9v1.7h0.8c0.9-1.4,2.2-2.2,4.5-2.2c2.1,0,3.7,0.8,4.7,2.3h0.8c1.1-1.6,2.8-2.3,5-2.3
		C606.3,938.7,608.1,941.3,608.1,945.4z"/>
	<path class="st4" d="M616.4,939.1v1.9h0.8c1-1.2,2.7-2.3,5.5-2.3c4.9,0,7.7,4.1,7.7,9.3c0,5.3-2.9,9.3-7.7,9.3
		c-2.8,0-4.4-1.1-5.4-2.3h-0.8v8.9h-3v-24.6h2.9V939.1z M616.5,948c0,3.5,1.6,6.7,5.5,6.7c3.5,0,5.4-2.8,5.4-6.7s-1.9-6.7-5.4-6.7
		C618.1,941.3,616.5,944.5,616.5,948z"/>
	<path class="st4" d="M637.8,939.1v10.6c0,3.3,1.5,4.9,4.5,4.9c3.1,0,5.3-2.7,5.3-5.9v-9.6h3v17.6h-2.9v-1.9h-0.8
		c-1,1.4-2.9,2.3-5.3,2.3c-4.3,0-6.7-2.7-6.7-6.9V939L637.8,939.1L637.8,939.1z"/>
	<path class="st4" d="M664.8,939.1v2.6h-4.4v9.7c0,1.8,0.8,2.7,3.2,2.7h1.3v2.7h-1.4c-3.8,0-6.1-1.2-6.1-4.9v-10.1h-3v-2.6h3v-5.3h3
		v5.3h4.4V939.1z"/>
	<path class="st4" d="M684.7,947.9h-13.4c0.1,4.2,2,6.7,5.6,6.7c2.5,0,4-1.1,4.5-2.7h3c-0.6,3-3.1,5.3-7.5,5.3c-5.5,0-8.6-4-8.6-9.5
		s3.2-9.1,8.5-9.1c5.2,0,7.8,3.9,7.9,8.2V947.9z M671.4,945.5h10.2c-0.2-2.2-1.9-4.2-4.9-4.2C673.5,941.3,671.8,943.2,671.4,945.5z"
		/>
	<path class="st4" d="M699.4,941.9h-1.5c-3.5,0-5.6,2.1-5.6,6v8.8h-3v-17.6h2.9v2.1h0.8c0.9-1.1,2.6-2.1,5.1-2.1h1.3V941.9z"/>
</g>
<g>
	<path class="st0" d="M518.7,193.6h53.1c16.5,0,30-13.5,30-30v-53.1L518.7,193.6z"/>
	<path class="st5" d="M691.4,110.5h-89.7l-83.1,83.1v126.9c0,16.5,13.5,30,30,30h142.8c16.5,0,30-13.5,30-30v-180
		C721.4,124,707.9,110.5,691.4,110.5z"/>
</g>
<g>
	<path class="st4" d="M1295.7,193.6h53.1c16.5,0,30-13.5,30-30v-53.1L1295.7,193.6z"/>
	<path class="st5" d="M1468.5,110.5h-89.7l-83.1,83.1v126.9c0,16.5,13.5,30,30,30h142.8c16.5,0,30-13.5,30-30v-180
		C1498.5,124,1485,110.5,1468.5,110.5z"/>
</g>
<g>
	<path class="st1" d="M907.2,734.6h53.1c16.5,0,30-13.5,30-30v-53.1L907.2,734.6z"/>
	<path class="st5" d="M1079.9,651.5h-89.7l-83.1,83.1v126.9c0,16.5,13.5,30,30,30h142.8c16.5,0,30-13.5,30-30v-180
		C1109.9,665,1096.4,651.5,1079.9,651.5z"/>
</g>
<g>
	<g>
		<circle class="st4" cx="231.5" cy="205.3" r="31.5"/>
		<g>
			<g>
				<path class="st1" d="M287,287.2l-15.5-26.9c-5-8.7-14.4-14.1-24.5-14.1h-31c-10.1,0-19.4,5.4-24.5,14.1L176,287.2"/>
			</g>
		</g>
	</g>
	<circle class="st5" cx="231.5" cy="230.5" r="120"/>
	<circle class="st5" cx="231.5" cy="230.5" r="130.5"/>
</g>
<g>
	<path class="st6" d="M478.6,830.4V694.3c0-14,11.5-25.5,25.5-25.5h231.5c14,0,25.5,11.5,25.5,25.5v136.1"/>
	<path class="st0" d="M729.1,844H510.5c-8.2,0-14.9-6.7-14.9-14.9V700.7c0-8.2,6.7-14.9,14.9-14.9h218.6c8.2,0,14.9,6.7,14.9,14.9
		v128.4C744.1,837.3,737.3,844,729.1,844z"/>
	<path class="st6" d="M754.3,874.3h-268c-4,0-7.2-3.3-7.2-7.2l0,0c0-4,3.3-7.2,7.2-7.2h268c4,0,7.2,3.3,7.2,7.2l0,0
		C761.5,871,758.2,874.3,754.3,874.3z"/>
</g>
<circle class="st5" cx="1008.2" cy="230.5" r="104.6"/>
<path class="st7" d="M888.1,236.9l10.8-10.8c2.8-2.8,7.4-2.8,10.2,0l10.8,10.8"/>
<path class="st7" d="M1129.1,224.1l-10.8,10.8c-2.8,2.8-7.4,2.8-10.2,0l-10.8-10.8"/>
<path class="st7" d="M1002.9,110l10.8,10.8c2.8,2.8,2.8,7.4,0,10.2l-10.8,10.8"/>
<path class="st7" d="M1015.8,351l-10.8-10.8c-2.8-2.8-2.8-7.4,0-10.2l10.8-10.8"/>
<g>
	<path class="st7" d="M818.6,221.5l11.6,11.6c2.4,2.4,2.4,6.2,0,8.6l-11.6,11.6"/>
	<line class="st7" x1="825.7" y1="237.4" x2="772.7" y2="237.4"/>
</g>
<g>
	<path class="st7" d="M1219.1,221.1l11.6,11.6c2.4,2.4,2.4,6.2,0,8.6l-11.6,11.6"/>
	<line class="st7" x1="1226.2" y1="237" x2="1173.2" y2="237"/>
</g>
<g>
	<path class="st7" d="M1186.6,787.9l-11.6-11.6c-2.4-2.4-2.4-6.2,0-8.6l11.6-11.6"/>
	<line class="st7" x1="1179.4" y1="772" x2="1232.4" y2="772"/>
</g>
<g>
	<path class="st7" d="M817.1,787.9l-11.6-11.6c-2.4-2.4-2.4-6.2,0-8.6l11.6-11.6"/>
	<line class="st7" x1="810" y1="772" x2="863" y2="772"/>
</g>
<g>
	<path class="st7" d="M1410.9,566.9l-11.6,11.6c-2.4,2.4-6.2,2.4-8.6,0l-11.6-11.6"/>
	<line class="st7" x1="1395" y1="574" x2="1395" y2="521"/>
</g>
<g>
	<path class="st7" d="M454,221.1l11.6,11.6c2.4,2.4,2.4,6.2,0,8.6L454,252.9"/>
	<line class="st7" x1="461.2" y1="237" x2="408.2" y2="237"/>
</g>
</svg>
